<?xml version="1.0" encoding="utf-8"?>
<!-- Generator: Adobe Illustrator 19.0.0, SVG Export Plug-In . SVG Version: 6.00 Build 0)  -->
<svg version="1.1" id="_x33_416c49e-7809-4f77-9c53-dfa2ddd3cb64"
	 xmlns="http://www.w3.org/2000/svg" xmlns:xlink="http://www.w3.org/1999/xlink" x="0px" y="0px" viewBox="156 117 924 561"
	 style="enable-background:new 156 117 924 561;" xml:space="preserve">
<style type="text/css">
	.st0{opacity:0.1;fill:#6C63FF;enable-background:new    ;}
	.st1{fill:#6C63FF;}
	.st2{fill:url(#SVGID_1_);}
	.st3{fill:#F5F5F5;}
	.st4{fill:url(#SVGID_2_);}
	.st5{fill:url(#SVGID_3_);}
	.st6{fill:url(#SVGID_4_);}
	.st7{fill:#7CFCFF;}
	.st8{fill:url(#SVGID_5_);}
	.st9{fill:#FFFFA5;}
	.st10{fill:url(#SVGID_6_);}
	.st11{fill:#FF69B4;}
	.st12{fill:url(#SVGID_7_);}
	.st13{fill:#FDB797;}
	.st14{fill:#4D8AF0;}
	.st15{opacity:0.1;enable-background:new    ;}
	.st16{fill:#333333;}
	.st17{fill:#3AD29F;}
	.st18{opacity:5.000000e-002;enable-background:new    ;}
	.st19{fill:url(#SVGID_8_);}
	.st20{fill:#BE7C5E;}
	.st21{opacity:0.3;enable-background:new    ;}
	.st22{fill:#E0E0E0;}
	.st23{fill:#F55F44;}
	.st24{opacity:0.1;fill:#333333;enable-background:new    ;}
</style>
<path class="st0" d="M1031,484.8c-32,36.9-21.4,89.6-2.9,131.6c6.2,14.1,13.2,28.9,10,44.2c-3.9,18.7-22.3,32.7-41.5,40.3
	c-34.9,13.9-76.1,11.7-107.4-5.8c-26.9-15.1-45.9-40.2-73.4-54.6c-46-24.1-105.7-13.3-156.8,5.1c-36.2,13-75.9,29.8-111.1,17.7
	c-24.8-8.5-41.5-30-50.3-53c-4.2-11.1-7.2-23.2-15.7-31.9c-5-5.2-11.7-8.8-18.5-11.8c-62.4-27.5-142.6-10.3-203.1-41
	c-40.8-20.7-66.2-60.9-76.8-103.2c-10.6-42.3-7.9-86.9-3.7-130.7c3-31.2,7.7-64.4,30-88.9c23.5-25.9,63-36.2,98.3-32.1
	c35.3,4.1,66.9,20.6,94.6,40.2c34.6,24.6,66.5,55.4,109.5,64.7c29.3,6.3,60.5,1.9,91-0.1c51-3.3,101.7,0.5,152.2,4.8
	c48.3,4.1,97,8.7,142.7,22.2c32.4,9.6,58,27.6,88.5,40c19.9,8.1,41.7,9.9,60.4,20.3c23.1,12.8,43.9,35.5,37.2,62.8
	C1077.6,451.6,1047.9,465.2,1031,484.8z"/>
<title>brainstorming</title>
<path class="st1" d="M918.5,490.5L918.5,490.5c89.2,0,161.5,72.3,161.5,161.5v2.5l0,0H757l0,0V652
	C757,562.8,829.3,490.5,918.5,490.5z"/>
<path class="st1" d="M317.5,490.5L317.5,490.5c89.2,0,161.5,72.3,161.5,161.5v2.5l0,0H156l0,0V652
	C156,562.8,228.3,490.5,317.5,490.5L317.5,490.5z"/>
<linearGradient id="SVGID_1_" gradientUnits="userSpaceOnUse" x1="599.09" y1="539.54" x2="599.09" y2="588.63" gradientTransform="matrix(1 0 0 -1 0 797.92)">
	<stop  offset="0" style="stop-color:#808080;stop-opacity:0.25"/>
	<stop  offset="0.54" style="stop-color:#808080;stop-opacity:0.12"/>
	<stop  offset="1" style="stop-color:#808080;stop-opacity:0.1"/>
</linearGradient>
<rect x="573.7" y="209.3" class="st2" width="50.7" height="49.1"/>
<rect x="574.6" y="210.1" class="st3" width="49" height="47.4"/>
<linearGradient id="SVGID_2_" gradientUnits="userSpaceOnUse" x1="668.33" y1="497.23" x2="668.33" y2="546.32" gradientTransform="matrix(1 0 0 -1 0 797.92)">
	<stop  offset="0" style="stop-color:#808080;stop-opacity:0.25"/>
	<stop  offset="0.54" style="stop-color:#808080;stop-opacity:0.12"/>
	<stop  offset="1" style="stop-color:#808080;stop-opacity:0.1"/>
</linearGradient>
<rect x="643" y="251.6" class="st4" width="50.7" height="49.1"/>
<rect x="643.8" y="252.5" class="st3" width="49" height="47.4"/>
<linearGradient id="SVGID_3_" gradientUnits="userSpaceOnUse" x1="745.27" y1="551.08" x2="745.27" y2="600.17" gradientTransform="matrix(1 0 0 -1 0 797.92)">
	<stop  offset="0" style="stop-color:#808080;stop-opacity:0.25"/>
	<stop  offset="0.54" style="stop-color:#808080;stop-opacity:0.12"/>
	<stop  offset="1" style="stop-color:#808080;stop-opacity:0.1"/>
</linearGradient>
<rect x="719.9" y="197.8" class="st5" width="50.7" height="49.1"/>
<rect x="720.8" y="198.6" class="st3" width="49" height="47.4"/>
<linearGradient id="SVGID_4_" gradientUnits="userSpaceOnUse" x1="667.26" y1="631.66" x2="667.26" y2="680.75" gradientTransform="matrix(1 0 0 -1 0 797.92)">
	<stop  offset="0" style="stop-color:#808080;stop-opacity:0.25"/>
	<stop  offset="0.54" style="stop-color:#808080;stop-opacity:0.12"/>
	<stop  offset="1" style="stop-color:#808080;stop-opacity:0.1"/>
</linearGradient>
<rect x="641.9" y="117.2" class="st6" width="50.7" height="49.1"/>
<rect x="642.8" y="118" class="st7" width="49" height="47.4"/>
<linearGradient id="SVGID_5_" gradientUnits="userSpaceOnUse" x1="590.54" y1="631.87" x2="590.54" y2="680.96" gradientTransform="matrix(1 0 0 -1 0 797.92)">
	<stop  offset="0" style="stop-color:#808080;stop-opacity:0.25"/>
	<stop  offset="0.54" style="stop-color:#808080;stop-opacity:0.12"/>
	<stop  offset="1" style="stop-color:#808080;stop-opacity:0.1"/>
</linearGradient>
<rect x="565.2" y="117" class="st8" width="50.7" height="49.1"/>
<rect x="566.1" y="117.8" class="st9" width="49" height="47.4"/>
<linearGradient id="SVGID_6_" gradientUnits="userSpaceOnUse" x1="521.29" y1="589.55" x2="521.29" y2="638.64" gradientTransform="matrix(1 0 0 -1 0 797.92)">
	<stop  offset="0" style="stop-color:#808080;stop-opacity:0.25"/>
	<stop  offset="0.54" style="stop-color:#808080;stop-opacity:0.12"/>
	<stop  offset="1" style="stop-color:#808080;stop-opacity:0.1"/>
</linearGradient>
<rect x="495.9" y="159.3" class="st10" width="50.7" height="49.1"/>
<rect x="496.8" y="160.1" class="st11" width="49" height="47.4"/>
<linearGradient id="SVGID_7_" gradientUnits="userSpaceOnUse" x1="507.4212" y1="-48.2494" x2="507.4212" y2="472.7805" gradientTransform="matrix(1 0 0 -1 -138 628.4401)">
	<stop  offset="0" style="stop-color:#808080;stop-opacity:0.25"/>
	<stop  offset="0.54" style="stop-color:#808080;stop-opacity:0.12"/>
	<stop  offset="1" style="stop-color:#808080;stop-opacity:0.1"/>
</linearGradient>
<path class="st12" d="M477.2,650.2l-14.2-7.9c-14.9-8.1-18.4-19.6-18.5-28.4c0-1.5,0.1-3,0.3-4.5l19.8-78.4c0,0,22.1-45.8-8.7-59.2
	c-23.7-10.3-80.6-26.3-105.6-33.1c5.6-5.8,9.3-10.3,9.3-10.3l-0.7-1.5l0.7-0.8c0,0-2.9-6.7-6.9-16.6l13.3-11.8c0,0-0.5-0.1-1.3-0.3
	l0.5-0.5c0,0-0.5-0.1-1.4-0.3c9.3-8.1,30.2-27.9,19.6-32.8c-10.2-4.8-29.6,10.6-38.3,18.1c-0.7,0.3-1.6,0.6-2.6,0.9
	c-1.3-3.7-2.6-7.4-3.9-11.1l17.1-26.9c0-0.5,0.1-1,0.1-1.5c5.3-7.4,20.6-31,9.4-39.6c-12.4-9.5-24.7,20.7-26.6,25.4
	c-1.1-0.1-1.8-0.2-1.8-0.2c-1.2,2.5-4.4,4.3-7.2,5.5c0-0.2,0-0.5,0-0.7c0-0.2,0-0.6,0-0.9c0.3-3,0.4-6,0.3-9.1c0-1.8,0-3.6-0.1-5.4
	c-0.3-4.8-0.7-11-0.7-16.4c0-4.9,0.4-8.6,1.4-9.4l-0.8-0.8c0.1-0.6,0.4-1.1,0.8-1.5c0,0-0.8-0.9-2.1-2.3c2.3-6.6,5.8-16.2,9.7-24.5
	l0.8-0.2c0.3-0.6,0.6-1.2,0.9-1.8c19.8-5.1,31.8-25.4,26.6-45.2c-1.9-7.4-6.1-14-11.9-19c0.4-0.2,0.8-0.5,1.2-0.8
	c2-1.9,2.1-5,2.1-7.7c0-6.8,0-13.7-0.1-20.5c0-2.6,0-5.4-1.2-7.8c-0.5-1-1.1-1.8-1.9-2.5c-1.2-1.6-3.2-2.4-5.1-2.2
	c-2.4,0.4-4,2.5-5.7,4.3c-8.7,9.4-22.2,12.9-34.4,8.9c-3-1-5.9-2.5-9-2.9s-6.8,0.8-8,3.7c-1.4,3.2,0.6,7.1-0.5,10.5
	c-2.2,6.5-13.1,5.3-16.3,11.4c-2.7,5.1,1.9,10.7,5,15.5c5.8,9,6.9,20.1,9.9,30.4c1.2,4.2,4.6,13.5,9.3,17.8c0.4,0.5,0.9,0.9,1.4,1.3
	c-0.9,3.4-1.9,6.7-3.2,9.9c-2.6-0.6-5.3-0.3-7.6,0.8c-7.1,4-42.6,22.9-45,72.6c-0.2,3.4-0.2,7-0.2,10.9c-0.2,51.6,16,139.1,16,139.1
	s2.6-2.6,6.8-6.1c6.4,9.3,27,22.7,91.9,24.3l65.5,2.4c0,0,7.1,4.7-2.4,15.8c-6.2,7.3-7,24-6.8,34.7c0.1,7.2-0.6,14.5-2.2,21.5
	c-1.7,7.4-3.8,16.5-5.3,22c-0.8-0.5-1.5-1-2.3-1.6l-9.5,62.4h0.1l-0.1,0.8c0,0,69.5,19.7,90,5.5c5.5-3.8,7.4-7.1,7.2-9.8
	C494.4,653.8,477.2,650.2,477.2,650.2z"/>
<path class="st13" d="M306.3,244.2c0,0-3.8,33.7-16.1,40.6s36.8,14.5,36.8,14.5s13.8-43.7,23-47.5S306.3,244.2,306.3,244.2z"/>
<path class="st13" d="M339.2,332.3c0,0,13-35.2,26-25.3c13,10-10.7,40.6-10.7,40.6L339.2,332.3z"/>
<path class="st14" d="M268,473.2c0,0-5.4,29.9,91.9,32.2l63.6,2.3c0,0,6.9,4.6-2.3,15.3c-6,7-6.8,23.3-6.6,33.7
	c0.1,7-0.6,14-2.2,20.9c-2.4,10.3-5.6,24-6.6,25.9c-1.5,3.1,36,3.1,36,3.1l19.9-78.9c0,0,21.5-44.4-8.4-57.5s-114.2-35.2-114.2-35.2
	L268,473.2z"/>
<path class="st15" d="M430.4,601.2c0,0,10.7-9.6,14.1-5.9c0,0-11.1,25.9,15.7,40.4l13.8,7.7c0,0,29.1,6.1,9.2,19.9
	s-87.3-5.4-87.3-5.4l9.2-60.5C405.1,597.4,418.1,608.1,430.4,601.2z"/>
<path class="st16" d="M430.4,602c0,0,10.7-9.6,14.1-5.9c0,0-11.1,25.9,15.7,40.4l13.8,7.7c0,0,29.1,6.1,9.2,19.9s-87.3-5.4-87.3-5.4
	l9.2-60.5C405.1,598.1,418.1,608.9,430.4,602z"/>
<path class="st17" d="M326.2,338.4c0,0,9.2-2.3,11.5-6.9c0,0,19.9,0.8,18.4,15.3l-19.9,31.4L326.2,338.4z"/>
<path class="st18" d="M326.2,338.4c0,0,9.2-2.3,11.5-6.9c0,0,19.9,0.8,18.4,15.3l-19.9,31.4L326.2,338.4z"/>
<path class="st15" d="M310.9,277.9c0,0-11.5-7.7-18.4-3.8s-41.4,22.2-43.7,70.5c-2.3,48.2,15.3,143.3,15.3,143.3s26-26,46.7-25.3
	s49-34.5,49-34.5s-31-70.7-29.2-92.8c0.4-3.9,0.4-7.8,0.2-11.7c-0.7-9.9-1.5-25.7,0.6-27.3C331.5,296.3,314.7,277.1,310.9,277.9z"/>
<path class="st17" d="M310.9,275.6c0,0-11.5-7.7-18.4-3.8s-41.4,22.2-43.7,70.5c-2.3,48.3,15.3,143.3,15.3,143.3s26-26,46.7-25.3
	s49-34.5,49-34.5s-31-70.7-29.2-92.8c0.4-3.9,0.4-7.8,0.2-11.7c-0.7-9.9-1.5-25.7,0.6-27.3C331.5,294,314.7,274.8,310.9,275.6z"/>
<path class="st13" d="M341.5,386.7c0,0,28.4-27.6,41.4-21.5c13,6.1-23,35.2-23,35.2L341.5,386.7z"/>
<path class="st15" d="M274.1,336.1c0,0,9.2,76.6,14.6,81.2c5.4,4.6,22.2,26,55.9,0l21.4-19.2c0,0-20.7-3.8-17.6-15.3
	c0,0-27.6,11.5-32.2,2.3s6.9-51.3,6.9-51.3s-6.1-37.5-23.8-30.7S274.1,336.1,274.1,336.1z"/>
<path class="st17" d="M273.3,335.3c0,0,9.2,76.6,14.6,81.2c5.4,4.6,22.2,26,55.9,0l21.5-19.2c0,0-20.7-3.8-17.6-15.3
	c0,0-27.6,11.5-32.2,2.3s6.9-51.3,6.9-51.3s-6.1-37.6-23.8-30.7C281,309.3,273.3,335.3,273.3,335.3z"/>
<path class="st15" d="M306.3,245.7c0,0,0.9,1.1-0.4,7.3c6.6,7.5,14.9,15.7,25.7,15.7c2.8,0,5.5-0.3,8.2-0.9
	c3.5-7.2,7.1-13.1,10.2-14.4C359.1,249.5,306.3,245.7,306.3,245.7z"/>
<circle class="st13" cx="331.5" cy="231.1" r="36"/>
<path class="st15" d="M315.5,247.7c0.6-2.8,1.1-6-0.7-8.2c-1-1.3-2.7-2-3.8-3.2c-4.1-4.1-0.5-11.1,3.7-15.1
	c9.6-9.1,21.9-14.9,35-16.4c2.2-0.3,4.6-0.5,6.3-2c2-1.8,2.1-4.8,2.1-7.5l-0.1-19.9c0-2.6,0-5.2-1.1-7.6s-3.5-4.2-6.1-3.8
	c-2.3,0.4-3.9,2.4-5.5,4.2c-8.5,9.2-21.5,12.5-33.4,8.6c-2.9-1-5.7-2.4-8.8-2.8s-6.6,0.8-7.8,3.6c-1.4,3.1,0.6,6.9-0.5,10.2
	c-2.1,6.3-12.7,5.2-15.9,11c-2.6,4.9,1.8,10.4,4.9,15.1c5.6,8.7,6.6,19.5,9.6,29.5c1.5,5.3,6.5,18.6,13.2,19.5
	C314.7,264.1,314.3,253.6,315.5,247.7z"/>
<path class="st16" d="M314.8,246.9c0.6-2.8,1.1-6-0.7-8.2c-1-1.3-2.7-2-3.8-3.2c-4.1-4.1-0.5-11.1,3.7-15.1
	c9.6-9.1,21.9-14.9,35-16.4c2.2-0.3,4.6-0.5,6.3-2c2-1.8,2.1-4.8,2.1-7.5l-0.1-19.9c0-2.6,0-5.2-1.1-7.6s-3.5-4.2-6.1-3.8
	c-2.3,0.4-3.9,2.4-5.5,4.2c-8.5,9.2-21.5,12.5-33.4,8.6c-2.9-1-5.7-2.4-8.8-2.8s-6.6,0.8-7.8,3.6c-1.4,3.1,0.6,6.9-0.5,10.2
	c-2.1,6.3-12.7,5.2-15.9,11c-2.6,4.9,1.8,10.4,4.9,15.1c5.6,8.7,6.6,19.5,9.6,29.5c1.5,5.3,6.5,18.6,13.2,19.5
	C313.9,263.3,313.5,252.8,314.8,246.9z"/>
<rect x="349.5" y="270.9" transform="matrix(-0.9776 0.2105 -0.2105 -0.9776 801.527 503.9023)" class="st7" width="49" height="47.4"/>
<linearGradient id="SVGID_8_" gradientUnits="userSpaceOnUse" x1="982.5584" y1="-49.55" x2="982.5584" y2="460.4101" gradientTransform="matrix(1 0 0 -1 -138 628.4401)">
	<stop  offset="0" style="stop-color:#808080;stop-opacity:0.25"/>
	<stop  offset="0.54" style="stop-color:#808080;stop-opacity:0.12"/>
	<stop  offset="1" style="stop-color:#808080;stop-opacity:0.1"/>
</linearGradient>
<path class="st19" d="M998.4,298.5c-1-4.3-3-8.2-4.4-12.4c-2-6-3-12.3-3-18.6c0-10.3,1.8-20.7,3.5-30.9c1.4-8.5,2.5-17.3,2.4-25.9
	c0-8.9-1.4-17.7-5.4-25.7c-4.4-8.8-12.7-16.3-22.5-17c-9.3-0.6-18,4.9-27.2,6.3s-18.4-1.1-27.6-0.4c-8.8,0.7-17.1,4.2-23.7,10
	c-5,4.5-9.1,10.7-9.1,17.5c0,0.3,0,0.5,0,0.7s0,0.3,0,0.5c-0.1,10.4,7.8,14.1,16.8,15.7c-3,20,10.8,38.7,30.8,41.7
	c0.2,0,0.4,0.1,0.6,0.1c0.4,0.8,0.9,1.6,1.3,2.4c0.1,1.3,0.2,2.6,0.2,3.8c-0.1,7-1.6,13.9-4.4,20.3c-1.9,1.2-3.8,2.1-5.9,2.8
	l-23.2,26.9c-2.3,2.2-4.4,4.7-6.1,7.4c-0.8,0.4-1.5,0.9-2.3,1.3l1.3,0.3l-0.1,0.2l-1.2,0.7l0.8,0.2c-2.6,4.8-4,10.1-3.9,15.6
	c0,5.1,1.2,10.1,3.7,14.6c1.6,3.1,3,6.3,4.1,9.6l-7.8,12.4l-26.3,38.9l-20.2,3.8c-4.5-0.5-9.1-0.5-13.6,0l4.2-7.9
	c0.5-1,0.1-2.2-0.8-2.7s-2.2-0.1-2.7,0.8c0,0,0,0.1-0.1,0.1l-5.5,10.5c-6.3,1.4-12.9,4.3-17.5,10.1c-5,6.3,0,8.4,7.4,8.8l-0.8,1.4
	c-0.3,0.7-0.2,1.5,0.3,2.1c-0.9,0.3-2,0.5-3,0.9h-16.8v8c-4.8,3.4-8.9,7.8-11,13.5c-13.4,11.4-14.5,33.1-14.5,33.1L722,625.5
	c0,0-0.9,1.4-2.3,3.7c-11.8,7.5-35.2,36.8-29,48.9l0,0l25.8-13.1l0.7,0.3l1.9-1.6l52-26.4L759.5,614l-1.6,0.6
	c-0.5-2.3-0.3-4.5,1.5-5.6c2.8-1.8,20.9-36.2,35.5-64.8c5.1,15.3,15.8,50.9,10.8,68.2l-1.9,1.4c-9.1,8.5-25.1,46-15.4,56.3l0,0
	l26.1-24.4l20.1-18.3l0.4-0.8l19.1-18l-17.6-19.1l-2.7,2c-1.6-4.7-4.9-15.3-3.5-19.1s5.1-41.7-0.6-67.6l4.1-0.3
	c14.4,18.8,31.7,35.5,36.8,36.7c0.5,0.1,1,0.1,1.5,0c9.8,1.6,27.8-37.9,27.8-37.9h50.1c44.1-6.3,36.8-41.8,27.9-63.3
	c0.3,0.1,0.5,0.3,0.8,0.4c0,0-0.1-0.5-0.3-1.4l0.3,0.1c-2.7-13.5-4-27.3-4.1-41.1c0-9.6,0.8-19.2,2.6-28.7
	c3.5,6.1,8.9,11.3,15.7,12.1c3.7-22.2,5.9-44.5,6.6-67c0-1.6,0.1-3.2,0.1-4.8C999.5,305.9,999.2,302.2,998.4,298.5z M869.2,437.6
	l2.6-3c12-1.7,24.4-3.6,32.6-5.5c-2.8,3.8-6.5,7-10.6,9.3C887.5,438.1,878.8,437.7,869.2,437.6z M900.1,402.6l-2.8,7.9l-5,1
	L900.1,402.6z M815.1,441.3c4.7-0.2,9.4-0.6,14-1.3l-0.3,0.2c-3.8,0.7-7.5,1.6-11.1,2.9l0,0c0,0-1.5,0.2-4,0.8L815.1,441.3z"/>
<path class="st14" d="M812.1,444.6L812.1,444.6c-1-0.5-1.3-1.6-0.9-2.6c0,0,0,0,0,0l15.8-29.7c0.5-1,1.6-1.3,2.6-0.9c0,0,0,0,0,0
	l0,0c1,0.5,1.3,1.6,0.9,2.6c0,0,0,0,0,0l-15.8,29.7C814.2,444.6,813.1,445,812.1,444.6C812.1,444.6,812.1,444.6,812.1,444.6z"/>
<path class="st20" d="M818.8,442.4c0,0-42.8,6.2-38.1,35.5l13.5,54.6c0,0,20,53.4,12.3,74c0,0-7.6,32.9-15.3,31.7s16.4,5.9,16.4,5.9
	l27-24.7l8.2-18.2c0,0,2.3-5.3-8.2-14.1c0,0-5.9-15.9-4.1-20.5s7-62.1-7.3-81.9L818.8,442.4z"/>
<path class="st15" d="M818.8,442.4c0,0-42.8,6.2-38.1,35.5l13.5,54.6c0,0,20,53.4,12.3,74c0,0-7.6,32.9-15.3,31.7s16.4,5.9,16.4,5.9
	l27-24.7l8.2-18.2c0,0,2.3-5.3-8.2-14.1c0,0-5.9-15.9-4.1-20.5s7-62.1-7.3-81.9L818.8,442.4z"/>
<path class="st3" d="M790.5,660.6l63.1-59.2L836.7,583l-31.4,23.5C796.5,614.7,781.1,650.7,790.5,660.6L790.5,660.6z"/>
<path class="st16" d="M901.2,438.6c0,0-63.4-5.9-85.7,5.3c0,0-1.8,9.4,7.6,20.6S901.2,438.6,901.2,438.6z"/>
<path class="st21" d="M901.2,438.6c0,0-63.4-5.9-85.7,5.3c0,0-1.8,9.4,7.6,20.6S901.2,438.6,901.2,438.6z"/>
<rect x="792.5" y="444.9" class="st22" width="61.1" height="8.5"/>
<path class="st20" d="M831.3,456.2c0,0-34.1-2.3-48.2,8.2s-15.3,32.9-15.3,32.9l-41.1,120.4c0,0-12.8,19.1-14.7,30.5
	c-0.6,3.5,10,7.6,10,7.6l35.8-30l7-10c0,0-7-11.2-2.3-14.1s52.8-99.3,52.8-99.3l61.7-4.1L831.3,456.2z"/>
<path class="st15" d="M963.4,423.3c0,0,42.9,68.1-18.8,76.9h-48.2c0,0-17.6,38.8-27,36.4s-62.8-59.9-54.6-80.5l75.8-17.6
	c0,0,14.1-6.5,15.3-19.4L963.4,423.3z"/>
<path class="st16" d="M964.6,423.3c0,0,42.9,68.2-18.8,76.9h-48.1c0,0-17.6,38.8-27,36.4s-62.9-59.9-54.7-80.5l75.8-17.6
	c0,0,14.1-6.5,15.3-19.4L964.6,423.3z"/>
<path class="st3" d="M696.6,668.2l77.2-39.2l-11.1-22.4L726,620.4C715.3,625.8,690.5,656,696.6,668.2L696.6,668.2z"/>
<path class="st20" d="M898.8,357l-14.7,23.5l-35.2,52.3c0,0-28.8,1.2-25.3,24.1s37.6-11.8,37.6-11.8l57-64.6L898.8,357z"/>
<path class="st15" d="M898.8,357l-14.7,23.5l-35.2,52.3c0,0-28.8,1.2-25.3,24.1s37.6-11.8,37.6-11.8l57-64.6L898.8,357z"/>
<circle class="st20" cx="930.8" cy="231.6" r="35.2"/>
<path class="st20" d="M913.5,250.1c0,0,31.1,28.2,13.5,57s43.5-19.4,43.5-19.4s-21.1-35.3-16.5-56.4L913.5,250.1z"/>
<path class="st15" d="M937,279.5c0,0-8.2,12.9-19.4,16.4l-22.3,25.8c0,0-18.8,16.4-7.6,37.6s17.6,73.4,17.6,73.4s55.2,0,68.1,7
	c0,0-11.2-51.1,4.1-86.9s-11.8-85.2-11.8-85.2L937,279.5z"/>
<path class="st23" d="M937,278.3c0,0-8.2,12.9-19.4,16.4l-22.3,25.8c0,0-18.8,16.4-7.6,37.6s17.6,73.4,17.6,73.4s55.2,0,68.1,7
	c0,0-11.2-51.1,4.1-86.9s-11.7-85.1-11.7-85.1L937,278.3z"/>
<path class="st20" d="M959.9,337c0,0-40.5,84-49.3,89.3s-75.8,12.3-75.8,12.3s-41.1,7.6-30-6.5c11.1-14.1,34.7-10.6,34.7-10.6
	l55.8-10.6l32.3-91L959.9,337z"/>
<path class="st15" d="M941.7,297.1c0,0-32.3,19.4-25.8,37c0,0,37-5.3,49.9,19.4c0,0,20.5-22.9,4.7-47.6
	C970.5,305.9,961.7,290,941.7,297.1z"/>
<path class="st23" d="M941.7,295.9c0,0-32.3,19.4-25.8,37c0,0,37-5.3,49.9,19.4c0,0,20.5-22.9,4.7-47.6
	C970.5,304.7,961.7,288.8,941.7,295.9z"/>
<path class="st24" d="M914.9,227.9c2.2-0.1,4,1.6,4.1,3.7c0,0,0,0.1,0,0.1l4.4,16.9c2.1,8,4.2,16.1,4.2,24.4
	c0,24.5-18.7,45.6-40.4,57l22.2,5.8c2.2,0.7,4.5,1,6.7,0.8c1.9-0.4,3.7-1.1,5.3-2.2c9.4-5.8,16.2-15.2,20.7-25.3
	c4.5-10.1,6.8-21,9.2-31.8c7.3,13,11.8,27.4,13.2,42.2c1.5,16.1-0.6,33.1,5.6,48c3.1,7.4,9,14.5,17,15.5c3.6-21.3,5.7-42.8,6.3-64.4
	c0.2-4.8,0.2-9.6-0.9-14.3c-1-4.1-2.9-7.9-4.3-11.9c-5.3-15.5-2.2-32.5,0.4-48.8s4.5-33.7-2.9-48.4c-4.3-8.5-12.2-15.7-21.7-16.3
	c-9-0.6-17.3,4.7-26.2,6.1s-17.7-1-26.6-0.4c-8.5,0.7-16.5,4.1-22.8,9.7c-4.9,4.3-8.7,10.3-8.8,16.8
	C879.6,228.8,903.1,226.6,914.9,227.9z"/>
<path class="st16" d="M914.9,226.8c2.2-0.1,4,1.6,4.1,3.7c0,0,0,0.1,0,0.1l4.4,16.9c2.1,8,4.2,16.1,4.2,24.4
	c0,24.5-18.7,45.6-40.4,57l22.2,5.8c2.2,0.7,4.5,1,6.7,0.8c1.9-0.4,3.7-1.1,5.3-2.2c9.4-5.8,16.2-15.2,20.7-25.3
	c4.5-10.1,6.8-21,9.2-31.8c7.3,13,11.8,27.4,13.2,42.3c1.5,16.1-0.6,33.1,5.6,48c3.1,7.4,9,14.5,17,15.5c3.6-21.3,5.7-42.8,6.3-64.4
	c0.2-4.8,0.2-9.6-0.9-14.3c-1-4.1-2.9-7.9-4.3-11.9c-5.3-15.5-2.2-32.5,0.4-48.8s4.5-33.7-2.9-48.4c-4.3-8.5-12.2-15.7-21.7-16.3
	c-9-0.6-17.3,4.7-26.2,6.1s-17.7-1-26.6-0.4c-8.4,0.6-16.4,4-22.8,9.6c-4.9,4.3-8.7,10.3-8.8,16.8
	C879.6,227.6,903.1,225.4,914.9,226.8z"/>
</svg>
