<?xml version="1.0" encoding="utf-8"?>
<!-- Generator: Adobe Illustrator 19.0.0, SVG Export Plug-In . SVG Version: 6.00 Build 0)  -->
<svg version="1.1" id="_x34_8db8ff6-3ea3-48c3-8611-92065ab20915"
	 xmlns="http://www.w3.org/2000/svg" xmlns:xlink="http://www.w3.org/1999/xlink" x="0px" y="0px" viewBox="234.1 26 1154.9 742"
	 style="enable-background:new 234.1 26 1154.9 742;" xml:space="preserve">
<style type="text/css">
	.st0{opacity:0.1;fill:#491A3C;enable-background:new    ;}
	.st1{fill:#FFFFFF;}
	.st2{opacity:0.7;}
	.st3{fill:url(#SVGID_1_);}
	.st4{fill:#BDBDBD;}
	.st5{opacity:0.1;}
	.st6{fill:#535461;}
	.st7{opacity:0.5;}
	.st8{fill:url(#SVGID_2_);}
	.st9{fill:#491A3C;}
	.st10{fill:#E0E0E0;}
	.st11{fill:none;stroke:#491A3C;stroke-width:2;stroke-miterlimit:10;}
	.st12{fill:none;stroke:#FFFFFF;stroke-miterlimit:10;}
	.st13{fill:url(#SVGID_3_);}
	.st14{opacity:0.6;fill:none;stroke:#535461;stroke-width:3;stroke-miterlimit:10;enable-background:new    ;}
	.st15{fill:#4DB6AC;}
	.st16{opacity:0.3;fill:none;stroke:#535461;stroke-miterlimit:10;enable-background:new    ;}
	.st17{opacity:0.1;enable-background:new    ;}
	.st18{fill:url(#SVGID_4_);}
	.st19{fill:#3AD29F;}
	.st20{fill:#4D8AF0;}
	.st21{fill:#F55F44;}
</style>
<path class="st0" d="M279.7,500.9c-12,2-27.1,7.5-26.9,20.5c0.1,6.6,4.4,12.2,8.7,17c18.1,20.6,38.7,38.8,61.3,54.2
	c10.8,7.3,22.4,14.3,29.6,25.7s9,25.8,9.6,39.5c1.4,32.5-2.4,65-11.3,96.3c35.2,6.7,74.5,12.6,103.9-8.6
	c17.6-12.7,29.5-34,49.1-42.8c13.1-5.9,27.9-5.4,42.2-4.6c67.5,3.6,134.8,10.2,202,20c28.1,4.1,56.8,8.7,84.6,3.4
	s55.2-22.6,65.5-50.6c1.6-4.3,3-9.1,6.5-11.7c3.2-2.3,7.4-2.3,11.3-2.1l235.1,8.1c12.9,0.4,26.2,0.8,38-4.5
	c11.4-5.1,20.2-15,28.7-24.7c19.3-22.1,40.2-49.2,34.5-79.1c-4.6-24-24.9-40.8-45.1-52.5s-42.4-21.3-57.2-40.1
	c-22.6-28.6-21.7-69.5-23.1-106.5c-1.3-33.6-5.4-67-12.3-99.8c-6.1-28.9-14.6-57.8-30.5-82.2s-40.2-43.9-67.8-47.5
	c-35.9-4.7-72.1,17.7-107.2,8.2c-29.7-8-50.1-36.4-74.8-56.1c-43.7-35-101.1-42.3-155.3-43c-57.5-0.7-116.5,5.1-167.8,32.1
	c-11.7,6.2-23.2,13.7-31.4,24.6C467,110.5,464,133,455.8,152.6c-32.8,78.8-139.7,95.8-174.4,173.8c-12.3,27.7-12.2,59.9-3.2,89
	c9.6,31.3,36.8,48.5,47.6,75.8C314.3,498.7,293.7,498.6,279.7,500.9z"/>
<title>organize photos</title>
<circle class="st1" cx="1025" cy="72.9" r="2.9"/>
<path class="st1" d="M1009.7,75.7h-61c-0.6,0-1-0.4-1-1V71c0-0.6,0.4-1,1-1h61c0.6,0,1,0.4,1,1v3.7
	C1010.7,75.3,1010.3,75.7,1009.7,75.7z"/>
<title>responsive</title>
<g class="st2">
	
		<linearGradient id="SVGID_1_" gradientUnits="userSpaceOnUse" x1="1005.08" y1="833.2599" x2="1005.08" y2="364.26" gradientTransform="matrix(1 0 0 1 -114.28 -197.1599)">
		<stop  offset="0" style="stop-color:#808080;stop-opacity:0.25"/>
		<stop  offset="0.54" style="stop-color:#808080;stop-opacity:0.12"/>
		<stop  offset="1" style="stop-color:#808080;stop-opacity:0.1"/>
	</linearGradient>
	<path class="st3" d="M1144,167.1H637.6c-9,0-16.3,7.4-16.3,16.4V532c0,9,7.3,16.4,16.3,16.4h174.2v60.2h-7.9
		c-4.6,0-8.3,3.7-8.3,8.3l0,0V629h16.2v7.1h158.1V629H986v-12.1c0-4.6-3.7-8.3-8.3-8.3l0,0h-7.5v-0.5h-0.5v-59.6H1144
		c9,0,16.3-7.4,16.3-16.4V183.5C1160.3,174.5,1153,167.1,1144,167.1z"/>
</g>
<rect x="813.3" y="538.1" class="st4" width="156" height="92"/>
<g class="st5">
	<path d="M816.3,547.1h150.2c1.8-7.9,3.3-13,3.3-13h-157C812.8,534.1,814.4,539.2,816.3,547.1z"/>
</g>
<path class="st6" d="M641.4,170.1h499.8c8.9,0,16.1,7.2,16.1,16.1v307.9l0,0h-532l0,0V186.2C625.3,177.3,632.5,170.1,641.4,170.1
	L641.4,170.1z"/>
<path class="st4" d="M1141.2,544.1H641.4c-8.9,0-16.1-7.2-16.1-16.1v-33.9h532V528C1157.3,536.9,1150.1,544.1,1141.2,544.1z"/>
<circle class="st6" cx="891.3" cy="519.1" r="9"/>
<path class="st4" d="M805.4,603.1h171.7c4.5,0,8.2,3.7,8.2,8.2v11.8l0,0h-188l0,0v-11.8C797.3,606.7,800.9,603.1,805.4,603.1
	L805.4,603.1z"/>
<g class="st7">
	
		<linearGradient id="SVGID_2_" gradientUnits="userSpaceOnUse" x1="891.3" y1="424.16" x2="891.3" y2="236.36" gradientTransform="matrix(1 0 0 1 0 1.8401)">
		<stop  offset="0" style="stop-color:#808080;stop-opacity:0.25"/>
		<stop  offset="0.54" style="stop-color:#808080;stop-opacity:0.12"/>
		<stop  offset="1" style="stop-color:#808080;stop-opacity:0.1"/>
	</linearGradient>
	<path class="st8" d="M730.8,238.2h321c2.5,0,4.5,2,4.5,4.5v178.8c0,2.5-2,4.5-4.5,4.5h-321c-2.5,0-4.5-2-4.5-4.5V242.7
		C726.3,240.2,728.3,238.2,730.8,238.2z"/>
</g>
<path class="st1" d="M735,239.6h312.5c2.5,0,4.5,2,4.5,4.5v175c0,2.5-2,4.5-4.5,4.5H735c-2.5,0-4.5-2-4.5-4.5v-175
	C730.5,241.6,732.5,239.6,735,239.6z"/>
<g class="st7">
	<path class="st9" d="M824.6,266H851c2.5,0,4.5,2,4.5,4.5v22.9c0,2.5-2,4.5-4.5,4.5h-26.4c-2.5,0-4.5-2-4.5-4.5v-22.9
		C820.1,268,822.1,266,824.6,266z"/>
</g>
<path class="st10" d="M867.9,266h92.2c1,0,1.8,0.8,1.8,1.8l0,0c0,1-0.8,1.8-1.8,1.8h-92.2c-1,0-1.8-0.8-1.8-1.8l0,0
	C866.1,266.8,866.9,266,867.9,266z"/>
<path class="st10" d="M867.9,276.6h76c1,0,1.8,0.8,1.8,1.8l0,0c0,1-0.8,1.8-1.8,1.8h-76c-1,0-1.8-0.8-1.8-1.8l0,0
	C866.1,277.4,866.9,276.6,867.9,276.6z"/>
<g class="st7">
	<path class="st9" d="M824.6,315.6H851c2.5,0,4.5,2,4.5,4.5V343c0,2.5-2,4.5-4.5,4.5h-26.4c-2.5,0-4.5-2-4.5-4.5v-22.9
		C820.1,317.6,822.1,315.6,824.6,315.6z"/>
</g>
<path class="st10" d="M867.9,315.6h92.2c1,0,1.8,0.8,1.8,1.8l0,0c0,1-0.8,1.8-1.8,1.8h-92.2c-1,0-1.8-0.8-1.8-1.8l0,0
	C866.1,316.4,866.9,315.6,867.9,315.6z"/>
<path class="st10" d="M867.9,326.2h92.2c1,0,1.8,0.8,1.8,1.8l0,0c0,1-0.8,1.8-1.8,1.8h-92.2c-1,0-1.8-0.8-1.8-1.8l0,0
	C866.1,327,866.9,326.2,867.9,326.2z"/>
<g class="st7">
	<path class="st9" d="M824.6,365.2H851c2.5,0,4.5,2,4.5,4.5v22.9c0,2.5-2,4.5-4.5,4.5h-26.4c-2.5,0-4.5-2-4.5-4.5v-22.9
		C820.1,367.2,822.1,365.2,824.6,365.2z"/>
</g>
<path class="st10" d="M867.9,365.2h92.2c1,0,1.8,0.8,1.8,1.8l0,0c0,1-0.8,1.8-1.8,1.8h-92.2c-1,0-1.8-0.8-1.8-1.8l0,0
	C866.1,366,866.9,365.2,867.9,365.2z"/>
<path class="st10" d="M867.7,375.9h93.2c0.9,0,1.6,0.7,1.6,1.6v0.4c0,0.9-0.7,1.6-1.6,1.6h-93.2c-0.9,0-1.6-0.7-1.6-1.6v-0.4
	C866.1,376.6,866.8,375.9,867.7,375.9z"/>
<line class="st11" x1="891.3" y1="209.1" x2="891.3" y2="187.1"/>
<line class="st11" x1="891.3" y1="246.1" x2="891.3" y2="217.2"/>
<circle class="st9" cx="891.3" cy="246.1" r="4"/>
<circle class="st12" cx="891.3" cy="213.1" r="4"/>
<line class="st11" x1="891.3" y1="209.1" x2="891.3" y2="187.1"/>
<line class="st11" x1="891.3" y1="246.1" x2="891.3" y2="217.2"/>
<circle class="st9" cx="891.3" cy="246.1" r="4"/>
<circle class="st12" cx="891.3" cy="213.1" r="4"/>
<line class="st11" x1="891.3" y1="446.1" x2="891.3" y2="477.1"/>
<line class="st11" x1="891.3" y1="418.1" x2="891.3" y2="446.9"/>
<circle class="st9" cx="891.3" cy="418.1" r="4"/>
<line class="st11" x1="711.3" y1="335.6" x2="679.8" y2="335.6"/>
<line class="st11" x1="738.8" y1="335.6" x2="709.9" y2="335.6"/>
<circle class="st9" cx="738.8" cy="335.6" r="4"/>
<g class="st5">
	<rect x="813.8" y="602.6" width="156" height="3"/>
</g>
<g class="st2">
	
		<linearGradient id="SVGID_3_" gradientUnits="userSpaceOnUse" x1="537.5419" y1="680.4861" x2="708.53" y2="680.4861" gradientTransform="matrix(1 0 0 1 -114.28 -197.1599)">
		<stop  offset="0" style="stop-color:#808080;stop-opacity:0.25"/>
		<stop  offset="0.54" style="stop-color:#808080;stop-opacity:0.12"/>
		<stop  offset="1" style="stop-color:#808080;stop-opacity:0.1"/>
	</linearGradient>
	<path class="st13" d="M584.7,534.1h-72.4l1-8.1c20.5-18.4,33.7-67.3,33.7-67.3c-0.3,0-0.6,0.1-0.9,0.2c-12,2.4-20.5,7.4-26.5,13.3
		l2.5-21.7c37.8-8.1,52.8-58.1,52.8-58.1c-24.1,5.4-39.2,13.6-48.5,21.5l3.7-31.8c25.6,8.8,52-37.8,52-37.8l-1-0.2l0.5-0.3l-0.8,0.3
		c-28.3-6.1-43.4,10.1-48.3,16.8l0.4-3.1c-0.7,2-1.5,4-2.2,5.9l0,0v0.1c-2,5.4-3.8,10.8-5.5,16.1l0,0l0,0c-1.4,4.5-2.8,9-4.1,13.4
		v-0.1c0,0-1.2-28.5-31.2-36c0,0,3.1,62.1,26.9,51.9l0,0c-2.2,9-4,17.7-5.6,26.1l0,0c-1,5.5-1.9,10.8-2.6,16l-0.1,0.2l0.1-0.1
		l-0.1,0.4l0,0l0,0c-0.7,4.7-1.2,9.3-1.7,13.8c0.5-8.6-1.1-33.5-30.4-56.9c0,0-39,68.5,27.5,82c0.1,0.1,0.3,0.3,0.4,0.4l-0.1-0.3
		l0.6,0.1l0.3-3.5c-0.8,14.7-0.7,29.4,0.2,44.1l0,0c0.1,1,0.1,2,0.2,3h-73.2c-27.9,57.8,15.5,89.5,15.5,89.5h120
		C614.8,564.7,584.7,534.1,584.7,534.1z M506.7,468.5L506.7,468.5L506.7,468.5z"/>
</g>
<path class="st14" d="M508.3,556.1c0,0-19-83,23-190"/>
<path class="st9" d="M434.3,531.1h147c0,0,29,37-16,92h-116C449.3,623.1,407.3,585.1,434.3,531.1z"/>
<path class="st15" d="M529.2,371.6c0,0,14.6-26,49.6-18c0,0-28.9,49.3-55,33.1L529.2,371.6z"/>
<path class="st15" d="M519.9,399.2c0,0-1.1-26.6-30.1-33.6c0,0,3,58,26,48.5L519.9,399.2z"/>
<path class="st15" d="M510.4,438.4c0,0,5.4-27.9,61.4-39.9c0,0-17.9,57.6-63.9,55.3L510.4,438.4z"/>
<path class="st15" d="M505.9,469.7c0,0,5.9-29.1-29.1-56.1c0,0-38,64.7,27.5,76.8L505.9,469.7z"/>
<path class="st15" d="M504.8,509.7c0,0-4.1-41.2,39.9-49.2c0,0-16.1,57.5-40,67.7L504.8,509.7z"/>
<path class="st16" d="M524.3,387.1c0,0,38-29,54-34"/>
<path class="st16" d="M507.8,453.6c0,0,46-49,64-55"/>
<path class="st16" d="M489.8,365.6c0,0,28,38,26,48"/>
<path class="st16" d="M476.8,413.6c0,0,15,68,27,77"/>
<path class="st16" d="M504.8,528.6c0,0,24-66,40-68"/>
<g class="st5">
	<path d="M581.3,531.1h-147c-0.3,0.7-0.6,1.3-1,2h143c0,0,28.3,36.1-14.4,90h3.4C610.3,568.1,581.3,531.1,581.3,531.1z"/>
</g>
<rect x="405.5" y="622.7" class="st10" width="971.4" height="32.9"/>
<rect x="446.7" y="655.6" class="st10" width="889.1" height="13.5"/>
<rect x="446.7" y="655.6" class="st17" width="889.1" height="4.5"/>
<line class="st11" x1="1095.8" y1="335.6" x2="1101.8" y2="335.6"/>
<line class="st11" x1="1042.8" y1="335.6" x2="1087.6" y2="335.6"/>
<circle class="st9" cx="1042.8" cy="335.6" r="4"/>
<circle class="st12" cx="1091.8" cy="335.6" r="4"/>
<g class="st2">
	
		<linearGradient id="SVGID_4_" gradientUnits="userSpaceOnUse" x1="1338.54" y1="733.6099" x2="1436.4401" y2="733.6099" gradientTransform="matrix(1 0 0 1 -114.28 -197.1599)">
		<stop  offset="0" style="stop-color:#808080;stop-opacity:0.25"/>
		<stop  offset="0.54" style="stop-color:#808080;stop-opacity:0.12"/>
		<stop  offset="1" style="stop-color:#808080;stop-opacity:0.1"/>
	</linearGradient>
	<path class="st18" d="M1318.3,612l0.1-0.2c0.2-0.3,0.4-0.7,0.6-1l0.1-0.2c0.2-0.3,0.4-0.7,0.6-1l0.1-0.2c0.2-0.4,0.4-0.8,0.6-1.2
		l0,0c0.4-0.8,0.7-1.7,0.9-2.5l0.1-0.3c0.1-0.3,0.2-0.6,0.3-0.9l0.1-0.4c0.1-0.3,0.1-0.6,0.2-0.8c0-0.2,0.1-0.3,0.1-0.5
		s0.1-0.6,0.1-0.8c0-0.3,0-0.3,0.1-0.5s0.1-0.6,0.1-0.9c0-0.1,0-0.3,0-0.4c0-0.4,0-0.9,0-1.4v-82.6h-13.8v-40.5h-17v40.5h-11.7
		v-58.1h-17v58.1h-6.4v-66.5h-17v66.5h-15v82.6c0,13.5,11.2,24.4,25,24.4h48c8,0,15.5-3.7,20.2-10.1l0,0
		C1317.7,612.7,1318,612.3,1318.3,612z"/>
</g>
<rect x="1241.3" y="488.1" class="st6" width="16" height="100"/>
<rect x="1241.3" y="455.1" class="st19" width="16" height="33"/>
<rect x="1263.3" y="496.1" class="st6" width="16" height="100"/>
<rect x="1263.3" y="463.1" class="st20" width="16" height="33"/>
<rect x="1290.3" y="513.1" class="st6" width="16" height="100"/>
<rect x="1290.3" y="480.1" class="st21" width="16" height="33"/>
<path class="st9" d="M1227.3,519.1h92l0,0v79.5c0,13-10.5,23.5-23.5,23.5h-45c-13,0-23.5-10.5-23.5-23.5V519.1L1227.3,519.1z"/>
<g class="st5">
	<path d="M1227.3,519.1v4h88v79.5c0,5.3-1.8,10.4-5,14.5c5.7-4.4,9-11.3,9-18.5v-79.5L1227.3,519.1L1227.3,519.1z"/>
</g>
</svg>
