<?xml version="1.0" encoding="utf-8"?>
<!-- Generator: Adobe Illustrator 19.0.0, SVG Export Plug-In . SVG Version: 6.00 Build 0)  -->
<svg version="1.1" id="Layer_1" xmlns="http://www.w3.org/2000/svg" xmlns:xlink="http://www.w3.org/1999/xlink" x="0px" y="0px"
	 viewBox="-70 162 470 470" style="enable-background:new -70 162 470 470;" xml:space="preserve">
<style type="text/css">
	.st0{opacity:0.3;fill:#2870DB;}
	.st1{fill:#2870DB;}
</style>
<circle class="st0" cx="87.2" cy="472.9" r="143.5"/>
<g>
	<path class="st1" d="M138.5,537.1V431.7c0-3.6-2.9-6.6-6.6-6.6H88.1c-3.6,0-6.6,2.9-6.6,6.6s2.9,6.6,6.6,6.6h37.3v98.8
		c-12.5,3-21.9,14.3-21.9,27.7c0,15.7,12.8,28.5,28.5,28.5s28.5-12.8,28.5-28.5C160.5,551.4,151.1,540.1,138.5,537.1z M132,580.1
		c-8.5,0-15.3-6.9-15.3-15.3c0-8.5,6.9-15.3,15.3-15.3c8.5,0,15.3,6.9,15.3,15.3C147.3,573.3,140.4,580.1,132,580.1z"/>
	<path d="M208.7,537.1V431.7c0-3.6-2.9-6.6-6.6-6.6h-43.8c-3.6,0-6.6,2.9-6.6,6.6s2.9,6.6,6.6,6.6h37.3v98.8
		c-12.5,3-21.9,14.3-21.9,27.7c0,15.7,12.8,28.5,28.5,28.5s28.5-12.8,28.5-28.5C230.6,551.4,221.2,540.1,208.7,537.1z M202.1,580.1
		c-8.5,0-15.3-6.9-15.3-15.3c0-8.5,6.9-15.3,15.3-15.3s15.3,6.9,15.3,15.3C217.4,573.3,210.6,580.1,202.1,580.1z"/>
	<path d="M320.4,492.5c-13.4,0-24.7,9.4-27.7,21.9h-13.9v-82.7c0-3.6-2.9-6.6-6.6-6.6h-43.8c-3.6,0-6.6,2.9-6.6,6.6s2.9,6.6,6.6,6.6
		h37.3V521c0,3.6,2.9,6.6,6.6,6.6h20.5c3,12.5,14.3,21.9,27.7,21.9c15.7,0,28.5-12.8,28.5-28.5C348.9,505.3,336.1,492.5,320.4,492.5
		z M320.4,536.3c-8.5,0-15.3-6.9-15.3-15.3s6.9-15.3,15.3-15.3s15.3,6.9,15.3,15.3S328.9,536.3,320.4,536.3z"/>
	<path d="M357.4,322.9c-8.9-11-20.9-19.2-34.3-23.3c-1.5-31.1-14.4-60.2-36.7-82.2c-23.5-23.3-54.6-36.1-87.6-36.1
		c-43.4,0-83.5,22.6-106.1,59.4c-5.5-1.7-11.2-2.6-17-2.6c-26.9,0-50,19-55.5,44.8c-34.5,8.9-59.1,40.4-59.1,76.4
		c0,43.5,35.4,79,79,79h15.3v76.1H41.3c-3-12.5-14.3-21.9-27.7-21.9c-15.7,0-28.5,12.8-28.5,28.5c0,15.7,12.8,28.5,28.5,28.5
		c13.4,0,24.7-9.4,27.7-21.9h20.5c3.6,0,6.6-2.9,6.6-6.6v-89.3c0-3.6-2.9-6.6-6.6-6.6H40c-36.3,0-65.8-29.5-65.8-65.8
		c0-31.3,22.3-58.5,52.9-64.5c2.8-0.5,4.9-2.8,5.2-5.6c2.8-21.6,21.4-37.9,43.3-37.9c6,0,11.8,1.2,17.3,3.6c3.1,1.3,6.7,0.1,8.4-2.9
		c19.6-35.5,57-57.5,97.5-57.5c60.8,0,110.8,49.5,111.3,110.3c0,3,2.1,5.7,5.1,6.3c26.3,6.1,44.7,29.2,44.7,56.3
		c0,31.9-25.9,57.8-57.8,57.8h-3.6c-3.6,0-6.6,2.9-6.6,6.6s2.9,6.6,6.6,6.6h3.6c39.1,0,70.9-31.8,70.9-70.9
		C373,351.2,367.5,335.4,357.4,322.9z M13.6,536.3c-8.5,0-15.3-6.9-15.3-15.3s6.9-15.3,15.3-15.3S29,512.5,29,521
		S22.1,536.3,13.6,536.3z"/>
	<path class="st1" d="M281.6,311.6L281.6,311.6c3.7,0,6.6-3,6.6-6.6c-0.1-10.8-2.1-21.4-6.1-31.5c-1.3-3.4-5.1-5.1-8.5-3.7
		c-3.4,1.3-5.1,5.1-3.7,8.5c3.4,8.6,5.1,17.6,5.2,26.8C275.1,308.6,278,311.6,281.6,311.6L281.6,311.6z"/>
	<path class="st1" d="M257.6,257.3c1.3,1.6,3.2,2.4,5.1,2.4c1.5,0,3-0.5,4.2-1.5c2.8-2.3,3.2-6.5,0.9-9.3
		c-17.1-20.7-42.2-32.6-68.9-32.6c-3.6,0-6.6,2.9-6.6,6.6s2.9,6.6,6.6,6.6C221.5,229.5,243,239.6,257.6,257.3L257.6,257.3z"/>
</g>
</svg>
