<?xml version="1.0" encoding="utf-8"?>
<!-- Generator: Adobe Illustrator 19.0.0, SVG Export Plug-In . SVG Version: 6.00 Build 0)  -->
<svg version="1.1" id="Capa_1" xmlns="http://www.w3.org/2000/svg" xmlns:xlink="http://www.w3.org/1999/xlink" x="0px" y="0px"
	 viewBox="-49 141 512 512" style="enable-background:new -49 141 512 512;" xml:space="preserve">
<style type="text/css">
	.st0{fill:#2870DB;}
	.st1{opacity:0.3;fill:#2870DB;}
</style>
<g>
	<g>
		<path d="M269.1,511.1H82.5v-35.6c0-4.2-3.4-7.6-7.6-7.6c-4.2,0-7.6,3.4-7.6,7.6v37.4c0,7.4,6,13.3,13.3,13.3H126v47.6
			c0,0.7-0.6,1.3-1.3,1.3H86.9v-7.5c0-9.2-7.5-16.7-16.7-16.7H40c-9.2,0-16.7,7.5-16.7,16.7v30.2c0,9.2,7.5,16.7,16.7,16.7h30.2
			c9.2,0,16.7-7.5,16.7-16.7v-7.5h37.8c9.1,0,16.4-7.4,16.4-16.4v-47.6h84.2V578h-7.5c-9.2,0-16.7,7.5-16.7,16.7v30.2
			c0,9.2,7.5,16.7,16.7,16.7h30.2c9.2,0,16.7-7.5,16.7-16.7v-30.2c0-9.2-7.5-16.7-16.7-16.7h-7.5v-51.8h28.5c4.2,0,7.6-3.4,7.6-7.6
			C276.6,514.5,273.2,511.1,269.1,511.1z M71.8,597.8c0,0.9-0.7,1.6-1.6,1.6H40c-0.9,0-1.6-0.7-1.6-1.6v-30.2c0-0.9,0.7-1.6,1.6-1.6
			h30.2c0.9,0,1.6,0.7,1.6,1.6C71.8,567.7,71.8,597.8,71.8,597.8z M248.1,593.2c0.9,0,1.6,0.7,1.6,1.6v30.2c0,0.9-0.7,1.6-1.6,1.6
			h-30.2c-0.9,0-1.6-0.7-1.6-1.6v-30.2c0-0.9,0.7-1.6,1.6-1.6H248.1z"/>
	</g>
</g>
<g>
	<g>
		<path class="st0" d="M264.6,274.6H125.3c-3.8,0-6.9,3.1-6.9,6.9c0,3.8,3.1,6.9,6.9,6.9h139.3c3.8,0,6.9-3.1,6.9-6.9
			C271.5,277.7,268.4,274.6,264.6,274.6z"/>
	</g>
</g>
<circle class="st1" cx="100.7" cy="505.1" r="144.2"/>
<g>
	<g>
		<path d="M293.9,273.4c-3.8,0-6.9,3.1-6.9,6.9v0.8c0,3.8,3.1,6.9,6.9,6.9c3.8,0,6.9-3.1,6.9-6.9v-0.8
			C300.8,276.5,297.7,273.4,293.9,273.4z"/>
	</g>
</g>
<g>
	<g>
		<path class="st0" d="M315.1,273.4c-3.8,0-6.9,3.1-6.9,6.9v0.8c0,3.8,3.1,6.9,6.9,6.9s6.9-3.1,6.9-6.9v-0.8
			C322,276.5,318.9,273.4,315.1,273.4z"/>
	</g>
</g>
<g>
	<g>
		<path d="M336.4,273.4c-3.8,0-6.9,3.1-6.9,6.9v0.8c0,3.8,3.1,6.9,6.9,6.9c3.8,0,6.9-3.1,6.9-6.9v-0.8
			C343.3,276.5,340.2,273.4,336.4,273.4z"/>
	</g>
</g>
<g>
	<g>
		<path d="M406.9,171.4h-27.5c-8.4,0-15.3,6.8-15.3,15.3v6.9h-34.5c-8.3,0-15,6.7-15,15V252h-76.9v-47.3h6.9
			c8.4,0,15.3-6.8,15.3-15.3v-27.5c0-8.4-6.8-15.3-15.3-15.3H217c-8.4,0-15.3,6.8-15.3,15.3v27.5c0,8.4,6.8,15.3,15.3,15.3h6.9V252
			H147v-43.5c0-8.3-6.7-15-15-15H97.5v-6.9c0-8.4-6.8-15.3-15.3-15.3H54.7c-8.4,0-15.3,6.8-15.3,15.3v27.5c0,8.4,6.8,15.3,15.3,15.3
			h27.5c8.4,0,15.3-6.8,15.3-15.3v-6.9H132c0.6,0,1.2,0.5,1.2,1.2V252H98.1c-10.2,0-18.4,8.3-18.4,18.4v168.7c0,3.8,3.1,6.9,6.9,6.9
			c3.8,0,6.9-3.1,6.9-6.9V309.3h274.6v27.7c0,3.8,3.1,6.9,6.9,6.9s6.9-3.1,6.9-6.9v-66.6c0-10.2-8.3-18.4-18.4-18.4h-35.1v-43.5
			c0-0.6,0.5-1.2,1.2-1.2h34.5v6.9c0,8.4,6.8,15.3,15.3,15.3h27.5c8.4,0,15.3-6.8,15.3-15.3v-27.5
			C422.2,178.3,415.4,171.4,406.9,171.4z M83.7,214.2c0,0.8-0.6,1.4-1.4,1.4H54.7c-0.8,0-1.4-0.6-1.4-1.4v-27.5
			c0-0.8,0.6-1.4,1.4-1.4h27.5c0.8,0,1.4,0.6,1.4,1.4C83.7,186.7,83.7,214.2,83.7,214.2z M217,190.9c-0.8,0-1.4-0.6-1.4-1.4v-27.5
			c0-0.8,0.6-1.4,1.4-1.4h27.5c0.8,0,1.4,0.6,1.4,1.4v27.5c0,0.8-0.6,1.4-1.4,1.4H217z M363.5,265.9c2.5,0,4.6,2.1,4.6,4.6v25H93.5
			v-25c0-2.5,2.1-4.6,4.6-4.6H363.5z M408.4,214.2c0,0.8-0.6,1.4-1.4,1.4h-27.5c-0.8,0-1.4-0.6-1.4-1.4v-27.5c0-0.8,0.6-1.4,1.4-1.4
			h27.5c0.8,0,1.4,0.6,1.4,1.4V214.2z"/>
	</g>
</g>
<g>
	<g>
		<path d="M406.9,536.3h-27.5c-8.4,0-15.3,6.8-15.3,15.3v6.9h-34.5c-0.6,0-1.2-0.5-1.2-1.2v-43.5h41.3c6.7,0,12.2-5.5,12.2-12.2
			V365.3c0-3.8-3.1-6.9-6.9-6.9s-6.9,3.1-6.9,6.9v134.6H292c-3.8,0-6.9,3.1-6.9,6.9s3.1,6.9,6.9,6.9h22.6v43.5c0,8.3,6.7,15,15,15
			h34.5v6.9c0,8.4,6.8,15.3,15.3,15.3h27.5c8.4,0,15.3-6.8,15.3-15.3v-27.5C422.2,543.1,415.4,536.3,406.9,536.3z M408.4,579.1
			c0,0.8-0.6,1.4-1.4,1.4h-27.5c-0.8,0-1.4-0.6-1.4-1.4v-27.5c0-0.8,0.6-1.4,1.4-1.4h27.5c0.8,0,1.4,0.6,1.4,1.4V579.1z"/>
	</g>
</g>
<g>
	<g>
		<path class="st0" d="M143.3,402.3l25.9-25.9c2.7-2.7,2.7-7.1,0-9.8c-2.7-2.7-7.1-2.7-9.8,0l-30.8,30.8c-2.7,2.7-2.7,7.1,0,9.8
			l30.8,30.8c1.4,1.4,3.1,2,4.9,2c1.8,0,3.5-0.7,4.9-2c2.7-2.7,2.7-7.1,0-9.8L143.3,402.3z"/>
	</g>
</g>
<g>
	<g>
		<path d="M333,397.4l-30.8-30.8c-2.7-2.7-7.1-2.7-9.8,0c-2.7,2.7-2.7,7.1,0,9.8l25.9,25.9l-25.9,25.9c-2.7,2.7-2.7,7.1,0,9.8
			c1.4,1.4,3.1,2,4.9,2s3.5-0.7,4.9-2l30.8-30.8C335.7,404.5,335.7,400.1,333,397.4z"/>
	</g>
</g>
<g>
	<g>
		<path class="st0" d="M224.4,369.5c-3.4-1.8-7.6-0.5-9.4,2.8l-30.7,57.5c-1.8,3.4-0.5,7.6,2.8,9.4c1,0.6,2.2,0.8,3.3,0.8
			c2.5,0,4.9-1.3,6.1-3.7l30.7-57.5C229,375.5,227.7,371.3,224.4,369.5z"/>
	</g>
</g>
<g>
	<g>
		<path d="M228.9,424.7c-3.8,0-6.9,3.1-6.9,6.9v0.7c0,3.8,3.1,6.9,6.9,6.9c3.8,0,6.9-3.1,6.9-6.9v-0.7
			C235.8,427.8,232.7,424.7,228.9,424.7z"/>
	</g>
</g>
<g>
	<g>
		<path d="M251.4,424.7c-3.8,0-6.9,3.1-6.9,6.9v0.7c0,3.8,3.1,6.9,6.9,6.9c3.8,0,6.9-3.1,6.9-6.9v-0.7
			C258.3,427.8,255.2,424.7,251.4,424.7z"/>
	</g>
</g>
<g>
	<g>
		<path d="M273.9,424.7c-3.8,0-6.9,3.1-6.9,6.9v0.7c0,3.8,3.1,6.9,6.9,6.9s6.9-3.1,6.9-6.9v-0.7
			C280.9,427.8,277.8,424.7,273.9,424.7z"/>
	</g>
</g>
</svg>
