<?xml version="1.0" encoding="utf-8"?>
<!-- Generator: Adobe Illustrator 19.0.0, SVG Export Plug-In . SVG Version: 6.00 Build 0)  -->
<svg version="1.1" xmlns="http://www.w3.org/2000/svg" xmlns:xlink="http://www.w3.org/1999/xlink" x="0px" y="0px"
	 viewBox="0 0 409 361" style="enable-background:new 0 0 409 361;" xml:space="preserve">
<style type="text/css">
	.st0{display:none;}
	.st1{display:inline;fill:#E0E4ED;}
	.st2{fill:#FFFFFF;}
	.st3{fill:#5F6BDD;}
	.st4{fill:#2D2C56;}
	.st5{fill:#F7F7F7;}
	.st6{fill:#737AFB;}
	.st7{opacity:0.25;}
	.st8{fill:#D98E9D;}
	.st9{fill:#E0E4ED;}
	.st10{opacity:0.3;fill:#737AFB;}
	.st11{fill:#37354C;}
	.st12{fill:#EAD18C;}
	.st13{opacity:0.5;fill:url(#SVGID_1_);}
	.st14{fill:url(#SVGID_2_);}
	.st15{fill:#EEBCC5;}
	.st16{fill:#EFF2F7;}
	.st17{fill:#2D2B42;}
	.st18{fill:url(#SVGID_3_);}
	.st19{opacity:0.5;fill:url(#SVGID_4_);}
	.st20{fill:url(#SVGID_5_);}
	.st21{fill:url(#SVGID_6_);}
	.st22{fill:#9B5342;}
	.st23{fill:#BCBACE;}
	.st24{fill:url(#SVGID_7_);}
</style>
<g id="BACKGROUND" class="st0">
	<rect x="-53" y="-74" class="st1" width="500" height="500"/>
</g>
<g id="OBJECTS">
	<g>
		<g>
			<path class="st2" d="M372.3,14H21.7C14.7,14,9,19.7,9,26.7v241.4h376V26.7C385,19.7,379.3,14,372.3,14z"/>
			<path class="st2" d="M410,263.8H-16c-2.5,0-4.4,2-4.4,4.5v5.8c0,2.5,2,4.4,4.4,4.4h426c2.5,0,4.4-2,4.4-4.4v-5.8
				C414.5,265.8,412.5,263.8,410,263.8z"/>
			<g>
				<path class="st3" d="M371.8,19.4H22.2c-4.3,0-7.9,3.5-7.9,7.9v237.3h365.4V27.2C379.7,22.9,376.2,19.4,371.8,19.4z"/>
				<rect x="27.4" y="36.9" class="st4" width="339.1" height="219.2"/>
			</g>
			<circle class="st5" cx="197" cy="29.2" r="1.9"/>
			<path class="st6" d="M233.6,270.2h-73.1c-1,0-1.7,0.8-1.7,1.7c0,1,0.8,1.7,1.7,1.7h73.1c1,0,1.7-0.8,1.7-1.7
				C235.3,271,234.5,270.2,233.6,270.2z"/>
			<g class="st7">
				<rect x="70" y="49" class="st8" width="34" height="6"/>
				<rect x="39.3" y="49" class="st2" width="14" height="6"/>
				<rect x="39.3" y="60" class="st2" width="14" height="6"/>
				<rect x="39.3" y="73" class="st2" width="14" height="6"/>
				<rect x="39.3" y="86" class="st2" width="14" height="6"/>
				<rect x="39.3" y="99" class="st2" width="14" height="6"/>
				<rect x="39.3" y="112" class="st2" width="14" height="6"/>
				<rect x="111" y="49" class="st9" width="114" height="6"/>
				<g>
					<rect x="82" y="60" class="st8" width="34" height="6"/>
					<rect x="123" y="60" class="st9" width="114" height="6"/>
				</g>
				<g>
					<rect x="102" y="73" class="st8" width="34" height="6"/>
					<rect x="143" y="73" class="st9" width="114" height="6"/>
				</g>
				<g>
					<rect x="122" y="86" class="st8" width="34" height="6"/>
					<rect x="163" y="86" class="st9" width="114" height="6"/>
				</g>
				<g>
					<rect x="102" y="99" class="st8" width="34" height="6"/>
					<rect x="143" y="99" class="st9" width="174" height="6"/>
				</g>
				<g>
					<rect x="82" y="112" class="st8" width="34" height="6"/>
					<rect x="123" y="112" class="st9" width="74" height="6"/>
				</g>
			</g>
			<g class="st7">
				<rect x="70" y="129" class="st8" width="34" height="6"/>
				<rect x="39.3" y="129" class="st2" width="14" height="6"/>
				<rect x="39.3" y="140" class="st2" width="14" height="6"/>
				<rect x="39.3" y="153" class="st2" width="14" height="6"/>
				<rect x="39.3" y="166" class="st2" width="14" height="6"/>
				<rect x="39.3" y="179" class="st2" width="14" height="6"/>
				<rect x="39.3" y="192" class="st2" width="14" height="6"/>
				<rect x="111" y="129" class="st9" width="114" height="6"/>
				<g>
					<rect x="82" y="140" class="st8" width="34" height="6"/>
					<rect x="123" y="140" class="st9" width="114" height="6"/>
				</g>
				<g>
					<rect x="102" y="153" class="st8" width="34" height="6"/>
					<rect x="143" y="153" class="st9" width="114" height="6"/>
				</g>
				<rect x="70" y="209" class="st8" width="34" height="6"/>
				<rect x="39.3" y="209" class="st2" width="14" height="6"/>
				<rect x="39.3" y="220" class="st2" width="14" height="6"/>
				<rect x="39.3" y="233" class="st2" width="14" height="6"/>
				<rect x="111" y="209" class="st9" width="114" height="6"/>
				<g>
					<rect x="82" y="220" class="st8" width="34" height="6"/>
					<rect x="123" y="220" class="st9" width="114" height="6"/>
				</g>
				<g>
					<rect x="102" y="233" class="st8" width="34" height="6"/>
					<rect x="143" y="233" class="st9" width="114" height="6"/>
				</g>
				<g>
					<rect x="122" y="166" class="st8" width="34" height="6"/>
					<rect x="163" y="166" class="st9" width="174" height="6"/>
				</g>
				<g>
					<rect x="102" y="179" class="st8" width="34" height="6"/>
					<rect x="143" y="179" class="st9" width="114" height="6"/>
				</g>
				<g>
					<rect x="82" y="192" class="st8" width="34" height="6"/>
					<rect x="123" y="192" class="st9" width="114" height="6"/>
				</g>
			</g>
		</g>
		<rect x="73.5" y="263.8" class="st10" width="13.3" height="14.7"/>
		<rect x="99.4" y="263.8" class="st10" width="13.3" height="14.7"/>
		<rect x="297.6" y="263.8" class="st10" width="13.3" height="14.7"/>
		<rect x="320.6" y="263.8" class="st10" width="13.3" height="14.7"/>
		<g>
			<path class="st4" d="M93.4,322.4l0.1,7.2c0,0-0.9,4.6-1.6,9.5c-0.7,4.9-1.3,10.1-0.5,11.4c1.5,2.4,4.4,0,4.9-2.4
				c0.5-2.4,1.2-17.5,1.2-17.5l0.5-9.7L93.4,322.4z"/>
			<path class="st4" d="M86,321.4l1.1,6.5c0,0,2.2,17.7,1,20.4c-1.2,2.7-5.1,1.5-4.9-2.2c0.2-3.6-0.7-16.5-0.7-16.5l-2.2-7.8
				L86,321.4z"/>
			<g>
				<path class="st11" d="M89,242.4l0.5,8L69,260.3c-3.7,2-5.5,6.3-4.3,10.4l14.2,52.9l7.1-2.2l-6.3-48.7c-0.4-3,1.6-5.8,4.6-6.3
					l7.3-1.1l7.8-7.9l-9,8.1c-2.2,2-3.3,4.9-2.9,7.8l5.8,49.1l6.4,1.6l2.9-48.4c0.2-3.1,2.3-5.7,5.2-6.6l12.7-4
					c2-1.2,3.3-3.4,3.3-5.8l-0.5-17L89,242.4z"/>
				<path class="st12" d="M124.6,260.3l-3.4-66.1c0,0-14.1-0.8-18.2-0.8c-2.3,0-6.2,1.1-9.2,2.1c-2.9,0.9-5.3,0.8-6.7,3.5L64,243.2
					l14.2,1.3l4.7-5.4l-2.4-3.6l8.6-20.3L87.4,252L124.6,260.3z"/>
				<linearGradient id="SVGID_1_" gradientUnits="userSpaceOnUse" x1="73.5171" y1="223.7523" x2="89.102" y2="223.7523">
					<stop  offset="0" style="stop-color:#EAD18C;stop-opacity:0"/>
					<stop  offset="1" style="stop-color:#524F63;stop-opacity:0.7"/>
				</linearGradient>
				<path class="st13" d="M88.8,207.1l-15.3,27.6l4.8,5.6c0,0,1.9,0.4,3.8-0.2l0.8-1l-2.4-3.6l8.6-20.3L88.8,207.1z"/>
				<path class="st2" d="M107.1,205c4.6,0,8.4-3.8,8.4-8.4c0-0.9-0.2-1.8-0.4-2.7c-4.3-0.2-9.8-0.5-12.1-0.5c-1,0-2.4,0.2-3.8,0.6
					c-0.3,0.8-0.4,1.7-0.4,2.6C98.7,201.2,102.5,205,107.1,205z"/>
				<linearGradient id="SVGID_2_" gradientUnits="userSpaceOnUse" x1="78.4238" y1="251.082" x2="163.9724" y2="217.2439">
					<stop  offset="0" style="stop-color:#EAD18C;stop-opacity:0"/>
					<stop  offset="1" style="stop-color:#524F63;stop-opacity:0.7"/>
				</linearGradient>
				<polygon class="st14" points="122.9,205.6 124.6,260.7 101.9,255.2 				"/>
				<path class="st15" d="M101.6,186.6c0.4,0.8,3.2,11.6,3.2,11.6s1,1.8,3.4,1.6c2.4-0.2,3.4-3.5,3.4-3.5l-4.1-13.6L101.6,186.6z"/>
				<path class="st15" d="M116.2,179.9c0,7.5-7.9,15.7-15.4,15.7c-7.5,0-11.6-8.3-11.6-15.7c0-7.5,6.1-13.5,13.5-13.5
					C110.1,166.4,116.2,172.4,116.2,179.9z"/>
				<circle class="st15" cx="102.4" cy="181" r="15.2"/>
				<g>
					<path class="st16" d="M91.6,192.3c-1.8,0-3.8-1.5-4.4-3.4c-0.4-1-0.3-2,0.2-2.6c0.4-0.6,1.1-0.9,2-0.9c1.8,0,3.8,1.5,4.4,3.4
						c0.4,1,0.3,2-0.2,2.6C93.1,192,92.4,192.3,91.6,192.3z M89.3,185.9c-0.7,0-1.2,0.3-1.5,0.7c-0.4,0.5-0.4,1.3-0.1,2.2
						c0.6,1.7,2.4,3,3.9,3c0.7,0,1.2-0.3,1.5-0.7c0.4-0.5,0.4-1.3,0.1-2.2C92.7,187.2,90.9,185.9,89.3,185.9z"/>
				</g>
				<g>
					<path class="st16" d="M100.6,192.3c-1.8,0-3.8-1.5-4.4-3.4c-0.4-1-0.3-2,0.2-2.6c0.4-0.6,1.1-0.9,2-0.9c1.8,0,3.8,1.5,4.4,3.4
						c0.4,1,0.3,2-0.2,2.6C102.1,192,101.4,192.3,100.6,192.3z M98.3,185.9c-0.7,0-1.2,0.3-1.5,0.7c-0.4,0.5-0.4,1.3-0.1,2.2
						c0.6,1.7,2.4,3,3.9,3c0.7,0,1.2-0.3,1.5-0.7c0.4-0.5,0.4-1.3,0.1-2.2C101.6,187.2,99.9,185.9,98.3,185.9z"/>
				</g>
				<ellipse transform="matrix(0.866 -0.5 0.5 0.866 -82.5942 71.7829)" class="st17" cx="92.7" cy="190" rx="0.6" ry="0.9"/>
				<ellipse transform="matrix(0.866 -0.5 0.5 0.866 -81.8534 75.2154)" class="st17" cx="99.4" cy="190.4" rx="0.6" ry="0.9"/>
			</g>
			<path class="st15" d="M105.2,254c-0.6-0.2-5.6-2.6-9.1-2.6c-3.5,0-7.9,3.7-7.9,3.7s-0.6,2,1.8,1.6c2.4-0.4-0.3,1.5-0.3,1.5
				s0.1,0.1,2.9,0.5c2.8,0.4,13.5-0.2,13.5-0.2L105.2,254z"/>
			<path class="st12" d="M121.2,194.2l1.9,43.5l-17.9,16.2l0.9,4.5l25.2-13.4c2.4-1.3,3.8-4,3.4-6.7l-4.6-33.3
				c-0.4-4.2-2.9-7.8-6.6-9.7L121.2,194.2z"/>
			<g>
				<path class="st2" d="M107.1,262.2H61.5v-3.3h45.5c0.9,0,1.7,0.7,1.7,1.7l0,0C108.7,261.4,108,262.2,107.1,262.2z"/>
				<path class="st2" d="M94.6,262.2H50.6c-1.9,0-3.6-1.3-4.1-3.2l-7.8-29.2c-0.7-2.7,1.3-5.4,4.1-5.4h38.3c1.9,0,3.6,1.3,4.1,3.2
					L94.6,262.2z"/>
				<linearGradient id="SVGID_3_" gradientUnits="userSpaceOnUse" x1="74.5729" y1="243.1068" x2="-1.2979" y2="241.3145">
					<stop  offset="0" style="stop-color:#484EC2;stop-opacity:0"/>
					<stop  offset="1" style="stop-color:#444BCC;stop-opacity:0.5"/>
				</linearGradient>
				<path class="st18" d="M42.9,224.4c-2.8,0-4.9,2.7-4.1,5.4l7.8,29.2c0.2,0.9,0.8,1.7,1.4,2.2l26.7-36.8H42.9z"/>
				<path class="st6" d="M68.7,245.9c0.5,1.9-0.7,3.4-2.7,3.4c-2,0-3.9-1.5-4.4-3.4c-0.5-1.9,0.7-3.4,2.7-3.4
					C66.2,242.4,68.2,244,68.7,245.9z"/>
			</g>
			<path class="st6" d="M102.4,165.8c-7.8,0-14.2,5.9-15.1,13.5c2.6,2,6.1,2.8,9.3,2.3c3.8-0.7,7.3-3.3,8.9-6.8
				c-0.1,1.7-0.2,3.4,0,5.1c0.3,1.7,1,3.3,2.3,4.4c0.1-1.2,0.2-2.4,0.8-3.4c0.6-1,1.9-1.7,3-1.3c0.8,0.3,1.3,1.1,1.4,2
				c0.1,0.8-0.1,1.7-0.4,2.5c-0.5,1.2-1.2,2.4-2.1,3.4c1.8,0.3,3.7,0.5,5.5,0.3c1-2,1.5-4.2,1.5-6.6
				C117.6,172.6,110.8,165.8,102.4,165.8z"/>
			<circle class="st15" cx="110.8" cy="183.5" r="4.6"/>
			<polygon class="st15" points="86,321.4 86.8,326.2 82,327.8 80.6,323 			"/>
			<polygon class="st15" points="93.4,327.8 97.4,328.5 97.7,323.4 93.4,322.4 			"/>
		</g>
		<g>
			<path class="st4" d="M300,322.4l-0.1,7.2c0,0,0.9,4.6,1.6,9.5c0.7,4.9,1.3,10.1,0.5,11.4c-1.5,2.4-4.4,0-4.9-2.4
				c-0.5-2.4-1.2-17.5-1.2-17.5l-0.5-9.7L300,322.4z"/>
			<path class="st4" d="M307.4,321.4l-1.1,6.5c0,0-2.2,17.7-1,20.4c1.2,2.7,5.1,1.5,4.9-2.2c-0.2-3.6,0.7-16.5,0.7-16.5l2.2-7.8
				L307.4,321.4z"/>
			<g>
				<path class="st6" d="M304.4,242.4l-0.5,8l20.6,9.9c3.7,2,5.5,6.3,4.3,10.4l-14.2,52.9l-7.1-2.2l6.3-48.7c0.4-3-1.6-5.8-4.6-6.3
					l-7.3-1.1l-7.8-7.9l9,8.1c2.2,2,3.3,4.9,2.9,7.8l-5.8,49.1l-6.4,1.6l-2.9-48.4c-0.2-3.1-2.3-5.7-5.2-6.6l-12.7-4
					c-2-1.2-3.3-3.4-3.3-5.8l0.5-17L304.4,242.4z"/>
				<path class="st8" d="M268.8,260.3l3.4-66.1c0,0,14.1-0.8,18.2-0.8c2.3,0,6.2,1.1,9.2,2.1c2.9,0.9,5.3,0.8,6.7,3.5l23.1,44.2
					l-14.2,1.3l-4.7-5.4l2.4-3.6l-8.6-20.3L306,252L268.8,260.3z"/>
				
					<linearGradient id="SVGID_4_" gradientUnits="userSpaceOnUse" x1="265.5162" y1="223.7523" x2="281.1011" y2="223.7523" gradientTransform="matrix(-1 0 0 1 585.3727 0)">
					<stop  offset="0" style="stop-color:#D37897;stop-opacity:0"/>
					<stop  offset="0.8988" style="stop-color:#BC547C"/>
				</linearGradient>
				<path class="st19" d="M304.6,207.1l15.3,27.6l-4.8,5.6c0,0-1.9,0.4-3.8-0.2l-0.8-1l2.4-3.6l-8.6-20.3L304.6,207.1z"/>
				<path class="st2" d="M291,213.3c-4.6,0-13.2-12.1-13.2-16.8c0-0.9,0.2-1.8,0.4-2.7c4.3-0.2,9.8-0.5,12.1-0.5
					c1,0,2.4,0.2,3.8,0.6c0.3,0.8,0.4,1.7,0.4,2.6C294.7,201.2,295.6,213.3,291,213.3z"/>
				
					<linearGradient id="SVGID_5_" gradientUnits="userSpaceOnUse" x1="270.423" y1="251.0819" x2="355.9715" y2="217.2439" gradientTransform="matrix(-1 0 0 1 585.3727 0)">
					<stop  offset="0" style="stop-color:#D37897;stop-opacity:0"/>
					<stop  offset="0.8988" style="stop-color:#BC547C"/>
				</linearGradient>
				<polygon class="st20" points="270.5,205.6 268.8,260.7 291.5,255.2 				"/>
				<path class="st15" d="M291.8,186.6c-0.4,0.8-3.2,11.6-3.2,11.6s-1,1.8-3.4,1.6c-2.4-0.2-3.4-3.5-3.4-3.5l4.1-13.6L291.8,186.6z"
					/>
				<path class="st15" d="M277.2,179.9c0,7.5,7.9,15.7,15.4,15.7c7.5,0,11.6-8.3,11.6-15.7c0-7.5-6.1-13.5-13.5-13.5
					S277.2,172.4,277.2,179.9z"/>
				<circle class="st15" cx="291" cy="181" r="15.2"/>
				<ellipse transform="matrix(-0.866 -0.5 0.5 -0.866 468.1459 504.715)" class="st17" cx="301.7" cy="189.6" rx="0.8" ry="1.1"/>
				<ellipse transform="matrix(-0.866 -0.5 0.5 -0.866 453.539 502.5288)" class="st17" cx="294.1" cy="190.5" rx="0.8" ry="1.2"/>
			</g>
			<path class="st15" d="M288.2,254c0.6-0.2,5.6-2.6,9.1-2.6c3.5,0,7.9,3.7,7.9,3.7s0.6,2-1.8,1.6c-2.4-0.4,0.3,1.5,0.3,1.5
				s-0.1,0.1-2.9,0.5s-13.5-0.2-13.5-0.2L288.2,254z"/>
			<path class="st8" d="M272.1,194.2l-1.9,43.5l17.9,16.2l-0.9,4.5L262.1,245c-2.4-1.3-3.8-4-3.4-6.7l4.6-33.3
				c0.4-4.2,2.9-7.8,6.6-9.7L272.1,194.2z"/>
			<g>
				<path class="st2" d="M286.3,262.2h45.5v-3.3h-45.5c-0.9,0-1.7,0.7-1.7,1.7l0,0C284.7,261.4,285.4,262.2,286.3,262.2z"/>
				<path class="st2" d="M298.8,262.2h43.9c1.9,0,3.6-1.3,4.1-3.2l7.8-29.2c0.7-2.7-1.3-5.4-4.1-5.4h-38.3c-1.9,0-3.6,1.3-4.1,3.2
					L298.8,262.2z"/>
				
					<linearGradient id="SVGID_6_" gradientUnits="userSpaceOnUse" x1="266.5721" y1="243.1068" x2="190.7013" y2="241.3145" gradientTransform="matrix(-1 0 0 1 585.3727 0)">
					<stop  offset="0" style="stop-color:#484EC2;stop-opacity:0"/>
					<stop  offset="1" style="stop-color:#444BCC;stop-opacity:0.5"/>
				</linearGradient>
				<path class="st21" d="M350.5,224.4c2.8,0,4.9,2.7,4.1,5.4l-7.8,29.2c-0.2,0.9-0.8,1.7-1.4,2.2l-26.7-36.8H350.5z"/>
				<path class="st6" d="M324.7,245.9c-0.5,1.9,0.7,3.4,2.7,3.4c2,0,3.9-1.5,4.4-3.4c0.5-1.9-0.7-3.4-2.7-3.4
					C327.1,242.4,325.2,244,324.7,245.9z"/>
			</g>
			<path class="st6" d="M291,165.8c7.8,0,14.2,5.9,15.1,13.5c-2.6,2-6.1,2.8-9.3,2.3c-3.8-0.7-7.3-3.3-8.9-6.8
				c0.1,1.7,0.2,3.4,0,5.1c-0.3,1.7-1,3.3-2.3,4.4c-0.1-1.2-0.2-2.4-0.8-3.4c-0.6-1-1.9-1.7-3-1.3c-0.8,0.3-1.3,1.1-1.4,2
				c-0.1,0.8,0.1,1.7,0.4,2.5c0.5,1.2,1.2,2.4,2.1,3.4c-1.8,0.3-3.7,0.5-5.5,0.3c-1-2-1.5-4.2-1.5-6.6
				C275.8,172.6,282.6,165.8,291,165.8z"/>
			<circle class="st15" cx="282.6" cy="183.5" r="4.6"/>
			<polygon class="st15" points="307.4,321.4 306.5,326.2 311.4,327.8 312.7,323 			"/>
			<polygon class="st15" points="300,327.8 296,328.5 295.7,323.4 300,322.4 			"/>
		</g>
		<circle class="st6" cx="282.6" cy="164.4" r="9.8"/>
		<rect x="171.6" y="263.8" class="st10" width="13.3" height="14.7"/>
		<rect x="218" y="264.6" class="st10" width="13.3" height="13.9"/>
		<g>
			<path class="st11" d="M190.8,168l-5.4,6.6l-2.7,5.6l-2.5,7.1c0,0-4.4,4.1-4.1,4.1c0.2,0.1-0.3,5,0.2,5.7c0.5,0.7,5.4,6.6,5.4,6.6
				s4.8,3.1,6.7,3.5c1.9,0.4,11.5,4.6,11.5,4.6l5.9-5.6l-2.2-2.9c0,0,6.1-3.7,6.9-4.2c0.7-0.5,3.7-3.4,3.7-3.4s-0.1-2.6-0.6-4.2
				c-0.4-1.7-3.4-9.8-3.4-9.8s-3.9-5.6-4.4-6.6c-0.5-1-2.7-4.2-2.7-4.2L190.8,168z"/>
			<path class="st6" d="M214.6,246l-37.6,0.3l-0.3-38.3c0-2.3,1.8-4.1,4.1-4.1l29.5-0.2c2.3,0,4.1,1.8,4.1,4.1L214.6,246z"/>
			<path class="st11" d="M188.3,203.8c0,0,2.8,3.3,2.8,10.2s0.2,19.5,0.2,19.5l8.4,0v-19.9c0,0-0.7-6.8,4.7-12l-9.2,0.2L188.3,203.8
				z"/>
			<path class="st15" d="M195.2,211.8L195.2,211.8c-2.5,0-4.6-2-4.6-4.5l-0.1-13.9c0-0.3,0.3-0.6,0.6-0.6l7.9-0.1
				c0.3,0,0.6,0.3,0.6,0.6l0.1,13.9C199.7,209.7,197.7,211.8,195.2,211.8z"/>
			<path class="st22" d="M211.1,190.1c0-0.2,0-0.3,0-0.5c0-1.4-0.2-2.7-0.5-4v-1.8c0-8.7-7.1-15.9-15.9-15.9l0,0
				c-8.7,0-15.9,7.1-15.9,15.9v6.2H211.1z"/>
			<path class="st15" d="M209.4,185.7v-1.5c0-8.1-6.6-14.6-14.6-14.6l0,0c-8.1,0-14.6,6.6-14.6,14.6v6c0,0.4,0,0.8,0.1,1.2
				c1,7.3,7.2,12.9,14.7,12.9c8.2,0,14.9-6.7,14.9-14.9C209.9,188.1,209.7,186.9,209.4,185.7z"/>
			<circle class="st11" cx="189.1" cy="192" r="1.1"/>
			<circle class="st11" cx="199.8" cy="192" r="1.1"/>
			<circle class="st15" cx="180.2" cy="191.5" r="4.1"/>
			<circle class="st15" cx="209.4" cy="191.5" r="4.1"/>
			<path class="st23" d="M195.9,262.9l-18.5,8.7l3.4,56.3h-6.6l-13.4-57.7c-0.6-2.5,0.5-5.2,2.7-6.6l17.5-10.7L195.9,262.9z"/>
			<path class="st8" d="M180.1,188.8c-1.4,0.1-2.5,1.3-2.5,2.7c0,1.4,1.1,2.6,2.5,2.7V188.8z"/>
			<path class="st8" d="M209.1,188.8c1.4,0.1,2.5,1.3,2.5,2.7c0,1.4-1.1,2.6-2.5,2.7V188.8z"/>
			<rect x="191.3" y="215.3" class="st11" width="8.5" height="45.4"/>
			<path class="st11" d="M205,185.7c0.4,1.3,1,2.7,2.2,3.1c1,0.3,2-0.3,2.9-0.8c0.5-0.3,1-0.7,1-1.3c0.1-0.5-0.2-0.9-0.4-1.4
				c-0.9-1.6-1.8-3.3-3-4.6c-1.1-1.2-3.1-3.2-4.2-1.1C202.8,180.9,204.6,184.3,205,185.7z"/>
			<path class="st11" d="M206.6,176.3c-3.2-2.4-7.2-3.8-11.6-3.8l0.2-2.6c-4.3,0-8.5,4-11.7,6.4c2.8,3.2,6.9,6.2,11.6,6.2
				C199.6,182.5,203.8,179.5,206.6,176.3z"/>
			<path class="st6" d="M156.1,238.4c-0.6-0.8-0.7-1.8-0.5-2.8c2.1-8.5,17.3-28.4,17.9-29.2c1-1.3,6.2-2.4,6.2-2.4l0.6,13.7
				l-13.7,16.1c-0.9,1.1-1.1,2.5-0.5,3.8l10.8,22l-5.7,1.6L156.1,238.4z"/>
			<path class="st23" d="M205.4,252.9l17.5,10.7c2.2,1.4,3.3,4,2.7,6.6l-13.4,57.7h-6.6l3.4-56.3l-18.5-8.7L205.4,252.9z"/>
			<path class="st6" d="M232.7,238c0.4-0.8,0.6-1.7,0.4-2.5c-1.7-8.3-15.2-28.2-15.9-29.1c-1-1.3-6.2-2.4-6.2-2.4l-0.6,13.7
				l11.8,15.7c0.8,1.1,1,2.4,0.5,3.7l-8.9,22.5l5.7,1.6L232.7,238z"/>
			<path class="st11" d="M184.6,185.7c-0.4,1.3-1,2.7-2.2,3.1c-1,0.3-2-0.3-2.9-0.8c-0.5-0.3-1-0.7-1-1.3c-0.1-0.5,0.2-0.9,0.4-1.4
				c0.9-1.6,1.8-3.3,3-4.6c1.1-1.2,3.1-3.2,4.2-1.1C186.8,180.9,185,184.3,184.6,185.7z"/>
			<circle class="st15" cx="174.8" cy="259.7" r="4.8"/>
			<path class="st6" d="M208,172.4c-2-5.1-12.9-6.9-13-6.9v0l0,0l0,0v0c-0.1,0-11.1,1.8-13,6.9c-2,5.2-7.8,19.6-7.6,23.6
				c0.2,3.9,7.4,7.9,7.4,7.9h6.6c0,0-9.8-6.6-10.8-9.6c-1-2.9,2.7-6.1,3.7-6.9c4.1-7,8.1-11.3,10.7-13.7c1.7-1.6,4.4-1.6,6.1,0
				c2.6,2.4,6.6,6.7,10.7,13.7c1,0.8,4.6,4,3.7,6.9c-1,2.9-9.8,9.5-9.8,9.5l5.6,0c0,0,7.1-3.9,7.4-7.9
				C215.8,192,209.9,177.5,208,172.4z"/>
			<circle class="st15" cx="216.4" cy="260.3" r="4.8"/>
			<path class="st6" d="M214.1,239v20.5c0,0-11.6,4.3-13.2,4.1c-1.7-0.2-1.7-18.2-1.7-18.2l2.1-5.5L214.1,239z"/>
			<path class="st6" d="M177,239v20.5c0,0,11.6,4.3,13.2,4.1c1.7-0.2,1.7-18.2,1.7-18.2l-2.1-5.5L177,239z"/>
			<path class="st4" d="M180.8,327.9l0.9,8.4c0,0-8.5,14.1-11.9,14.5c-3.4,0.3-1.9-5.6,0-8.3c1.9-2.7,5.7-8.4,5.7-8.4l1.4-6.1H180.8
				z"/>
			<path class="st4" d="M206.9,327.9l-0.9,8.4c0,0,8.5,14.1,11.9,14.5c3.4,0.3,1.9-5.6,0-8.3c-1.9-2.7-5.7-8.4-5.7-8.4l-1.4-6.1
				H206.9z"/>
			<g>
				<path class="st2" d="M174.2,265.3h43.3c1.6,0,3.1-1.1,3.4-2.7l3.7-15.7c0.5-3-1.8-5.8-4.9-5.8l-49.6,0.4c-3.1,0-5.4,2.8-4.8,5.9
					l5.5,15.6C171.4,264.4,172.7,265.3,174.2,265.3z"/>
				<linearGradient id="SVGID_7_" gradientUnits="userSpaceOnUse" x1="187.9719" y1="253.1621" x2="143.1298" y2="254.2213">
					<stop  offset="0" style="stop-color:#484EC2;stop-opacity:0"/>
					<stop  offset="1" style="stop-color:#444BCC;stop-opacity:0.5"/>
				</linearGradient>
				<path class="st24" d="M200.7,241.3l-30.6,0.2c-3.1,0-5.4,2.8-4.8,5.9l5.5,15.6c0.5,1.4,1.8,2.3,3.3,2.3h7.8L200.7,241.3z"/>
				<ellipse class="st6" cx="194.5" cy="255.3" rx="4.4" ry="4"/>
			</g>
		</g>
	</g>
</g>
<g id="DESIGNED_BY_FREEPIK">
</g>
</svg>
