<?xml version="1.0" encoding="utf-8"?>
<!-- Generator: Adobe Illustrator 19.0.0, SVG Export Plug-In . SVG Version: 6.00 Build 0)  -->
<svg version="1.1" xmlns="http://www.w3.org/2000/svg" xmlns:xlink="http://www.w3.org/1999/xlink" x="0px" y="0px"
	 viewBox="0 0 386 352.7" style="enable-background:new 0 0 386 352.7;" xml:space="preserve">
<style type="text/css">
	.st0{fill:#EBEFF3;}
	.st1{fill:#C4C8CC;}
	.st2{fill:#B7003D;}
	.st3{fill:#6387C1;}
	.st4{fill:#06B206;}
	.st5{fill:#9092EC;}
	.st6{fill:#C96E86;}
	.st7{fill:#EAD18C;}
	.st8{fill:#D98E9D;}
	.st9{fill:#CDB884;}
	.st10{fill:#FFFFFF;}
	.st11{font-family:'MyriadPro-Regular';}
	.st12{font-size:12px;}
	.st13{fill:#3CEF11;}
	.st14{fill:#CE2105;}
	.st15{fill:#9E001B;}
	.st16{fill:#FFD62C;}
	.st17{fill:#8E0018;}
	.st18{opacity:0.67;}
	.st19{fill:#EBE8EC;}
	.st20{fill:#ECD0A1;}
	.st21{fill:#1E2322;}
	.st22{fill:#DDBB8A;}
	.st23{fill:#FED976;}
	.st24{fill:#28243F;}
	.st25{fill:#333049;}
	.st26{fill:#3F2A3F;}
	.st27{fill:#F2B10F;}
	.st28{fill:#524F63;}
	.st29{fill:#8CACDD;}
	.st30{fill:#A0BCEA;}
	.st31{fill:#D2E1F7;}
</style>
<g id="OBJECTS">
	<g>
		<g>
			<g>
				<g>
					<path class="st0" d="M11.5,285H373c3,0,5.4-2.4,5.4-5.4V14.4c0-3-2.4-5.4-5.4-5.4H11.5c-3,0-5.4,2.4-5.4,5.4v265.2
						C6.2,282.6,8.6,285,11.5,285z"/>
					<g>
						<path class="st1" d="M373,9H11.5c-3,0-5.4,2.4-5.4,5.4v13h372.2v-13C378.4,11.5,376,9,373,9z"/>
					</g>
				</g>
				<g>
					<circle class="st2" cx="23.5" cy="18.1" r="4"/>
					<circle class="st3" cx="36" cy="18.2" r="4"/>
					<circle class="st4" cx="48.6" cy="18.2" r="4"/>
				</g>
			</g>
		</g>
		<g>
			<rect x="35.1" y="46.2" class="st5" width="314.3" height="86.1"/>
			<g>
				<rect x="35.1" y="145" class="st6" width="70.3" height="44.6"/>
				<rect x="35.1" y="217.2" class="st5" width="313" height="6.2"/>
				<rect x="35.1" y="254.3" class="st5" width="313" height="6.2"/>
				<rect x="35.1" y="269.4" class="st5" width="313" height="6.2"/>
				<rect x="35.1" y="201.5" class="st5" width="313" height="6.2"/>
				<rect x="116.3" y="145" class="st7" width="70.3" height="44.6"/>
				<rect x="197.4" y="145" class="st8" width="70.3" height="44.6"/>
				<rect x="278.5" y="145" class="st9" width="70.3" height="44.6"/>
			</g>
			
		</g>
	</g>
	<g>
		<g class="st18">
			<ellipse class="st0" cx="185.6" cy="337.6" rx="146.1" ry="9.8"/>
		</g>
		<g>
			<g>
				<g>
					<g>
						<g>
							<path class="st19" d="M243.1,335.9c0,0,15,2.6,31.1,2.6c14.9,0,29.3-2.6,29.3-2.6l-1.2-2.6c-5.1-11.4-24.6-7-29-18.7h0
								c-3.7,11.8-23.9,7.3-29,18.7L243.1,335.9z"/>
						</g>
						<g>
							<rect x="269.6" y="247.3" class="st19" width="8.1" height="75.8"/>
						</g>
						<g>
							<polygon class="st20" points="271.9,316.9 268.4,309.2 260.6,312 262.8,320 							"/>
						</g>
						<g>
							<path class="st21" d="M271.9,316.8l1.9,6.3l-8.2,2.6c0,0-18.5,7.8-21.9,4.2c-1.6-1.6,4.4-3.3,8.3-5.8
								c3.9-2.6,9.9-6.2,9.9-6.2S267.2,318.1,271.9,316.8z"/>
						</g>
						<g>
							<polygon class="st20" points="231,328.3 229.8,319.9 221.6,320.5 221.4,328.7 							"/>
						</g>
						<g>
							<path class="st21" d="M231,328.2v6.6l-8.6,0.2c0,0-19.9,2.2-22.2-2.2c-1-2,5.2-1.9,9.6-3.2c4.4-1.4,11.3-3.1,11.3-3.1
								S226.2,328.1,231,328.2z"/>
						</g>
						<g>
							<g>
								<path class="st22" d="M156.6,183.4l11.4-3.8l10.1,2.5c5.7-1.5,7.6-1.4,19.2-4.4c9.8-2.5,21.1-7.5,21.1-7.5l8.3-14
									c5.4,0.5,16.7,6.4,16.7,6.4s-15.5,21.1-19.9,22.6c-4.4,1.5-34.2,5.1-45.5,3.8c-3.6-0.4-10.6-4.2-10.6-4.2l-9,1.5l-7,4.7
									l-1.2-1l2.8-3L156.6,183.4z"/>
							</g>
							<g>
								<path class="st23" d="M235.2,129.6c0,0,14.5,2.4,14.2,15.4c-0.2,8.5-11.8,24.3-11.8,24.3s-6.4-8.8-14.2-11.3
									c0,0,5.1-15,6.7-19.6C232,132.6,235.2,129.6,235.2,129.6z"/>
							</g>
						</g>
						<g>
							<rect x="259.3" y="245.1" class="st19" width="28.7" height="15.5"/>
						</g>
						<g>
							<path class="st19" d="M263.1,185c-1.4-18.7-2.4-37.4-3-56.2c17.7-7.9,57.3-4.4,61,7.3c3.9,12.4-11,47.8-11,61.1
								c0,13.2,5.2,22.8,5.9,28.7c0.7,5.9-2.9,10.3-2.9,10.3h-45.4C266.5,219.2,264.4,202.1,263.1,185z"/>
						</g>
						<g>
							<path class="st10" d="M263.1,185c-1.5-19.5-2.5-39-3.1-58.5c19.5-4.6,50.5-0.6,53.7,9.7c3.9,12.4-11,47.8-11,61.1
								c0,13.2,5.2,22.8,5.9,28.7c0.7,5.9-2.9,10.3-2.9,10.3h-38C266.5,219.2,264.4,202.1,263.1,185z"/>
						</g>
						<g>
							<path class="st10" d="M227.7,250.3h77.4c4.4,0,8-3.6,8-8v-6h-85.4V250.3z"/>
						</g>
						<g>
							<path class="st24" d="M243.8,204.2c0,0-40.8,24.3-43.3,34.3c-2.9,12,16.7,82.7,16.7,82.7c4.6,3.1,13.2,2.1,16.3-0.8
								c0,0-15.8-60.6-14-64.6c4.2-9.9,40-21.7,51.3-32.5c11.3-10.8,12.3-21.1,12.3-21.1L243.8,204.2z"/>
						</g>
						<g>
							<path class="st25" d="M290.5,193.3c0,0,13.9,29,1.4,40.8c-5.7,5.4-40,0.5-42,5.9l20.7,68.7c0,0-3.6,2.2-11,5.9
								c0,0-43-75.8-38.6-85.7c4.4-9.8,34.1-15.5,35.6-20.9c1.5-5.4,2.5-14.2,2.5-14.2L290.5,193.3z"/>
						</g>
						<g>
							<path class="st20" d="M231.5,114.6c0.9,3.4,2.5,7.1,5.8,8.2c3,1,6.3-0.6,9-2.3c3.2-1.9,6.5-4,8.6-7.2
								c3.1-4.8,5.7-10.6,5.3-16.3c-0.1-2-3.1-4.5-4.3-6.1c-0.9-1.1-2.2-1.9-3.4-2.5c-3.1-1.5-6.3-2.5-9.7-3
								c-5.6-0.9-11.8,0.3-12.9,6.5C228.6,99.2,229.7,107.5,231.5,114.6z"/>
						</g>
						<g>
							<circle class="st26" cx="241.2" cy="101.6" r="1.5"/>
						</g>
						<g>
							<circle class="st26" cx="232.5" cy="101.6" r="1.5"/>
						</g>
						<g>
							<g>
								<path class="st26" d="M242.6,107.2c-2.9,0-5.3-2.4-5.3-5.3c0-2.9,2.4-5.3,5.3-5.3c2.9,0,5.3,2.4,5.3,5.3
									C247.9,104.8,245.5,107.2,242.6,107.2z M242.6,97.5c-2.4,0-4.3,1.9-4.3,4.3c0,2.4,1.9,4.3,4.3,4.3c2.4,0,4.3-1.9,4.3-4.3
									C246.9,99.5,245,97.5,242.6,97.5z"/>
							</g>
							<g>
								<path class="st26" d="M234.6,99l-0.8-0.6c0.7-0.9,1.6-1.4,2.7-1.4c1.2-0.1,2.4,0.4,3.2,1.3L239,99c-0.6-0.7-1.6-1-2.5-1
									C235.7,98,235,98.4,234.6,99z"/>
							</g>
							<g>
								<path class="st26" d="M230.8,107.2c-2.9,0-5.3-2.4-5.3-5.3c0-2.9,2.4-5.3,5.3-5.3c2.9,0,5.3,2.4,5.3,5.3
									C236.2,104.8,233.8,107.2,230.8,107.2z M230.8,97.5c-2.4,0-4.3,1.9-4.3,4.3c0,2.4,1.9,4.3,4.3,4.3c2.4,0,4.3-1.9,4.3-4.3
									C235.2,99.5,233.2,97.5,230.8,97.5z"/>
							</g>
						</g>
						<g>
							<path class="st20" d="M270.9,123.8c0,0-0.1-1.1-4-2.1c-1.1-0.3-2.5-0.3-3.4-1.1c-3.2-2.8-6.1-7.9-7.2-11.8
								c-0.2-0.6-0.3-1.2-0.2-1.7c-2.7,2.2-5.2,4.6-7.7,7.1c-0.8,0.8-6,0.4-5.3,1.5c0.2,0.3,1.5,3.3,2.8,6.2
								c-2.5,1.6-5.2,3.7-5.2,3.7l-3.4,19.1l10.1,5.6c0,0,11.3-2.5,18.6-6.4C273.3,140.1,270.9,123.8,270.9,123.8z"/>
						</g>
						<g>
							<path class="st27" d="M266.9,121.7c0,0-2.9,5.4-10.3,8.6c-7.4,3.2-14-6.4-14-6.4l-7.4,5.7c0,0-0.7,26.1,2.5,40.3
								c3.2,14.2,6.1,34.2,6.1,34.2s3.3,4.8,7.5,5.1c5.1,0.3,12.2-3.7,23.4-1.7c12.4,2.2,21.7,0.3,21.7,0.3s-9.6-46.7-11.8-56
								c-2.2-9.3-7.9-28.4-7.9-28.4S271.8,122.2,266.9,121.7z"/>
						</g>
						<g>
							<g>
								<path class="st19" d="M137,191.2h42.9v-3.7h-45.9v0.7C133.9,189.9,135.3,191.2,137,191.2z"/>
							</g>
							<g>
								<path class="st10" d="M150.5,145.3c1.3,0,2.4,0.8,2.9,2l14.6,40.3l-0.9,0.4l0.2,0.7l-33.4-1.1l-14.2-38.1
									c-0.7-2,0.7-4.1,2.8-4.1L150.5,145.3z"/>
							</g>
							<g>
								<path class="st19" d="M139.1,169.1c1,3.8,2.9,6.8,4.3,6.8c1.4-0.1,1.7-3.2,0.8-7c-1-3.8-2.9-6.8-4.3-6.8
									C138.5,162.2,138.1,165.3,139.1,169.1z"/>
							</g>
						</g>
						<g>
							<g>
								<path class="st26" d="M236.5,98.3c0.1,2.9-1.1,5.1-2.4,7.7c-0.5,1.1-1,2.7-0.6,3.9c0.1,0.2,0.2,0.3,0.4,0.3
									c1.1,0,2.4-0.8,3.5-1.3c0.4-0.2,0.1-0.9-0.3-0.8c-0.5,0.2-1,0.4-1.5,0.6c-1.1,0.3-1.2,0.5-1.3-0.7c-0.1-1.4,1.2-2.9,1.7-4.2
									c0.8-1.8,1-3.7,0.9-5.7C237,98,236.5,98,236.5,98.3L236.5,98.3z"/>
							</g>
						</g>
						<g>
							<g>
								<path class="st26" d="M240.5,95.6c0.6,0.2,1.2,0.2,1.9,0.2c0.7,0.1,1.3,0.1,2,0.2c0.8,0.1,1.1-1.4,0.2-1.5
									c-1.2-0.2-2.8-0.5-4-0.2C239.8,94.6,239.9,95.4,240.5,95.6L240.5,95.6z"/>
							</g>
						</g>
						<g>
							<g>
								<path class="st26" d="M230.7,95.7c1,0.2,2.1,0,3.2,0.1c1,0.1,1-1.4,0-1.5c-1.1-0.1-2.4-0.1-3.3,0.6
									C230.3,95,230.2,95.6,230.7,95.7L230.7,95.7z"/>
							</g>
						</g>
						<g>
							<g>
								<path class="st26" d="M247.4,100.9c1-0.1,2-0.5,3-0.8c1-0.3,2.1-0.5,3-1.1c0.3-0.2,0.2-0.7-0.2-0.7c-1,0-2.1,0.4-3.1,0.8
									c-1,0.3-2,0.6-2.9,1.2C247,100.5,247.1,100.9,247.4,100.9L247.4,100.9z"/>
							</g>
						</g>
						<g>
							<g>
								<path class="st25" d="M239.8,93.2c-4.8-0.3-9.8-0.3-14-2.5c-2-1.1-3.8-2.7-4.2-4.9c-0.4-2.1,1.2-4.6,3.5-4.7
									c0.5,0,1,0,1.4-0.2c0.5-0.3,0.6-1,0.7-1.5c0.5-3.8,3.7-7.6,7.8-7.5c3.4,0.1,6.5,2.7,9.7,1.9c1-0.2,1.9-0.8,2.8-1.2
									c2.8-1.3,6-1.8,9-1.2c3.2,0.6,6.6,3.1,5.8,6.1c-0.3,1-1,1.8-1.2,2.8c-0.7,3.6,5,5.3,6.1,8.8c1,3.2-2.1,6.3-1.9,9.6
									c0.1,1.8,1.2,4-0.2,5.3c-0.7,0.7-2,0.9-2.5,1.7c-0.7,1.2,0.6,2.5,0.7,3.8c0.1,1.6-1.7,3-3.5,2.9c-1.8-0.1-3.2-1.5-3.9-3
									c-0.7-1.5-0.8-3.2-0.7-4.9c3-0.8,4.9-5.8,2-7.1c-1.5-0.7-3.1,1-3.7,2.4C250.7,95,245.9,93.2,239.8,93.2z"/>
							</g>
							<g>
								<path class="st25" d="M252,100.8c-1,2.3-2,4.6-3,6.8c-0.4,0.9-0.8,1.9-1.6,2.5c-1.2,1-2.9,1.1-4.3,0.7
									c-1.5-0.3-4.3-1.1-5.9-1c-3.5,0.3-6,2-6.2,2.4c-0.4,0.8,0.2,2.2,0.2,3.1c0,1-0.1,2-0.7,2.9c-0.3,0.6-0.8,1.1-1.3,1.5
									c-1.2,1.3-2.3,2.9-2.2,4.7c0.1,2.5,2.4,4.2,4.4,5.5c1.3,0.9,2.7,1.8,4.2,2c1,0.2,2.1,0.1,3.2,0c2.2-0.2,4.4-0.4,6.5-1
									c2.1-0.6,4.1-1.8,5.4-3.5c1.1-1.5,1.7-3.3,2.2-5.2c0.8-2.9,1.7-5.9,1.8-8.9c0.1-2.8-0.4-5.7-0.7-8.5c-0.3-2.5-0.3-5-0.2-7.4
									c0-0.3,0.1-1-0.4-1.1c-0.5-0.1-0.3,0.7-0.4,1C252.8,98.7,252.4,99.7,252,100.8z"/>
							</g>
							<g>
								<path class="st20" d="M233.7,113.9c-0.5,1-0.2,2.3,0.6,3.1c0.4,0.4,0.9,0.6,1.4,0.6c0.5-0.1,1-0.5,0.9-1
									c0-0.2-0.1-0.4,0-0.5c0.1-0.2,0.3-0.2,0.5-0.2c0.7,0,1.5,0,1.8,0.6c0.1,0.2,0.1,0.4,0.2,0.6c0.3,0.4,0.8,0.5,1.3,0.4
									c0.7-0.1,1.4-0.2,2.1-0.5c0.3-0.1,0.7-0.3,0.9-0.5c0.2-0.3,0.4-0.7,0.3-1c-0.1-0.3-0.4-0.5-0.6-0.6
									C241,113.2,235.4,110.2,233.7,113.9z"/>
							</g>
							<g>
								<g>
									<path class="st26" d="M234.7,113.8c1.1,0.7,3.5,0.7,4.5-0.1c0.3-0.2,0.2-0.6-0.2-0.6c-0.7,0-1.4,0.3-2.1,0.3
										c-0.7,0-1.4-0.1-2.1-0.1C234.6,113.4,234.5,113.7,234.7,113.8L234.7,113.8z"/>
								</g>
							</g>
						</g>
					</g>
					<g>
						<path class="st10" d="M264.7,240.5c0,0-1.4-39.6,7.4-42.2s28.3-1.9,28.3-1.9l1.8,7.1c0,0-25.5-1.9-29,3
							c-3.5,4.9,0,34.4,0,34.4L264.7,240.5z"/>
					</g>
				</g>
				<g>
					<g>
						<path class="st20" d="M193.5,182.2l11.4-3.8l10.1,2.5c5.7-1.5,7.6-1.4,19.2-4.4c9.8-2.5,21.1-7.5,21.1-7.5l12.8-19.1
							c5.4,0.5,12.3,11.5,12.3,11.5s-15.5,21.1-19.9,22.6c-4.4,1.5-38.1,5.4-49.4,4.1c-3.6-0.4-9.9-4.3-9.9-4.3l-5.7,1.3l-7,4.7
							l-1.2-1l2.8-3L193.5,182.2z"/>
					</g>
					<g>
						<path class="st23" d="M276.7,123.5c0,0,15.2,2.5,15,15.5c-0.2,8.5-11.8,24.3-11.8,24.3s-6.4-8.8-14.2-11.3
							c0,0,6.1-12,6.6-16.9C272.8,130.1,276.7,123.5,276.7,123.5z"/>
					</g>
					<g>
						<g>
							<path class="st10" d="M171,191.2h42.9v-3.7H168v0.7C168,189.9,169.3,191.2,171,191.2z"/>
						</g>
						<g>
							<rect x="194.3" y="188.7" class="st19" width="15.3" height="1.1"/>
						</g>
						<g>
							<rect x="189.8" y="188.7" class="st19" width="2.3" height="1.1"/>
						</g>
					</g>
				</g>
			</g>
			<g>
				<g>
					<g>
						<polygon class="st10" points="97.8,175.7 95.8,160.5 96.5,157.7 98.2,160 100.1,175.5 						"/>
					</g>
					<g>
						<polygon class="st10" points="107.8,176.7 110,161.5 111.5,159 112.4,161.7 110,177.1 						"/>
					</g>
					<g>
						<polygon class="st10" points="100.9,177.8 101,162.3 102.4,159.8 103.5,162.3 103.3,177.9 						"/>
					</g>
				</g>
				<g>
					<polygon class="st23" points="110.1,192.9 98.3,192.9 96.2,173.4 111.7,173.4 					"/>
				</g>
			</g>
			<g>
				<g>
					<polygon class="st28" points="262.1,340.4 264.9,340.4 233.1,202.3 227.1,202.3 					"/>
				</g>
				<g>
					<polygon class="st28" points="176,339 178.8,339 199.3,202.3 193.3,202.3 					"/>
				</g>
				<g>
					<polygon class="st28" points="133.2,339.8 136,339.8 113.6,202.3 107.6,202.3 					"/>
				</g>
				<g>
					<polygon class="st28" points="54.1,338.4 56.9,338.4 83.9,202.3 77.9,202.3 					"/>
				</g>
				<g>
					<rect x="101" y="196.1" class="st29" width="149" height="6.2"/>
				</g>
				<g>
					<rect x="53.3" y="196.1" class="st30" width="137.4" height="6.2"/>
				</g>
				<g>
					<rect x="104.4" y="190.9" class="st30" width="159.3" height="8.3"/>
				</g>
				<g>
					<rect x="32.4" y="190.9" class="st31" width="147.7" height="8.3"/>
				</g>
			</g>
		</g>
	</g>
</g>
<g id="DESIGNED_BY_FREEPIK_1_">
</g>
</svg>
