<?xml version="1.0" encoding="utf-8"?>
<!-- Generator: Adobe Illustrator 19.0.0, SVG Export Plug-In . SVG Version: 6.00 Build 0)  -->
<svg version="1.1" xmlns="http://www.w3.org/2000/svg" xmlns:xlink="http://www.w3.org/1999/xlink" x="0px" y="0px"
	 viewBox="0 0 500 500" style="enable-background:new 0 0 500 500;" xml:space="preserve">
<style type="text/css">
	.st0{display:none;}
	.st1{display:inline;opacity:0.85;fill:#FAFAFA;}
	.st2{opacity:0.17;fill:#8982BC;}
	.st3{fill:#DDD6FF;}
	.st4{opacity:0.18;fill:#8982BC;}
	.st5{fill:#8982BC;}
	.st6{fill:#EFF3FB;}
	.st7{fill:#624FB5;}
	.st8{fill:#FFFFFF;}
	.st9{fill:#4D7EB7;}
	.st10{font-family:'Gilroy-Light';}
	.st11{font-size:6.5716px;}
	.st12{fill:#FC846D;}
	.st13{fill:#F9D452;}
	.st14{fill:#57BE8B;}
	.st15{fill:#C4B9FF;}
	.st16{fill:#FE9887;}
	.st17{opacity:0.18;}
	.st18{fill:#3F327A;}
	.st19{fill:#F7D3A9;}
	.st20{fill:#FFC359;}
	.st21{fill:#353E70;}
	.st22{fill:#D69E43;}
	.st23{opacity:0.25;fill:#8982BC;}
	.st24{fill:#2C2656;}
	.st25{fill:#7FBBEF;}
	.st26{fill:#CE6C5F;}
	.st27{fill:#453C87;}
	.st28{fill:#DBA246;}
	.st29{fill:#D3AB84;}
	.st30{fill:#F4F3FF;}
	.st31{fill:#232049;}
	.st32{opacity:0.36;fill:#C4B9FF;}
	.st33{fill:#58BB85;}
	.st34{fill:none;stroke:#7972A8;stroke-width:5.000000e-002;stroke-miterlimit:10;}
	.st35{fill:#76CC9B;}
	.st36{fill:#FFD052;}
	.st37{fill:#F5F1EB;}
	.st38{font-family:'Riffic-Bold';}
	.st39{font-size:22.3929px;}
	.st40{fill:#40337B;}
	.st41{fill:#F19E36;}
	.st42{opacity:6.000000e-002;fill:#8982BC;}
</style>
<g id="Background" class="st0">
	<rect class="st1" width="500" height="500"/>
</g>
<g id="Objects">
	<ellipse class="st2" cx="142.2" cy="478.2" rx="24.8" ry="2.3"/>
	<ellipse class="st2" cx="88.9" cy="433.8" rx="24.8" ry="2.3"/>
	<ellipse class="st2" cx="400.9" cy="437.8" rx="30.8" ry="2.3"/>
	<ellipse class="st2" cx="218.3" cy="433" rx="21.8" ry="2"/>
	<g>
		<polygon class="st3" points="116,176.4 116,431 386.5,431 386.5,184.8 		"/>
		<polygon class="st4" points="188.4,363.7 184.4,432.7 320.2,430.5 		"/>
		<polygon class="st5" points="190.2,432.5 188.4,363.7 317.9,356.5 320.2,430.5 		"/>
		<polygon class="st4" points="234.9,265.1 236.4,329.3 370.1,328.2 363.9,253.1 		"/>
		<polygon class="st6" points="114.7,191.2 386.5,193.1 386.5,182.1 114.7,175.8 		"/>
		<polygon class="st7" points="114.7,191.2 114.7,213.6 386.5,213.6 386.5,193.1 		"/>
		<circle class="st8" cx="141.3" cy="202.4" r="7.9"/>
		<polyline class="st8" points="158.9,199.7 158.9,202.4 158.9,205.1 198.5,205.1 198.5,199.7 		"/>
		<polygon class="st8" points="220.6,196 220.6,210.3 320.9,210.3 320.9,197.1 		"/>
		<text transform="matrix(1 0 0 1 227.2798 206.0156)" class="st9 st10 st11">Text</text>
		<g>
			<circle class="st12" cx="123.9" cy="184.5" r="1.7"/>
			<circle class="st13" cx="131.7" cy="184.5" r="1.7"/>
			<circle class="st14" cx="139.6" cy="184.5" r="1.7"/>
		</g>
		<rect x="137.8" y="231.3" class="st15" width="3.6" height="45.6"/>
		<polygon class="st5" points="149.2,234.6 149.2,238.4 198.5,238.4 199.1,234.1 		"/>
		<polygon class="st5" points="232.5,229.5 232.5,233.4 370.2,233.4 372,229 		"/>
		<polygon class="st5" points="232.5,333 232.5,336.9 370.2,336.9 372,332.5 		"/>
		<polygon class="st5" points="232.5,242.6 232.5,246.5 284.9,246.5 285.6,242.1 		"/>
		<polygon class="st5" points="232.5,346.3 232.5,350.1 284.9,350.1 285.6,345.8 		"/>
		<polygon class="st5" points="149.6,246.5 149.6,250.3 198.9,250.3 199.1,246.8 		"/>
		<polygon class="st5" points="149.4,259.1 149.4,262.9 198.7,262.9 198.9,259.4 		"/>
		<polygon class="st5" points="149.4,273.1 149.4,276.9 198.7,276.9 198.9,273.4 		"/>
		<polygon class="st16" points="234.9,261.5 240.5,329.4 369.6,318.8 363.9,249.5 		"/>
	</g>
	<g class="st17">
		<path class="st5" d="M350.9,320.7c-1.1-2.2-1.8-4.6-2.3-7c-0.1-0.4-0.1-0.8,0-1.2c0.2-0.9,1.3-1.4,2.2-1.3
			c0.9,0.1,1.7,0.7,2.3,1.4c0.6,0.7,1.2,1.5,1.8,2.1c0.5,0.4,1,0.8,1.5,1.1c1.2,0.7,2.6,1.3,3.9,1.8c0.9,0.3,1.8,0.5,2.4,1.1
			c-0.9,0.4-2,0.4-3,0.4c-3.1-0.1-6.2,0.3-9.3,1c0.2-0.2,0.6-0.3,0.9-0.2"/>
	</g>
	<g class="st17">
		<path class="st5" d="M369.2,304.3c-2.5-1.3-3.2-4.4-3.9-7.1c-1.2-5-3.2-9.8-5.9-14.2c-0.5-0.8-1-1.6-1.2-2.5
			c-0.3-1.8,0.7-3.6,2.3-4.5c1.6-0.9,3.5-1,5.2-0.6L369.2,304.3z"/>
	</g>
	<g>
		<g>
			<polygon class="st3" points="380.9,410.7 382.5,413.3 384.5,412.4 382.7,409.6 			"/>
			<path class="st18" d="M390,419.7c0,0-8.9-2.1-10.3-1c-1.4,1.1,10.3,2.6,10.3,2.6L390,419.7z"/>
			<path class="st19" d="M356.8,318.6c0,0,0.1-4.5-0.2-4.5c-0.8-0.2-0.9,2.1-0.9,2.1s-1.4-4.4-2-4.2c-0.4,0.1,0.1,2.7,0.1,2.7
				s-1.1-2-1.7-1.9c-0.5,0.1,0.6,2.9,0.6,2.9s-1-1.3-1.5-1.2c-0.4,0.1,3.2,6.1,3.2,6.1L356.8,318.6z"/>
			<path class="st18" d="M375.6,352.9c0,0-14.1,17.1-7.1,37.2c7.1,20.1,11.8,22.2,11.8,22.2l4.1-2.1c0,0-7.9-18.8-8.2-25.6
				c-0.3-6.2,10.5-20.8,10.5-20.8l-2.2,55.3l5.2,0.7c0,0,13.9-62,12.4-66.8C400.8,348.1,394.6,341,375.6,352.9z"/>
			<path class="st20" d="M372.5,329.5l3.1,23.4l25.3-3l-10.2-36.6l-7.6,1.2l-5.4,0.6c-3.1,0.4-5,0.9-7.2,3.1l-8.8,10.1l-4.4-10.5
				l-3.8,1.9c0,0,3.1,19.1,8.1,17.2C364.9,335.6,372.5,329.5,372.5,329.5z"/>
			<path class="st20" d="M368.2,284.1c0,0,5.6,14.1,6.3,16.3c0.7,2.2,16.1,12.9,16.1,12.9l-7.6,3.5l-14.9-13.8l-3.3-18.9H368.2z"/>
			<g>
				<path class="st19" d="M374,299l-2.1,7.4c-0.5,1.6,0.5,3.4,2.1,3.8l1,0.3v5.3h4.5c1.6,0,2.9-1.3,2.9-2.9v-12L374,299z"/>
				<path class="st21" d="M378.3,311c-0.8-0.6-2-1.7-2-3.2c0,0,3.1-0.1,2.3-2.3c-0.5-1.3-2.3-0.3-2.3-0.3s0.7-2.7,0.3-3.6
					c0,0-5.4,0-4.5-3.2c0,0,1.5-1.4,4.9-1.5c3.4-0.2,5.2,5.5,5.2,5.5l-2.8,8.2C379.1,311.1,378.6,311.2,378.3,311z"/>
			</g>
			<path class="st19" d="M364.9,284.1c0,0-2.8-3.5-2.7-3.7c0.5-0.7,2,1,2,1s-1.7-4.3-1-4.6c0.4-0.1,1.5,2.2,1.5,2.2
				s-0.4-2.3,0.1-2.6c0.5-0.2,1.3,2.6,1.3,2.6s0-1.6,0.5-1.8c0.3-0.1,1.3,6.8,1.3,6.8H364.9z"/>
			<g>
				<path class="st22" d="M378.2,325.4c0,0.1-0.3,0.2-0.9,0.7c-0.5,0.4-1.3,1-2.1,1.6c-1.7,1.2-3.1,2.1-3.2,2
					c-0.1-0.1,1.3-1.1,2.9-2.3c0.8-0.6,1.6-1.1,2.2-1.5C377.8,325.5,378.2,325.3,378.2,325.4z"/>
			</g>
			<g>
				<path class="st22" d="M382.4,311.1c0,0,0,0,0.1,0c0.1,0,0.1,0.2,0.2,0.3c0,0.3,0,0.7-0.1,1.1c-0.1,0.5-0.2,1-0.6,1.6
					c-0.2,0.3-0.4,0.5-0.7,0.8c-0.3,0.2-0.6,0.4-1,0.5c-1.4,0.4-2.7,0.5-3.7,0.5c-0.9,0-1.5-0.1-1.5-0.2c0-0.1,0.6,0,1.5-0.1
					c0.9-0.1,2.2-0.2,3.5-0.6c0.7-0.2,1.1-0.6,1.5-1.1c0.3-0.5,0.5-1,0.6-1.5c0.1-0.4,0.2-0.8,0.2-1.1
					C382.5,311.2,382.4,311.1,382.4,311.1z"/>
			</g>
			<g>
				<path class="st22" d="M361.3,331.7c0,0,0.1,0.1,0.1,0.3l-0.2,0c-0.1-0.3-0.1-1-0.1-1.7c0.1-1.1,0.3-2,0.4-2c0.1,0,0.1,0.9,0,2
					c0,0.7-0.1,1.4-0.1,1.7l-0.2,0C361.3,331.8,361.3,331.7,361.3,331.7z"/>
			</g>
			<g>
				
					<ellipse transform="matrix(0.1909 0.9816 -0.9816 0.1909 616.0158 -88.826)" class="st22" cx="361.9" cy="329.3" rx="1.6" ry="0.2"/>
			</g>
			<g>
				
					<ellipse transform="matrix(0.9341 -0.3571 0.3571 0.9341 -90.7142 147.9837)" class="st22" cx="355.4" cy="319.7" rx="2.3" ry="0.2"/>
			</g>
			<g>
				<path class="st22" d="M399.7,347.7c0,0-0.3,0.2-0.8,0.5c-0.6,0.3-1.4,0.6-2.5,0.9c-2.2,0.6-5.3,1.3-8.7,1.9
					c-1.7,0.3-3.3,0.6-4.8,0.8c-1.5,0.2-2.8,0.4-4,0.5c-1.1,0.1-2.1,0-2.7-0.2c-0.6-0.1-1-0.3-0.9-0.3c0,0,0.3,0.1,1,0.2
					c0.6,0.1,1.5,0.1,2.7,0c1.1-0.1,2.5-0.3,3.9-0.6c1.5-0.2,3.1-0.5,4.8-0.8c3.4-0.6,6.5-1.3,8.7-1.8c1.1-0.3,2-0.6,2.5-0.8
					C399.4,347.8,399.7,347.6,399.7,347.7z"/>
			</g>
			<path class="st23" d="M378,325.2c0,0-1.5,10.9-4.6,12.6l-1-8L378,325.2z"/>
			<path class="st21" d="M373.2,301c-0.5-0.5-1-0.9-1.3-1.5c-0.2-0.7,0.1-2.4,0.7-2.8c0.7-0.4,1.6,0,2.4,0.1
				c1.2,0.2,2.4-0.3,3.7-0.4c1.2-0.1,2.7,0.3,3.1,1.4c0.1,0.2,0.1,0.5,0.4,0.6c0.1,0,0.2,0,0.3,0c1-0.1,1.6,1,1.6,2
				c-0.1,1-0.6,1.8-0.8,2.7c-0.5,2,0.4,4.3-0.5,6.2c-0.7,1.5-2.9,2.8-4.4,1.7l1.9-8.6L373.2,301z"/>
			<path class="st18" d="M384.5,412.4c0,0-8.3,3.7-8.8,5.4c-0.5,1.7,9.8-4.2,9.8-4.2L384.5,412.4z"/>
			<g>
				<path class="st24" d="M376.2,382c0.1,0.1-1,0.8-2.4,1.6c-1.4,0.8-2.6,1.2-2.7,1.1c0-0.1,1.1-0.7,2.5-1.5
					C375,382.5,376.1,381.9,376.2,382z"/>
			</g>
			<g>
				<path class="st24" d="M376.1,384.5c0,0.1-0.8,0.4-1.8,1c-1,0.6-1.7,1.1-1.8,1c-0.1-0.1,0.6-0.8,1.6-1.4
					C375.1,384.5,376.1,384.4,376.1,384.5z"/>
			</g>
			<g>
				<path class="st24" d="M394.5,389.1c0,0.1-1.4-0.1-2.9-0.6c-1.6-0.5-2.8-1.1-2.8-1.2c0-0.1,1.3,0.3,2.9,0.8
					C393.3,388.6,394.5,389,394.5,389.1z"/>
			</g>
			<g>
				<path class="st24" d="M394.9,388.4c0,0.1-1.3-0.2-2.9-0.9c-1.5-0.6-2.6-1.4-2.6-1.5c0.1-0.1,1.3,0.5,2.8,1.1
					C393.7,387.8,394.9,388.3,394.9,388.4z"/>
			</g>
			<g>
				<g>
					
						<ellipse transform="matrix(-0.5307 -0.8475 0.8475 -0.5307 234.8489 952.986)" class="st24" cx="381.3" cy="411.5" rx="0.7" ry="0.2"/>
				</g>
				<g>
					
						<ellipse transform="matrix(-0.4798 -0.8774 0.8774 -0.4798 203.217 935.3763)" class="st24" cx="378.9" cy="407.4" rx="1.3" ry="0.2"/>
				</g>
				<g>
					
						<ellipse transform="matrix(-0.4195 -0.9078 0.9078 -0.4195 168.9095 913.3589)" class="st24" cx="376.5" cy="402.7" rx="1.3" ry="0.2"/>
				</g>
				<g>
					
						<ellipse transform="matrix(-0.3577 -0.9338 0.9338 -0.3577 136.919 889.6706)" class="st24" cx="374.4" cy="397.7" rx="1.3" ry="0.2"/>
				</g>
				<g>
					<path class="st24" d="M372.3,391.4c0.1,0,0.4,0.5,0.6,1.2c0.2,0.7,0.3,1.3,0.2,1.3c-0.1,0-0.4-0.5-0.6-1.2
						C372.3,392,372.2,391.4,372.3,391.4z"/>
				</g>
				<g>
					<path class="st24" d="M371,386.2c0.1,0,0.3,0.5,0.5,1.3c0.2,0.7,0.2,1.3,0.1,1.3c-0.1,0-0.3-0.5-0.5-1.3
						C371,386.8,370.9,386.2,371,386.2z"/>
				</g>
				<g>
					<path class="st24" d="M370.5,380.9c0.1,0,0.2,0.6,0.3,1.3c0,0.7,0,1.3-0.1,1.3c-0.1,0-0.2-0.6-0.3-1.3
						C370.3,381.5,370.4,380.9,370.5,380.9z"/>
				</g>
				<g>
					<path class="st24" d="M370.7,375.6c0.1,0,0.1,0.6,0.1,1.3c-0.1,0.7-0.2,1.3-0.3,1.3c-0.1,0-0.1-0.6-0.1-1.3
						C370.5,376.2,370.6,375.6,370.7,375.6z"/>
				</g>
				<g>
					<path class="st24" d="M371.8,370.3c0.1,0,0.1,0.6-0.1,1.3c-0.2,0.7-0.4,1.3-0.5,1.3c-0.1,0-0.1-0.6,0.1-1.3
						C371.4,370.9,371.6,370.3,371.8,370.3z"/>
				</g>
				<g>
					<path class="st24" d="M373.4,365.3c0.1,0,0,0.6-0.3,1.3c-0.3,0.7-0.5,1.2-0.6,1.2c-0.1,0,0-0.6,0.3-1.3
						C373.1,365.8,373.3,365.2,373.4,365.3z"/>
				</g>
				<g>
					<path class="st24" d="M375.7,360.4c0.1,0.1-0.1,0.6-0.4,1.3c-0.3,0.7-0.7,1.1-0.8,1.1c-0.1,0,0.1-0.6,0.4-1.3
						C375.3,360.9,375.6,360.4,375.7,360.4z"/>
				</g>
				<g>
					<path class="st24" d="M378.6,355.9c0.1,0.1-0.2,0.6-0.6,1.2c-0.4,0.6-0.8,1.1-0.9,1c-0.1-0.1,0.2-0.6,0.6-1.2
						C378.1,356.3,378.5,355.9,378.6,355.9z"/>
				</g>
				<g>
					
						<ellipse transform="matrix(0.6366 -0.7712 0.7712 0.6366 -134.1281 421.9408)" class="st24" cx="380.6" cy="353.3" rx="0.7" ry="0.2"/>
				</g>
			</g>
		</g>
		<g>
			<g>
				<path class="st5" d="M416.9,437.8c-0.3,0.1-3.8-16.1-7.8-36.2c-4.1-20-7.1-36.3-6.9-36.4c0.3-0.1,3.8,16.1,7.8,36.2
					C414.1,421.5,417.2,437.8,416.9,437.8z"/>
			</g>
			<g>
				<path class="st5" d="M428.9,437.8c-0.3,0.1-3.8-16.1-7.8-36.2c-4.1-20-7.1-36.3-6.9-36.4s3.8,16.1,7.8,36.2
					C426.1,421.5,429.2,437.8,428.9,437.8z"/>
			</g>
			<rect x="380.9" y="358.5" class="st5" width="36.1" height="6.8"/>
			<g>
				<g>
					<path class="st5" d="M397.1,361.9c0.3,0-2.5,17.1-6.1,38c-3.6,21-6.8,37.9-7,37.9c-0.3,0,2.5-17.1,6.1-38.1
						C393.7,378.8,396.8,361.8,397.1,361.9z"/>
				</g>
				<g>
					<path class="st5" d="M387.5,361.9c0.3,0-2.5,17.1-6.1,38c-3.6,21-6.8,37.9-7,37.9c-0.3,0,2.5-17.1,6.1-38.1
						C384,378.8,387.2,361.8,387.5,361.9z"/>
				</g>
			</g>
			<polygon class="st5" points="408.4,395.6 420.4,395.6 420.9,398.3 408.9,398.3 			"/>
			<g>
				<ellipse transform="matrix(0.9896 -0.1439 0.1439 0.9896 -58.0675 59.2654)" class="st5" cx="380.6" cy="431" rx="5" ry="0.5"/>
			</g>
			<g>
				
					<ellipse transform="matrix(0.9896 -0.1439 0.1439 0.9896 -57.1529 59.3517)" class="st5" cx="381.6" cy="424.7" rx="5" ry="0.5"/>
			</g>
			<g>
				
					<ellipse transform="matrix(0.9896 -0.1439 0.1439 0.9896 -56.0872 59.4303)" class="st5" cx="382.7" cy="417.3" rx="5" ry="0.5"/>
			</g>
			<g>
				<ellipse transform="matrix(0.9896 -0.1439 0.1439 0.9896 -55.0193 59.541)" class="st5" cx="384" cy="410" rx="5" ry="0.5"/>
			</g>
			<g>
				
					<ellipse transform="matrix(0.9896 -0.1439 0.1439 0.9896 -54.0703 59.5963)" class="st5" cx="384.9" cy="403.5" rx="5" ry="0.5"/>
			</g>
			<g>
				<ellipse transform="matrix(0.9896 -0.1439 0.1439 0.9896 -53.1147 59.7739)" class="st5" cx="386.5" cy="397" rx="5" ry="0.5"/>
			</g>
			<g>
				<ellipse transform="matrix(0.9896 -0.144 0.144 0.9896 -52.1077 59.8922)" class="st5" cx="387.6" cy="389.8" rx="5" ry="0.5"/>
			</g>
			<g>
				<ellipse transform="matrix(0.9896 -0.144 0.144 0.9896 -50.9704 59.9979)" class="st5" cx="388.9" cy="382" rx="5" ry="0.5"/>
			</g>
			<g>
				<ellipse transform="matrix(0.9896 -0.144 0.144 0.9896 -49.695 60.1433)" class="st5" cx="390.5" cy="373.3" rx="5" ry="0.5"/>
			</g>
		</g>
	</g>
	<g>
		<path class="st19" d="M68.4,362.9c0,0-1.6,4.7-0.5,8.1c1.1,3.4,2.2,2.2,2.2,2.2s-0.8-1.3-0.6-3.2c0.2-1.9,0.6-2.5,0.6-2.5l0.9,4
			c0,0,0.3-0.8,0.6-2c0.3-1.2-0.6-3.4-0.4-4.6c0.2-1.1,0.6-2.4,0.6-2.4L68.4,362.9z"/>
		<path class="st19" d="M133.6,300.7l0.3-1.8c0,0-1.8-4-1.3-4.8c0.6-0.9,2.4-2.5,2.4-2.5l1.1,0.2c0,0,2,2.6,2.2,3.5
			c0.2,0.9-1,4-1.8,6.4L133.6,300.7z"/>
		<polygon class="st25" points="134.1,289.8 135.1,297.9 136.2,297.7 135.2,289.6 134.5,288.3 		"/>
		<path class="st19" d="M133.8,292.7l1.2-1.1c0,0,0.6,1.2-0.7,2.5L133.8,292.7z"/>
		<g>
			<polygon class="st19" points="106.4,428.9 106.6,431.9 104.4,432.2 104.3,428.9 			"/>
			<path class="st18" d="M104.4,432.2c0,0,9-1.6,10.3-0.5c1.3,1.1-10.5,2.1-10.5,2.1L104.4,432.2z"/>
		</g>
		<g>
			<polygon class="st19" points="75,418.3 72.5,420 71.1,418.3 73.9,416.5 			"/>
			<path class="st18" d="M71.1,418.3c0,0,6,6.8,5.8,8.6c-0.3,1.7-7.2-7.9-7.2-7.9L71.1,418.3z"/>
		</g>
		<path class="st7" d="M110,354.2c0,0,7.5,6.9,7.7,32.7c0.1,25.8-8.9,42.9-8.9,42.9h-6.3c0,0,10.4-32.4-1.3-53.8
			c0,0-3.9,25-24.6,44.1l-5-5.3c0,0,15.3-19.2,15.4-43.1c0-4.7,0.8-7.2-0.8-12.5L110,354.2z"/>
		<path class="st16" d="M105.7,325.2c0,0,19.7-5.3,24.7-19.1l2.8-6.3l3.8,1.3c0,0-1,25.3-25.4,32.2l-0.4,1.5
			c-1.7,6.6-1.8,13.6-0.2,20.2l2.5,5.1l-26.3,5.9c0,0-3.3-12.9-0.2-26.5c0,0-5.7-1.3-15.3,25.6l-3.7-0.7c0,0,5.3-36.1,24.4-41.1
			L105.7,325.2z"/>
		<g>
			<path class="st19" d="M106.1,310.4l1.5,6.9c0.3,1.5-0.7,3.1-2.2,3.4l-0.9,0.2l-0.3,4.8l-6.7-0.5l1-13.6L106.1,310.4z"/>
			<path class="st21" d="M100.7,321.5c0,0,2.7-1.2,2.8-3.2c0,0-3.5-2.2-2.3-3.1c1.2-0.9,3.1,1.3,3.1,1.3s-1-3.1-0.6-3.9
				c0,0,4.9,0.3,4.3-2.6c0,0-1.3-1.3-4.4-1.7c-3.1-0.4-5.2,4.7-5.2,4.7L100.7,321.5z"/>
			<path class="st21" d="M102.8,308.6c-0.7-0.6-1.7-0.8-2.6-0.8c-2.3,0-4.7,1.1-6.1,2.9c-1.5,1.8-2.1,4.3-1.6,6.6
				c0.1,0.5,0.3,1,0.6,1.5c0.8,1.2,2.2,1.7,3.5,2.1c1.2,0.4,3.2,1.1,4.2,0.4c0,0-1.5-4.8-0.6-7.7
				C101.1,310.7,102.8,308.6,102.8,308.6z"/>
			<path class="st21" d="M93.1,313.7c-1.8-1.4-4.8-1-6.1,0.8c-0.9,1.2-1.1,2.9-2.3,3.8c-1.4,1.1-3.4,0.6-5.1,0.4
				c-3.1-0.2-6.4,1.1-8.1,3.7c-1.7,2.6-1.5,6.4,0.8,8.5c1.5,1.4,3.7,1.9,5.7,1.7c2-0.1,4-0.9,5.9-1.6c2.7-1.1,5.6-2.8,6.5-5.6
				c0.6-1.9,0.1-4.1,0.4-6.1c0.1-0.6,0.3-1.3,0.8-1.5c0.4-0.2,1,0,1.4,0c1.2-0.1,1.9-1.5,1.5-2.6c-0.4-1.1-1.5-1.8-2.6-2.1"/>
		</g>
		<path class="st7" d="M96.4,323.9c-1.7,1.1-3.4,2.2-4.8,3.7c-1.4,1.5-2.5,3.3-2.6,5.4c0,0.5,0,1.1,0.4,1.4c0.2,0.2,0.5,0.3,0.7,0.4
			c2.1,0.6,4.2-0.7,6-1.9c3-2,6.1-4,8.4-6.8c0.2-0.2,0.3-0.5,0.2-0.7c-0.1-0.1-0.2-0.2-0.4-0.3C102.3,324.3,98.6,324.4,96.4,323.9"
			/>
		<g>
			<path class="st26" d="M104.9,326.4c0,0-0.1,0.1-0.2,0.3c-0.1,0.2-0.3,0.5-0.6,0.8c-0.1,0.2-0.3,0.4-0.4,0.6
				c-0.2,0.2-0.4,0.4-0.6,0.7c-0.2,0.2-0.4,0.5-0.7,0.8c-0.2,0.3-0.5,0.5-0.8,0.8c-1.1,1.1-2.5,2.4-4.4,3.5c-0.9,0.6-1.9,1-3,1.4
				c-1.1,0.4-2.3,0.7-3.5,0.7c-0.6,0-1.2,0-1.8,0c-0.3,0-0.6-0.1-0.9-0.3c-0.3-0.2-0.5-0.4-0.6-0.7c-0.2-0.6-0.1-1.2,0.1-1.8
				c0.2-0.5,0.3-1.1,0.5-1.5c0.4-1,1.1-1.8,1.7-2.5c0.6-0.7,1.2-1.3,1.8-1.9c1.1-1.1,2.1-2,2.8-2.6c0.3-0.3,0.6-0.5,0.8-0.7
				c0.2-0.1,0.3-0.2,0.3-0.2c0,0-0.1,0.1-0.2,0.3c-0.2,0.2-0.4,0.4-0.7,0.7c-0.6,0.6-1.6,1.5-2.7,2.6c-0.6,0.6-1.1,1.2-1.7,1.9
				c-0.6,0.7-1.2,1.5-1.6,2.5c-0.2,0.5-0.3,1-0.5,1.5c-0.2,0.5-0.3,1.1-0.1,1.5c0.2,0.5,0.7,0.7,1.2,0.8c0.6,0.1,1.2,0.1,1.8,0
				c1.2-0.1,2.3-0.4,3.4-0.7c1.1-0.4,2-0.9,2.9-1.4c1.8-1.1,3.2-2.3,4.3-3.4c0.3-0.3,0.5-0.5,0.8-0.8c0.2-0.3,0.5-0.5,0.7-0.8
				c0.2-0.2,0.4-0.5,0.6-0.7c0.2-0.2,0.3-0.4,0.5-0.6c0.3-0.3,0.5-0.6,0.6-0.8C104.8,326.4,104.9,326.4,104.9,326.4z"/>
		</g>
		<g>
			<path class="st26" d="M104.9,328.2c0,0-0.3,0.2-0.9,0.7c-0.5,0.5-1.2,1.2-1.9,2.3c-0.6,1.1-1.1,2.5-1.7,4.1
				c-0.3,0.8-0.6,1.6-1,2.5c-0.4,0.8-1,1.7-1.7,2.4c-0.8,0.8-1.8,1.3-2.7,1.6c-0.5,0.2-0.9,0.3-1.4,0.4c-0.5,0.1-1,0.1-1.5-0.2
				c-0.5-0.2-0.8-0.6-0.9-1.1c-0.2-0.4-0.2-0.9-0.2-1.3c0.1-0.8,0.4-1.5,0.6-2.1l0.2,0.1c-0.2,0.3-0.6,0.3-0.8,0.3
				c-0.3,0-0.5-0.2-0.7-0.4c-0.3-0.4-0.3-0.8-0.2-1.1c0.1-0.3,0.2-0.5,0.3-0.6c0.1-0.1,0.2-0.2,0.2-0.2c0,0-0.2,0.3-0.4,0.8
				c-0.1,0.3,0,0.7,0.2,1c0.1,0.1,0.3,0.2,0.6,0.3c0.2,0,0.5,0,0.6-0.2l0.5-0.6l-0.3,0.7c-0.2,0.6-0.5,1.3-0.6,2
				c0,0.4,0,0.8,0.2,1.1c0.2,0.4,0.4,0.7,0.8,0.9c0.4,0.2,0.8,0.2,1.3,0.1c0.4-0.1,0.9-0.2,1.4-0.4c0.9-0.3,1.8-0.8,2.6-1.6
				c0.7-0.7,1.2-1.5,1.6-2.3c0.4-0.8,0.7-1.6,1.1-2.4c0.6-1.6,1.1-3,1.8-4.2c0.7-1.1,1.4-1.9,2-2.3c0.1-0.1,0.3-0.2,0.4-0.3
				c0.1-0.1,0.2-0.1,0.3-0.2C104.8,328.3,104.9,328.2,104.9,328.2z"/>
		</g>
		<path class="st4" d="M93.9,342.5c0,0-2,6,2.9,2.7c5-3.4,5.7-15.7,5.7-15.7S99.1,341.8,93.9,342.5z"/>
		<g>
			<path class="st27" d="M113.1,400.3c0,0.1-1.3,0.1-2.9,0.3c-1.6,0.2-2.8,0.5-2.9,0.4c0-0.1,1.2-0.6,2.8-0.8
				C111.8,400,113.1,400.2,113.1,400.3z"/>
		</g>
		<g>
			<path class="st27" d="M113.9,398.2c0,0-0.3,0.3-0.8,0.6c-0.5,0.3-1.4,0.6-2.3,0.7c-0.9,0.1-1.8,0-2.4-0.1
				c-0.6-0.2-0.9-0.3-0.9-0.4c0-0.1,1.5,0.4,3.3,0.1C112.6,398.9,113.9,398.1,113.9,398.2z"/>
		</g>
		<g>
			<path class="st27" d="M90.4,395.6c0,0.1-1.1-0.4-2-1.6c-0.9-1.1-1.1-2.3-1-2.3c0.1,0,0.5,1,1.3,2.1
				C89.5,394.9,90.5,395.5,90.4,395.6z"/>
		</g>
		<g>
			<path class="st27" d="M89.8,396.3c-0.1,0-0.1-0.2-0.4-0.4c-0.3-0.2-0.7-0.5-1.2-0.7c-1-0.6-1.8-1-1.8-1.1c0-0.1,0.9,0.2,1.9,0.8
				c0.5,0.3,0.9,0.6,1.2,0.9C89.9,396,89.9,396.3,89.8,396.3z"/>
		</g>
		<g>
			<path class="st27" d="M106.9,377.9c0,0-0.6,0.1-1.6-0.2c-1-0.3-2.2-1-3.6-1.6c-1.4-0.7-2.6-1.3-3.5-1.8c-0.9-0.5-1.4-0.8-1.4-0.9
				c0,0,0.6,0.2,1.5,0.6c0.9,0.4,2.2,1,3.5,1.7c1.4,0.7,2.6,1.4,3.5,1.7C106.3,377.8,107,377.9,106.9,377.9z"/>
		</g>
	</g>
	<g class="st17">
		<path class="st5" d="M215.2,176.5c-1.4,1.1-1.8,3.3-1.3,5c0.5,1.8,1.6,3.3,2.7,4.7c2.8,3.6,5.8,7.2,9,10.6
			c1.5,1.7,3.1,3.3,4.3,5.2c4.9,7.6,3.3,17.6,4.2,26.6c0.2,2,1.2,4.6,3.2,4.5c0.8,0,1.4-0.4,2.1-0.9c4.2-2.9,6.8-7.9,6.9-13
			c0-1.5-0.1-3,0.3-4.4c0.7-2,2.4-3.3,3.8-4.8c2.9-3.2,4.2-7.4,5.5-11.5c1.4-4.7,2.8-9.9,0.6-14.3c-1.6-3.1-4.8-5-8-6.3
			c-10.5-4.2-22.2-2.6-33.4-1"/>
	</g>
	<g>
		<g>
			<polygon class="st19" points="243,230.5 243.1,233.5 240.9,233.9 240.9,230.6 			"/>
			<path class="st18" d="M240.9,233.9c0,0,9-1.6,10.3-0.5c1.3,1.1-10.5,2.1-10.5,2.1L240.9,233.9z"/>
		</g>
		<g>
			<polygon class="st19" points="249.5,214.1 248,216.7 246,215.8 247.7,213 			"/>
			<path class="st18" d="M246,215.8c0,0,8.4,3.5,8.9,5.2c0.5,1.7-9.9-4-9.9-4L246,215.8z"/>
		</g>
		<path class="st16" d="M245.6,141.6c3.5-2.2-1-4.1,3.2-3.8c0.9,0,2,0.1,2.7-0.4c1-0.7,1.2-2.1,0.9-3.3c-0.6-2.9-3.3-5.1-6.3-5.2
			c-4-0.1-7.4,3.3-11.4,3.1c-1.5-0.1-2.9-0.7-4.4-1.1c-4.2-1.3-9.7-0.6-11.8,3.3c-0.6,1-0.8,2.2-1.5,3.2c-1.8,2.9-5.6,3.4-8.4,5.2
			c-3.1,2-5,5.9-4.6,9.6c0.2,1.5,0.7,3.2,2,4.1c0,0,4.3,5.5,14,0C229.8,150.8,245.6,141.6,245.6,141.6z"/>
		<path class="st7" d="M237.5,152c1.5-1.7,24.6,23.6,29.6,26.3c4.9,2.7,3.8,0,3.8,0l-9.9-11l-19-21.4L237.5,152z"/>
		<path class="st15" d="M240.4,142.4c-4.2-2-9.2-1.5-12.8,1.4c0,0-0.1,0.1-0.1,0.1c-6.4,5.1-14.4,15.1-12,32.2l22.5-2.7
			c0,0-3.2-3.8,0.9-15.1c2.2-6.2,4.2-12,4.2-12L240.4,142.4z"/>
		<path class="st7" d="M228.4,150.6c0,0,1.9,20.2,9.5,22.9c7.6,2.7,21.3,2.7,21.3,2.7s1.1-1.4-13.5-4.9c-0.6-0.1-1.2-0.3-1.9-0.4
			c0,0-8.3-4.8-7.8-19.4c0-0.7,0-1.3-0.1-2c-0.3-2.1-1.4-6.5-4.4-6.1C227.5,143.9,228.4,150.6,228.4,150.6z"/>
		<path class="st20" d="M215.5,176.1c0,0,17.1,20.6,20.6,26.7c3.4,6.1,1.9,27.8,3,28.4c1.1,0.6,5.5,0,5.5,0l0.3-16.4l0.2-8.6
			c0.1-4.1-0.6-8.2-2.1-12.1l-4.6-12.2c0,0,18.9,1.2,15.6,10.7c-4.2,11.9-8,21-8,21l3.8,1.5c0,0,17.9-22.5,13.7-32.4
			c-4.2-9.9-25.5-9.1-25.5-9.1L215.5,176.1z"/>
		<g>
			<path class="st19" d="M252.5,136.9l-3,6.4c-0.7,1.4-2.4,2-3.8,1.3l-0.8-0.4l-1.4,1.6c-1,1.1-2.7,1.2-3.8,0.2l-0.7-0.6
				c-1.3-1.2-1.4-3.1-0.3-4.4l7-7.9L252.5,136.9z"/>
			<path class="st16" d="M241.5,142.4c0,0,2.8,0.7,4.1-0.8c0,0-1.5-3.8,0-3.9c1.5,0,1.6,2.9,1.6,2.9s1.1-3.1,1.9-3.4
				c0,0,3.7,3.3,5,0.6c0,0-0.2-1.8-2.4-4c-2.2-2.2-6.6-1-6.6-1L241.5,142.4z"/>
		</g>
		<g>
			<path class="st7" d="M243.1,146.2c0,0,0,0.1-0.2,0.3c-0.2,0.2-0.5,0.3-0.9,0.4c-0.4,0-0.9,0.1-1.5,0c-0.3,0-0.6-0.1-0.9-0.3
				c-0.3-0.2-0.5-0.4-0.7-0.7c-0.8-1.1-1-2.3-1-3.1c0-0.8,0.2-1.3,0.3-1.3c0.1,0,0,0.5,0,1.3c0,0.8,0.3,1.9,1,2.9
				c0.2,0.2,0.4,0.4,0.6,0.6c0.2,0.1,0.5,0.2,0.7,0.2c0.5,0.1,1,0,1.4,0c0.4,0,0.7-0.1,0.9-0.2C242.9,146.3,243,146.2,243.1,146.2z"
				/>
		</g>
		<g>
			<path class="st7" d="M231.3,148.4c0,0-0.2,0.4-0.6,1c-0.4,0.7-0.9,1.6-1.6,2.7c-1.3,2.3-3.2,5.5-4.6,9.2
				c-0.7,1.9-1.2,3.7-1.5,5.5c-0.3,1.7-0.4,3.3-0.4,4.6c0,1.3,0.1,2.4,0.2,3.1c0.1,0.7,0.2,1.1,0.2,1.1c0,0,0-0.1-0.1-0.3
				c0-0.2-0.1-0.5-0.2-0.8c-0.2-0.7-0.3-1.8-0.4-3.1c0-1.3,0-2.9,0.3-4.7c0.3-1.7,0.8-3.6,1.5-5.5c1.5-3.8,3.4-7,4.8-9.2
				c0.7-1.1,1.3-2,1.7-2.6C231,148.7,231.2,148.4,231.3,148.4z"/>
		</g>
		<path class="st16" d="M237,140.9c0,0,2.1,1.5,4.5,1.6c2.4,0.1,3.9-10,3.9-10L237,140.9z"/>
		<g>
			<path class="st28" d="M227.4,176.9c0,0,0.2,0.4,0.1,1.1c0,0.7-0.2,1.6-0.6,2.5c-0.4,0.9-1,1.7-1.5,2.1c-0.5,0.4-0.9,0.6-0.9,0.6
				c0,0,0.3-0.3,0.7-0.8c0.4-0.5,0.9-1.2,1.3-2.1c0.4-0.9,0.6-1.7,0.7-2.4C227.3,177.3,227.3,176.9,227.4,176.9z"/>
		</g>
		<g>
			<path class="st28" d="M227.7,185c0,0,0.1,0.1,0.3,0.4c0.2,0.3,0.5,0.6,0.9,1.1c0.8,1,1.9,2.4,3.3,4.2c1.3,1.8,2.9,4.1,4.2,6.7
				c0.7,1.3,1.3,2.8,1.8,4.3c0.5,1.6,0.9,3.2,1.2,4.9c1.1,6.8,1.4,13.1,1.5,17.6c0,2.3,0,4.1-0.1,5.4c0,0.6-0.1,1.1-0.1,1.5
				c0,0.3,0,0.5-0.1,0.5c0,0,0-0.2,0-0.5c0-0.3,0-0.8,0-1.5c0-1.3,0-3.1-0.1-5.3c-0.1-4.5-0.5-10.7-1.6-17.5
				c-0.3-1.7-0.6-3.3-1.1-4.9c-0.5-1.5-1.1-3-1.8-4.3c-1.3-2.7-2.8-4.9-4.1-6.7c-1.3-1.8-2.4-3.3-3.2-4.3c-0.4-0.5-0.7-0.9-0.9-1.2
				C227.8,185.1,227.7,185,227.7,185z"/>
		</g>
		<g>
			<path class="st28" d="M237.7,179.4c0.1,0,0.2,0.6,0.5,1.2c0.2,0.7,0.5,1.2,0.4,1.2c-0.1,0.1-0.5-0.4-0.8-1.1
				C237.6,180,237.6,179.4,237.7,179.4z"/>
		</g>
		<g>
			<path class="st28" d="M236.8,177c-0.1,0.1-0.7-0.5-1.5-1.2c-0.8-0.7-1.5-1.2-1.4-1.3c0.1-0.1,0.8,0.3,1.7,1
				C236.4,176.2,236.9,177,236.8,177z"/>
		</g>
		<g>
			<path class="st28" d="M240.8,181c0,0,0.1-0.1,0.4-0.2c0.3-0.1,0.7-0.3,1.3-0.6c1.2-0.4,3-0.8,5.3-0.7c1.1,0.1,2.4,0.3,3.6,0.7
				c1.3,0.4,2.6,1.1,3.7,2.2c0.5,0.6,1,1.2,1.3,2c0.3,0.7,0.4,1.6,0.5,2.4c0.1,0.8,0.1,1.6,0.1,2.5c0,0.8,0,1.7-0.1,2.6
				c-0.2,1.7-0.6,3.4-1.2,4.9c-0.6,1.5-1.3,2.9-1.9,4.3c-1.3,2.7-2.4,5.1-3.3,7.2c-1,2-1.7,3.7-2.3,4.8c-0.3,0.6-0.6,1-0.7,1.2
				c-0.2,0.3-0.3,0.4-0.3,0.4c0,0,0.1-0.2,0.2-0.4c0.2-0.3,0.4-0.7,0.7-1.3c0.6-1.1,1.3-2.8,2.2-4.9c0.9-2.1,2-4.5,3.3-7.2
				c0.6-1.4,1.3-2.8,1.9-4.3c0.6-1.5,1-3.1,1.2-4.8c0.1-0.8,0.1-1.7,0.1-2.5c0-0.8,0-1.7-0.1-2.4c-0.1-0.8-0.2-1.6-0.5-2.3
				c-0.3-0.7-0.7-1.3-1.2-1.9c-1-1-2.3-1.7-3.5-2.1c-1.2-0.4-2.4-0.6-3.6-0.7c-2.2-0.1-4,0.2-5.2,0.6
				C241.4,180.8,240.8,181.1,240.8,181z"/>
		</g>
	</g>
	<g class="st17">
		<path class="st5" d="M235.8,273.5c0.1-0.5,0.4-0.9,0.8-1.1c0.6-0.3,1.5-0.3,2.1,0c1,0.6,1.5,1.9,1.8,3c0.3,1.2,0.5,2.4,1.2,3.4
			c0.2,0.3,0.5,0.6,0.9,0.7c0.7,0.1,1.2-0.4,1.7-0.9c1.3-1.4,2.8-2.8,4.6-3.3c1.8-0.5,4.1,0,5.1,1.7c0.5,0.9,0.6,2,0.7,3
			c0.6,8.3,1.1,16.6,1.7,24.9c0.3,3.9,0.5,7.8-0.6,11.5c-1,3.3-10.6,13-15.2,13"/>
	</g>
	<g>
		<g>
			<polygon class="st19" points="236.5,357.2 234.3,401.8 227.9,431.6 224.9,430.8 227.4,401 222.4,370.3 217.9,398.9 208.1,431.7 
				205.4,431.8 210.1,399.1 208.9,359.3 			"/>
			<path class="st18" d="M245.9,282.2l-2.9,22.9l-14.2,13.8l-12.8,0.2l-4.6,8.1l1.9,7.3c1.4,5.3,0.9,11-1.3,16l-3,9l27.9,3.2
				c0.9-21.2,0.5-22.9-3-35l16.5-21.3l0-24.9L245.9,282.2z"/>
			<path class="st18" d="M234.1,281.4c-1.4,0.8-10.3,23.6-10.3,23.6l0.5,14.6l-8.4,1.5l0-16.7l14.6-25.7L234.1,281.4z"/>
		</g>
		<g>
			<path class="st19" d="M226.8,304.9l2.6,6.6c0.6,1.5-0.2,3.1-1.6,3.7l-0.9,0.3l0.4,4.8l-6.7,0.6l-1.2-13.6L226.8,304.9z"/>
			<path class="st20" d="M223.1,317.3c0,0,2.6-2.2,2.4-4.2c0,0-3.8-1.6-2.8-2.7c1-1.1,3.2,0.8,3.2,0.8s-1.5-2.9-1.2-3.7
				c0,0,4.9-0.4,3.9-3.3c0,0-1.5-1.1-4.6-1c-3.1,0.1-4.4,5.5-4.4,5.5L223.1,317.3z"/>
			<path class="st20" d="M224.5,303.5c-2.9-0.8-6.2,0-8.5,1.9c-2.3,1.9-3.6,5-3.3,8c0.2,2.1,1,4.3,0.2,6.2c-0.4,1-1.2,1.8-2,2.5
				c-2.3,2.1-4.8,4.2-6.6,6.8c-1.8,2.6-3,5.8-2.5,8.9c0.2,1.3,0.7,2.6,1.6,3.7c0.5,0.5,1,1,1.4,1.6c1.4,2.1,0.6,5,1.5,7.4
				c1.1,3,4.7,4.4,7.9,4.7c4.4,0.4,9.2-0.5,12.5-3.5c3.3-3,4.5-8.4,2-12.1c-1.2-1.8-3.4-3.4-3.2-5.6c0.1-1.4,1.2-2.4,1.7-3.7
				c1.2-2.5,0.4-5.7-1.8-7.4c-0.8-0.6-1.8-1-2.5-1.7c-0.7-0.7-1.2-1.8-0.8-2.7c0.3-0.7,1.1-1.1,1.5-1.8c0.5-1-0.1-2.3-0.9-3.2
				c-0.8-0.9-1.7-1.8-1.8-2.9c-0.1-0.9,0.3-1.7,0.8-2.5c0.8-1.5,1.6-3.1,2.4-4.6"/>
		</g>
		<polygon class="st7" points="208.9,359.3 206.8,374.9 221.9,377.3 222.5,371.2 223.3,377.2 238.4,377.2 236.8,362.6 		"/>
		<path class="st18" d="M205.7,430.5c0,0,9.1,0,10.2,1.3c1.1,1.4-10.7,0.2-10.7,0.2L205.7,430.5z"/>
		<path class="st18" d="M224.2,431.1c0,0,9-1.6,10.3-0.5c1.3,1.1-10.5,2.1-10.5,2.1L224.2,431.1z"/>
		<g>
			<path class="st27" d="M228.3,373c-0.1,0.1-2.2-0.9-5-2c-2.7-1.1-5-1.8-5-1.9c0-0.1,0.6,0.1,1.5,0.3c0.9,0.3,2.2,0.7,3.6,1.2
				c1.4,0.5,2.6,1.1,3.5,1.6C227.8,372.6,228.3,372.9,228.3,373z"/>
		</g>
		<g>
			<path class="st27" d="M222.1,375.7c0,0.1-0.9-0.1-2.2-0.4c-1.4-0.3-3.3-0.6-5.4-0.9c-2.1-0.3-4.1-0.5-5.5-0.7
				c-1.4-0.2-2.3-0.3-2.3-0.4c0-0.1,0.9,0,2.3,0.1c1.4,0.1,3.4,0.3,5.5,0.6c2.1,0.3,4.1,0.7,5.4,1
				C221.3,375.4,222.2,375.7,222.1,375.7z"/>
		</g>
		<g>
			<path class="st27" d="M237.9,375c0,0.1-0.8,0.1-2.2,0.2c-1.4,0.1-3.3,0.2-5.3,0.3c-2.1,0.1-4,0.3-5.3,0.4
				c-1.4,0.1-2.2,0.1-2.2,0.1c0-0.1,0.8-0.2,2.2-0.4c1.4-0.2,3.3-0.4,5.3-0.5c2.1-0.1,4-0.2,5.4-0.2C237,374.9,237.9,375,237.9,375z
				"/>
		</g>
		<g>
			<path class="st27" d="M237.3,366.2c0,0-0.3,0.2-0.9,0.4c-0.6,0.1-1.5,0.1-2.4-0.3c-0.9-0.4-1.5-1.1-1.8-1.6
				c-0.3-0.5-0.4-0.9-0.3-0.9c0.1,0,0.2,0.3,0.5,0.8c0.3,0.5,0.9,1,1.7,1.4c0.8,0.4,1.6,0.4,2.2,0.4
				C236.9,366.3,237.2,366.2,237.3,366.2z"/>
		</g>
		<g>
			
				<ellipse transform="matrix(0.1094 0.994 -0.994 0.1094 579.9442 97.108)" class="st27" cx="235.8" cy="372.2" rx="5.4" ry="0.2"/>
		</g>
		<g>
			<path class="st29" d="M210.3,400.1c0-0.1,0.8,0.1,1.8,0.4c1,0.3,1.8,0.5,1.8,0.6c0,0.1-0.9,0.1-1.9-0.2
				C211,400.6,210.3,400.2,210.3,400.1z"/>
		</g>
		<g>
			<path class="st29" d="M214.2,399.8c0,0.1-0.9,0.4-2,0.3c-1.1,0-2-0.3-2-0.4c0-0.1,0.9,0,2,0.1
				C213.3,399.8,214.2,399.7,214.2,399.8z"/>
		</g>
		<g>
			<path class="st29" d="M231.9,400.4c0,0.1-0.8,0.4-1.8,0.5c-1,0.2-1.9,0.1-1.9,0c0-0.1,0.8-0.3,1.8-0.4
				C231,400.4,231.8,400.3,231.9,400.4z"/>
		</g>
		<g>
			<path class="st29" d="M230.9,399.5c0,0.1-0.5,0.4-1.1,0.7c-0.7,0.3-1.2,0.5-1.3,0.4c0-0.1,0.4-0.4,1.1-0.7
				C230.3,399.5,230.9,399.4,230.9,399.5z"/>
		</g>
		<path class="st19" d="M233.3,281.4c0,0,3.9-2.1,3.9-2.4c-0.2-0.8-2.3,0.2-2.3,0.2s3.2-3.3,2.7-3.8c-0.3-0.3-2.3,1.4-2.3,1.4
			s1.2-2,0.8-2.4c-0.4-0.4-2.2,1.9-2.2,1.9s0.7-1.5,0.3-1.9c-0.3-0.3-3.8,5.8-3.8,5.8L233.3,281.4z"/>
		<path class="st19" d="M246.5,282.2c0,0-1.7-4.1-1.4-4.3c0.6-0.5,1.6,1.6,1.6,1.6s-0.3-4.6,0.4-4.7c0.4,0,0.8,2.5,0.8,2.5
			s0.3-2.3,0.9-2.4c0.6-0.1,0.5,2.9,0.5,2.9s0.4-1.6,1-1.6c0.4,0-0.8,6.9-0.8,6.9L246.5,282.2z"/>
	</g>
	<g>
		<g>
			<path class="st30" d="M158.3,378.5l10.3-25c0,0,28.5,9.6,28.2,10.2c-0.3,0.6-12.4,25.4-12.4,25.4L158.3,378.5z"/>
			<g>
				<path class="st27" d="M173.6,357.6c0,0,0,0.1-0.1,0.2c-0.1,0.1-0.2,0.3-0.3,0.5c-0.3,0.4-0.6,1-1,1.7c-0.9,1.5-2,3.5-3.3,5.8
					c-1.2,2.3-2.2,4.4-2.9,6c-0.3,0.8-0.6,1.4-0.8,1.8c-0.1,0.2-0.2,0.4-0.2,0.5c-0.1,0.1-0.1,0.2-0.1,0.2c0,0,0-0.1,0.1-0.2
					c0.1-0.1,0.1-0.3,0.2-0.5c0.2-0.4,0.4-1.1,0.8-1.9c0.7-1.6,1.7-3.7,2.9-6c1.2-2.3,2.4-4.3,3.3-5.8c0.5-0.7,0.8-1.3,1.1-1.7
					c0.1-0.2,0.2-0.3,0.3-0.5C173.5,357.7,173.6,357.6,173.6,357.6z"/>
			</g>
			<g>
				<path class="st27" d="M187.3,364.7c0,0-0.1,0-0.2-0.1c-0.1-0.1-0.3-0.1-0.5-0.2c-0.4-0.2-1-0.4-1.8-0.8
					c-1.5-0.6-3.5-1.6-5.8-2.6c-2.2-1.1-4.2-2-5.7-2.8c-0.7-0.4-1.3-0.7-1.7-0.9c-0.2-0.1-0.3-0.2-0.5-0.2c-0.1-0.1-0.2-0.1-0.2-0.1
					c0,0,0.1,0,0.2,0.1c0.1,0.1,0.3,0.1,0.5,0.2c0.4,0.2,1,0.5,1.7,0.8c1.5,0.7,3.5,1.7,5.7,2.7c2.2,1,4.2,2,5.7,2.7
					c0.7,0.3,1.3,0.6,1.7,0.8c0.2,0.1,0.3,0.2,0.5,0.2C187.2,364.7,187.3,364.7,187.3,364.7z"/>
			</g>
			<g>
				<path class="st27" d="M189.1,362.1c0,0,0,0.1-0.1,0.2c-0.1,0.2-0.2,0.4-0.3,0.7c-0.3,0.6-0.7,1.4-1.3,2.4
					c-1.1,2-2.6,4.8-4.1,7.9c-1.6,3.1-2.9,6-3.8,8.1c-0.5,1-0.8,1.9-1.1,2.5c-0.1,0.3-0.2,0.5-0.3,0.7c-0.1,0.2-0.1,0.2-0.1,0.2
					c0,0,0-0.1,0.1-0.2c0.1-0.2,0.1-0.4,0.3-0.7c0.2-0.6,0.6-1.5,1-2.5c0.9-2.1,2.2-5,3.8-8.1c1.6-3.1,3.1-5.9,4.2-7.9
					c0.6-1,1-1.8,1.3-2.4c0.2-0.3,0.3-0.5,0.4-0.6C189,362.2,189.1,362.1,189.1,362.1z"/>
			</g>
			<g>
				
					<ellipse transform="matrix(0.9123 0.4095 -0.4095 0.9123 164.4944 -42.019)" class="st27" cx="180.4" cy="363.1" rx="8.7" ry="0.1"/>
			</g>
			<g>
				<path class="st27" d="M175.5,363.7c0,0-0.7-0.4-1.6-0.8c-0.9-0.4-1.7-0.6-1.6-0.7c0,0,0.8,0.1,1.7,0.5
					C174.9,363.1,175.5,363.6,175.5,363.7z"/>
			</g>
			<g>
				<path class="st27" d="M174.9,364.2c0,0-0.7-0.4-1.6-0.8c-0.9-0.4-1.7-0.5-1.7-0.6c0,0,0.8,0,1.8,0.4
					C174.3,363.6,175,364.1,174.9,364.2z"/>
			</g>
			<g>
				<path class="st27" d="M174.7,365.1c0,0-0.7-0.4-1.6-0.8c-0.9-0.4-1.7-0.7-1.6-0.8c0,0,0.8,0.2,1.7,0.6
					C174.1,364.5,174.7,365,174.7,365.1z"/>
			</g>
			<g>
				<path class="st27" d="M178,363.8c0,0,0.1-0.1,0.2-0.1c0.1,0,0.4-0.1,0.6,0c0.3,0.1,0.6,0.3,0.6,0.7c0,0.2,0,0.4-0.2,0.6
					c-0.1,0.2-0.3,0.3-0.5,0.4c-0.2,0.1-0.4,0.1-0.6,0.1c-0.2,0-0.4-0.2-0.5-0.3c-0.3-0.3-0.3-0.7-0.2-0.9
					C177.7,363.8,177.9,363.7,178,363.8c0.2-0.1,0.3-0.1,0.2-0.1C178.3,363.7,178.2,363.7,178,363.8c-0.1,0-0.2,0.2-0.3,0.4
					c-0.1,0.2,0,0.5,0.2,0.7c0.2,0.2,0.6,0.3,0.9,0.2c0.3-0.1,0.6-0.4,0.6-0.7c0-0.3-0.3-0.5-0.5-0.6c-0.2-0.1-0.4-0.1-0.6,0
					C178.1,363.7,178,363.8,178,363.8z"/>
			</g>
			<g>
				<path class="st27" d="M183.5,366.5c0,0-0.9-0.2-1.9-0.6c-1-0.4-1.8-0.9-1.8-0.9c0,0,0.8,0.3,1.8,0.8
					C182.7,366.2,183.5,366.5,183.5,366.5z"/>
			</g>
			<g>
				<path class="st27" d="M181.1,366.3c0,0.1-0.4,0-0.9-0.2c-0.5-0.2-0.8-0.5-0.8-0.6c0,0,0.4,0.2,0.8,0.4
					C180.7,366.1,181.1,366.2,181.1,366.3z"/>
			</g>
			<g>
				<path class="st27" d="M174.9,370.1c0,0,0.1,0,0.1,0c0.1,0,0.2,0.1,0.4,0.1c0.3,0.1,0.8,0.3,1.4,0.5c1.2,0.5,2.9,1.1,4.8,1.9
					l-0.1,0c0.8-1.3,1.6-2.8,2.5-4.3c0,0,0.1-0.1,0.1-0.1l0.1,0.1c-2.5-0.9-4.8-1.8-6.7-2.4l0.1,0
					C176.1,368.3,175.2,369.6,174.9,370.1c0,0,0.2-0.4,0.7-1.2c0.4-0.7,1.1-1.8,1.9-3l0-0.1l0.1,0c1.9,0.7,4.2,1.5,6.7,2.4l0.1,0
					l-0.1,0.1c0,0-0.1,0.1-0.1,0.1c-0.9,1.5-1.8,3-2.5,4.3l0,0.1l-0.1,0c-2-0.8-3.6-1.5-4.9-2c-0.6-0.2-1-0.4-1.4-0.6
					c-0.1-0.1-0.3-0.1-0.4-0.2C175,370.1,174.9,370.1,174.9,370.1z"/>
			</g>
			<g>
				<path class="st27" d="M173.4,371.5c0,0,0.1-0.1,0.2-0.1c0.1,0,0.4-0.1,0.6,0c0.3,0.1,0.6,0.3,0.6,0.7c0,0.2,0,0.4-0.2,0.6
					c-0.1,0.2-0.3,0.3-0.5,0.4c-0.2,0.1-0.4,0.1-0.6,0.1c-0.2,0-0.4-0.2-0.5-0.3c-0.3-0.3-0.3-0.7-0.2-0.9
					C173,371.6,173.2,371.5,173.4,371.5c0.2-0.1,0.3-0.1,0.2-0.1C173.6,371.4,173.5,371.4,173.4,371.5c-0.1,0-0.2,0.2-0.3,0.4
					c-0.1,0.2,0,0.5,0.2,0.7c0.2,0.2,0.6,0.3,0.9,0.2c0.3-0.1,0.6-0.4,0.6-0.7c0-0.3-0.3-0.5-0.5-0.6c-0.2-0.1-0.4-0.1-0.6,0
					C173.4,371.5,173.4,371.5,173.4,371.5z"/>
			</g>
			<g>
				<path class="st27" d="M178.8,374.3c0,0-0.9-0.2-1.9-0.6c-1-0.4-1.8-0.9-1.8-0.9c0,0,0.8,0.3,1.9,0.8
					C178,373.9,178.8,374.3,178.8,374.3z"/>
			</g>
			<g>
				<path class="st27" d="M176.4,374.1c0,0.1-0.4,0-0.9-0.2c-0.5-0.2-0.8-0.5-0.8-0.6c0,0,0.4,0.2,0.8,0.4
					C176.1,373.8,176.5,374,176.4,374.1z"/>
			</g>
			<g>
				<path class="st27" d="M170.3,377.9c0,0,0.1,0,0.1,0c0.1,0,0.2,0.1,0.4,0.1c0.3,0.1,0.8,0.3,1.4,0.5c1.2,0.5,2.9,1.1,4.8,1.9
					l-0.1,0c0.8-1.3,1.6-2.8,2.5-4.3c0,0,0.1-0.1,0.1-0.1l0.1,0.1c-2.5-0.9-4.8-1.8-6.7-2.4l0.1,0
					C171.4,376.1,170.6,377.4,170.3,377.9c0,0,0.2-0.4,0.7-1.2c0.4-0.7,1.1-1.8,1.9-3l0-0.1l0.1,0c1.9,0.7,4.2,1.5,6.7,2.4l0.1,0
					l-0.1,0.1c0,0-0.1,0.1-0.1,0.1c-0.9,1.5-1.8,3-2.5,4.3l0,0.1l-0.1,0c-2-0.8-3.6-1.5-4.9-2c-0.6-0.2-1-0.4-1.4-0.6
					c-0.1-0.1-0.3-0.1-0.4-0.2C170.3,377.9,170.2,377.9,170.3,377.9z"/>
			</g>
			<g>
				
					<ellipse transform="matrix(0.452 -0.892 0.892 0.452 -231.5572 370.7954)" class="st27" cx="186" cy="373.9" rx="11.1" ry="0.1"/>
			</g>
			<g>
				
					<ellipse transform="matrix(0.9442 0.3293 -0.3293 0.9442 131.5145 -41.9931)" class="st27" cx="189.7" cy="367.3" rx="2.7" ry="0.1"/>
			</g>
			<g>
				<path class="st27" d="M190.1,369.5c0,0-0.5-0.8-0.8-1.9c-0.3-1.1-0.5-2-0.4-2.1c0.1,0,0.3,0.9,0.6,2
					C189.8,368.6,190.1,369.5,190.1,369.5z"/>
			</g>
			<g>
				
					<ellipse transform="matrix(-7.089236e-002 0.9975 -0.9975 -7.089236e-002 572.8009 209.7461)" class="st27" cx="188.7" cy="371.6" rx="0.9" ry="0.1"/>
			</g>
			<g>
				<path class="st27" d="M189.9,371.6c0,0.1-0.5,0-1,0.1c-0.5,0.1-1,0.2-1,0.1c0,0,0.4-0.3,1-0.3
					C189.5,371.5,189.9,371.6,189.9,371.6z"/>
			</g>
			<g>
				<path class="st27" d="M169.3,358.2c0,0,0.7,0.3,1.6,0.8c0.9,0.4,1.6,0.7,1.6,0.8c0,0-0.8-0.2-1.7-0.6
					C169.9,358.7,169.3,358.3,169.3,358.2z"/>
			</g>
			<g>
				
					<ellipse transform="matrix(0.4909 -0.8712 0.8712 0.4909 -224.7055 330.9782)" class="st27" cx="170.9" cy="357.8" rx="3" ry="0.1"/>
			</g>
			<g>
				
					<ellipse transform="matrix(9.216247e-002 0.9957 -0.9957 9.216247e-002 509.7259 155.2256)" class="st27" cx="169.7" cy="357.2" rx="0.7" ry="0.1"/>
			</g>
			<g>
				
					<ellipse transform="matrix(0.9813 -0.1925 0.1925 0.9813 -65.5948 39.4134)" class="st27" cx="170" cy="357.2" rx="1.1" ry="0.1"/>
			</g>
		</g>
		<path class="st19" d="M186.8,377.4c0,0,1.3-4.3,1.5-4.3c0.8,0,0.3,2.3,0.3,2.3s2.6-3.8,3.2-3.4c0.3,0.2-0.9,2.5-0.9,2.5
			s1.7-1.6,2.2-1.3c0.5,0.3-1.4,2.5-1.4,2.5s1.3-1,1.8-0.7c0.3,0.2-4.9,4.9-4.9,4.9L186.8,377.4z"/>
		<path class="st19" d="M186.8,377.4c0,0,1.3-4.3,1.5-4.3c0.8,0,0.3,2.3,0.3,2.3s2.6-3.8,3.2-3.4c0.3,0.2-0.9,2.5-0.9,2.5
			s1.7-1.6,2.2-1.3c0.5,0.3-1.4,2.5-1.4,2.5s1.3-1,1.8-0.7c0.3,0.2-4.9,4.9-4.9,4.9L186.8,377.4z"/>
		<g>
			<polygon class="st19" points="159.5,473.5 159.6,476.5 157.4,476.8 157.4,473.5 			"/>
			<path class="st18" d="M157.4,476.8c0,0,9-1.6,10.3-0.5c1.3,1.1-10.5,2.1-10.5,2.1L157.4,476.8z"/>
		</g>
		<g>
			<polygon class="st19" points="128.1,462.9 125.6,464.6 124.2,462.9 127,461.1 			"/>
			<path class="st18" d="M124.2,462.9c0,0,6,6.8,5.8,8.6c-0.3,1.7-7.2-7.9-7.2-7.9L124.2,462.9z"/>
		</g>
		<path class="st18" d="M163,398.8c0,0,7.5,7,7.7,32.7c0.1,25.8-8.9,42.9-8.9,42.9h-6.3c0,0,10.4-32.4-1.3-53.8
			c0,0-3.9,25-24.6,44.1l-5-5.3c0,0,15.3-19.2,15.4-43.1c0-4.7,0.8-7.2-0.8-12.5L163,398.8z"/>
		<g>
			<path class="st31" d="M166.2,444.9c0,0.1-1.3,0.1-2.9,0.3c-1.6,0.2-2.8,0.5-2.9,0.4c0-0.1,1.2-0.6,2.8-0.8
				C164.9,444.6,166.2,444.8,166.2,444.9z"/>
		</g>
		<g>
			<path class="st31" d="M167,442.8c0,0-0.3,0.3-0.8,0.6c-0.5,0.3-1.4,0.6-2.3,0.7c-0.9,0.1-1.8,0-2.4-0.1c-0.6-0.2-0.9-0.3-0.9-0.4
				c0-0.1,1.5,0.4,3.3,0.1C165.7,443.5,166.9,442.7,167,442.8z"/>
		</g>
		<g>
			<path class="st31" d="M143.4,440.2c0,0.1-1.1-0.4-2-1.6c-0.9-1.1-1.1-2.3-1-2.3c0.1,0,0.5,1,1.3,2.1
				C142.6,439.5,143.5,440.1,143.4,440.2z"/>
		</g>
		<g>
			<path class="st31" d="M142.9,440.9c-0.1,0-0.1-0.2-0.4-0.4c-0.3-0.2-0.7-0.5-1.2-0.8c-1-0.6-1.8-1-1.8-1.1c0-0.1,0.9,0.2,1.9,0.8
				c0.5,0.3,0.9,0.6,1.2,0.9C142.9,440.6,142.9,440.9,142.9,440.9z"/>
		</g>
		<g>
			<path class="st31" d="M160,422.5c0,0-0.6,0.1-1.6-0.2c-1-0.3-2.2-1-3.6-1.6c-1.4-0.7-2.6-1.3-3.5-1.8c-0.9-0.5-1.4-0.8-1.4-0.9
				c0,0,0.6,0.2,1.5,0.6c0.9,0.4,2.2,1,3.5,1.7c1.4,0.7,2.6,1.4,3.5,1.7C159.4,422.4,160,422.5,160,422.5z"/>
		</g>
		<path class="st20" d="M135.1,373.9l4.4,34.1l27.7,0.4l-4.1-25.7c0,0,13.7,13,19.7,7.6c6-5.4,6.9-10.7,6.9-10.7l-3.3-2.2
			c0,0-4.9,9.4-9.4,6.5c-5.1-3.3-16.4-16.9-27-15.3C142.9,369.6,136.2,365.7,135.1,373.9z"/>
		<g>
			<path class="st19" d="M151.4,353.7l2.6,6.6c0.6,1.5-0.2,3.1-1.6,3.7l-0.9,0.3l0.4,4.8l-6.7,0.6l-1.2-13.6L151.4,353.7z"/>
			<path class="st7" d="M147.7,366.1c0,0,2.6-2.2,2.4-4.2c0,0-3.8-1.6-2.8-2.7c1-1.1,3.2,0.8,3.2,0.8s-1.5-2.9-1.2-3.7
				c0,0,4.9-0.4,3.9-3.3c0,0-1.5-1.1-4.6-1c-3.1,0.1-4.4,5.5-4.4,5.5L147.7,366.1z"/>
			<path class="st7" d="M149.1,352.3c-2.9-0.8-6.2,0-8.5,1.9c-2.3,1.9-3.6,5-3.3,8c0.2,2.1,1,4.3,0.2,6.2c-0.4,1-1.2,1.8-2,2.5
				c-2.3,2.1-4.8,4.2-6.6,6.8c-1.8,2.6-3,5.8-2.5,8.9c0.2,1.3,0.7,2.6,1.6,3.7c0.5,0.5,1,1,1.4,1.6c1.4,2.1,0.6,5,1.5,7.4
				c1.1,3,4.7,4.4,7.9,4.7c4.4,0.4,9.2-0.5,12.5-3.5c3.3-3,4.5-8.4,2-12.1c-1.2-1.8-3.4-3.4-3.2-5.6c0.1-1.4,1.2-2.4,1.7-3.7
				c1.2-2.5,0.4-5.7-1.8-7.4c-0.8-0.6-1.8-1-2.5-1.7c-0.7-0.7-1.2-1.8-0.8-2.7c0.3-0.7,1.1-1.1,1.5-1.8c0.5-1-0.1-2.3-0.9-3.2
				c-0.8-0.9-1.7-1.8-1.8-2.9c-0.1-0.9,0.3-1.7,0.8-2.5c0.8-1.5,1.6-3.1,2.4-4.6"/>
		</g>
	</g>
	<path class="st15" d="M307.4,160.2h94.5c0,0-5-25.8-30-19.6c0,0-18.5-52.3-36.7,0c0,0-15.5-25.9-27.8-26.1
		C280.9,114.3,273.2,160.2,307.4,160.2z"/>
	<path class="st15" d="M64.8,113.2h88.9c0,0-4.7-24.3-28.2-18.4c0,0-17.4-49.2-34.5,0c0,0-14.6-24.4-26.2-24.5
		C39.8,70,32.5,113.2,64.8,113.2z"/>
	<path class="st32" d="M370.8,92h50.8c0,0-2.7-13.9-16.2-10.5c0,0-10-28.1-19.7,0c0,0-8.4-13.9-15-14C356.6,67.2,352.4,92,370.8,92z
		"/>
	<path class="st32" d="M33.1,156h27.1c0,0-1.4-7.4-8.6-5.6c0,0-5.3-15-10.5,0c0,0-4.5-7.4-8-7.5C25.5,142.9,23.3,156,33.1,156z"/>
	<path class="st32" d="M442.6,49.1h27.1c0,0-1.4-7.4-8.6-5.6c0,0-5.3-15-10.5,0c0,0-4.5-7.4-8-7.5C435,36,432.8,49.1,442.6,49.1z"/>
	<path class="st32" d="M110.8,54.9h50.8c0,0-2.7-13.9-16.2-10.5c0,0-10-28.1-19.7,0c0,0-8.4-13.9-15-14
		C96.6,30.1,92.4,54.9,110.8,54.9z"/>
	<g>
		<path class="st33" d="M52.4,407.9c-9.8,7.4-25.7,0.7-34.5-7c-1.5-1.3-2.7-3.1-3.1-5.1c-2-9.6,13.1-11.9,13.5-20.5
			c0.2-3.7-2.6-6.9-4.7-10c-4.8-7.1-6.1-16.1-5.1-24.6c1-8.5,4.2-16.6,7.9-24.3c3-6.3,8.5-13.5,15.3-11.9c4.4,1,7.2,5.3,8.5,9.7
			c1.8,5.9,1.5,12.3,0.3,18.4c-0.5,2.7-1.2,5.5-0.5,8.1c1.9,6.8,11.4,8.3,14.8,14.4c3.5,6.2-0.7,13.8-4.5,19.8
			c-3.3,5.1-5.3,8.3-3.2,12.7c0.6,1.2,1.4,2.2,2.4,3C61.6,392.4,65.5,397.9,52.4,407.9z"/>
		<g>
			<path class="st27" d="M41.2,431.5c-0.1,0-0.2-17.9-0.2-39.9c0-22,0.1-39.9,0.2-39.9c0.1,0,0.2,17.9,0.2,39.9
				C41.4,413.6,41.4,431.5,41.2,431.5z"/>
		</g>
		<g>
			<path class="st27" d="M40,403c0,0-0.2-0.1-0.6-0.4c-0.4-0.3-1-0.8-1.7-1.3c-1.4-1.1-3.3-2.7-5.5-4.3c-2.2-1.7-4.1-3.1-5.6-4.2
				c-0.7-0.5-1.3-0.9-1.7-1.3c-0.4-0.3-0.6-0.5-0.6-0.5c0,0,0.3,0.1,0.7,0.4c0.4,0.3,1,0.7,1.8,1.2c1.5,1,3.5,2.4,5.7,4.1
				c2.2,1.7,4.1,3.2,5.4,4.4c0.7,0.6,1.2,1.1,1.6,1.4C39.8,402.8,40,403,40,403z"/>
		</g>
		<g>
			<path class="st27" d="M52.1,361c0,0-0.6,0.9-1.7,2.2c-1.1,1.3-2.5,3.1-4.2,5.1c-1.6,2-3.1,3.8-4.1,5.1c-1.1,1.3-1.7,2.1-1.8,2.1
				c0,0,0.1-0.2,0.4-0.6c0.3-0.4,0.7-0.9,1.2-1.6c1-1.4,2.4-3.2,4-5.2c1.6-2,3.1-3.8,4.3-5c0.6-0.6,1-1.1,1.3-1.5
				C51.9,361.2,52,361,52.1,361z"/>
		</g>
	</g>
	<g>
		<path class="st34" d="M434.5,386.2"/>
	</g>
	<g>
		<g>
			<path class="st35" d="M482,409.1c-6.1,4.6-15.9,0.4-21.4-4.3c-1-0.8-1.7-1.9-1.9-3.1c-1.2-5.9,8.1-7.4,8.4-12.7
				c0.1-2.3-1.6-4.2-2.9-6.2c-2.9-4.4-3.8-10-3.1-15.2c0.6-5.3,2.6-10.3,4.9-15.1c1.9-3.9,5.2-8.3,9.5-7.4c2.7,0.6,4.5,3.3,5.3,6
				c1.1,3.7,0.9,7.6,0.2,11.4c-0.3,1.7-0.8,3.4-0.3,5c1.1,4.2,7,5.1,9.2,8.9c2.2,3.9-0.4,8.5-2.8,12.3c-2,3.2-3.3,5.2-2,7.9
				c0.4,0.7,0.9,1.3,1.5,1.9C487.7,399.6,490.2,403,482,409.1z"/>
			<g>
				<path class="st27" d="M473.4,432.2c-0.1,0-0.2-17.9-0.2-39.9c0-22,0.1-39.9,0.2-39.9c0.1,0,0.2,17.9,0.2,39.9
					C473.6,414.3,473.5,432.2,473.4,432.2z"/>
			</g>
		</g>
		<path class="st33" d="M464.9,404.8c-9.8,7.4-25.7,0.7-34.5-7c-1.5-1.3-2.7-3.1-3.1-5.1c-2-9.6,13.1-11.9,13.5-20.5
			c0.2-3.7-2.6-6.9-4.7-10c-4.8-7.1-6.1-16.1-5.1-24.6c1-8.5,4.2-16.6,7.9-24.3c3-6.3,8.5-13.5,15.3-11.9c4.4,1,7.2,5.3,8.5,9.7
			c1.8,5.9,1.5,12.3,0.3,18.4c-0.5,2.7-1.2,5.5-0.5,8.1c1.9,6.8,11.4,8.3,14.8,14.4c3.5,6.2-0.7,13.8-4.6,19.8
			c-3.3,5.1-5.3,8.3-3.2,12.7c0.6,1.2,1.4,2.2,2.4,3C474.1,389.3,478,394.8,464.9,404.8z"/>
		<g>
			<path class="st27" d="M453.7,428.4c-0.1,0-0.2-17.9-0.2-39.9c0-22,0.1-39.9,0.2-39.9s0.2,17.9,0.2,39.9
				C453.9,410.5,453.8,428.4,453.7,428.4z"/>
		</g>
		<g>
			<path class="st27" d="M453.7,399.9c0,0-0.2-0.1-0.6-0.4c-0.4-0.3-1-0.8-1.7-1.3c-1.4-1.1-3.3-2.7-5.5-4.3
				c-2.2-1.7-4.1-3.1-5.6-4.2c-0.7-0.5-1.3-0.9-1.7-1.3c-0.4-0.3-0.6-0.5-0.6-0.5c0,0,0.3,0.1,0.7,0.4c0.4,0.3,1,0.7,1.8,1.2
				c1.5,1,3.5,2.4,5.7,4.1c2.2,1.7,4.1,3.2,5.4,4.4c0.7,0.6,1.2,1.1,1.6,1.4C453.5,399.7,453.7,399.9,453.7,399.9z"/>
		</g>
		<g>
			<path class="st27" d="M464.5,357.9c0,0-0.6,0.9-1.7,2.2c-1.1,1.3-2.5,3.1-4.2,5.1c-1.6,2-3.1,3.8-4.1,5.1
				c-1.1,1.3-1.7,2.1-1.8,2.1c0,0,0.1-0.2,0.4-0.6c0.3-0.4,0.7-0.9,1.2-1.6c1-1.4,2.4-3.2,4-5.2c1.6-2,3.1-3.8,4.3-5
				c0.6-0.6,1-1.1,1.3-1.5C464.3,358.1,464.5,357.9,464.5,357.9z"/>
		</g>
	</g>
	<g>
		<circle class="st36" cx="73.1" cy="284.1" r="17.9"/>
		<polygon class="st36" points="80.5,299.3 89.2,302 88.6,293.1 		"/>
		<text transform="matrix(-1 0 0 -1 76.2456 281.5254)" class="st37 st38 st39">ยก</text>
	</g>
	<g>
		<g>
			<path class="st40" d="M424.7,120.5c0,0,0.6-0.2,1.9-0.6c1.4-0.4,3.4-1,5.7-1.7c4.9-1.4,11.9-3.4,20.2-5.7l0.4-0.1l0.1,0.4
				c1.3,4.9,2.8,10.3,4.3,15.9c0.1-0.1-0.6,1.1-0.3,0.6l0,0l0,0l0,0l-0.1,0l-0.1,0l-0.3,0.1l-0.5,0.1l-1,0.3c-0.7,0.2-1.3,0.4-2,0.5
				c-1.3,0.4-2.6,0.7-3.9,1c-2.5,0.7-5,1.3-7.4,2c-4.7,1.2-9,2.4-12.8,3.4l-0.3,0.1l-0.1-0.3c-1.2-4.9-2.2-8.9-3-11.8
				c-0.3-1.3-0.6-2.3-0.8-3.2C424.8,120.8,424.7,120.5,424.7,120.5c0,0,0.2,0.4,0.4,1.2c0.3,0.8,0.6,1.9,1,3.2
				c0.8,2.9,1.9,6.8,3.3,11.5l-0.4-0.3c3.8-1,8.1-2.2,12.8-3.5c2.4-0.6,4.8-1.3,7.4-2c1.3-0.3,2.6-0.7,3.9-1c0.7-0.2,1.3-0.4,2-0.5
				l1-0.3l0.5-0.1l0.3-0.1l0.1,0l0.1,0l0,0l0,0l0,0c0.3-0.5-0.4,0.7-0.3,0.6c-1.5-5.6-3-11-4.3-15.9l0.5,0.3
				c-8.1,2.2-15.1,3.9-20,5.2c-2.4,0.6-4.4,1.1-5.8,1.5C425.5,120.3,424.8,120.5,424.7,120.5z"/>
		</g>
		<g>
			<path class="st40" d="M452.7,112.9c0.1,0.1-1.1,1.6-3.1,4c-2,2.4-4.8,5.7-8,9.3c-1,0.3-0.3,0.1-0.5,0.1l0,0l0,0l0,0l-0.1,0
				l-0.1,0l-0.2-0.1l-0.4-0.1l-0.8-0.3c-0.6-0.2-1.1-0.4-1.6-0.6c-1.1-0.4-2.1-0.7-3.1-1.1c-1.9-0.7-3.6-1.3-5.2-1.8
				c-3-1.1-4.8-1.8-4.7-1.9c0-0.1,1.9,0.4,4.9,1.3c1.6,0.5,3.4,1.1,5.3,1.7c1,0.3,2,0.7,3.1,1c0.5,0.2,1.1,0.4,1.6,0.5l0.8,0.3
				l0.4,0.1l0.2,0.1l0.1,0l0.1,0l0,0l0,0l0,0c-0.2,0.1,0.5-0.1-0.5,0.1c3.2-3.6,6.1-6.8,8.2-9.2
				C451.2,114.2,452.6,112.8,452.7,112.9z"/>
		</g>
		<circle class="st41" cx="453.3" cy="113.7" r="3.1"/>
	</g>
	<g>
		<g>
			<path class="st40" d="M46.7,199.5c0,0,0.7,0.1,1.9,0.4c1.4,0.4,3.3,0.8,5.6,1.4c4.8,1.2,11.7,3,19.7,5.1l0.4,0.1l-0.1,0.4
				c-1.3,4.8-2.7,10-4.1,15.5c0.1-0.1-1,0.6-0.6,0.3l0,0l0,0l0,0l-0.1,0l-0.1,0l-0.2-0.1l-0.5-0.1l-1-0.3c-0.6-0.2-1.3-0.3-1.9-0.5
				c-1.3-0.3-2.5-0.7-3.7-1c-2.5-0.7-4.8-1.3-7.1-1.9c-4.5-1.3-8.7-2.4-12.4-3.4l-0.3-0.1l0.1-0.3c1.3-4.7,2.4-8.5,3.3-11.3
				c0.4-1.2,0.7-2.2,0.9-3C46.5,199.8,46.6,199.5,46.7,199.5c0,0-0.1,0.4-0.2,1.2c-0.2,0.8-0.5,1.9-0.8,3.1
				c-0.7,2.8-1.7,6.6-2.8,11.2l-0.2-0.4c3.7,1,7.8,2.1,12.4,3.3c2.3,0.6,4.7,1.3,7.1,1.9c1.2,0.3,2.5,0.7,3.7,1
				c0.6,0.2,1.3,0.3,1.9,0.5l1,0.3l0.5,0.1l0.2,0.1l0.1,0l0.1,0l0,0l0,0l0,0c0.5-0.3-0.7,0.4-0.5,0.3c1.5-5.5,2.9-10.7,4.2-15.4
				l0.3,0.5c-7.8-2.2-14.5-4.1-19.3-5.4c-2.3-0.7-4.2-1.2-5.6-1.6C47.4,199.8,46.7,199.6,46.7,199.5z"/>
		</g>
		<g>
			<path class="st40" d="M73.8,206.9c0,0.1-1.7,0.8-4.6,1.9c-2.9,1-6.8,2.4-11.3,3.9c-1-0.3-0.3-0.1-0.5-0.1l0,0l0,0l0,0l0,0
				l-0.1-0.1l-0.1-0.2l-0.3-0.3l-0.6-0.6c-0.4-0.4-0.7-0.8-1.1-1.3c-0.7-0.8-1.4-1.6-2.1-2.4c-1.3-1.5-2.4-2.9-3.5-4.1
				c-2-2.3-3.1-3.8-3-3.9c0.1-0.1,1.4,1.3,3.5,3.5c1.1,1.2,2.3,2.5,3.6,4c0.7,0.8,1.4,1.5,2.1,2.4c0.4,0.4,0.7,0.8,1.1,1.3l0.6,0.6
				l0.3,0.3l0.1,0.2l0.1,0.1l0,0l0,0l0,0l0,0c-0.2-0.1,0.5,0.1-0.5-0.1c4.4-1.5,8.4-2.8,11.3-3.7C71.9,207.2,73.7,206.7,73.8,206.9z
				"/>
		</g>
	</g>
	<g>
		<g>
			<path class="st40" d="M470.7,233c-0.1,0,0-2.1-0.9-5.8c-0.4-1.8-1.3-4-2.7-6.3c-1.4-2.3-3.4-4.7-6.1-6.7c-2.7-2-6.1-3.7-10-4.4
				c-3.9-0.7-8.3-0.5-12.5,1.1c-2.1,0.7-4.1,1.8-6,3.2c-1,0.7-1.8,1.5-2.7,2.3c-0.8,0.9-1.6,1.7-2.3,2.7c-2.9,3.9-4.6,8.9-4.6,14
				c0,5.1,1.7,10.1,4.6,14c0.7,1,1.5,1.9,2.3,2.8c0.9,0.8,1.7,1.6,2.7,2.3c1.9,1.4,3.9,2.5,6,3.2c4.2,1.6,8.6,1.7,12.5,1.1
				c3.9-0.7,7.3-2.4,10-4.4c2.7-2,4.7-4.4,6.1-6.7c1.4-2.3,2.2-4.5,2.7-6.3C470.8,235.1,470.6,233,470.7,233c0,0,0,0.1,0,0.4
				c0,0.3,0,0.7,0,1.1c0,0.5,0,1.1-0.2,1.9c-0.1,0.7-0.2,1.6-0.5,2.5c-0.4,1.9-1.2,4.1-2.6,6.5c-1.4,2.4-3.4,4.8-6.1,6.9
				c-2.7,2.1-6.2,3.9-10.2,4.6c-4,0.7-8.5,0.6-12.8-1c-2.2-0.7-4.3-1.9-6.2-3.3c-1-0.7-1.9-1.5-2.8-2.3c-0.8-0.9-1.7-1.8-2.4-2.8
				c-3-4-4.7-9.1-4.8-14.4c0-5.3,1.7-10.4,4.8-14.4c0.7-1,1.6-1.9,2.4-2.8c0.9-0.8,1.8-1.7,2.8-2.3c1.9-1.4,4-2.6,6.2-3.3
				c4.3-1.6,8.8-1.7,12.8-1c4,0.7,7.5,2.5,10.2,4.6c2.7,2.1,4.7,4.6,6.1,6.9c1.4,2.4,2.2,4.6,2.6,6.5c0.3,0.9,0.4,1.8,0.5,2.5
				c0.1,0.7,0.2,1.4,0.2,1.9c0,0.5,0,0.9,0,1.1C470.7,232.9,470.7,233,470.7,233z"/>
		</g>
		<g>
			<path class="st40" d="M472.5,233c0,0,0-0.1-0.1-0.4c0-0.3-0.1-0.7-0.1-1.2c0-0.5-0.1-1.2-0.2-2c-0.1-0.8-0.2-1.7-0.6-2.7
				c-0.5-2-1.4-4.3-2.9-6.8c-1.5-2.5-3.6-5-6.5-7.2c-2.9-2.2-6.5-4-10.7-4.7c-4.2-0.7-8.9-0.6-13.4,1.1c-2.3,0.8-4.4,2-6.4,3.5
				c-1,0.7-1.9,1.6-2.9,2.5c-0.9,0.9-1.8,1.9-2.5,3c-3.1,4.2-4.9,9.5-4.9,15c0,2.8,0.5,5.5,1.3,8c0.8,2.6,2.1,4.9,3.6,7
				c0.7,1.1,1.6,2,2.5,3c0.9,0.9,1.9,1.7,2.9,2.5c2,1.5,4.2,2.7,6.4,3.5c4.5,1.7,9.2,1.8,13.4,1.1c4.2-0.7,7.9-2.6,10.7-4.7
				c2.9-2.2,5-4.8,6.5-7.2c1.5-2.5,2.4-4.8,2.9-6.8c0.3-1,0.4-1.9,0.6-2.7c0.2-0.8,0.2-1.4,0.2-2c0-0.5,0.1-0.9,0.1-1.2
				C472.4,233.1,472.5,233,472.5,233c0,0,0,0.1,0,0.4c0,0.3,0,0.7,0,1.2c0,0.5,0,1.2-0.2,2c-0.1,0.8-0.2,1.7-0.5,2.7
				c-0.4,2-1.3,4.4-2.8,6.9c-1.5,2.5-3.6,5.2-6.6,7.4c-2.9,2.2-6.6,4.1-10.9,4.9c-4.3,0.8-9.1,0.6-13.7-1.1c-2.3-0.8-4.6-2-6.6-3.5
				c-1.1-0.7-2-1.6-3-2.5c-0.9-1-1.8-1.9-2.6-3c-1.6-2.2-2.9-4.6-3.7-7.2c-0.9-2.6-1.3-5.4-1.3-8.2c0-5.7,1.9-11.2,5.1-15.4
				c0.8-1.1,1.7-2.1,2.6-3c1-0.9,1.9-1.8,3-2.5c2.1-1.5,4.3-2.7,6.6-3.5c4.6-1.7,9.4-1.8,13.7-1.1c4.3,0.8,8,2.7,10.9,4.9
				c2.9,2.3,5.1,4.9,6.6,7.4c1.5,2.5,2.4,4.9,2.8,6.9c0.3,1,0.4,1.9,0.5,2.7c0.1,0.8,0.2,1.5,0.2,2c0,0.5,0,0.9,0,1.2
				C472.5,232.8,472.5,233,472.5,233z"/>
		</g>
		<g>
			<ellipse class="st40" cx="446.7" cy="211.4" rx="0.3" ry="2.5"/>
		</g>
		<g>
			
				<ellipse transform="matrix(0.6375 0.7704 -0.7704 0.6375 323.9814 -253.8594)" class="st40" cx="431.8" cy="217.4" rx="2.5" ry="0.3"/>
		</g>
		<g>
			
				<ellipse transform="matrix(0.6376 0.7704 -0.7704 0.6376 358.2267 -266.1997)" class="st40" cx="462.1" cy="247.7" rx="2.5" ry="0.3"/>
		</g>
		<g>
			<ellipse class="st40" cx="468.2" cy="233" rx="2.5" ry="0.3"/>
		</g>
		<g>
			<ellipse class="st40" cx="425" cy="233" rx="2.5" ry="0.3"/>
		</g>
		<g>
			<ellipse class="st40" cx="446.7" cy="254.5" rx="0.3" ry="2.5"/>
		</g>
		<g>
			
				<ellipse transform="matrix(0.7704 -0.6375 0.6375 0.7704 -58.5653 330.8956)" class="st40" cx="430.2" cy="246.8" rx="2.5" ry="0.3"/>
		</g>
		<g>
			
				<ellipse transform="matrix(0.7704 -0.6376 0.6376 0.7704 -32.5081 344.5027)" class="st40" cx="462.1" cy="217.4" rx="2.5" ry="0.3"/>
		</g>
		<g>
			<path class="st40" d="M456.1,237c0,0.1-1.1,0.2-3.1,0.2c-1.9,0.1-4.6,0.1-7.7,0.1l-0.3,0l0-0.3c0-1,0-2.1,0-3.2
				c0-3.9,0-7.4,0.1-9.9c0.1-2.5,0.1-4.1,0.2-4.1c0.1,0,0.2,1.6,0.2,4.1c0.1,2.5,0.1,6,0.1,9.9c0,1.1,0,2.2,0,3.2l-0.3-0.3
				c3.1,0,5.8,0.1,7.7,0.1C454.9,236.8,456.1,236.9,456.1,237z"/>
		</g>
	</g>
	<g>
		<path class="st40" d="M156.1,135.4c0,0.1-0.6,0-1.6,0.4c-0.9,0.3-2.4,1.3-2.9,3.1c-0.3,0.9-0.2,2-0.2,3.1c0,1.2,0,2.4,0,3.8
			c0,0.7,0,1.4,0.1,2c0.1,0.7,0.4,1.3,0.8,1.9c0.8,1.2,2.2,2,3.8,2l0.3,0l0,0.3c0,1.2,0,2.6,0,3.9l-0.5-0.2c1.5-1.3,3-2.6,4.6-3.9
			l0.1-0.1h0.1c2.6,0,5.3,0,8.1,0c0.7,0,1.4,0,2.1,0c0.7,0,1.3,0,1.9-0.2c1.2-0.3,2.2-1.2,2.8-2.3c0.3-0.5,0.4-1.1,0.5-1.7
			c0-0.6,0-1.3,0-1.9c0-1.3,0-2.5,0-3.7c0-1.2,0.1-2.4-0.3-3.4c-0.4-1-1.2-1.8-2-2.3c-0.9-0.5-1.9-0.6-2.9-0.6c-1,0-1.9,0-2.9,0
			c-3.6,0-6.5-0.1-8.6-0.1c-1,0-1.7,0-2.3-0.1C156.4,135.4,156.1,135.4,156.1,135.4c0,0,0.3,0,0.8-0.1c0.6,0,1.4,0,2.3-0.1
			c2.1,0,5-0.1,8.6-0.1c0.9,0,1.9,0,2.9,0c1,0,2.1,0,3.1,0.6c1,0.5,1.8,1.4,2.3,2.5c0.2,0.6,0.4,1.2,0.4,1.8c0,0.6,0,1.2,0,1.8
			c0,1.2,0,2.4,0,3.7c0,0.6,0,1.2,0,1.9c0,0.7-0.2,1.4-0.5,2c-0.6,1.2-1.8,2.3-3.1,2.7c-0.7,0.2-1.4,0.2-2.1,0.2c-0.7,0-1.4,0-2.1,0
			c-2.8,0-5.5,0-8.1,0l0.2-0.1c-1.6,1.3-3.1,2.7-4.6,3.9l-0.5,0.4l0-0.6c0-1.4,0-2.7,0.1-3.9l0.3,0.3c-1.8,0-3.4-0.9-4.2-2.3
			c-0.4-0.7-0.7-1.4-0.8-2.1c-0.1-0.8,0-1.4,0-2.1c0-1.3,0-2.6,0-3.8c0-1.2-0.1-2.3,0.3-3.2c0.7-1.9,2.2-2.9,3.2-3.2
			C155.5,135.3,156.1,135.4,156.1,135.4z"/>
	</g>
	<polygon class="st42" points="115.3,428.6 254.1,500 500,500 500.6,476.2 390.1,431.5 	"/>
</g>
<g id="Designed_by_freepik">
</g>
</svg>
