<?xml version="1.0" encoding="utf-8"?>
<!-- Generator: Adobe Illustrator 19.0.0, SVG Export Plug-In . SVG Version: 6.00 Build 0)  -->
<svg version="1.1" id="Capa_1" xmlns="http://www.w3.org/2000/svg" xmlns:xlink="http://www.w3.org/1999/xlink" x="0px" y="0px"
	 viewBox="-49 141 512 512" style="enable-background:new -49 141 512 512;" xml:space="preserve">
<style type="text/css">
	.st0{opacity:0.3;fill:#2870DB;}
	.st1{fill:#2870DB;}
</style>
<circle class="st0" cx="116.1" cy="493.5" r="154.1"/>
<g>
	<g>
		<path class="st1" d="M220.1,527.8c-1.6-1.6-3.7-2.5-5.9-2.5s-4.4,0.9-5.9,2.5c-1.6,1.6-2.4,3.7-2.4,5.9c0,2.2,0.9,4.4,2.4,5.9
			c1.6,1.6,3.7,2.4,5.9,2.4s4.4-0.9,5.9-2.4c1.6-1.6,2.4-3.7,2.4-5.9C222.6,531.5,221.7,529.4,220.1,527.8z"/>
	</g>
</g>
<g>
	<g>
		<path d="M263.5,454.2v-65.7c0-3-1.5-5.7-3.9-7.4c-2.5-1.7-5.6-2-8.3-0.9l-153.9,62H47.7c-28.3,0-51.3,23-51.3,51.3
			c0,28.3,23,51.3,51.3,51.3h5.9v53.7c0,4.9,4,8.9,8.9,8.9H99c4.9,0,8.9-4,8.9-8.9v-49.3l143.3,57.6c1.1,0.4,2.2,0.6,3.3,0.6
			c1.8,0,3.5-0.5,5-1.5c2.5-1.7,3.9-4.4,3.9-7.4v-65.7c17.9-4.1,31.3-20.1,31.3-39.3S281.4,458.3,263.5,454.2z M90.1,589.6H71.5
			v-44.7h18.6L90.1,589.6L90.1,589.6z M90.1,527H47.7c-18.4,0-33.4-15-33.4-33.4c0-18.4,15-33.4,33.4-33.4h42.4L90.1,527z
			 M245.6,585.3L245.6,585.3L108,529.9v-72.7l97.8-39.4v88.7c0,4.9,4,8.9,8.9,8.9c4.9,0,8.9-4,8.9-8.9v-95.9l22.1-8.9V585.3z
			 M263.5,514V473c7.9,3.5,13.5,11.4,13.5,20.5C277,502.7,271.4,510.6,263.5,514z"/>
	</g>
</g>
<g>
	<g>
		<path class="st1" d="M380.1,484.8h-50.6c-4.9,0-8.9,4-8.9,8.9s4,8.9,8.9,8.9h50.6c4.9,0,8.9-4,8.9-8.9S385,484.8,380.1,484.8z"/>
	</g>
</g>
<g>
	<g>
		<path d="M338.6,419.4c-3.5-3.5-9.1-3.5-12.6,0l-17.4,17.4c-3.5,3.5-3.5,9.1,0,12.6c1.7,1.7,4,2.6,6.3,2.6c2.3,0,4.6-0.9,6.3-2.6
			l17.4-17.4C342.1,428.5,342.1,422.8,338.6,419.4z"/>
	</g>
</g>
<g>
	<g>
		<path d="M330.8,544.7l-16.9-16.9c-3.3-3.3-8.6-3.3-11.8,0c-3.3,3.3-3.3,8.6,0,11.8l16.9,16.9c1.6,1.6,3.8,2.4,5.9,2.4
			c2.1,0,4.3-0.8,5.9-2.4C334.1,553.3,334.1,548,330.8,544.7z"/>
	</g>
</g>
<g>
	<g>
		<path d="M418.1,150H251.9c-19.7,0-35.7,16-35.7,35.7v3.6H66.1c-11.8,0-21.4,9.6-21.4,21.4v141.2c0,11.8,9.6,21.4,21.4,21.4h9.2
			v27.4c0,3.6,2.2,6.9,5.5,8.3c1.1,0.5,2.3,0.7,3.4,0.7c2.3,0,4.6-0.9,6.3-2.6l33.7-33.7h177.5c11.8,0,21.4-9.6,21.4-21.4v-26.8
			h94.9c19.7,0,35.7-16,35.7-35.7V185.7C453.8,166,437.8,150,418.1,150z M305.3,351.9c0,2-1.6,3.6-3.6,3.6H120.6
			c-2.4,0-4.6,0.9-6.3,2.6l-21.1,21.1v-14.8c0-4.9-4-8.9-8.9-8.9H66.1c-2,0-3.6-1.6-3.6-3.6V210.8c0-2,1.6-3.6,3.6-3.6h150.1v82.2
			c0,19.7,16,35.7,35.7,35.7h53.4V351.9z M435.9,289.4c0,9.9-8,17.9-17.9,17.9H251.9c-9.9,0-17.9-8-17.9-17.9V185.7
			c0-9.9,8-17.9,17.9-17.9h166.2c9.9,0,17.9,8,17.9,17.9V289.4z"/>
	</g>
</g>
<g>
	<g>
		<path class="st1" d="M370.9,229.8l-61.1-35.3c-2.8-1.6-6.2-1.6-8.9,0c-2.8,1.6-4.5,4.5-4.5,7.7v70.6c0,3.2,1.7,6.1,4.5,7.7
			c1.4,0.8,2.9,1.2,4.5,1.2c1.5,0,3.1-0.4,4.5-1.2l61.1-35.3c2.8-1.6,4.5-4.5,4.5-7.7S373.7,231.4,370.9,229.8z M314.2,257.4v-39.7
			l34.3,19.8L314.2,257.4z"/>
	</g>
</g>
<g>
	<g>
		<path d="M188,243.8H98.7c-4.9,0-8.9,4-8.9,8.9c0,4.9,4,8.9,8.9,8.9H188c4.9,0,8.9-4,8.9-8.9C197,247.8,193,243.8,188,243.8z"/>
	</g>
</g>
<g>
	<g>
		<path class="st1" d="M194.4,296.5c-1.7-1.7-4-2.6-6.3-2.6c-2.3,0-4.7,1-6.3,2.6c-1.7,1.7-2.6,4-2.6,6.3c0,2.3,1,4.7,2.6,6.3
			c1.7,1.7,4,2.6,6.3,2.6c2.4,0,4.7-1,6.3-2.6c1.7-1.7,2.6-4,2.6-6.3C197,300.4,196,298.1,194.4,296.5z"/>
	</g>
</g>
<g>
	<g>
		<path class="st1" d="M154.5,293.8H98.7c-4.9,0-8.9,4-8.9,8.9c0,4.9,4,8.9,8.9,8.9h55.8c4.9,0,8.9-4,8.9-8.9
			C163.5,297.8,159.5,293.8,154.5,293.8z"/>
	</g>
</g>
</svg>
