<?xml version="1.0" encoding="utf-8"?>
<!-- Generator: Adobe Illustrator 19.0.0, SVG Export Plug-In . SVG Version: 6.00 Build 0)  -->
<svg version="1.1" xmlns="http://www.w3.org/2000/svg" xmlns:xlink="http://www.w3.org/1999/xlink" x="0px" y="0px"
	 viewBox="0 0 500 500" style="enable-background:new 0 0 500 500;" xml:space="preserve">
<style type="text/css">
	.st0{display:none;fill:#0091C8;}
	.st1{clip-path:url(#SVGID_2_);}
	.st2{fill:#2AC4F4;}
	.st3{fill:#009DD9;}
	.st4{fill:none;stroke:#2AC4F4;stroke-width:3.8547;stroke-miterlimit:10;}
	.st5{fill:#FFFFFF;}
	.st6{fill:#FFD23C;}
	.st7{fill:#FFA50A;}
	.st8{fill:#FA690F;}
	.st9{fill:#E4F2F6;}
	.st10{fill:#A0EBFF;}
	.st11{fill:#05CDFF;}
	.st12{fill:#D2F0FF;}
	.st13{fill:#C8E6EB;}
	.st14{fill:#6C9BAA;}
	.st15{fill:#A5C8CD;}
	.st16{fill:#87AFB9;}
	.st17{fill:none;stroke:#3C5A73;stroke-width:2.9839;stroke-miterlimit:10;}
	.st18{fill:#0481A8;}
	.st19{fill-rule:evenodd;clip-rule:evenodd;fill:#FFB478;}
	.st20{fill:#97F4EC;}
	.st21{fill:#5046AF;}
	.st22{fill:#F5C831;}
	.st23{fill:#FFAA50;}
	.st24{fill:#FAF58C;}
	.st25{fill:#CD5014;}
	.st26{fill:#0091C8;}
	.st27{fill:none;stroke:#0091C8;stroke-width:1.2306;stroke-miterlimit:10;}
	.st28{fill:#5F7382;stroke:#0091C8;stroke-width:1.2306;stroke-linecap:round;stroke-miterlimit:10;}
	.st29{fill:#5FD2D0;}
	.st30{fill:none;stroke:#5046AF;stroke-width:1.2306;stroke-miterlimit:10;}
	.st31{fill:#73C8F0;}
	.st32{fill:#41B4E6;}
	.st33{fill:none;stroke:#5046AF;stroke-width:2.0647;stroke-miterlimit:10;}
	.st34{fill:#32285F;}
	.st35{fill:none;stroke:#32285F;stroke-width:3.4412;stroke-miterlimit:10;}
</style>
<g id="BACKGROUND">
	<g>
		<path id="XMLID_1_" class="st0" d="M442.6,457.9H57.4c-8.5,0-15.4-6.9-15.4-15.4v-385c0-8.5,6.9-15.4,15.4-15.4h385.2
			c8.5,0,15.4,6.9,15.4,15.4v385C458,451,451.1,457.9,442.6,457.9z"/>
		<g>
			<defs>
				<path id="SVGID_1_" d="M442.6,457.9H57.4c-8.5,0-15.4-6.9-15.4-15.4v-385c0-8.5,6.9-15.4,15.4-15.4h385.2
					c8.5,0,15.4,6.9,15.4,15.4v385C458,451,451.1,457.9,442.6,457.9z"/>
			</defs>
			<clipPath id="SVGID_2_">
				<use xlink:href="#SVGID_1_"  style="overflow:visible;"/>
			</clipPath>
			<g id="XMLID_3_" class="st1">
				<g id="XMLID_4_">
					<g id="XMLID_5_">
						
							<ellipse transform="matrix(0.9956 -9.409063e-002 9.409063e-002 0.9956 -29.627 6.8218)" class="st2" cx="57.5" cy="317.6" rx="7.5" ry="61.8"/>
						<path class="st2" d="M59.6,260.1c0.6,5.8-2.3,10.9-6.5,11.3c-4.1,0.4-7.9-4-8.5-9.9c-0.6-5.8,5.3-23.1,5.3-23.1
							S59.1,254.2,59.6,260.1z"/>
						
							<rect id="XMLID_107_" x="47" y="267" transform="matrix(0.9956 -9.408422e-002 9.408422e-002 0.9956 -25.4755 6.2308)" class="st3" width="12.6" height="12.6"/>
					</g>
					<g id="XMLID_6_">
						<polygon class="st2" points="79.1,374.3 64.4,372.5 76.8,272.9 86.5,255.9 91.6,274.8 						"/>
						<polygon class="st3" points="82.7,262.6 76.8,272.9 76.8,273.1 91.6,274.9 91.6,274.8 88.5,263.3 						"/>
					</g>
					<polygon id="XMLID_7_" class="st3" points="85,381.5 47.3,381.5 39.3,318 93,318 					"/>
				</g>
				<g id="XMLID_8_">
					<polygon id="XMLID_9_" class="st3" points="457.6,391.5 420.8,391.5 410.5,323.2 467.9,323.2 					"/>
					<polygon id="XMLID_10_" class="st3" points="462.7,373.7 415.7,373.7 410.5,323.2 467.9,323.2 					"/>
					<polygon id="XMLID_11_" class="st3" points="466.2,350.9 412.2,350.9 410.5,323.2 467.9,323.2 					"/>
					<path id="XMLID_12_" class="st4" d="M467.9,330.7c0,15.9-12.9,28.7-28.7,28.7c-15.9,0-28.7-12.9-28.7-28.7"/>
					<path id="XMLID_106_" class="st3" d="M472.9,331.5h-67.4v-5.5c0-1.6,1.3-2.9,2.9-2.9H470c1.6,0,2.9,1.3,2.9,2.9V331.5z"/>
					<path class="st2" d="M428.8,341.8c0,1.8-1.5,3.3-3.3,3.3c-1.8,0-3.3-1.5-3.3-3.3v-18.6h6.6V341.8z"/>
					<path class="st2" d="M438.2,334.8c0,1.8-1.5,3.3-3.3,3.3c-1.8,0-3.3-1.5-3.3-3.3v-11.6h6.6V334.8z"/>
				</g>
			</g>
		</g>
	</g>
</g>
<g id="OBJECTS">
	<g>
		<g id="XMLID_2_">
			<rect x="113.2" y="61.9" class="st5" width="273.6" height="329.3"/>
			<path class="st6" d="M386.8,61.9H113.2V37.6c0-4.1,3.4-7.5,7.5-7.5h258.6c4.1,0,7.5,3.4,7.5,7.5V61.9z"/>
			<g id="XMLID_13_">
				<rect id="XMLID_105_" x="360" y="39.2" class="st7" width="13.9" height="13.9"/>
				<g id="XMLID_20_">
					<g id="XMLID_21_">
						
							<rect id="XMLID_22_" x="366.1" y="39.7" transform="matrix(0.7071 0.7071 -0.7071 0.7071 140.1355 -245.9314)" class="st8" width="1.7" height="12.9"/>
					</g>
					<g id="XMLID_23_">
						
							<rect id="XMLID_24_" x="360.5" y="45.3" transform="matrix(0.7071 0.7071 -0.7071 0.7071 140.1355 -245.9314)" class="st8" width="12.9" height="1.7"/>
					</g>
				</g>
			</g>
			<rect id="XMLID_104_" x="338.2" y="39.2" class="st7" width="13.9" height="13.9"/>
			<rect id="XMLID_103_" x="316.7" y="39.2" class="st7" width="13.9" height="13.9"/>
			<g id="XMLID_25_">
				<rect id="XMLID_26_" x="319.4" y="48.7" class="st8" width="8.7" height="1.7"/>
			</g>
			<g id="XMLID_27_">
				<g id="XMLID_28_">
					<path id="XMLID_29_" class="st8" d="M346.7,51.3h-6.4v-6.4h6.4V51.3z M342,49.6h3v-3h-3V49.6z"/>
				</g>
				<g id="XMLID_32_">
					<path id="XMLID_33_" class="st8" d="M350.1,49H345v-2.3h-2.4v-5.1h7.5V49z M346.7,47.3h1.7v-4.1h-4.1v1.7h2.4V47.3z"/>
				</g>
			</g>
		</g>
		<g id="XMLID_36_">
			<path class="st9" d="M194.5,156.9h-50.1c-5.4,0-9.8-4.4-9.8-9.8V97c0-5.4,4.4-9.8,9.8-9.8h50.1c5.4,0,9.8,4.4,9.8,9.8v50.1
				C204.3,152.5,199.9,156.9,194.5,156.9z"/>
			<path class="st9" d="M277.6,156.9h-50.1c-5.4,0-9.8-4.4-9.8-9.8V97c0-5.4,4.4-9.8,9.8-9.8h50.1c5.4,0,9.8,4.4,9.8,9.8v50.1
				C287.4,152.5,283,156.9,277.6,156.9z"/>
		</g>
	</g>
	<g>
		<rect x="101.4" y="120.3" class="st10" width="61.2" height="64.5"/>
		<rect id="XMLID_102_" x="101.4" y="120.3" class="st11" width="61.2" height="6.7"/>
		<rect id="XMLID_101_" x="127.1" y="111.8" class="st12" width="8.5" height="17.7"/>
	</g>
	<g>
		<rect x="360.3" y="100.6" class="st10" width="51.8" height="54.6"/>
		<rect id="XMLID_100_" x="360.3" y="100.6" class="st11" width="51.8" height="5.6"/>
		<rect x="382.1" y="93.4" class="st12" width="7.2" height="15"/>
	</g>
	<g>
		<g id="XMLID_37_">
			<rect id="XMLID_99_" x="121.6" y="213.9" class="st13" width="61.4" height="61.4"/>
			<rect id="XMLID_98_" x="125.8" y="219.3" class="st14" width="53" height="39"/>
			<polygon class="st15" points="146.4,231 130.6,258.3 162.2,258.3 			"/>
			<polygon class="st16" points="158.4,237.5 146.4,258.3 170.4,258.3 			"/>
			<circle class="st16" cx="168.2" cy="228.4" r="5.4"/>
		</g>
		<path id="XMLID_38_" class="st17" d="M113.3,232.1h-5.2c-3.5,0-6.3,2.8-6.3,6.3v0c0,3.5,2.8,6.3,6.3,6.3h33.6
			c3.5,0,6.3-2.8,6.3-6.3v0c0-3.5-2.8-6.3-6.3-6.3h-16.9c-1.7,0-3.1,1.4-3.1,3.1l0,0c0,1.7,1.4,3.1,3.1,3.1H136"/>
	</g>
	<g>
		<ellipse class="st18" cx="257.3" cy="401.4" rx="37.9" ry="3.3"/>
		<path class="st19" d="M209.4,354.1c0.7-1.4,0.1-3.4-0.3-5.1c0.5-2.4,0-5.2-1.3-6.9c0.9,0,0-0.8,0.7-1c-0.9-0.6-0.1-2-0.8-2.8
			c-0.8-0.2-1-0.8-1.5-1.3c-0.4,0-0.8,0-1.2,0h-58.1c-1.9-0.2-3.1,0.6-5.1,0.8c-0.5,0.9-0.2,1.9-0.8,2.5c0.2,0.9,0.9,1.3,1.5,1.8
			c-0.2,0.2-0.1,0.8-0.3,1c0.6,0.3,0.8,0,1.3,0.2c-0.1-0.7,0.9-0.6,0.2-1c0.7-0.1,0.8-0.8,1.5-1c-0.2,1-0.9,1.4-0.8,2.6
			c-1.1-0.6-1.3,1.5-1.3,1.5c0,0-0.3-0.2-0.3-0.2c-0.3,2,2.2,3.5,1.5,5.7c0.2,0.2,0.6,0.2,1,0.2c0.1,0.8-0.1,2.1-0.7,2.8
			c0.2,0.4,0.7,0.5,0.7,1.1c-0.4,1.1-1.5,0.6-1.6,2c0.6,0.2,1.2,0.3,1,1.3c0.8,0.4,1.7,0.3,2.5,0.2v0.1h58.1
			c1.2,0.1,2.5-0.5,3.4-0.6c0.3-0.5,0.5-1.1,0.7-1.8c0.5,0.1,0.5-0.3,0.8-0.3C209.5,354.9,210.2,354.7,209.4,354.1z"/>
		<g>
			<path class="st12" d="M236.3,398l8.1,0.4c0.4-2.2,0.5-4.4,0.4-6.6H240C239.3,394.8,237.2,395.5,236.3,398z"/>
			<path class="st12" d="M275.9,399.6l8.2,0.3c0.2-2.2,0.1-4.9-0.2-7.1l-4.8,0.4C278.7,396.2,276.6,397.1,275.9,399.6z"/>
			<path class="st20" d="M245.3,398.6c-0.2-0.4-0.7-0.7-1.2-0.7c-1.4,0.1-4.5,0.4-6.4-1c-0.8-0.6-1.8-0.8-2.8-0.6
				c-2.9,0.4-8.2,1.2-9,5.3c0,0,6.2,0.1,10.6,0c4.7-0.1,9.1,0.1,9.1,0.1C245.6,401,245.7,399.3,245.3,398.6z"/>
			<path class="st20" d="M285.9,403.1h-15c0,0,2.6-3.7,5.1-4.7c2.5-0.9,7.9,0.5,7.9,0.5S287.2,401.7,285.9,403.1z"/>
			<path id="XMLID_40_" class="st21" d="M277.4,364.2c0.2-1.8,1.9-35.7,1.9-35.7h-19.4l-18.7,33.4c-0.4,0.7-0.5,1.4-0.4,2.1
				c0.7,7.5-0.5,20.1-1.7,29.3c1,1.2,3.8,1.4,6.1,1.4c4-8.5,5.5-30.1,5.5-30.1c2.4-2.4,8.9-11.5,14.4-19.4l2.3,19.8
				c0.1,0.9,0.4,1.9,0.8,2.7c4.5,9.7,8.2,20.2,10,27.6c3.6,1.6,6.5-0.2,6.5-0.2C285.6,386.1,277.4,364.2,277.4,364.2z"/>
			<path class="st20" d="M255.3,317.8c0,0-0.6,4.8-0.8,5.5c-0.3,0.7-11.8,19-13.1,20.8h-4.1c0,0,10.9-21.7,11.7-23
				c0.8-1.3,2.4-8.3,2.4-8.3L255.3,317.8z"/>
			<path class="st22" d="M258.7,307.6c0,0-2.2,9.7-3.4,12.2c0,0-5-1.1-6.3-2.1l2.4-15.8L258.7,307.6z"/>
			<path class="st23" d="M300.5,326.2c-32,6.8-69.9,14.3-81.1,20l0.8,6.6c13.5-0.3,51.7-12.8,81.6-21c1.6-0.5,2.5-2.2,1.9-3.8l0,0
				C303.3,326.7,301.9,325.9,300.5,326.2z"/>
			<path id="XMLID_41_" class="st24" d="M242,339.1c-10.2,2.5-18.3,5-22.6,7.1l0.8,6.6c5.3-0.1,14.4-2.1,25.2-5
				C245.7,344.7,244.6,341.7,242,339.1z"/>
			<path id="XMLID_42_" class="st6" d="M284.3,305c-0.6-1.8-9.6-13.1-11.2-13.3c-2.4-0.2-7.1,1-7.1,1s-4.6-0.2-7.7,1.3
				c-3.1,1.6-7,5.9-7,7.9s7.5,16.5,7.6,18.7c0.1,2.2-0.4,10.3-0.4,10.3c5.4-0.1,20.7-2.5,20.7-2.5c-0.1-1.3-1.5-11.1-2.9-20.1
				l2.1,2.5C283.1,308.7,284.3,305,284.3,305z"/>
			<path id="XMLID_43_" class="st20" d="M289.8,314.4l-5.7-8.7c-0.6,1.1-2,3.3-5,4.9c1.4,2.1,3.3,4.5,5.1,5.7c0,0-2.3,4.6-4.9,11.3
				l-0.4,1c-0.4,1-0.8,2.1-1.2,3.2c-0.3,0.9-1.5,2-2.3,2.5c-2,1.3-5.3,3.2-4.7,3.6c0.6,0.5,2.4-0.2,3-0.5c0.3-0.1,0.7,0.1,0.6,0.4
				c0,0.9,0,2.4,0.5,2.5c1.9,0.3,3.7-0.3,4.8-0.8c0.7-0.3,1.1-1,1-1.7l-0.2-3.8C280.4,334.1,290.9,320.5,289.8,314.4z"/>
			<path id="XMLID_44_" class="st20" d="M240.5,349.2c-0.9,0.2-1.9,0-2.7-0.7c-0.7-0.6-1.5-1.3-1.8-1.3c-0.4,0.1,1.3,2.6,1.3,2.6
				c0,0-2.6-2.3-3.1-2.2c-0.4,0.1,1.5,2.5,1.7,2.7c0,0-3-2.3-3.5-2.2c-0.4,0.1,0.5,1.8,2.1,2.6c1.3,0.5,2.5,0.6,4.5-0.2
				c1.5-0.6,2.7-1.6,2.7-1.6S241.2,349,240.5,349.2z"/>
			<path class="st20" d="M266.2,290.9c0,0,1.4-3,1.2-5.6c-0.1-2.6,0.1-13.1-8.3-11.7c-8.4,1.5-7,8.5-6.2,10.6c0.8,2,5.8,6.7,9,7.3
				C265.1,292.1,266.2,290.9,266.2,290.9z"/>
			<path class="st20" d="M256.6,288.5c0,0,2,4.4,1.7,6.2c-0.3,1.8,2.9,2.5,3.9,2.1s4.8-0.8,2.2-6.6L256.6,288.5z"/>
			<path id="XMLID_45_" class="st21" d="M263.5,269.9c0,0-0.6,2.2-3.5,2.3c-2.9,0.1-3.6,0-5.3,1.3c-1.7,1.4-1.7,2.7-1.7,2.7
				s-3.9,2.4-1.6,7.2c1.7,3.5,5.3,5.1,5.3,5.1l-1.9-5l2.2,1.7l0.6-1.2l-1.3-2.4c0,0,1.9-3.3,5.7-2.4c3.6,0.9,5.8,0.2,6.8-2.4
				C269.7,274.7,267.9,269.7,263.5,269.9z"/>
			
				<ellipse transform="matrix(-0.8887 0.4585 -0.4585 -0.8887 612.863 421.5604)" class="st20" cx="255.3" cy="285.2" rx="1.4" ry="2"/>
			<path id="XMLID_46_" class="st22" d="M275.3,302.5l1.1,5.9l2.1,2.5c0.7-0.3,1.2-0.6,1.8-1L275.3,302.5z"/>
			<path id="XMLID_47_" class="st25" d="M224.2,349.1c0,4.9-4.9,8.8-11,8.8s-15.2-8.5-15.2-8.5s9.2-9.1,15.2-9.1
				S224.2,344.3,224.2,349.1z"/>
		</g>
	</g>
	<g>
		<g id="XMLID_39_">
			<g id="XMLID_48_">
				<path class="st26" d="M307.5,196.3c1.1-0.6,1.6-1.9,1.1-3c-9.8-26.8-20.9-58.4-27.2-67.4l-5.6,1.5c1.9,11.6,17.4,42.9,28.1,67.7
					C304.5,196.4,306.2,197,307.5,196.3L307.5,196.3z"/>
				<path class="st20" d="M290.3,144.4c-3.4-8.4-6.5-15.1-8.9-18.6l-5.6,1.5c0.7,4.5,3.6,12.1,7.4,21.1
					C286,148.3,288.4,146.9,290.3,144.4z"/>
				<path class="st21" d="M278.7,130.6c-4.2,0.6-8.2-3.1-8.9-8.4c-0.7-5.2,5.4-14.2,5.4-14.2s9,6.8,9.7,12
					C285.6,125.3,282.9,130,278.7,130.6z"/>
			</g>
			<path id="XMLID_49_" class="st20" d="M294.3,155.8c-0.5-0.9-0.6-2-0.5-3c0.2-1.6-0.6-2.2-1.1-2.5c-0.4-0.2,0,1.8-2.6,2.5
				c-2.3,0.6-5.7-1.2-5.7-1.2c-0.9,0.7,0.3,1.9,0.4,3.6c0,0,0.3,1.4,1.3,2.3c0.6,0.6,2.2,0.9,3.6,1.3c1,0.2,1.6,0.2,2,1.1
				c1.8,3.5,6.3,13.2,13.1,18.2l1.4-6.7C299.2,163.9,296.8,160.5,294.3,155.8z"/>
			<g id="XMLID_50_">
				<polyline id="XMLID_51_" class="st27" points="341.5,224.7 337.9,204.7 335.6,224.3 				"/>
				<line id="XMLID_52_" class="st28" x1="337.7" y1="206.5" x2="337.7" y2="30.7"/>
				<path id="XMLID_53_" class="st29" d="M306.6,265.9h8.9c0.9,0,1.7-0.7,1.9-1.6l0,0c0.2-1.1-4.2-4.6-4.9-4.7c-0.8-0.1-4.3,0-4.3,0
					s-2.1,2.8-2.6,4.9C305.3,265.2,305.9,265.9,306.6,265.9z"/>
				<path class="st29" d="M333.8,265.9h-8.6c-0.9,0-1.7-0.7-1.9-1.6l0,0c-0.2-1.1,4.1-4.6,4.8-4.7c0.8-0.1,4.2,0,4.2,0
					s2.1,2.8,2.5,5C335.1,265.3,334.5,265.9,333.8,265.9z"/>
				<path class="st20" d="M333.1,193.5l2.3,7.1c0,0,0,8,0.6,11c0.6,3,1.1,5.3,1.1,5.3s-1.4,3.6-0.6,6.1l0.8,0.5c0,0,1.1,0.8,1.8,0.8
					c1.5,0,4.9-2,4.9-2s-2.2-4.2-3.1-5.8c-0.9-1.6,1.2-13.7-0.8-17.6c-0.9-1.7-3.3-10.3-3.3-10.3L333.1,193.5z"/>
				<path id="XMLID_54_" class="st20" d="M318.7,168.7l-1.7,6.4c0,0,1.9,2.1,4.3,1.9c2.4-0.2,5-2.8,5-2.8s-2.5-3.1-2.5-5.5H318.7z"
					/>
				<path id="XMLID_55_" class="st21" d="M333.1,222.2c-0.1-1.9-3-8.5-3.9-10.5h-19.1c-0.6,1.9-2.6,8.6-2.7,10.5
					c-0.1,2.2-0.5,3.7-0.5,3.7s-0.3,14.1-0.2,16.6c0.1,2.5,0.7,17.7,0.7,17.7s3.3,1.3,6.5-0.2c0.6-0.8,1.9-33.5,1.9-33.5l0.7-1.8
					h6.6l1.5,1.8c0,0,1.2,32.7,1.8,33.5c2.6,1.5,6.7,0.1,6.7,0.1s0.6-15.2,0.7-17.7c0.1-2.5-0.2-16.6-0.2-16.6
					S333.2,224.4,333.1,222.2z"/>
				<path id="XMLID_56_" class="st6" d="M318.6,173.8l-3.9,0.9c-1.4,0.3-2.8,0.1-4-0.7l-4.5-2.9c-2.6,1-4.5,5.9-4.1,8.4
					c0,0,4.2,4,6.1,5.9c0.5,0.5,0.9,1.2,1,2c0.7,4.3,2.1,11.1,2.1,12.1c0,1.1-2.4,14.4-2.4,14.4s12.6,4.6,20.9-0.1l0.6-23
					c0,0,2.1-9.3,0.9-14.6l-5.8-2.7L318.6,173.8z"/>
				<path class="st6" d="M326.9,173.9c0,0,4.2,1.7,4.7,2.1c0.5,0.4,7.7,16.4,7.7,16.4s-3.7,3.6-7,3.1l-4.9-12.6L326.9,173.9z"/>
				<g id="XMLID_57_">
					<rect x="335.2" y="227.3" class="st21" width="13.6" height="16.1"/>
					<path id="XMLID_58_" class="st30" d="M335,228.2c0-3.9,3.1-7,7-7s7,3.1,7,7"/>
				</g>
				<path id="XMLID_59_" class="st20" d="M339.5,223.1c0,0-2.3-2.3-1.7-2.9c0.6-0.6,4.9-2.5,5.5-1.5c0.6,1,0.6,3.6,0.6,3.6
					L339.5,223.1z"/>
				<rect x="296.2" y="224.3" class="st26" width="47.5" height="2.9"/>
				<polyline id="XMLID_60_" class="st27" points="303.9,224.7 300.4,204.7 298.1,224.3 				"/>
				<line id="XMLID_61_" class="st28" x1="300.4" y1="206.5" x2="300.4" y2="30.7"/>
				<path id="XMLID_62_" class="st20" d="M319.9,153.4c2.8-0.6,7.2,0.9,7.3,5.9c0.1,5-0.6,12.7-5.4,13.2c-6.3,0.7-8.5-4.9-8.9-7.8
					C312.7,162,311.5,155.1,319.9,153.4z"/>
			</g>
		</g>
		<path class="st21" d="M319.5,152.4c-1.5,0.3-2.5,0.7-3.2,1.2l0,0c-2.6,2-3.3,1.9-5.6,1.4c-0.2,2.9,1.1,4.4,2.6,5.2
			c0.9,0.5,1.4,1.5,1.3,2.5l-0.3,2.3c0,0.1,0,0.2,0.1,0.3c0.1,0.1,0.2,0.1,0.3,0.1l0.1,0c0.2,0,0.4-0.2,0.5-0.3
			c0.3-0.5,1.1-1.4,1.2-1.1c0.5,1.6,0.2,4.8,2.1,7.9c2.3,0.8,5.4,0.6,6.1-0.3c2.4-2.9,3-8.1,2.9-12
			C327.6,154.5,322.3,151.8,319.5,152.4z"/>
		<path id="XMLID_63_" class="st20" d="M317.9,163.6c0,1-0.6,1.8-1.3,1.8c-0.7,0-0.9-0.8-0.9-1.8s0.2-1.8,0.9-1.8
			C317.3,161.8,317.9,162.6,317.9,163.6z"/>
	</g>
	<g>
		<ellipse class="st18" cx="77.9" cy="448" rx="30.8" ry="2.9"/>
		<g>
			<path id="XMLID_67_" class="st20" d="M114.3,314.4c-0.7,1.6-1.6,3.4-2.4,5.1c-1.3,3-1.9,5.4-4.2,7.3c-2.3,1.9-6.7,3.3-9.7,3.6
				c-3.1,0.3-6.3-0.1-9.5-1l-1.8,6.4c3.8,1,7.8,1.6,12,1.2c2.1-0.3,4.2-0.7,6.2-1.5c2-0.8,3.8-2,5.5-3.3c5.1-4.2,8.3-11.1,9.6-17.7
				H114.3z"/>
			<path class="st6" d="M90.5,327.7c-0.4-0.3-5.7,0.6-6.7,1.4c-0.9,5,3.6,8.7,6.2,10.3c3.5,1.8,9.3,1.3,15.2-1.3
				c1.5-2.8,0.5-7.4-0.6-10.1C99.1,330.7,94.1,330.3,90.5,327.7z"/>
			<g id="XMLID_68_">
				<g id="XMLID_69_">
					<rect id="XMLID_97_" x="50.3" y="313.1" class="st13" width="79.7" height="14.5"/>
					<path id="XMLID_70_" class="st13" d="M47.1,303.8c-7,0-13,4.4-15.3,10.6h15.3v11.7H31.7c2.4,6.2,8.3,10.6,15.3,10.6
						c9.1,0,16.4-7.4,16.4-16.4C63.5,311.2,56.2,303.8,47.1,303.8z"/>
					<path class="st13" d="M139.2,303.8c7,0,13,4.4,15.3,10.6h-15.3v11.7h15.3c-2.4,6.2-8.3,10.6-15.3,10.6
						c-9.1,0-16.4-7.4-16.4-16.4C122.7,311.2,130.1,303.8,139.2,303.8z"/>
				</g>
				<path id="XMLID_96_" class="st15" d="M120.7,323.1H65.3c-1.2,0-2.1-1-2.1-2.1v-1.4c0-1.2,1-2.1,2.1-2.1h55.4
					c1.2,0,2.1,1,2.1,2.1v1.4C122.9,322.2,121.9,323.1,120.7,323.1z"/>
			</g>
			<path class="st21" d="M70.1,310.6c0.6,6,4.6,8.6,9.9,8.6c5.2,0,7.5-5.2,7.5-11.2c0-6-1.9-9.6-8-9.6
				C71.7,298.3,69.5,304.4,70.1,310.6z"/>
			<path class="st13" d="M92.3,442.8c-1.7,1.2-3.7,2-7.1,1.6c-0.4-1.4-0.4-3.1,0-5.1h6.6C90.7,440.6,91.1,442.1,92.3,442.8z"/>
			<path class="st31" d="M83.4,444.1c0.2-0.5,0.7-0.7,1.2-0.7c1.5,0.1,4.6,0.6,6.5-0.8c0.8-0.6,1.9-0.8,2.9-0.6
				c3,0.5,8.4,1.6,9.1,6.1c0,0-6.3-0.1-10.8-0.4c-4.8-0.3-9.2-1.4-9.2-1.4C83.1,445.6,83,444.9,83.4,444.1z"/>
			<path class="st21" d="M90.3,367.9c1.7,22.1,2.8,26.7,2.8,38.8c0,10.8-0.4,32.5-0.4,32.5c-0.8,1.4-6.4,2.1-7.9,1.4
				c0,0-1.9-22.5-2.4-31.4c-0.3-5.4-2.6-29.1-2.6-29.1L90.3,367.9z"/>
			<path class="st13" d="M60.8,442.7l7.9,1.7c0.7-1.5,0.6-3.2,0-5.1h-6.6C62.5,440.8,62.7,441.9,60.8,442.7z"/>
			<path class="st21" d="M65.6,367.9c-2.4,24-1.9,23.8-2.6,35.9c-0.6,10.8-2.2,36.3-2.2,36.3c1.6,1.9,6.2,1.5,8.6,0.3
				c0,0,3.7-25.8,4.1-30.7c0.3-4.1,5.5-30.8,5.5-30.8L65.6,367.9z"/>
			<polygon class="st21" points="89.5,368.4 89.3,366.1 67.9,364.8 67.9,369.5 78,382.3 81.4,381 			"/>
			<path id="XMLID_71_" class="st6" d="M89.1,347.8c0,0.3,1.7-16.4,1.6-20c-3.2-1.7-7.1-3.5-7.1-3.5l-8.4-2c0,0-7.1,1.7-11.3,3.2
				c0.9,5.4,1.6,11.6,0.8,15c-1.8,11.8,0.1,32.7,0.1,32.7c14.7,4.5,26.7-0.1,26.7-0.1s-1.7-10.4-1.9-14.1
				C89.3,353.7,89,349.4,89.1,347.8z"/>
			<path class="st20" d="M71.7,310.1c0,1.8,1.5,3.9,2.2,5.5c1.3,3.2,3.7,5.7,6.3,5.7c1.8,0,3.5-1.2,4.8-3c1.7-2.2,1.8-5.5,1.8-8.5
				c0-5.4-1.9-9.1-6.8-9.1C76.2,300.7,71.7,303.1,71.7,310.1z"/>
			<path class="st20" d="M74.6,326.1c2.8,1.6,6.3,1.9,8.4,0.8c0.5-0.3,0.8-0.9,0.7-1.5c-0.3-2.6-0.2-5.4,0.1-8.4l-8.3-0.6
				c-0.3,2.9-0.7,4.9-1.8,6.9C73.2,324.3,73.7,325.6,74.6,326.1z"/>
			<path class="st31" d="M70,444.1c-0.2-0.5-0.7-0.7-1.2-0.7c-1.5,0.1-4.6,0.6-6.5-0.8c-0.8-0.6-1.9-0.8-2.9-0.6
				c-3,0.5-8.4,1.6-9.1,6.1c0,0,5.8,0,11-0.4c3.7-0.3,9-1.4,9-1.4C70.3,445.6,70.4,444.9,70,444.1z"/>
			<path class="st32" d="M83.6,321.9c-0.8,0.5-1.7,0.8-2.6,0.8c-2.3,0-4.3-1.9-5.7-4.5c0,0,0,0,0,0c1.3,1.9,3,3.1,4.9,3.1
				c1.2,0,2.4-0.6,3.5-1.5C83.6,320.5,83.6,321.2,83.6,321.9z"/>
			<path id="XMLID_95_" class="st21" d="M71.4,311.9h2.4c0.6,0,1.1-0.5,1.1-1.1V306h-3.5V311.9z"/>
			<path class="st20" d="M71.4,312.3c0.1,1.5,0.9,2.6,1.6,2.5c0.7-0.1,1.1-1.3,0.9-2.8c-0.1-1.5-0.9-2.7-1.6-2.6
				C71.6,309.4,71.3,310.8,71.4,312.3z"/>
			<path id="XMLID_92_" class="st21" d="M72,308.3h11.2c1.8,0,3.2-1.4,3.2-3.2v-2c0-1.5-1.2-2.7-2.7-2.7h-9.2
				c-1.4,0-2.5,1.1-2.5,2.5V308.3z"/>
			<g id="XMLID_72_">
				<path class="st20" d="M67.7,381.5c0,0-0.2,5.8-1.1,5.7c-0.6,0-0.9-4.6-0.9-4.6L67.7,381.5z"/>
				<path class="st20" d="M65.6,381.8c0,0-1.1,5.7-1.9,5.5c-0.6-0.1-0.1-4.9-0.1-4.9L65.6,381.8z"/>
				<path class="st20" d="M63.7,381c0,0-1.6,5.5-2.4,5.3c-0.5-0.2,0.4-4.9,0.4-4.9L63.7,381z"/>
				<path class="st20" d="M62.6,379.3c0,0-2.6,5.1-3.2,4.8c-0.4-0.2,1.4-4.5,1.4-4.5L62.6,379.3z"/>
				<path class="st20" d="M67.1,376.2c-0.8-0.7-2-2.1-2.2-3.1c-1.8-7.6-3.5-17.4-4.3-20.1c1.6-4.6,3.1-8.1,3.6-11l-6.4-5.5
					c0,0-4.4,16.2-4.4,16.3c-1.1,7.2,8.1,22.6,8.1,22.6l-0.8,4.3c-0.1,0.8,0.2,1.6,0.9,2.1c1.2,0.7,3.2,1.7,5.3,1.5
					c0.7,0,0.9-1.7,0.9-2.8c0-0.4,0.4-0.6,0.8-0.4c0.6,0.4,2.6,1.4,3.3,0.9C72.6,380.5,69.1,377.9,67.1,376.2z"/>
			</g>
			<path class="st6" d="M66.2,335.4c0.2-4.3-0.4-6.6-1.7-10.2c-0.7,0.3-1.4,0.6-1.9,0.8c-4.1,2.4-7.6,19.2-7.6,19.2
				c1.7,3.2,5.1,5.3,7.6,5c0.9-3.2,1.1-4.8,2.2-8.8C64.7,342.1,66,338.6,66.2,335.4z"/>
			<path id="XMLID_73_" class="st20" d="M120.2,311.9c-0.8-0.3-2.1-0.5-3.4-0.4c-1.7,0.1-3.6,1.5-3.6,1.5s1.3,0.1,2,0.1
				c1,0.1,1.8,0.5,2.2,1.4c0.5,0.9,1,1.8,1.3,1.9c0.1,0,0.4-0.1,0.3-0.4c-0.6-1.6-0.7-2.6-0.6-2.6c0.1,0,1.4,2.4,1.8,3.3
				c0.2,0.5,0.9,0.6,0.9,0c-0.1-0.9-1.4-3.2-1.2-3.3c0.2,0,1.9,2.9,2.5,3.3c0.1,0.1,0.7,0.2,0.6-0.2c-0.1-0.7-1.1-2.3-1.8-3.5l1,0
				c1.4,0,1.6-1.1,1.2-1.1C122.8,311.9,120.2,311.9,120.2,311.9z"/>
		</g>
	</g>
	<g>
		<ellipse class="st18" cx="379.7" cy="437.3" rx="29.3" ry="2.1"/>
		<ellipse class="st18" cx="426.8" cy="449.9" rx="29.3" ry="2.1"/>
		<g>
			<line id="XMLID_74_" class="st33" x1="381.8" y1="333.2" x2="381.8" y2="435.3"/>
			<line id="XMLID_75_" class="st33" x1="378.7" y1="435.3" x2="384.9" y2="435.3"/>
			<line id="XMLID_76_" class="st33" x1="362.2" y1="435.3" x2="368.4" y2="435.3"/>
			<line id="XMLID_77_" class="st33" x1="395.2" y1="435.3" x2="401.4" y2="435.3"/>
			<polyline class="st33" points="366,435.3 381.8,396.4 397.6,435.3 			"/>
			<rect x="379.7" y="387.4" class="st34" width="4.1" height="11.3"/>
			<rect x="376" y="322.1" class="st34" width="8.9" height="14.4"/>
			<rect x="377.5" y="336.6" class="st21" width="8.8" height="2.4"/>
			<line id="XMLID_78_" class="st33" x1="381.9" y1="340.2" x2="395.2" y2="345"/>
			<line id="XMLID_79_" class="st35" x1="388.5" y1="342.6" x2="397.6" y2="345.9"/>
			<rect id="XMLID_66_" x="372.3" y="325.9" class="st34" width="3.7" height="8.4"/>
			<polygon id="XMLID_80_" class="st21" points="363.9,335.7 372.3,334.4 372.3,325.9 363.9,324.5 			"/>
			<polygon id="XMLID_81_" class="st21" points="355.5,336.4 363.9,335 363.9,325.2 355.5,323.9 			"/>
			<polygon id="XMLID_82_" class="st34" points="362.6,325 362.6,335.2 363.9,335 363.9,325.2 			"/>
			<polygon id="XMLID_83_" class="st21" points="347,337.1 355.5,335.7 355.5,324.5 347,323.2 			"/>
			<polygon id="XMLID_84_" class="st34" points="354.4,324.4 354.4,335.9 355.5,335.7 355.5,324.5 			"/>
			<rect x="380.5" y="321" class="st21" width="3.4" height="1.1"/>
		</g>
		<g>
			<path class="st12" d="M424.5,447.1L417,447c1.7-2.3,2.3-4.6,1.9-7.1l5.2,0.1C424.3,443.5,425,445.1,424.5,447.1z"/>
			<path class="st12" d="M448.9,447.9l-6.8,0.2c1.2-2.5,0.7-4.9,0.3-7.3l5.2-0.1C448,443.4,449.3,445.8,448.9,447.9z"/>
			<path class="st34" d="M438.3,372.2c0,0,6.1,34.8,6,35.4s2.1,14.3,2.1,17.4c0,3.2,2.5,18.4,2.5,18.4s-5.2,0.3-7-0.7l-5.8-29.7
				l-8.7-40.6L438.3,372.2z"/>
			<path class="st21" d="M435.9,373l-7.7,40.6l-3.2,30.2c-2.3,0.6-5.8,0.4-7.2-0.8l1.3-35.7l5.1-35.9L435.9,373z"/>
			<path class="st20" d="M420.3,334.8c0,0-14.8-7.8-15.5-8.1c-0.7-0.3-5-1.1-5-1.1s-7.3,0.2-7.3,1.2c-0.1,0.8,4.6,0.7,4.6,0.7
				s0.3,2.6,1.3,3c1,0.4,5.2-0.2,5.2-0.2s10.9,11.1,16.9,11.1L420.3,334.8z"/>
			<path class="st6" d="M430.8,335.6c0,0-8.2,0.4-13-2.1c0,0,1,8.2,1.6,9.4l7.9,0.5L430.8,335.6z"/>
			<path class="st6" d="M434.5,333.5c0,0-4.4,1.8-5.6,2.5c-1.3,0.8-5.9,4.7-6,11.4c-0.1,6.7,0.6,26.8,0.6,26.8s10,1.1,15.5-1.2
				c0,0-0.9-13,1.3-21L434.5,333.5z"/>
			<path class="st7" d="M437.6,334.9c0,0-1.6-1-3.7-0.6c-2.1,0.3-3.6,3.8-3.3,6.7c0.2,2.9,4.5,17.7,4.5,17.7s7.5-4.2,8.7-5.6
				C443.8,353.2,439.2,336.2,437.6,334.9z"/>
			<g id="XMLID_85_">
				<path class="st20" d="M429.8,388.5c0,0-0.3,5,0.4,5c0.5,0,1.2-3.9,1.2-3.9L429.8,388.5z"/>
				<path class="st20" d="M431.6,388.9c0,0,0.4,5,1.1,4.9c0.5,0,0.5-4.2,0.5-4.2L431.6,388.9z"/>
				<path class="st20" d="M433.3,388.3c0,0,0.9,4.9,1.6,4.8c0.5-0.1,0.1-4.2,0.1-4.2L433.3,388.3z"/>
				<path class="st20" d="M434.5,387c0,0,1.8,4.6,2.3,4.4c0.3-0.1-0.8-4-0.8-4L434.5,387z"/>
				<path class="st20" d="M430.9,384c0.8-0.5,1.9-1.6,2.2-2.5c2.2-6.4,4.6-14.6,5.5-16.9c-1-4.1-1.9-7.3-2.1-9.8l6-4.2
					c0,0,2.3,14.4,2.4,14.4c0.3,6.3-9,18.7-9,18.7l0.3,3.7c0.1,0.7-0.3,1.4-1,1.7c-1.1,0.5-2.9,1.1-4.7,0.8
					c-0.6-0.1-0.6-1.6-0.6-2.5c0-0.3-0.3-0.5-0.6-0.4c-0.6,0.2-2.3,0.9-2.9,0.5C425.7,387.1,429,385.2,430.9,384z"/>
			</g>
			<path class="st20" d="M429.5,333.4c2-0.2,7.1-2.9,6.9-8.4c-0.2-5.5-1.2-9-5.2-9.3c-2.6-0.2-8.8,1.6-8.8,6.8
				C422.3,329.3,425.1,333.8,429.5,333.4z"/>
			<path class="st20" d="M434.9,328.9c0,0,2.2,5.8,2.4,6.4c-3.2,0.8-5.9,3.6-7.7,2c0,0,1.4-4,0-5.7L434.9,328.9z"/>
			<path class="st6" d="M437.6,334.9c0,0-1.7-1.3-3.7-0.6c-2.5,0.9-5.6,2.1-5.4,5c0.2,2.9,7,17.1,7,17.1s7.2-1.8,8.3-3.2
				C443.8,353.2,439.2,336.2,437.6,334.9z"/>
			<path class="st29" d="M425.4,447.4c-0.2-0.4-0.6-0.7-1.1-0.8c-1.3,0-4.2,0.1-5.9-1.4c-0.7-0.6-1.6-0.9-2.6-0.8
				c-2.8,0.2-7.8,1.1-8.9,5.1c0,0,5.1,0.1,9.9,0.2c4.4,0.1,8.5,0,8.5,0C425.5,449.2,425.7,448.2,425.4,447.4z"/>
			<path class="st29" d="M450.4,447.4c-0.2-0.4-0.6-0.7-1.1-0.8c-1.3,0-4.2,0.1-5.9-1.4c-0.7-0.6-1.6-0.9-2.6-0.8
				c-2.8,0.2-7.8,0.8-8.9,4.8c0,0,5.8,0,9.9,0.2c4.4,0.2,8.5,0,8.5,0C450.5,448.8,450.6,448.2,450.4,447.4z"/>
			<path id="XMLID_86_" class="st21" d="M420.8,324.2c0,0,5.8,1.6,8.7-2.5c2.9-0.2,1.7,4,2.9,5.4c0.8,3.2,3.1,3.6,3.1,3.6
				s1.9-2.9,1.7-9c-0.2-6.1-5.2-8.8-7.7-6.5c0,0-4.1-2.1-6.9,2.1C421.5,319.1,420.5,322.7,420.8,324.2z"/>
			
				<ellipse transform="matrix(0.9679 0.2514 -0.2514 0.9679 95.4339 -98.1868)" class="st20" cx="432.1" cy="324.5" rx="1.5" ry="2.4"/>
			<polygon id="XMLID_87_" class="st21" points="429.4,320.4 429.6,325.5 430.6,325.5 431.9,321.7 			"/>
			<path id="XMLID_88_" class="st6" d="M437.7,320.9C437.7,320.9,437.7,320.9,437.7,320.9c0-4.5-3.7-8.2-8.2-8.2
				c-4.5,0-8.2,3.7-8.2,8.2c0,0,0,0,0,0H437.7z"/>
			<g id="XMLID_89_">
				<path id="XMLID_90_" class="st5" d="M430.4,312.8c-0.3,0-0.6,0-0.9,0c-4.5,0-8.2,3.7-8.2,8.2c0,0,0,0,0,0h4.9c0,0,0,0,0,0
					C426.3,316.7,428.1,313.2,430.4,312.8z"/>
				<path id="XMLID_91_" class="st5" d="M432.7,313.3c1.7,1.2,2.9,4.1,2.9,7.5c0,0,0,0,0,0h2.2c0,0,0,0,0,0
					C437.7,317.5,435.6,314.6,432.7,313.3z"/>
			</g>
			<path class="st5" d="M416.3,320.9c0-1.2,0.9-2.1,2.1-2.1h6v2.1H416.3z"/>
			<ellipse class="st7" cx="429.7" cy="312.8" rx="1.2" ry="0.6"/>
		</g>
	</g>
</g>
<g id="DESIGNED_BY_FREEPIK">
</g>
</svg>
