<?xml version="1.0" encoding="utf-8"?>
<!-- Generator: Adobe Illustrator 19.0.0, SVG Export Plug-In . SVG Version: 6.00 Build 0)  -->
<svg version="1.1" id="Layer_1" xmlns="http://www.w3.org/2000/svg" xmlns:xlink="http://www.w3.org/1999/xlink" x="0px" y="0px"
	 viewBox="-81 217.3 447.3 358.7" style="enable-background:new -81 217.3 447.3 358.7;" xml:space="preserve">
<style type="text/css">
	.st0{display:none;fill:#5046AF;}
	.st1{fill:none;stroke:#D2AFFF;stroke-width:0.7557;stroke-miterlimit:10;}
	.st2{fill:#6E64C3;}
	.st3{fill:none;stroke:#D2AFFF;stroke-width:0.8641;stroke-miterlimit:10;}
	.st4{fill:#8841E6;}
	.st5{fill:#1E2D64;}
	.st6{fill:#FFFFFF;}
	.st7{fill:#D2AFFF;}
	.st8{opacity:0.4;fill:#6C9BAA;enable-background:new    ;}
	.st9{fill:none;stroke:#8841E6;stroke-width:2.8043;stroke-linecap:round;stroke-miterlimit:10;}
	.st10{fill:none;stroke:#FFFFFF;stroke-width:1.8724;stroke-linecap:round;stroke-miterlimit:10;}
	.st11{fill:#0F1446;}
	.st12{fill:none;stroke:#41378C;stroke-width:1.7282;stroke-miterlimit:10;}
	.st13{fill:none;stroke:#41378C;stroke-width:1.7282;stroke-linecap:round;stroke-miterlimit:10;}
	.st14{fill:#FA968C;}
	.st15{fill:#FA870A;}
	.st16{fill:#FAB9AF;}
	.st17{fill:#46738C;}
	.st18{fill:#1C9585;}
	.st19{fill:#177D74;}
	.st20{fill:#39AE96;}
	.st21{fill:#FFA50A;}
	.st22{fill:#3C5A73;}
	.st23{fill:#FFA0BE;}
	.st24{fill:#F57A2F;}
	.st25{fill:#0091C8;}
	.st26{fill:#0073AA;}
	.st27{fill:#00558C;}
	.st28{fill:#FF8C46;}
	.st29{fill:#FF82AA;}
	.st30{fill:none;stroke:#41B4E6;stroke-width:1.2962;stroke-linecap:round;stroke-miterlimit:10;}
	.st31{fill:none;stroke:#A8E5FF;stroke-width:1.2962;stroke-linecap:round;stroke-miterlimit:10;}
	.st32{fill:none;stroke:#D2AFFF;stroke-width:1.2962;stroke-linecap:round;stroke-miterlimit:10;}
	.st33{fill:#41B4E6;}
	.st34{fill:#AAC85A;}
	.st35{fill:#82BE50;}
	.st36{fill:#A56941;}
	.st37{fill:none;stroke:#D2AFFF;stroke-width:1.2962;stroke-miterlimit:10;}
	.st38{fill:#55C7A6;}
	.st39{fill:#FFF0F2;}
	.st40{fill:#965028;}
	.st41{fill:#EB7731;}
	.st42{fill:none;stroke:#D2AFFF;stroke-width:2;stroke-miterlimit:10;}
</style>
<g id="BACKGROUND">
	<g id="XMLID_1_">
		<rect id="XMLID_40_" x="-102.7" y="155.2" class="st0" width="500" height="500"/>
		<g id="XMLID_12_">
			<path id="XMLID_13_" class="st1" d="M27.9,469.4c-0.5,0-0.9,0-1.4,0c0.4-1.5,0.6-3.1,0.6-4.8c0-12.3-11.4-22.2-25.4-22.2
				c-13.8,0-25.1,9.7-25.4,21.7c-10.4,4.7-17.6,14.7-17.6,26.4c0,16.1,13.9,29.2,31,29.2c7.4,0,14.2-2.5,19.5-6.5
				c5.1,3.4,11.7,5.4,18.8,5.4c16.6,0,30-11,30-24.6S44.5,469.4,27.9,469.4z"/>
			<line id="XMLID_14_" class="st1" x1="9.1" y1="481.1" x2="9.1" y2="545.7"/>
			<polyline id="XMLID_15_" class="st1" points="-20.7,490.8 9.1,505.3 33.6,491.6 			"/>
			<polyline id="XMLID_16_" class="st1" points="-4.8,465.1 9.1,490.8 20.4,479.8 			"/>
		</g>
		<path id="XMLID_17_" class="st2" d="M22.6,339L22.6,339c-1.5,0-2.5-1.5-2-2.9c0.4-1.3,0.6-2.6,0.3-4.1c-0.7-4-4.3-6.9-8.4-6.9
			h-45.1c-4.1,0-7.8,2.9-8.4,7c-0.8,5.2,3.2,9.7,8.2,9.7h0.5c3.4,0,6,2.8,6,6.2c0,0,0,0,0,0.1l0,0c0,5,4,9,9,9h40c5,0,9-4,9-9l0,0
			C31.6,343,27.6,339,22.6,339z"/>
		<g id="XMLID_18_">
			<path id="XMLID_19_" class="st3" d="M331,461.6c-1.2-1.2-3.8-1.2-6.7-0.7c-4.1,0.7-7.1-3.7-4.9-7.3c4.6-7.5,9.2-16.3,6.8-18.7
				c-2.2-2.2-10.9,0.6-16.7,2.8c-2.8,1.1-5.9-0.6-6.5-3.6c-1.8-9-5.6-25.5-10-25.5s-8.3,16.5-10,25.6c-0.6,2.9-3.6,4.6-6.4,3.6
				c-6.2-2.3-15.8-5.3-18.2-2.9c-2.4,2.4,2.2,11.2,6.8,18.7c2.2,3.5-0.8,8-4.9,7.3c-2.9-0.5-5.5-0.5-6.7,0.7
				c-4.9,4.9,2.4,20.2,16.3,34.1c2.4,2.4,4.9,4.6,7.3,6.6c1.2,1,1.9,2.6,1.7,4.2c-0.2,2.4,0.2,4.3,1.5,5.5c2,2,5.6,2,10.2,0.4
				c1-0.4,2.2-0.4,3.2,0c4.6,1.6,8.2,1.6,10.2-0.4c1.2-1.2,1.7-3.1,1.5-5.5c-0.2-1.6,0.5-3.1,1.7-4.2c2.4-2,4.9-4.2,7.3-6.6
				C328.6,481.8,335.9,466.5,331,461.6z"/>
			<line id="XMLID_23_" class="st3" x1="292.3" y1="434.1" x2="292.3" y2="547.1"/>
			<polyline class="st3" points="307.5,449.6 292.3,464.8 277.2,449.6 			"/>
			<polyline class="st3" points="307.5,478.1 292.3,493.2 277.2,478.1 			"/>
		</g>
		<path class="st2" d="M336.4,535.8c0-6.4-5.2-11.7-11.7-11.7H179.3v23.3h145.4C331.2,547.5,336.4,542.3,336.4,535.8L336.4,535.8z"
			/>
		<path id="XMLID_24_" class="st3" d="M302.5,269.6c-0.1-3.3-2.9-5.9-6.2-5.9c-7.6,0-13.2,0-17.1,0c-3.3,0-6.2-2.5-6.5-5.8
			c-0.3-2.5-1.3-4.9-4-4.9h-34.9c-3.3,0-6.1,2.5-6.1,5.8c-0.1,3.3,2.6,6,5.9,6c0.3,0,0.9,0,1.5,0c0.4,0,0.9,0,1.3,0.2
			c2.6,0.8,4,3.5,3.2,6c-0.6,2-2.6,3.3-4.7,3.3c-3.1,0-6.6,0-6.6,0c-3.1,0-5.8,2.4-5.8,5.5c0,3.2,2.5,5.7,5.6,5.7h59.7
			c4,0,6.3-3.5,5.8-6.7c-0.3-1.8,1-3.4,2.7-3.4c0.1,0,0.2,0,0.2,0C299.9,275.7,302.5,272.9,302.5,269.6z"/>
		<path class="st3" d="M324.9,275.3h-6.3c-2.9,0-5.2,2.3-5.2,5.2l0,0c0,2.9,2.3,5.2,5.2,5.2h6.3c2.9,0,5.2-2.3,5.2-5.2l0,0
			C330.1,277.6,327.7,275.3,324.9,275.3z"/>
		<path class="st3" d="M212.4,264.4h-7.2c-3.1,0-5.6-2.5-5.6-5.6l0,0c0-3.1,2.5-5.6,5.6-5.6h7.2c3.1,0,5.6,2.5,5.6,5.6l0,0
			C218,261.8,215.5,264.4,212.4,264.4z"/>
		<g id="XMLID_25_">
			<path id="XMLID_26_" class="st3" d="M330.1,353.6v-5.9c0-3.5-2.8-6.3-6.3-6.3h-0.2c-2.7,0-5-1.7-6-4.2c-0.4-1-0.7-1.9-1.2-2.8
				c-1.1-2.4-0.7-5.3,1.2-7.2l0.2-0.2c2.5-2.5,2.5-6.5,0-8.9l-4.2-4.2c-2.5-2.5-6.5-2.5-8.9,0l-0.2,0.2c-1.9,1.9-4.8,2.3-7.2,1.2
				c-0.9-0.4-1.9-0.8-2.8-1.2c-2.5-0.9-4.2-3.3-4.2-6v-0.2c0-3.5-2.8-6.3-6.3-6.3h-5.9c-3.5,0-6.3,2.8-6.3,6.3v0.2
				c0,2.7-1.7,5-4.2,6c-1,0.4-1.9,0.7-2.8,1.2c-2.4,1.1-5.3,0.7-7.2-1.2l-0.2-0.2c-2.5-2.5-6.5-2.5-8.9,0l-4.2,4.2
				c-2.5,2.5-2.5,6.5,0,8.9l0.2,0.2c1.9,1.9,2.3,4.8,1.2,7.2c-0.4,0.9-0.8,1.9-1.2,2.8c-0.9,2.5-3.3,4.2-6,4.2h-0.2
				c-3.5,0-6.3,2.8-6.3,6.3v5.9c0,3.5,2.8,6.3,6.3,6.3h0.2c2.7,0,5,1.7,6,4.2c0.4,1,0.7,1.9,1.2,2.8c1.1,2.4,0.7,5.3-1.2,7.2
				l-0.2,0.2c-2.5,2.5-2.5,6.5,0,8.9l4.2,4.2c2.5,2.5,6.5,2.5,8.9,0l0.2-0.2c1.9-1.9,4.8-2.3,7.2-1.2c0.9,0.4,1.9,0.8,2.8,1.2
				c2.5,0.9,4.2,3.3,4.2,6v0.2c0,3.5,2.8,6.3,6.3,6.3h5.9c3.5,0,6.3-2.8,6.3-6.3v-0.2c0-2.7,1.7-5,4.2-6c1-0.4,1.9-0.7,2.8-1.2
				c2.4-1.1,5.3-0.7,7.2,1.2l0.2,0.2c2.5,2.5,6.5,2.5,8.9,0l4.2-4.2c2.5-2.5,2.5-6.5,0-8.9l-0.2-0.2c-1.9-1.9-2.3-4.8-1.2-7.2
				c0.4-0.9,0.8-1.9,1.2-2.8c0.9-2.5,3.3-4.2,6-4.2h0.2C327.3,359.9,330.1,357.1,330.1,353.6z"/>
			<circle class="st3" cx="281.1" cy="350.7" r="25.5"/>
		</g>
		<g id="XMLID_37_">
			<path id="XMLID_38_" class="st1" d="M21.8,409.8V407c0-1.6-1.3-3-3-3h-0.1c-1.3,0-2.4-0.8-2.8-2c-0.2-0.5-0.4-0.9-0.6-1.3
				c-0.5-1.2-0.3-2.5,0.6-3.4H16c1.2-1.2,1.2-3.1,0-4.2l-2-2c-1.2-1.2-3.1-1.2-4.2,0l-0.1,0.1c-0.9,0.9-2.3,1.1-3.4,0.6
				c-0.4-0.2-0.9-0.4-1.3-0.6c-1.2-0.4-2-1.5-2-2.8v-0.1c0-1.6-1.3-3-3-3h-2.8c-1.6,0-3,1.3-3,3v0.1c0,1.3-0.8,2.4-2,2.8
				c-0.5,0.2-0.9,0.4-1.3,0.6c-1.2,0.5-2.5,0.3-3.4-0.6l-0.1-0.1c-1.2-1.2-3.1-1.2-4.2,0l-2,2c-1.2,1.2-1.2,3.1,0,4.2l0.1,0.1
				c0.9,0.9,1.1,2.3,0.6,3.4c-0.2,0.4-0.4,0.9-0.6,1.3c-0.4,1.2-1.5,2-2.8,2h-0.1c-1.6,0-3,1.3-3,3v2.8c0,1.6,1.3,3,3,3h0.1
				c1.3,0,2.4,0.8,2.8,2c0.2,0.5,0.4,0.9,0.6,1.3c0.5,1.2,0.3,2.5-0.6,3.4l-0.1,0.1c-1.2,1.2-1.2,3.1,0,4.2l2,2
				c1.2,1.2,3.1,1.2,4.2,0l0.1-0.1c0.9-0.9,2.3-1.1,3.4-0.6c0.4,0.2,0.9,0.4,1.3,0.6c1.2,0.4,2,1.5,2,2.8v0.1c0,1.6,1.3,3,3,3H0
				c1.6,0,3-1.3,3-3v-0.1c0-1.3,0.8-2.4,2-2.8c0.5-0.2,0.9-0.4,1.3-0.6c1.2-0.5,2.5-0.3,3.4,0.6l0.1,0.1c1.2,1.2,3.1,1.2,4.2,0l2-2
				c1.2-1.2,1.2-3.1,0-4.2l-0.1-0.1c-0.9-0.9-1.1-2.3-0.6-3.4c0.2-0.4,0.4-0.9,0.6-1.3c0.4-1.2,1.5-2,2.8-2h0.1
				C20.4,412.8,21.8,411.5,21.8,409.8z"/>
			<circle class="st1" cx="-1.4" cy="408.4" r="12"/>
		</g>
		<g id="XMLID_39_">
			<path class="st1" d="M-17.3,388.1l0.3-1.9c0.2-1.1-0.7-2.2-1.8-2.3h-0.1c-0.9-0.1-1.6-0.8-1.8-1.6c-0.1-0.3-0.2-0.7-0.3-1
				c-0.3-0.8,0-1.8,0.7-2.3h0.1c0.9-0.7,1.1-2,0.4-2.9l-1.2-1.5c-0.7-0.9-2-1.1-2.9-0.4H-24c-0.7,0.5-1.7,0.6-2.4,0.1
				c-0.3-0.2-0.6-0.3-0.9-0.5c-0.8-0.4-1.2-1.3-1.1-2.1v-0.1c0.2-1.1-0.7-2.2-1.8-2.3l-1.9-0.3c-1.1-0.2-2.2,0.7-2.3,1.8v0.1
				c-0.1,0.9-0.8,1.6-1.6,1.8c-0.3,0.1-0.7,0.2-1,0.3c-0.8,0.3-1.8,0-2.3-0.7v-0.1c-0.7-0.9-2-1.1-2.9-0.4l-1.5,1.2
				c-0.9,0.7-1.1,2-0.4,2.9v0.1c0.5,0.7,0.6,1.7,0.1,2.4c-0.2,0.3-0.3,0.6-0.5,0.9c-0.4,0.8-1.3,1.2-2.1,1.1h-0.1
				c-1.1-0.2-2.2,0.7-2.3,1.8l-0.3,1.9c-0.2,1.1,0.7,2.2,1.8,2.3h0.1c0.9,0.1,1.6,0.8,1.8,1.6c0.1,0.3,0.2,0.7,0.3,1
				c0.3,0.8,0,1.8-0.7,2.3h-0.1c-0.9,0.7-1.1,2-0.4,2.9l1.2,1.5c0.7,0.9,2,1.1,2.9,0.4h0.1c0.7-0.5,1.7-0.6,2.4-0.1
				c0.3,0.2,0.6,0.3,0.9,0.5c0.8,0.4,1.2,1.3,1.1,2.1v0.1c-0.2,1.1,0.7,2.2,1.8,2.3l1.9,0.3c1.1,0.2,2.2-0.7,2.3-1.8v-0.1
				c0.1-0.9,0.8-1.6,1.6-1.8c0.3-0.1,0.7-0.2,1-0.3c0.8-0.3,1.8,0,2.3,0.7v0.1c0.7,0.9,2,1.1,2.9,0.4l1.5-1.2c0.9-0.7,1.1-2,0.4-2.9
				v-0.1c-0.5-0.7-0.6-1.7-0.1-2.4c0.2-0.3,0.3-0.6,0.5-0.9c0.4-0.8,1.3-1.2,2.1-1.1h0.1C-18.5,390.1-17.5,389.3-17.3,388.1z"/>
			<circle class="st1" cx="-33.3" cy="385" r="8.4"/>
		</g>
		<path class="st2" d="M342.7,547.5h-23c-3.5,0-6.3-2.8-6.3-6.3l0,0c0-3.5,2.8-6.3,6.3-6.3h23c3.5,0,6.3,2.8,6.3,6.3l0,0
			C349.1,544.7,346.2,547.5,342.7,547.5z"/>
	</g>
</g>
<g id="OBJECTS">
	<g>
		<path id="XMLID_136_" class="st4" d="M283.4,502.3c0,6.2-5,11.2-11.2,11.2H17.3c-6.2,0-11.2-5-11.2-11.2V325.1
			c0-6.2,5-11.2,11.2-11.2h254.9c6.2,0,11.2,5,11.2,11.2L283.4,502.3L283.4,502.3z"/>
		<g id="XMLID_135_">
			<path id="XMLID_42_" class="st5" d="M272.2,325.1v177.2H17.3V325.1H272.2 M272.2,313.9H17.3c-6.2,0-11.2,5-11.2,11.2v177.2
				c0,6.2,5,11.2,11.2,11.2h254.9c6.2,0,11.2-5,11.2-11.2V325.1C283.4,318.9,278.4,313.9,272.2,313.9L272.2,313.9z"/>
		</g>
		<g id="XMLID_46_">
			<path id="XMLID_45_" class="st6" d="M243.7,489.5c0,4.2-3.4,7.6-7.6,7.6H52.5c-4.2,0-7.6-3.4-7.6-7.6V345.7
				c0-4.2,3.4-7.6,7.6-7.6H236c4.2,0,7.6,3.4,7.6,7.6v143.8H243.7z"/>
		</g>
		<g id="XMLID_49_">
			<path id="XMLID_48_" class="st7" d="M236,338.1H52.5c-4.2,0-7.6,3.4-7.6,7.6v14h198.7v-14C243.7,341.5,240.2,338.1,236,338.1z"/>
		</g>
		<path id="XMLID_134_" class="st8" d="M115.6,499.8l-65-18.8c-2-0.6-3.1-2.6-2.5-4.6l28.6-99.1c0.6-2,2.6-3.1,4.6-2.5l65,18.8
			c2,0.6,3.1,2.6,2.5,4.6l-28.6,99.1C119.6,499.2,117.6,500.3,115.6,499.8z"/>
		<path id="XMLID_133_" class="st2" d="M113.4,495.7l-65-18.8c-2-0.6-3.1-2.6-2.5-4.6l28.6-99.1c0.6-2,2.6-3.1,4.6-2.5l65,18.8
			c2,0.6,3.1,2.6,2.5,4.6l-28.6,99C117.4,495.1,115.4,496.2,113.4,495.7z"/>
		<g id="XMLID_132_">
			<path id="XMLID_51_" class="st7" d="M132.9,378.7v108.9H59.6V378.7H132.9 M133.8,377.8H58.7v110.6h75.1L133.8,377.8L133.8,377.8z
				"/>
		</g>
		<g id="XMLID_50_">
			<line id="XMLID_54_" class="st9" x1="218" y1="344.4" x2="230.4" y2="344.4"/>
			<line id="XMLID_55_" class="st9" x1="218" y1="349.3" x2="230.4" y2="349.3"/>
			<line id="XMLID_56_" class="st9" x1="218" y1="354.2" x2="230.4" y2="354.2"/>
		</g>
		<path class="st4" d="M199.9,354.2h-84.1c-2.7,0-4.9-2.2-4.9-4.9l0,0c0-2.7,2.2-4.9,4.9-4.9h84.1c2.7,0,4.9,2.2,4.9,4.9l0,0
			C204.8,352,202.6,354.2,199.9,354.2z"/>
		<g id="XMLID_57_">
			<line class="st10" x1="57" y1="346.6" x2="52.5" y2="351.1"/>
			<line class="st10" x1="57" y1="351.1" x2="52.5" y2="346.6"/>
		</g>
		<path class="st10" d="M76.1,351.1L76.1,351.1c-1.2,0-2.2-1-2.2-2.2l0,0c0-1.2,1-2.2,2.2-2.2l0,0c1.2,0,2.2,1,2.2,2.2l0,0
			C78.3,350.1,77.3,351.1,76.1,351.1z"/>
		<line id="XMLID_58_" class="st10" x1="62.7" y1="348.9" x2="67.5" y2="348.9"/>
		<rect x="101.4" y="513.5" class="st11" width="93.7" height="21.3"/>
		<path class="st5" d="M224.2,547.5H70.9l0,0c0-7,5.7-12.7,12.7-12.7h128C218.5,534.8,224.2,540.5,224.2,547.5L224.2,547.5z"/>
		<path class="st3" d="M207.3,433.6h-54.7c-2.8,0-5-2.2-5-5l0,0c0-2.8,2.2-5,5-5h54.7c2.8,0,5,2.2,5,5l0,0
			C212.3,431.4,210,433.6,207.3,433.6z"/>
		<path class="st3" d="M207.3,451.8h-54.7c-2.8,0-5-2.2-5-5l0,0c0-2.8,2.2-5,5-5h54.7c2.8,0,5,2.2,5,5l0,0
			C212.3,449.6,210,451.8,207.3,451.8z"/>
		<path class="st3" d="M224.2,433.6L224.2,433.6c-2.8,0-5-2.2-5-5l0,0c0-2.8,2.2-5,5-5l0,0c2.8,0,5,2.2,5,5l0,0
			C229.2,431.4,226.9,433.6,224.2,433.6z"/>
		<path class="st3" d="M224.2,451.8L224.2,451.8c-2.8,0-5-2.2-5-5l0,0c0-2.8,2.2-5,5-5l0,0c2.8,0,5,2.2,5,5l0,0
			C229.2,449.6,226.9,451.8,224.2,451.8z"/>
		<path class="st3" d="M212.3,465.8c0,2.8-2.2,5-5,5h-54.7c-2.8,0-5-2.2-5-5l0,0c0-2.8,2.2-5,5-5h54.7
			C210,460.8,212.3,463,212.3,465.8L212.3,465.8z"/>
		<path class="st3" d="M212.3,483.9c0,2.8-2.2,5-5,5h-54.7c-2.8,0-5-2.2-5-5l0,0c0-2.8,2.2-5,5-5h54.7
			C210,478.9,212.3,481.2,212.3,483.9L212.3,483.9z"/>
		<path class="st3" d="M224.2,470.8L224.2,470.8c-2.8,0-5-2.2-5-5l0,0c0-2.8,2.2-5,5-5l0,0c2.8,0,5,2.2,5,5l0,0
			C229.2,468.6,226.9,470.8,224.2,470.8z"/>
		<path class="st3" d="M229.2,483.9c0,2.8-2.2,5-5,5l0,0c-2.8,0-5-2.2-5-5l0,0c0-2.8,2.2-5,5-5l0,0
			C226.9,478.9,229.2,481.2,229.2,483.9L229.2,483.9z"/>
		<line id="XMLID_59_" class="st12" x1="237.3" y1="563" x2="304.1" y2="563"/>
		<line id="XMLID_60_" class="st13" x1="89.9" y1="547.6" x2="-48.4" y2="547.6"/>
		<g id="XMLID_61_">
			<path id="XMLID_62_" class="st14" d="M44,471.7c1.2,2.9,3.9,7.5,7.1,10.1c3.6,2.9,7.3,2.5,11.1,0c0.4-0.3,0.8-0.1,1,0.2
				c0.2,0.3,0.1,0.7-0.1,0.9c-8.6,8.2-18.5,1-23.8-9.1c-1.6-3,3-5.5,4.6-2.4C44,471.5,44,471.6,44,471.7L44,471.7z"/>
			<path id="XMLID_63_" class="st15" d="M47.1,477.2L47.1,477.2c-2-3-2.6-4.8-3.2-5.8c-0.7-1.3-2.2-1.8-3.5-1.1
				c-1.3,0.7-1.8,2.2-1.1,3.5c1.1,2.1,2.2,3.7,3.4,5.2C43.1,478.6,46.2,477.5,47.1,477.2z"/>
			<path id="XMLID_64_" class="st16" d="M43,489.6c1,0,1.9-0.8,1.9-1.9c0-1.2,0.1-2.5,0-3.8c-0.4-4.5-0.8-9.1-1-11.7
				c-0.1-1.3-1.2-2.2-2.4-2.2h-8.3c-1.4,0-2.5,1.1-2.5,2.5c-0.1,3.3-0.3,9.5-0.7,15l0,0c-0.1,1.1,0.8,2.1,1.9,2.1L43,489.6z"/>
			<path id="XMLID_65_" class="st14" d="M40.4,544.7c-0.9-1-1.1-3.3-1.1-5.4c0-1.2-1.6-1.7-2.3-0.8l0,0v6.5
				C38.2,545.4,39.7,545.4,40.4,544.7z"/>
			<path id="XMLID_66_" class="st17" d="M40.3,544.6C40.3,544.6,40.2,544.6,40.3,544.6c-0.6,0.2-1.2,0.3-1.8,0.3
				c-0.6,0-1.1-0.1-1.6-0.2l-0.3,1.5c-0.1,0.4,0.2,0.8,0.7,0.8c2.1,0.1,7.5,0.2,7.6,0C45.6,545.9,42.5,545.5,40.3,544.6z"/>
			<path id="XMLID_67_" class="st18" d="M36.6,518.7c-0.3,2-0.3,14.5,0.1,20.9h2.7c1.4-6.2,2.6-18.2,2.9-20.1c0,0,0,0,0-0.1
				c1.5-6.7,2.3-19.6,2.2-22.3c-0.1-3.6-2.4-6.4-5.2-6.3c-2.8,0.1-4.9,3-4.9,6.6C34.6,499.6,36.7,517.7,36.6,518.7z"/>
			<path id="XMLID_68_" class="st19" d="M44.5,497.1c-0.1-3.6-2.4-6.4-5.2-6.3c-2.8,0.1-4.9,3-4.9,6.6c0,1.6,1.2,11.6,1.8,17.3
				c0.6-1.3,1.2-2.6,1.7-3.9c0.3-4.5,2.8-8.6,6.5-11.3C44.5,498.4,44.5,497.6,44.5,497.1z"/>
			<path id="XMLID_69_" class="st16" d="M24.5,543.7c-0.2-1.9,0.7-4.1,1.5-6.2l0,0c-0.5-1.1-2-1-2.5,0l-1.7,3.8
				c-0.1,0.1-0.1,0.3,0,0.4C22.4,543,23.7,543.6,24.5,543.7z"/>
			<path id="XMLID_70_" class="st17" d="M26,545c-0.7-0.3-1.1-0.9-1.4-1.5c-1.3-0.4-2.2-1.3-2.7-2.4c-0.3,0.2-0.5,0.5-0.7,0.7
				c-0.2,0.3-0.5,0.8-0.8,1.1c-0.2,0.2-0.1,0.5,0.1,0.7l1,1c0.2,0.2,2.1,1.8,2.6,1.9c1.3,0.2,3.6,0.4,3.7,0.1
				C27.9,546.1,26.9,545.5,26,545z"/>
			<path id="XMLID_71_" class="st20" d="M29.5,517.1c-0.7,1.5-4.8,14.6-6.3,20.9c0.7,0.6,1.5,1.1,2.4,1c2.6-5,8.7-16,9.8-18.5
				c2.1-3.1,4.4-20.8,4.3-24.1c-0.1-3.6-2.4-6.4-5.2-6.3c-2.8,0.1-5.4,2.9-5.4,6.5C29.2,498.9,30,516,29.5,517.1z"/>
			<path id="XMLID_72_" class="st21" d="M41.6,470.1h-1.3c-0.5,1.1-1.5,1.9-3,1.9s-2.5-0.8-3-1.9H33c-1.3,0-2.3,1-2.3,2.2
				c-0.1,3.3-0.2,7.5-0.6,13.2c-0.3,5.2-1.5,6.8-0.9,13.4c0,0,11.2,1.1,15.3-1c0.6-4.7,0.8-9.4,0.4-13.9s-0.8-9.1-1-11.8
				C43.8,471,42.8,470.1,41.6,470.1z"/>
			<path class="st14" d="M64.7,480.9c0,0-2.2-0.2-2.4,0.4c-0.3,0.6-0.4,1.1,0.6,1.6c0.9,0.4,2.4,0.6,3.3,0.5c0.9-0.1,2.4-0.8,2.5-1
				c0.4-0.7-1.2-0.4-2-0.3s-1.7,0.2-1.6-0.2c0.1-0.4,1.6-0.5,1.8-0.9C66.9,480.5,64.7,480.9,64.7,480.9z"/>
			<path id="XMLID_73_" class="st16" d="M35,472.8c3.6,8.1,21.2,7.5,26.5,7.6l0,0c0.4,0,0.7,0.3,0.7,0.8c0,0.9-1.1,0.8-4.7,1.5
				c-24.7,4.8-31.7-11.5-25.7-12.2C33.8,470.2,35,472.8,35,472.8z"/>
			<g id="XMLID_74_">
				<path id="XMLID_75_" class="st15" d="M37.8,475.7c-2.4-1.7-2.8-3.4-2.8-3.4v0.1l-0.2-0.4c-0.6-1.4-2.2-2.2-3.7-1.6
					c0,0,0,0-0.1,0c-1.7,0.7-1.4,2.8-1.4,2.8c0,0.3,0.6,3.6,4.6,6.6C34.2,479.8,38.1,476,37.8,475.7z"/>
			</g>
			<path id="XMLID_131_" class="st22" d="M35.9,466.3h-0.2c-1.2,0-2.2-1-2.2-2.2v-3.2h2.3L35.9,466.3L35.9,466.3z"/>
			<g id="XMLID_76_">
				<polygon class="st16" points="38.9,470.1 34.6,470.1 35.9,465.8 38.8,466.1 				"/>
			</g>
			<path id="XMLID_77_" class="st14" d="M38.8,466.1l-2.9-0.4l-0.6,2c0.7,0.7,1.6,1.9,2.7,1.9c0.3,0,0.7-0.1,0.9-0.3L38.8,466.1z"/>
			<path id="XMLID_78_" class="st16" d="M38,468.1L38,468.1c-2,0-3.6-1.6-3.6-3.6v-4h6.2c0,0,0,3.1-0.4,5.2
				C39.7,467.4,39,468.1,38,468.1z"/>
			<path id="XMLID_79_" class="st16" d="M35.4,463.8c0,0.8-0.4,1.4-0.8,1.4c-0.5,0-1-1-1-1.8c0-0.8,0.5-1,1-1
				C35,462.4,35.4,463,35.4,463.8z"/>
			<path id="XMLID_80_" class="st22" d="M41.2,458.5c0,0-1.4,0.4-3.2,0.2h-2.1c-1.3,0-2.3,1-2.3,2.3v0.5l0.7,0.9l0.7,1h0.1
				c0.4,0,0.7-0.3,0.7-0.7c0-0.6,0.5-1.2,1.1-1.2h1.9c1.1,0,1.7,0.6,1.7,1.4l-0.1,0.7C40.4,463.7,42.1,462.3,41.2,458.5z"/>
			<path class="st16" d="M63.2,480.5c0,0-2.1-0.5-2.5,0c-0.4,0.6-0.5,1.1,0.3,1.6c0.8,0.6,2.3,1,3.2,1.1s2.5-0.4,2.6-0.6
				c0.5-0.6-1.2-0.6-2-0.6s-1.7-0.1-1.6-0.5c0.1-0.4,1.6-0.2,1.9-0.6C65.5,480.5,63.2,480.5,63.2,480.5z"/>
		</g>
		<g id="XMLID_81_">
			<path id="XMLID_82_" class="st14" d="M145.7,453.3c-2.1,1.1-4.6,0.4-6-1.5c-3-3.9-3.6-13.6-3.8-18.6c0-0.9,1.3-1.1,1.5-0.2
				c0.6,2.9,1.1,5.4,1.7,7.8c0.6,2.1,2.8,9.8,4.6,8.6c2.3-1.5,4.6-8.3,4.3-7.3c0.5-1.3,2-2,3.3-1.5s2,2,1.5,3.3
				C152.5,445,149.5,451.5,145.7,453.3z"/>
			<path class="st23" d="M145,447.6c0.6-0.9,1.1-1.8,1.7-2.7c0.5-0.9,1-1.9,1.4-2.8l0,0c0-0.1,0.1-0.1,0.1-0.2
				c0.7-1.3,2.2-1.8,3.5-1.1s1.8,2.2,1.1,3.5c-0.6,1.2-1.2,2.2-1.9,3.2c-0.5,0.7-1.1,1.8-1.6,2.4C146.1,449.8,145,447.7,145,447.6z"
				/>
			<path class="st16" d="M147.6,466.1c0.1,0.5,0.4,0.9,0.9,1.1c3.2,1.1,8,1.6,13.2,2.1c0.8,0.1,1.4-0.5,1.4-1.3c0-2.1-0.9-6-1.1-10
				c-0.3-4.9-0.5-10.3-0.6-13.8c-0.1-2.1-1.8-3.7-3.8-3.7h-5.8c-2,0-3.6,1.5-3.7,3.4c-0.2,2.7-0.5,6.6-0.9,10.5
				C146.8,458.1,147.4,464,147.6,466.1z"/>
			<path class="st14" d="M155,509v5.1l0.4,2.5c0.1,0.4-0.2,0.8-0.7,0.8c-2.1,0.1-7.5,0.2-7.6,0c-0.7-1.1,2.4-1.5,4.6-2.4
				c2.2-0.9,0.7-9.4,0.7-9.4L155,509z"/>
			<path class="st24" d="M151.8,515.1L151.8,515.1c0.6,0.2,1.2,0.3,1.8,0.3s1.1-0.1,1.6-0.2l0.3,1.5c0.1,0.4-0.2,0.8-0.7,0.8
				c-2.1,0.1-7.5,0.2-7.6,0C146.5,516.3,149.5,515.9,151.8,515.1z"/>
			<path class="st25" d="M147.5,467.6c-0.1,3.6,1.3,26.2,4.1,26.2c2.8,0.1,5.9-22.4,5.9-26c0.1-3.6-2.1-6.5-4.9-6.6
				C149.9,461.2,147.6,464,147.5,467.6z"/>
			<path class="st26" d="M155.4,489.1c0.3,2,0.3,14.5-0.1,20.9h-2.5c-1.4-6.2-2.8-18.2-3.1-20.1c0,0,0,0,0-0.1
				c-1.5-6.7-2.3-19.6-2.2-22.3c0.1-3.6,2.4-6.4,5.2-6.3c2.8,0.1,4.9,3,4.9,6.6C157.5,470,155.3,488.2,155.4,489.1z"/>
			<path id="XMLID_83_" class="st27" d="M154,480.9c0.6,1.5,1.2,3,1.7,4.5c0.6-5.7,1.8-16,1.8-17.6c0.1-3.6-2.1-6.5-4.9-6.6
				c-2.8-0.1-5.1,2.8-5.2,6.3c0,0.5,0,1.3,0,2.4C151.1,472.5,153.6,476.5,154,480.9z"/>
			<path class="st14" d="M161.1,509v5.1l0.4,2.5c0.1,0.4-0.2,0.8-0.7,0.8c-2.1,0.1-7.5,0.2-7.6,0c-0.7-1.1,2.4-1.5,4.6-2.4
				c2.2-0.9,0.7-9.4,0.7-9.4L161.1,509z"/>
			<path class="st28" d="M157.8,515.1L157.8,515.1c0.6,0.2,1.2,0.3,1.8,0.3s1.1-0.1,1.6-0.2l0.3,1.5c0.1,0.4-0.2,0.8-0.7,0.8
				c-2.1,0.1-7.5,0.2-7.6,0C152.5,516.3,155.6,515.9,157.8,515.1z"/>
			<path class="st25" d="M153.6,467.6c-0.1,3.6,1.3,26.2,4.1,26.2c2.8,0.1,5.3-22.5,5.3-26.1c0.1-3.6-1.5-6.4-4.3-6.5
				C156,461.2,153.6,464,153.6,467.6z"/>
			<path class="st25" d="M161.5,489.1c0.3,2,0.3,14.5-0.1,20.9h-2.5c-1.4-6.2-2.8-18.2-3.1-20.1c0,0,0,0,0-0.1
				c-1.5-6.7-2.9-19.7-2.8-22.3c0.1-3.6,3-6.3,5.8-6.3c2.8,0.1,4.3,2.9,4.3,6.5C162.9,469.9,161.4,488.2,161.5,489.1z"/>
			<path class="st29" d="M148.1,442.7c0.1-1.2,1.1-2.2,2.4-2.2h1.3c0.5,1.1,1.5,1.9,3,1.9s2.5-0.8,3-1.9h1.2c1.3,0,2.3,1,2.3,2.2
				c0.1,3.3,0.2,8.2,0.6,13.9c0.3,5.2,1.8,7.5,1.1,12.7c0,0-13.5,1-15.8-1.6c-0.3-2.7-0.4-8.9-0.1-13.4
				C147.5,449.9,147.9,445.3,148.1,442.7z"/>
			<path class="st14" d="M135.2,431.3c0,0,0.1,2.5,0.7,2.9c0.6,0.3,1,0.2,1.5-0.6c0.6-0.9,0.7-2.4,0.7-3.3c0-0.5-0.7-2.5-0.8-2.6
				c-0.6-0.4-0.3,1.4-0.2,2.2c0,0.8-0.2,1.2-0.6,1.1c-0.4-0.1-0.3-1.3-0.7-1.6C135.3,429.2,135.2,431.3,135.2,431.3z"/>
			<path id="XMLID_84_" class="st16" d="M161.8,444.7c-7.3,9.9-20.8,15.7-31,6.1c-0.6-0.6,0.1-1.6,0.9-1.2l0,0
				c4.7,2.7,9,3.9,14.4,1.6c4.5-1.9,8.6-5.7,11.4-9.6l0.1-0.1C159.7,438.9,163.8,442,161.8,444.7z"/>
			<g id="XMLID_85_">
				<path class="st23" d="M153.8,445.8c1.7-1.6,4-4.6,4-4.6s1-1.2,3.2-0.3c1.7,0.7,1.4,2.8,1.4,2.8c0,0.3-0.6,3.6-4.6,6.6
					C157.8,450.2,154.6,448.8,153.8,445.8z"/>
			</g>
			<path id="XMLID_130_" class="st22" d="M155.2,437.5h0.2c1.2,0.3,2.4-0.5,2.6-1.7l0.7-3.2l-2.3-0.5L155.2,437.5z"/>
			<g id="XMLID_86_">
				<polygon class="st16" points="153.1,440.5 157.4,440.5 156.2,436.2 153.2,436.6 				"/>
			</g>
			<path class="st14" d="M153.2,436.6l2.9-0.4l0.6,2c-0.7,0.7-1.6,1.9-2.7,1.9c-0.3,0-0.7-0.1-0.9-0.3L153.2,436.6z"/>
			<path class="st16" d="M152.8,438.9L152.8,438.9c1.9,0.4,3.9-0.8,4.3-2.7l0.9-3.9l-6-1.3c0,0-0.7,3.1-0.7,5.2
				C151.2,437.7,151.8,438.6,152.8,438.9z"/>
			<path class="st16" d="M156.2,435.2c-0.2,0.8,0.1,1.5,0.5,1.6c0.5,0.1,1.2-0.8,1.3-1.6c0.2-0.8-0.3-1.1-0.7-1.2
				C156.9,433.9,156.4,434.4,156.2,435.2z"/>
			<path class="st22" d="M151.2,432.4c0-0.5,0.1-1,0.2-1.5l0,0c0.5-1.2,1.8-1.7,3-1.3c0.1,0,0.3,0.1,0.4,0.1l2,0.5
				c1.2,0.3,2,1.5,1.7,2.7l-0.1,0.5l-0.9,0.7l-0.8,0.8h-0.1c-0.4-0.1-0.6-0.5-0.6-0.8c0.1-0.6-0.2-1.3-0.8-1.4l-1.8-0.4
				c-1.1-0.2-1.8,0.2-2,1l-0.1,0.7L151.2,432.4z"/>
			<path class="st16" d="M130.2,448.5c0,0,0.2,2.2,0.8,2.3c0.7,0.2,1.2,0.2,1.5-0.8s0.2-2.5,0-3.3c-0.2-0.9-1.2-2.2-1.4-2.3
				c-0.7-0.3-0.2,1.3,0.1,2.1c0.3,0.8,0.4,1.6,0,1.7c-0.4,0-0.7-1.5-1.2-1.6C129.5,446.4,130.2,448.5,130.2,448.5z"/>
			<g id="XMLID_87_">
				<line id="XMLID_88_" class="st30" x1="156.9" y1="455.6" x2="173.6" y2="547.5"/>
				<line id="XMLID_89_" class="st30" x1="148.9" y1="547.5" x2="132.2" y2="455.6"/>
				<line id="XMLID_90_" class="st30" x1="134.2" y1="463" x2="158.3" y2="463"/>
				<line id="XMLID_91_" class="st30" x1="135.8" y1="474.1" x2="160.3" y2="474.1"/>
				<line id="XMLID_92_" class="st30" x1="138" y1="485.2" x2="162.3" y2="485.2"/>
				<line id="XMLID_93_" class="st30" x1="140.2" y1="496.3" x2="164.3" y2="496.3"/>
				<line id="XMLID_94_" class="st30" x1="141.9" y1="507.3" x2="166.3" y2="507.3"/>
				<line id="XMLID_95_" class="st30" x1="143.5" y1="518.2" x2="168.3" y2="518.2"/>
				<line id="XMLID_96_" class="st30" x1="146" y1="529.5" x2="170.4" y2="529.5"/>
				<line id="XMLID_97_" class="st30" x1="147.6" y1="540.6" x2="172.1" y2="540.6"/>
			</g>
			<g id="XMLID_98_">
				<line class="st31" x1="132.2" y1="455.6" x2="115.5" y2="547.5"/>
				<line class="st31" x1="140.2" y1="547.5" x2="156.9" y2="455.6"/>
				<line class="st31" x1="155" y1="463" x2="130.8" y2="463"/>
				<line class="st31" x1="153.3" y1="474.1" x2="128.8" y2="474.1"/>
				<line class="st31" x1="151.1" y1="485.2" x2="126.8" y2="485.2"/>
				<line class="st31" x1="149" y1="496.3" x2="124.8" y2="496.3"/>
				<line class="st31" x1="147.2" y1="507.3" x2="122.8" y2="507.3"/>
				<line class="st31" x1="145.6" y1="518.2" x2="120.8" y2="518.2"/>
				<line class="st31" x1="143.1" y1="529.5" x2="118.7" y2="529.5"/>
				<line class="st31" x1="141.5" y1="540.6" x2="117" y2="540.6"/>
			</g>
			<path class="st22" d="M157.3,431c0.1,1.1-3.9,2.5-4.9,2.7c-1.1,0.1-2-0.7-2.2-1.8c-0.2-1.1,0.6-2.1,1.7-2.3
				C152.9,429.5,157.1,429.8,157.3,431z"/>
		</g>
		<rect x="147.7" y="377.8" class="st3" width="82.7" height="35.9"/>
		<path id="XMLID_129_" class="st8" d="M227.4,379.4l-74.6,15c-1.8,0.4-3.5-0.8-3.9-2.6l-5.8-28.7c-0.4-1.8,0.8-3.5,2.6-3.9l74.6-15
			c1.8-0.4,3.5,0.8,3.9,2.6l5.8,28.7C230.4,377.3,229.2,379.1,227.4,379.4z"/>
		<path id="XMLID_128_" class="st2" d="M227.8,375.8l-74.6,15c-1.8,0.4-3.5-0.8-3.9-2.6l-5.8-28.7c-0.4-1.8,0.8-3.5,2.6-3.9l74.6-15
			c1.8-0.4,3.5,0.8,3.9,2.6l5.8,28.7C230.7,373.7,229.6,375.4,227.8,375.8z"/>
		<polyline id="XMLID_99_" class="st32" points="145,370.4 155,354.2 156.8,246.3 214,342 226.2,351.1 		"/>
		<g id="XMLID_100_">
			<path class="st33" d="M70.3,291.5c1.9,1.9,16.5,17.5,15.7,18c-0.7,0.4-17.9-12-19.8-13.9c-1.9-1.9-2.6-4.4-1.4-5.5
				C65.9,288.9,68.3,289.5,70.3,291.5z"/>
			<path id="XMLID_101_" class="st16" d="M90.7,311.6c-1.9-0.9-5.4-4.3-8.9-7.5l-0.9,2.3l5.6,5.2C87.8,312.1,89.8,312.2,90.7,311.6z
				"/>
			<path class="st28" d="M90.4,311.4c-1.3,0.4-2.8,0.5-3.9,0.2c0,0.4,0,1.5,0,1.9c0,0.3,0.2,0.5,0.5,0.5c0,0,8.6,0.1,8.6-0.3
				C95.5,311.5,91,311.7,90.4,311.4z"/>
			<path id="XMLID_102_" class="st16" d="M101.4,311.6c-1.9-0.9-5.4-4.3-8.9-7.5l-0.9,2.3l5.6,5.2
				C98.5,312.1,100.4,312.2,101.4,311.6z"/>
			<path class="st28" d="M101,311.4c-1.3,0.4-2.8,0.5-3.9,0.2c0,0.4,0,1.5,0,1.9c0,0.3,0.2,0.5,0.5,0.5c0,0,8.6,0.1,8.6-0.3
				C106.2,311.5,101.7,311.7,101,311.4z"/>
			<path class="st26" d="M76.7,295.4c1.2,1.2,11.9,9.6,17.3,13.3c0.7-0.5,1.2-1,1.8-1.7c-3.7-4.2-11.8-13.8-13.7-15.8
				c-2.1-3.1-17.8-11.6-20.9-12.8c-3.3-1.2-6.8-0.1-7.8,2.5s0.8,6.1,4.1,7.4C59.7,289.1,75.9,294.6,76.7,295.4z"/>
			<path id="XMLID_103_" class="st27" d="M62.7,279.1c-0.6-0.3-1-0.5-1.3-0.6c-3.3-1.2-6.8-0.1-7.8,2.5c-1,2.6,0.8,6.1,4.1,7.4
				c1.1,0.4,5.7,2,10.2,3.6C65.1,288.2,63.2,283.9,62.7,279.1z"/>
			<path id="XMLID_104_" class="st25" d="M71.5,291.3c-1.3-1.9-8.1-6.1-13.6-9.1c-0.8-0.4-1.7-0.4-2.5,0.2c-1.6,1.2-3.4,2.2-5.1,3.3
				c-0.7,0.5-1.1,1.3-1.1,2.1c0,0.2,0,0.4,0,0.6c0,0.3-0.2,0.2-0.2,0.5c5.1,1.8,16.4,6,17,6.7c1.2,1.2,12,9.7,17.3,13.4
				c1.1-0.4,1.7-0.9,2.3-1.6C82,303.1,73.4,293.3,71.5,291.3z"/>
			<path id="XMLID_105_" class="st14" d="M48.8,258c6.5,6,20.2,6.6,29,6.3c1,0,1.1,1.3,0.2,1.5c-10.3,2-24.1,2.5-32.5-3.8
				c-2.7-2.1,0.4-6.2,3.1-4.2C48.6,257.9,48.7,257.9,48.8,258z"/>
			<path class="st34" d="M54,260.8c-0.9-0.5-4.6-2.3-5.4-2.9l0,0c-0.1,0-0.1-0.1-0.2-0.1c-1.2-0.8-2.8-0.4-3.6,0.8
				c-0.8,1.2-0.4,2.8,0.8,3.6c1.1,0.7,2.1,1.3,3.2,1.8c0.7,0.4,1.5,0.7,2.3,1C51.2,264.4,54,260.8,54,260.8z"/>
			<path class="st16" d="M60.6,278.7l-11.5,10.2c-1.4-0.5-2.7-5.6-4.9-10.3c-2.4-5-5.3-10.5-6.8-13.4c-0.6-1.2-0.2-2.7,1-3.4
				l7.2-4.1c1.1-0.6,2.5-0.3,3.2,0.8c1.5,2.2,3.6,7.3,6.1,11C57.5,273.2,60.6,278.7,60.6,278.7z"/>
			<path class="st35" d="M45.7,257.7l-1.2,0.7c0.1,1.2-0.3,2.4-1.7,3.1c-1.3,0.8-2.6,0.5-3.6-0.2l-1.1,0.6c-1.1,0.6-1.5,2-0.9,3.1
				c1.5,2.9,4.4,8.5,6.9,13.6c2.2,4.7,3.4,9.5,4.9,10.3c5.1-3.5,11.6-7.2,12.3-10.4c0,0-8-11.8-12.6-20.1
				C48.2,257.3,46.8,257.1,45.7,257.7z"/>
			<path class="st14" d="M79.9,265.8c0,0-2,0.9-2.5,0.4s-0.7-0.9,0-1.7c0.7-0.7,2.1-1.4,2.9-1.6c0.9-0.2,2.5,0,2.7,0.2
				c0.6,0.5-1.1,0.8-1.8,0.9s-1.7,0.4-1.5,0.8s1.7-0.1,2,0.3C82.1,265.4,79.9,265.8,79.9,265.8z"/>
			<path id="XMLID_127_" class="st36" d="M40.5,256.7h-0.2c-1.2,0.2-2.3-0.6-2.6-1.7l-0.6-3.2l2.3-0.4L40.5,256.7z"/>
			<g id="XMLID_106_">
				<polygon class="st16" points="44.1,259.9 40.5,261.4 40.1,261 40.3,256.2 43.2,256.1 				"/>
			</g>
			<path class="st14" d="M43.2,256.1l-3,0.2l-0.1,1.9c0.8,0.6,1.7,1.3,2.8,1.1c0.3-0.1,0.7-0.3,0.9-0.5L43.2,256.1z"/>
			<path class="st16" d="M42.8,258.2L42.8,258.2c-2,0.4-3.8-0.9-4.2-2.9l-0.7-3.9l6.1-1.1c0,0,0.6,3.1,0.5,5.2
				C44.4,257.1,43.8,258,42.8,258.2z"/>
			
				<rect id="XMLID_126_" x="37.8" y="252.8" transform="matrix(-0.9825 0.186 -0.186 -0.9825 123.1741 494.5497)" class="st36" width="1.2" height="0.5"/>
			<path class="st16" d="M39.5,254.4c0.1,0.8-0.1,1.5-0.6,1.5c-0.5,0.1-1.1-0.8-1.3-1.6c-0.1-0.8,0.3-1.1,0.8-1.2
				C38.8,253,39.3,253.6,39.5,254.4z"/>
			<path class="st36" d="M44.6,251.8c0-0.5,0-1-0.2-1.5c0,0-0.3-1.8-1.1-2c-0.7-0.2-1.7,0.4-2.3,0.7c-0.5,0.2-2,0.4-2,0.4
				c-1.2,0.2-2,1.4-1.8,2.7l0.1,0.5l1.2,0.7l0.5,0.9h0.1c0.4-0.1,0.7-0.4,0.6-0.8c-0.1-0.6,0.3-1.3,0.9-1.4l1.8-0.3
				c1.1-0.2,1.8,0.3,2,1.1l0.1,0.7L44.6,251.8z"/>
			<line id="XMLID_107_" class="st37" x1="144.3" y1="237.5" x2="54.8" y2="275.9"/>
			<path id="XMLID_108_" class="st16" d="M46.8,267.9c3.2,1.8,6.2,2.4,9.5,2.7c5.6,0.7,15.6-2.7,14.6-2.4c0.9-0.3,1.3,0.9,0.6,1.4
				c-4.4,2.3-10.4,4.8-15.1,4.8H54c-7.8-0.3-14.3-4.3-17.1-8.4c-0.8-1.2-0.5-2.8,0.6-3.6C40.4,260.4,41.1,264.7,46.8,267.9z"/>
			<g id="XMLID_109_">
				<path class="st34" d="M44.7,266.3c-2.2-1.8-3.6-3.4-3.7-3.5v0.1l-1.4-1.1c0,0-1.5-0.6-3,1.3c-1.1,1.5,0.2,3.1,0.2,3.1
					c0.2,0.2,1,2.2,5.2,4.6C42,270.9,45,266.6,44.7,266.3z"/>
			</g>
			<path class="st16" d="M72.5,267.4c0,0-2.1,0.4-2.2,1.1c-0.1,0.7,0,1.2,1,1.3c1,0.2,2.5-0.1,3.3-0.4c0.8-0.3,2-1.5,2.1-1.7
				c0.2-0.8-1.3,0-2,0.3c-0.7,0.3-1.6,0.6-1.6,0.2c-0.1-0.4,1.4-0.9,1.5-1.4C74.5,266.4,72.5,267.4,72.5,267.4z"/>
		</g>
		<circle class="st38" cx="224.2" cy="428.6" r="2.6"/>
		<circle class="st38" cx="224.2" cy="446.7" r="2.6"/>
		<g id="XMLID_110_">
			<path id="XMLID_111_" class="st6" d="M249.1,475.9c0,0,0.7,1.6,0.2,3.2s-0.2,3.6,1.1,5c0,0,0.3-2.3,0.7-3.3
				C251.6,479.6,251.3,476.5,249.1,475.9z"/>
			<path id="XMLID_112_" class="st39" d="M252.6,475.2c0,0-2.4,1.5-2.1,3.5c0,0-1.3-0.9-1.6-4C248.8,472.6,252.6,475.2,252.6,475.2z
				"/>
			<path id="XMLID_113_" class="st6" d="M265.6,484.6c-1.2-0.5-2.2-1.4-2.7-2.6c-0.8-2-2.2-3.5-3.9-4.3c-0.9-0.4-1.4-1.2-1.4-2.2
				l0,0h-2.3v1.8c-3.2,0.7-5.7,4-5.7,8c0,4.3,2.9,7.9,6.6,8.1c0.5,3.9,3.4,6.9,6.9,6.9c3.9,0,7-3.6,7-8.1
				C270.1,488.7,268.2,485.8,265.6,484.6z"/>
			<g>
				<path id="XMLID_115_" class="st16" d="M252.1,487.7c0,0.3-0.1,0.4-0.1,0.6s-0.1,0.3-0.1,0.5c-0.1,0.3-0.2,0.6-0.3,0.9
					c-0.2,0.6-0.5,1.2-0.8,1.7c-0.6,1.1-1.6,2.1-2.7,2.9c-0.6,0.3-1.2,0.7-1.8,0.9c-0.6,0.2-1.3,0.4-1.9,0.4s-1.2,0.1-1.8,0.1
					c-0.6-0.1-1.2-0.1-1.7-0.2c-2.2-0.5-4.2-1.3-5.9-2.3l-1.3-0.8c-0.4-0.2-0.9-0.5-1.3-0.8l-2.5-1.8c-0.3-0.2-0.4-0.7-0.2-1
					c0.2-0.3,0.6-0.4,0.9-0.2h0.1c1.8,0.8,3.5,1.6,5.4,2.2c1.8,0.6,3.6,1,5.3,1.1c1.7,0.1,3.2-0.4,4.1-1.2c0.4-0.5,0.8-0.9,1.1-1.6
					c0.1-0.3,0.3-0.6,0.3-1c0-0.2,0.1-0.3,0.1-0.5c0-0.1,0-0.2,0-0.2c0-0.1,0-0.2,0-0.2c0.1-1.4,1.4-2.5,2.8-2.4
					C251.1,485,252.2,486.3,252.1,487.7z"/>
			</g>
			<path class="st16" d="M246.6,509.9c2.3,2.6,15.3,3.7,15.3,3.7c1-1.1-3.5-13.9-3.5-13.9s2.2-9.2,2.1-12.5c0-1.4-1.2-2.5-2.5-2.5
				h-8.3c-1.3,0-2.3,1-2.4,2.2c-0.2,2.6,3.2,12.4,3.2,12.4S244.7,507.7,246.6,509.9z"/>
			<path id="XMLID_114_" class="st14" d="M253.8,560.2c-0.1,0.2-0.1,0.4,0,0.6s0.2,0.3,0.4,0.4c1.6,0.7,2.3,0.4,3.2-0.2v-7.8
				l-1.5-2.3c-0.4-0.5-1.2-0.2-1.1,0.4c0.5,3.2,0.9,8.2-0.7,8.5C254,559.7,253.9,560,253.8,560.2z"/>
			<path id="XMLID_116_" class="st40" d="M255.4,560.6c-0.4,0-1.3-0.5-1.4-0.8c-3.3,0.3-4.9,1.4-4.9,2.3c0.1,0.2,5.8,0,7.9,0
				c0.4,0,0.6-0.4,0.5-0.9l-0.2-1.2C257.1,560.4,256.4,560.7,255.4,560.6z"/>
			<path id="XMLID_117_" class="st16" d="M277.9,523.1c-6.3,1.7-16.9,5.2-18.6,6.1c-2.4,1.2-3.2,3.6-2.4,5c0.7,1.4,2.6,1.4,5.1,0.1
				c1.7-0.9,11.4-6.4,16.9-9.7C278.6,524,278.1,523.8,277.9,523.1z"/>
			<path class="st16" d="M283.5,523.8c0.2,0,0.4-0.1,0.5-0.2s0.2-0.3,0.2-0.5c-0.1-1.7-0.6-2.2-1.6-2.8c-2.2,1.3-4.4,2.6-7.9,3.9
				l0,0c-0.6,1.2,0.7,2.5,1.9,1.8c2.6-1.4,5.7-2.9,6.4-2.2C283,523.8,283.2,523.8,283.5,523.8z"/>
			<path class="st40" d="M283.1,522.1c0.1,0.4,0.1,1.3-0.1,1.6c1.7,2.8,3.4,3.7,4.2,3.3c0.1-0.2-2.5-5.2-3.5-7
				c-0.2-0.4-0.7-0.4-1-0.1l-1,0.7C282.2,520.7,282.8,521.2,283.1,522.1z"/>
			<path id="XMLID_118_" class="st14" d="M255,553.2c0.7,0.4,1.6,0.3,2.3,0.7c0.2-6.5,0-17.2-0.4-19.1c-0.5-2.7-2.1-4.6-3.7-4.4
				c-1.6,0.3-2.5,2.7-2,5.4C251.6,537.6,253.5,546.9,255,553.2z"/>
			<path class="st14" d="M246.9,512.2c0.2,3.6,3.4,26,6.2,25.8c2.8-0.2,4-22.8,3.8-26.4c-0.2-3.6-2.6-6.3-5.4-6.2
				S246.7,508.6,246.9,512.2z"/>
			<path class="st16" d="M251.1,511.3c0.1,3.6,4.1,23.9,6.8,23.8c2.8,0,3.8-20.5,3.7-24.1c-0.1-3.6-2.9-6.3-5.6-6.3
				C253.3,504.8,251.1,507.7,251.1,511.3z"/>
			<g id="XMLID_119_">
				<polygon class="st16" points="252.6,485.3 256.3,484.9 255.2,480.8 252.7,481.1 				"/>
			</g>
			<path class="st14" d="M252.7,481.1l2.4-0.3l0.4,1.3c-0.5,0.6-1.2,1.9-2.1,1.9c-0.3,0-0.5-0.1-0.8-0.2L252.7,481.1z"/>
			<path class="st16" d="M252.6,483.1c0.8,0,1.7-0.4,2.9-1.5c0.7-0.6,1.2-1.7,1.2-2.4v-4h-6.2c0,0-0.5,2.1,0,4.2
				C251,481,252,483.1,252.6,483.1z"/>
			<rect id="XMLID_124_" x="256" y="476.8" class="st6" width="1.2" height="0.5"/>
			<path class="st16" d="M255.8,478.5c0,0.8,0.4,1.4,0.8,1.4c0.5,0,1-1,1-1.8s-0.5-1-1-1C256.1,477,255.8,477.7,255.8,478.5z"/>
			<path id="XMLID_120_" class="st6" d="M255.3,473.4h-2.1c-0.6,0-1.1-0.1-1.6-0.4c-0.8-0.4-1.8-0.3-2.3,0.4
				c-0.5,0.7-0.7,1.7,0.7,2.6c0.7,0.5,1.7,0,2.3,0.2h0.1h1.9c0.6,0,1.1,0.5,1.1,1.2c0,0.4,0.4,0.7,0.7,0.7h0.1l0.3-0.9l1-0.9v-0.5
				C257.6,474.4,256.6,473.4,255.3,473.4z"/>
			<path class="st16" d="M227.9,489.8c0,0,2.1,0.6,2.5,0s0.6-1-0.3-1.6c-0.8-0.6-2.2-1-3.1-1.1s-2.5,0.4-2.6,0.6
				c-0.5,0.6,1.2,0.6,2,0.6s1.7,0.2,1.6,0.5c-0.1,0.4-1.7,0.2-1.9,0.6C225.7,489.8,227.9,489.8,227.9,489.8z"/>
			<circle class="st38" cx="225.8" cy="492" r="5"/>
			<path class="st16" d="M228,495.2c0,0,2.1-0.5,2.5,0c0.4,0.6,0.5,1.1-0.3,1.6c-0.8,0.6-2.3,1-3.2,1.1c-0.9,0.1-2.5-0.4-2.6-0.6
				c-0.5-0.6,1.2-0.6,2-0.6s1.7-0.1,1.6-0.5s-1.6-0.2-1.9-0.6C225.7,495.2,228,495.2,228,495.2z"/>
			<path id="XMLID_121_" class="st28" d="M259.1,500.6c-0.4-0.4-0.5-1-0.4-1.6c0.6-2.7,1.9-9.4,1.8-11.9c0-1.3-1.1-2.2-2.3-2.2H257
				c-0.5,1.1-1.5,1.9-3,1.9s-2.5-0.8-3-1.9h-1.2c1.1,2.4,0.9,5.5-0.7,7.6c-0.4,0.5-0.5,1.1-0.3,1.7c0.5,1.6,0.9,3.1,1.3,4.1
				c0.2,0.7,0,1.4-0.5,1.9c-3.5,3.5-5.9,11-5.9,19.7c0,0.7,0,1.5,0.1,2.2c0.1,1,0.9,1.8,1.9,1.8h16.9c1,0,1.9-0.8,1.9-1.8
				c0-0.7,0.1-1.4,0.1-2.2C264.5,511.5,262.3,504.3,259.1,500.6z"/>
			<path id="XMLID_122_" class="st41" d="M259.4,495.1c0.4-2.2,0.9-4.8,1-6.6c-1.5,4.4-5.5,7.8-10.2,8.3c1,0.4,2.5,0.9,3.8,1.4
				C256.4,499.1,258.9,497.6,259.4,495.1z"/>
			<path id="XMLID_123_" class="st6" d="M250.9,475.7c0.4,0.8,0.2,1.4,3.1,2.1s3.6-0.1,4.8,1.2c0,0-0.9-2.3-2.5-2.8
				s-4.3-0.4-5.5-2.1C250.8,474,250.7,475.1,250.9,475.7z"/>
			<g>
				<path id="XMLID_125_" class="st16" d="M261.4,487.8c-0.1,0.8-0.3,1.1-0.5,1.6c-0.2,0.4-0.4,0.8-0.6,1.2
					c-0.2,0.4-0.5,0.8-0.7,1.1c-0.3,0.3-0.5,0.7-0.8,1c-0.6,0.6-1.2,1.2-1.9,1.6c-0.3,0.2-0.7,0.5-1,0.7l-1,0.6
					c-2.8,1.4-5.7,2-8.6,2.4c-2.9,0.2-5.7,0.2-8.5-0.1c-1.4-0.2-2.8-0.3-4.1-0.5c-1.4-0.3-2.7-0.5-4.1-0.8c-0.4-0.1-0.7-0.5-0.6-0.9
					c0.1-0.3,0.4-0.6,0.7-0.6l0,0c1.4,0,2.7,0,4.1,0c1.3,0,2.7-0.1,4-0.1h1l1-0.1l2-0.2c0.7,0,1.3-0.2,1.9-0.3
					c0.6-0.1,1.3-0.2,1.9-0.3c2.5-0.6,4.9-1.4,6.9-2.6l0.7-0.4l0.7-0.5c0.5-0.3,0.8-0.7,1.2-1.1c0.1-0.2,0.3-0.4,0.5-0.6
					s0.3-0.4,0.4-0.6s0.2-0.4,0.3-0.6l0.1-0.3v-0.1l0,0c0,0,0,0,0,0.1c0.2-1.4,1.5-2.4,2.9-2.2C260.7,485.1,261.6,486.4,261.4,487.8
					z"/>
			</g>
		</g>
		<circle class="st42" cx="147.4" cy="246.3" r="9.4"/>
		<circle class="st42" cx="147.4" cy="246.3" r="3.9"/>
	</g>
</g>
<g id="DESIGNED_BY_FREEPIK">
</g>
</svg>
