<?xml version="1.0" encoding="utf-8"?>
<!-- Generator: Adobe Illustrator 19.0.0, SVG Export Plug-In . SVG Version: 6.00 Build 0)  -->
<svg version="1.1" xmlns="http://www.w3.org/2000/svg" xmlns:xlink="http://www.w3.org/1999/xlink" x="0px" y="0px"
	 viewBox="0 0 500 378" style="enable-background:new 0 0 500 378;" xml:space="preserve">
<style type="text/css">
	.st0{fill:#EBEFF3;}
	.st1{fill:#F3AF64;}
	.st2{fill:none;stroke:#9E98A4;stroke-miterlimit:10;}
	.st3{fill:#F5C650;}
	.st4{fill:none;stroke:#5D74A4;stroke-miterlimit:10;}
	.st5{fill:#75C0A1;}
	.st6{fill:#8FCDFF;}
	.st7{fill:#F8D2A1;}
	.st8{fill:#EAB095;}
	.st9{fill:#E44854;}
	.st10{fill:#282C3B;}
	.st11{fill:#0A1D40;}
	.st12{fill:#43253D;}
	.st13{fill:none;stroke:#43253D;stroke-width:0.6138;stroke-miterlimit:10;}
	.st14{fill:#CF9C84;}
	.st15{fill:#292C3B;}
	.st16{fill:#DCA07B;}
	.st17{fill:#543A52;}
	.st18{fill:#4036AE;}
	.st19{fill:#332B8B;}
	.st20{fill:#FFFFFF;}
	.st21{fill:#D078CA;}
	.st22{fill:#E08CD7;}
	.st23{fill:none;stroke:#292C3B;stroke-width:0.5;stroke-miterlimit:10;}
	.st24{fill:#DDBB8F;}
	.st25{fill:#DB4C4D;}
	.st26{fill:#940B00;}
	.st27{fill:none;stroke:#940B00;stroke-width:0.6465;stroke-miterlimit:10;}
	.st28{fill:#F65557;}
	.st29{fill:#313B64;}
	.st30{fill:#608CCE;}
	.st31{fill:#2E5388;}
	.st32{fill:#78A8DF;}
	.st33{fill:#3E689E;}
	.st34{fill:#424E7A;}
	.st35{fill:#77A6E4;}
	.st36{fill:#FF7A6A;}
</style>
<g id="BACKGROUND">
	<ellipse class="st0" cx="245.5" cy="360.5" rx="216.5" ry="9.5"/>
</g>
<g id="OBJECTS">
	<g>
		<g>
			<polygon class="st0" points="345,239.8 363.3,356.9 366.8,356.9 352.3,239.8 			"/>
			<polygon class="st0" points="328.3,239.9 310.7,357.1 307.1,357.1 321,239.9 			"/>
		</g>
		<rect x="314.3" y="233.2" class="st1" width="45.4" height="8.8"/>
		<rect x="317.5" y="296.9" class="st0" width="38.9" height="2.9"/>
	</g>
	<g>
		<rect x="44.8" y="4.1" class="st0" width="414.8" height="191.7"/>
		<rect x="267.5" y="111.5" class="st2" width="74" height="47.5"/>
		<circle class="st3" cx="187.6" cy="42.5" r="8.8"/>
		<line class="st4" x1="173.5" y1="58.5" x2="249.5" y2="58.5"/>
		<line class="st4" x1="173.5" y1="64" x2="214" y2="64"/>
		<line class="st4" x1="173.5" y1="69.5" x2="214" y2="69.5"/>
		<path class="st4" d="M263.8,102.8c-0.7-1.2,0.4-2.8,1.7-3.2c1.4-0.4,2.8,0.1,4.1,0.6c1.3,0.5,2.8,0.9,4.1,0.5c1-0.3,1.9-1,2.8-0.8
			c1.2,0.2,1.7,1.7,2.7,2.3c1.4,0.8,3-0.1,4.5-0.6c1.8-0.6,3.7-0.6,5.5-0.6c8.3,0,16.7-0.1,25-0.1"/>
		<rect x="173.8" y="78.5" class="st2" width="39.4" height="78"/>
		<rect x="174" y="36.5" class="st2" width="74" height="12"/>
		<circle class="st5" cx="282.4" cy="75.5" r="8.8"/>
		<circle class="st6" cx="306.5" cy="75.5" r="8.8"/>
		<circle class="st3" cx="330.6" cy="75.5" r="8.8"/>
		<rect x="267.5" y="69.5" class="st2" width="74" height="12"/>
		<rect x="307" y="126.7" class="st6" width="28" height="25.9"/>
	</g>
	<g>
		<g>
			<path class="st7" d="M414.5,303.4c-4.3-19.2-7-29.4-7-29.4c2.3-8.2,4.4-39.3,4.4-39.3l-24.9,1.1c1.6,19.2,3,34.2,4.4,43.3
				c1.2,7.9,17.7,42.6,19.1,58c0.2,2.5-1.6,5.9-1.6,5.9l-0.9,5.6c0,0,10.8-5.3,12.9-8.7c2.1-3.4,2-8.1-0.4-12.4
				C418.1,323.1,418.7,322.1,414.5,303.4z"/>
			<path class="st8" d="M420.5,327.4c-2.1-3.8-1.9-5-4.6-18.1c-1.6,7.7-3.6,15.3-6.1,22.7c0.4,1.8,0.7,3.5,0.8,5
				c0.2,2.5-1.6,5.9-1.6,5.9l-0.9,5.6c0,0,10.8-5.3,12.9-8.7C423,336.4,422.9,331.6,420.5,327.4z"/>
			<path class="st9" d="M408.9,342.9c4-0.2,7.1-2.1,9.2-4.3c4.5-4.9,2.4-11.2,2.4-11.2s2.4,2.6,3.8,5.2c1.2,2.3,1.2,4.4,2.1,6.2
				c1.9,3.8,2.4,4.7,2.4,4.7l-2.6,1.3l-3.4-5.2c0,0-3.4,7.9-6.8,10.5c-2.2,1.7-13.8,7.5-13.8,7.5s-1.2-2.3,2.3-7.1
				S408.9,342.9,408.9,342.9z"/>
		</g>
		<path class="st7" d="M391.5,111c0,0-6.1,3.3-7.7,11.1s-3.8,36.1-4.3,40.6c-0.3,3.3,4.9,7.9,8.5,4.9c3.6-3,6.2-25.2,7-27
			c0.8-1.8,5.7-13.9,5.7-13.9L391.5,111z"/>
		<path class="st8" d="M381,145.8c-0.7,7.8-1.3,15-1.5,17.1c-0.3,3.3,4.9,7.9,8.5,4.9c3.6-3,6.2-25.2,7-27
			c0.8-1.8,5.7-13.9,5.7-13.9l-4.6-7.7C391,127.9,386,136.8,381,145.8z"/>
		<path class="st10" d="M411.6,73.5l-3.1-11.8c0,0-5.4-1.8-10.6,1.7c-5.2,3.5-9.5,8-11,11.1c-2.6,5.4-0.1,12.1,2.8,16.1
			c2.9,4.1,6.6,10.1,7.4,12.7c0.8,2.6,0.7,3.9,0.7,3.9s5.1-0.1,11.5-5.4c6.3-5.3,8.4-12.2,8.4-12.2L411.6,73.5z"/>
		<path class="st10" d="M393.7,74.5c0,0,3.9-7.3,9.3-10.3c5.4-2.9,8.6-4.5,12-1.9c3.4,2.7,7.4,4.3,10.7,12
			c3.2,7.6,1.5,18.1,2.1,20.8s-12.7,8.5-12.7,8.5s1.4-7-3.1-14.8C407.5,81.1,393.7,74.5,393.7,74.5z"/>
		<path class="st7" d="M395.1,73.9c5,0.9,11.9,8.3,15.8,10c3.9,1.7,3.8-1.8,6.7-1.8c2.9,0,3,3.7,1.2,6.8c-0.9,1.6-1,1.7-2.1,3.1
			c-2.2,3-0.8,6.4-7.5,10c-3.6,1.9-9.1-0.2-12.5-5.5c-3.5-5.3-5.8-21.3-5.8-21.3S391.1,73.2,395.1,73.9z"/>
		<path class="st7" d="M406.2,100.1c0.6,2.9-0.8,9.2-0.8,9.2s12.5-1.8,16.3-2.6c0,0-5.5-10.2-5.9-14.3L406.2,100.1z"/>
		<path class="st7" d="M412.6,106.6l4.7-2.7c0,0,5.7,1.8,10.6,2.7c4.9,1,6.3,1.3,6.3,1.3s-5.3,20.8-20.1,21
			c-14.9,0.2-17.8-19.2-17.8-19.2l9.6-3.5L412.6,106.6z"/>
		<path class="st7" d="M437.2,228.7l-26.1,5.1c-1,17.6,2,45.2,3.4,54.1c1.5,9.3,2.5,46.2,2.5,46.2s0.2,4.1-1.1,7.7
			c-1.3,3.6-5.6,8.5-5.6,8.5l5.9,3.9c7.5-2,11.5-13.4,11.5-13.4s-1.3-1.3-0.6-8.8c0.9-8.9,3.9-21,4.2-31.3
			c0.5-19.2,0.3-27.7,0.3-27.7C432.9,256.6,437.2,228.7,437.2,228.7z"/>
		<path class="st9" d="M402.8,107.6c0,0,0.6,3.4,7.1,5c6.5,1.6,14.7-6.7,14.7-6.7l11.5,2.3c0,0-2.9,4.7-3.3,8.7
			c-0.3,4,0.3,8.7,0.3,8.7s-1.4,20.3,0.4,34.2c1.9,14,5.6,19.2,7.5,38.7c1.9,19.5-6.2,48.8-6.2,48.8s-10.8,2.6-22.6,3.6
			c-11.8,0.9-24.5-2.4-24.5-2.4s-4-25.8-0.8-46.4c2.6-16.1,8.9-26.9,7.7-36.6c-1.2-9.6-0.6-26-1.9-29.5c-1.2-3.4-0.5-6.5,0.4-10.5
			c0,0-3.2-12.1-1.8-14.6C391.5,111,394.4,109.8,402.8,107.6z"/>
		<path class="st7" d="M394.2,137.9c0,0-1.4,12.5-2.4,19.6c0,0.1,0,0.2,0,0.4c-1,7.1-3.6,11.2-6.2,11.5c-2.6,0.3-5.6-2-6.1-6.6
			c-0.5-4.6,3-9.2,4.9-14.8c0.5-1.5,1.1-3,1.6-4.4c1.5-4.1,2.8-7.7,2.8-7.7L394.2,137.9z"/>
		<path class="st8" d="M394.2,137.9c0,0-1.4,12.5-2.4,19.6l-4.1-3.2l-1.7-10.7c1.5-4.1,2.8-7.7,2.8-7.7L394.2,137.9z"/>
		<path class="st7" d="M390.3,134.5c0.7-1.1,3.4-5.4,3.4-5.4l3.3-0.2l1.3,5.1l-2.8,3.4L390.3,134.5z"/>
		<path class="st11" d="M402.4,154.2l-9.8,1.7c-0.4,0.1-0.8-0.2-0.9-0.6l-3.6-20.4c-0.1-0.4,0.2-0.8,0.6-0.9l9.8-1.7
			c0.4-0.1,0.8,0.2,0.9,0.6l3.6,20.4C403.1,153.8,402.8,154.2,402.4,154.2z"/>
		<path class="st7" d="M436.2,108.2c0,0,5.4,0.7,8.4,6.6c3,5.9,1,49.2,1,49.2s-8.9,2-19.2-3.9c-10.3-5.9-29-9.8-29-9.8l1.5-7.4
			c0,0,9.9,1.5,15.7,2.5c8.9,1.5,20.2,5.4,20.2,5.4s-1-20.7-1.5-25.1C432.8,121.2,430.7,114,436.2,108.2z"/>
		<path class="st7" d="M404.9,144.3l-2.1-5.6l-3-2.6l1.1,4.8c0,0-4.4,0.2-5.9-0.2c-1.5-0.3-6.6-2.1-6.6-2.1l-1.5,2l0.8,1.1l-1,1.8
			l0.7,2.5l-1,1.8l1.5,1.5l-0.7,1.8c0,0,1.1,0.2,1.5,0.8c0.3,0.7,3.8,0,5.7-0.3s9.2,0,9.2,0L404.9,144.3z"/>
		<path class="st9" d="M410.3,349.3c3.6,1.6,7.2,1.4,10.2,0.3c6.2-2.3,7.2-8.9,7.2-8.9s1,3.4,1,6.3c0,2.5-1,4.5-1,6.5
			c0,4.3,0,5.2,0,5.2h-3l-0.7-6.2c0,0-7,5.2-9.8,6.1c-4,1.2-16.8,0.5-16.8,0.5s0-2.6,5.2-5.2C408,351.3,410.3,349.3,410.3,349.3z"/>
		<circle class="st12" cx="402.4" cy="83.5" r="1.3"/>
		<circle class="st12" cx="394.4" cy="86.5" r="1.3"/>
		<path class="st9" d="M403.2,96.6c0.8,0,1.7-0.3,2.2-0.9c0.9-0.9,1.2-2.2,1.5-3.5c-0.6,0.8-1.6,1.4-2.7,1.4c-0.9,0-1,0.3-1.5,0.4
			c-1.7,0.3-1.9,1-2.2,1.3C400.4,95.3,402.1,96.6,403.2,96.6z"/>
		<path class="st13" d="M406.2,93.6c-1.3,1.8-3.7,2.2-5.8,1.7"/>
		<path class="st13" d="M398,87.4c0,1.5,0,3,0,4.5c0,0.4,0,0.9,0.3,1.2c0.3,0.3,0.9,0.5,1.4,0.5c0.5,0,1-0.2,1.5-0.3"/>
	</g>
	<g>
		<g>
			<polygon class="st0" points="277.6,239.8 295.9,356.9 299.4,356.9 285,239.8 			"/>
			<polygon class="st0" points="261,239.9 243.3,357.1 239.8,357.1 253.7,239.9 			"/>
		</g>
		<rect x="246.9" y="233.2" class="st1" width="45.4" height="8.8"/>
		<rect x="250.2" y="296.9" class="st0" width="38.9" height="2.9"/>
	</g>
	<g>
		<polygon class="st14" points="281.1,117 282.4,109.3 284.7,105.2 288.8,103.9 289.1,107.4 		"/>
		<g>
			<path class="st15" d="M295.6,101.7l1.5,2.5c0,0,0,0,0,0l-16.9,9.9c-0.2,0.1-0.4,0-0.5-0.1l-1.1-1.9c-0.1-0.2,0-0.4,0.1-0.5
				L295.6,101.7C295.6,101.7,295.6,101.7,295.6,101.7z"/>
			<path class="st15" d="M293.9,103.1l1.1,1.9c0,0,0,0,0,0l-16.6,9.7c-0.3,0.2-0.7,0.1-0.9-0.2l-0.5-0.8c-0.2-0.3-0.1-0.7,0.2-0.9
				L293.9,103.1C293.9,103.1,293.9,103.1,293.9,103.1z"/>
			<path class="st15" d="M300.3,100.7L300.3,100.7c0.2,0.3,0.1,0.6-0.2,0.8l-5.9,3.5c-0.3,0.2-0.6,0.1-0.8-0.2l0,0
				c-0.2-0.3-0.1-0.6,0.2-0.8l5.9-3.5C299.8,100.3,300.1,100.4,300.3,100.7z"/>
			<polygon class="st15" points="295.6,101.7 297.1,104.2 299.6,101.9 298.9,100.7 			"/>
			
				<rect x="288.5" y="102" transform="matrix(-0.5066 -0.8622 0.8622 -0.5066 342.7081 410.8171)" class="st0" width="0.8" height="10.6"/>
		</g>
		<path class="st16" d="M279.3,118.3c0,0,1.7-2.3,2.8-3.9c1.1-1.6,4.6-4.4,5.4-6.2c1.2-2.6,0.1-3.2,1.8-5.4c0.7-0.9,3.8-0.2,3.8-0.2
			l-1.8,3.9l2,2.8l-0.2,2.5c1,0.5,1.1,3.8,1.1,3.8l-2,3.8c0,0-4.2,3.1-5.7,3.9c-1.5,0.8-6,4.9-6,4.9L279.3,118.3z"/>
		<path class="st16" d="M176.2,336l-1.7,7.4c0,0,3.7,6.2,4.6,8.2c2.6,5.6,2.5,5.8,2.5,5.8l-17.4-15.5l-0.3-8.2l5.4-4.6L176.2,336z"
			/>
		<path class="st17" d="M164,333.6l-6.3,5.5c0,0,7.7,10.8,12.1,17.3c2.7,4,19.9,3.1,19.9,3.1c2.7-3.2-10.5-8-10.5-8
			s-4.5-0.4-8.6-5.6C166.4,340.8,164,333.6,164,333.6z"/>
		<g>
			<path class="st18" d="M197.5,201.5c0,0,0,17.9,0.8,23.8c1.9,13.5,6.7,44.3,6.7,44.3l-36.9,58.9c0,0-2.4,2.4,8.4,9.4
				c0,0,35.1-46.1,43-53.6s12.3-76.7,12.3-76.7L197.5,201.5z"/>
			<path class="st19" d="M200.2,236.1c7.3,17.2,12.5,31,18.8,48.6c0.1-0.1,0.2-0.2,0.3-0.3c7.8-7.4,12.3-76.7,12.3-76.7l-34.3-6.2
				c0,0,0,17.9,0.8,23.8C198.7,228.1,199.4,231.9,200.2,236.1z"/>
		</g>
		<path class="st16" d="M220.7,343.7l-0.8,3.6c0,0,3.6,3.9,5.5,5c5.3,3.1,5.3,3.4,5.3,3.4l-20.1-3.8l-4.6-2l4.6-12.2L220.7,343.7z"
			/>
		<path class="st15" d="M227.3,75.6c6.3-1,13.8,2.3,15.2,8.4c1.4,6.1-1.9,14.1-1.9,14.1s-0.9-14.1-10.8-15.5
			C219.9,81.2,227.3,75.6,227.3,75.6z"/>
		<polygon class="st20" points="276.4,121.5 279.3,118.3 285.1,130 273.9,136.8 		"/>
		<path class="st16" d="M229.5,81.2c3.3-1.4,9.6-0.4,11.4,8c1.7,8.4,3.1,15.1,0,20.7c-3.1,5.6-7,4.8-15.3-1.2
			c-8.3-6-8.7-15.1-8.7-15.1S225.3,83,229.5,81.2z"/>
		<circle class="st12" cx="238.9" cy="92.5" r="1.3"/>
		<path class="st13" d="M238.9,103.6c0.7,1,1.9,1.6,3.1,1.8"/>
		<path class="st16" d="M241.1,93.3c1.1,2.6,2.2,5.3,3.3,7.9c0.1,0.3,0.2,0.5,0.1,0.8c-0.1,0.2-0.4,0.3-0.7,0.3
			c-1,0.2-2,0.3-3.1,0.5"/>
		<path class="st18" d="M201.2,208.2c0,0,2.6,17.7,4.2,23.4c3.8,13.1,16.4,42.3,16.4,42.3l-13.5,68.6c0,0,4.2,1.8,12.4,1.2
			c0,0,19.7-57.2,19.7-68c0-10.8-4.4-66.3-4.4-66.3L201.2,208.2z"/>
		<path class="st21" d="M207.4,129.2c-2.8,9.2-8.1,35.5-9.3,50.3c-0.9,11.8-2.4,35.9-2.4,35.9s24,7.8,45.6,0.6c0,0-1.6-43-2.8-56.2
			c-1.2-13.2,3-21,0-26.4c-3-5.4-10.2-12.9-10.2-12.9l-11.4-6.9C217,113.6,209.2,123.2,207.4,129.2z"/>
		<polygon class="st20" points="228.6,116.7 237.7,128.4 233.6,137.9 226.2,122.1 		"/>
		<path class="st22" d="M211.8,135.6c5.2,9.4,27.9,23,33.3,27.9c5.4,5,30.1-22.7,37.8-28.1l-6.5-14c0,0-13.1,16.7-27.2,23.6
			c0,0-17.6-18.5-23-23C220.8,117.6,204.6,122.8,211.8,135.6z"/>
		<path class="st15" d="M210.5,136c7.2,2.8,15.5,1.2,16.6-1.6c0.1-0.1,0.1-0.3,0.2-0.4c3.6-9.9,3.1-23.5,5.7-32.3s5.7-21.8-5.7-26.1
			c-12.5-4.7-20.3,5.7-20.8,14.6c-0.4,7.6-0.8,23.8-7.6,30.9C195.4,124.7,202.3,132.8,210.5,136z"/>
		<path class="st23" d="M233.3,80.3c4,6.8,5.3,25.8-8.6,33.4"/>
		<path class="st17" d="M205.9,349.8l-2.4,8.4c0,0,7.3,1.2,15.7,1.8c4.8,0.3,22.1-0.1,22.1-0.1c0.4-4.2-16.1-7.5-16.1-7.5
			s-0.9,1.4-7.2-0.6S205.9,349.8,205.9,349.8z"/>
	</g>
	<g>
		<g>
			<polygon class="st0" points="359.9,208.2 378.2,356.9 381.7,356.9 367.2,208.2 			"/>
			<polygon class="st0" points="157.6,208.2 133.8,357.1 129,357.1 147.7,208.3 			"/>
		</g>
		<rect x="131.6" y="201.5" class="st1" width="249.9" height="8.8"/>
	</g>
	<g>
		<g>
			<path class="st14" d="M162.9,190.1c0,0,8,3.2,9.5,4c1.5,0.7,6.8,3,6.8,3l4.2,2.3l1.6-1.1l-2-2.3l-1.9-1.8l-0.3-3.7l-9-2.7
				l-8.2-0.5L162.9,190.1z"/>
			<path class="st24" d="M165.7,184.6l14.9,1.6l11.1,7.5l2.4,7.3l-2.9-0.3l-2.8-5.5l-7.3-1.7c0,0-6.3-0.2-8.1-1.5
				c-1.8-1.3-10-3.2-10-3.2L165.7,184.6z"/>
			<path class="st25" d="M110.5,129.9l19.3,32.8l35.9,22l-0.9,8.1c0,0-34.4-8.2-43.8-15.8c-9.2-7.4-30.4-39.3-30.4-39.3
				S96.7,117.8,110.5,129.9z"/>
		</g>
		<path class="st7" d="M113.8,113.9c0,0-4.2,4.4-10,8l11.7,14.1c0,0,5.6-9.5,14-11L113.8,113.9z"/>
		<g>
			<path class="st7" d="M138.6,103.6c2.7,0.8,3,4.7,4.2,6.8c0.5,0.9,1,1.6,1.8,2.3c0.5,0.4,1.6,0.8,1.4,1.6
				c-0.2,1.2-2.7,1.7-3.4,2.7c-1,1.6-0.4,4-0.9,5.8c-1.4,5.7-5.7,8.8-11.4,6.3c-8.3-3.7-17.9-12.9-17.6-22.6
				c0.1-3.5,2.2-7.2,4.5-9.7c2.7-2.9,8.5-3.2,12.2-2.3c2.2,0.5,4.4,2.2,6.1,3.7c1.5,1.3,3.9,3.2,4.8,5.1L138.6,103.6z"/>
		</g>
		<circle class="st12" cx="139.5" cy="108.3" r="1.3"/>
		<g>
			<path class="st26" d="M127.4,86.6c2.8-0.7,10.8-6.5,17.2,4.3c2.6,4.4,1.9,7.8,6.9,8.3c-1.3,1.6-3.6,9.9-15.4,6.1
				c-1.7-0.6-3-1.6-4.4-2.8c-1.2-1.1-2.2-3.6-3.5-4.4c-2.4-1.6,0.2,3.2,0.3,5.3c0.1,1.4-2.6,5.8-3,6.7c-2.9-1.3-1.2-3.6-3-5.9
				c-1.7-2.1-4.3,0.2-4.1,2.5c0.3,3.6,3,4.5,3,4.5c-0.4,1.8-3,4.9-4,6.5c-1.4-1.5-4.1-1.7-5-3.2c-0.7-1.1-3.1-9.5-3.7-11.9
				c-1.2-5.1,2.7-16.3,9.8-11.6C121.4,89,124.3,87.4,127.4,86.6z"/>
		</g>
		<path class="st26" d="M120.4,88.6c1.5-1.3,3.4-2,5.2-2.9s3.6-2.1,4.5-3.8c0.7,1.1,0.4,2.7-0.4,3.8c-0.8,1.1-1.9,1.8-3.1,2.5
			c-1.3,0.7-2.8,1.4-3.4,2.7c-0.8,1.7-1.6,5.5-4.5,3.5C116.7,92.8,119.1,89.6,120.4,88.6z"/>
		<path class="st27" d="M109.6,90.9c2.8-1.5,6.6-1.2,9.1,0.7c0.2,0.1,0.4,0.3,0.4,0.5c0,0.2-0.3,0.4-0.4,0.3
			c0.1-1.6,0.5-2.1,0.9-3.6c0.5-2.2,2.7-3.6,4.8-4.3"/>
		<polygon class="st28" points="106.8,119.8 122.1,134.3 116.4,143.4 103.8,121.9 		"/>
		<g>
			<g>
				<path class="st29" d="M97.7,284.5l-10.1,12.2l27.1,20.3c0,0,2.2-7.9,1.2-10.5c-1.3-3.7-8.7-11.4-8.7-11.4L97.7,284.5z"/>
				<polygon class="st30" points="97.7,284.5 107.2,295.2 115.6,286.6 104.6,276.8 				"/>
			</g>
			<path class="st31" d="M110,210.5c0,0,42,32,47,41.5c5,9.5-50.5,38-50.5,38L99,279l25.5-24c-3-5.5-38.5-11-46-24.5L110,210.5z"/>
			<g>
				<g>
					<polygon class="st0" points="94.3,239.8 112.6,356.9 116.1,356.9 101.6,239.8 					"/>
					<polygon class="st0" points="77.6,239.9 60,357.1 56.4,357.1 70.3,239.9 					"/>
				</g>
				<rect x="63.5" y="233.2" class="st1" width="45.4" height="8.8"/>
				<rect x="66.8" y="296.9" class="st0" width="38.9" height="2.9"/>
			</g>
			<g>
				<rect x="147" y="197.2" class="st32" width="53" height="4.3"/>
				<rect x="151.9" y="198.6" class="st33" width="17.7" height="1.3"/>
				<rect x="172.3" y="198.6" class="st33" width="2.6" height="1.3"/>
				<polygon class="st33" points="200,199.9 201.6,200.6 219.2,151.8 217.6,151.2 				"/>
			</g>
			<path class="st33" d="M66.7,199.6l-1.3,8c-2.2,13.1,6.4,25.6,19.4,28.3l47.8,11.2L99,279l7.5,11c0,0,40.7-27.4,50.5-38
				c1.8-1.9,6.5-8.6,3.8-11c-16.3-14-50.7-30.5-50.7-30.5L66.7,199.6z"/>
			<path class="st34" d="M95,281.5l-12.5,9.8l22,25.8c0,0,3.8-7.2,3.5-10c-0.5-3.9-6-13-6-13L95,281.5z"/>
			<polygon class="st35" points="95,281.5 102,294 112,287.5 101.5,274.5 			"/>
			<path class="st36" d="M103.8,121.9c0,0-8.8,3.6-14.8,10.6c-28.2,32.9-24.5,79-24.5,79s19.5,17,45.5-1l6.4-67.1L103.8,121.9z"/>
			<g>
				<path class="st8" d="M161.8,188.8c0,0,8.3,2.4,9.8,2.9c1.5,0.6,7.1,2.2,7.1,2.2l4.4,1.9l1.5-1.2l-2.2-2.1l-2.1-1.6l-0.7-3.7
					l-9.3-1.7l-8.2,0.4L161.8,188.8z"/>
				<path class="st7" d="M164.1,183.2h15l11.8,6.3l3.1,7h-3l-3.3-5.1l-7.4-0.9c0,0-6.2,0.5-8.2-0.6c-1.9-1.1-10.3-2.1-10.3-2.1
					L164.1,183.2z"/>
				<path class="st28" d="M105,132.5l21,32.7l38.1,17.9v8.1c0,0-35.1-4.5-45.3-10.9c-10-6.3-32.7-38-32.7-38S90,122,105,132.5z"/>
			</g>
		</g>
		<path class="st13" d="M135,120.3c1.3,1.8,3.8,2.2,5.9,1.7"/>
	</g>
</g>
<g id="DESIGNED_BY_FREEPIK">
</g>
</svg>
