<?xml version="1.0" encoding="utf-8"?>
<!-- Generator: Adobe Illustrator 19.0.0, SVG Export Plug-In . SVG Version: 6.00 Build 0)  -->
<svg version="1.1" xmlns="http://www.w3.org/2000/svg" xmlns:xlink="http://www.w3.org/1999/xlink" x="0px" y="0px"
	 viewBox="0 0 500 500" style="enable-background:new 0 0 500 500;" xml:space="preserve">
<style type="text/css">
	.st0{display:none;fill:#FFFFFF;}
	.st1{fill:#EBEFF3;}
	.st2{fill:#F3AF64;}
	.st3{fill:none;stroke:#9E98A4;stroke-miterlimit:10;}
	.st4{fill:#F5C650;}
	.st5{fill:none;stroke:#5D74A4;stroke-miterlimit:10;}
	.st6{fill:#75C0A1;}
	.st7{fill:#8FCDFF;}
	.st8{fill:#F8D2A1;}
	.st9{fill:#EAB095;}
	.st10{fill:#CB6B8D;}
	.st11{fill:#282C3B;}
	.st12{fill:#E28DA5;}
	.st13{fill:#0A1D40;}
	.st14{fill:#43253D;}
	.st15{fill:#E44854;}
	.st16{fill:none;stroke:#43253D;stroke-width:0.6138;stroke-miterlimit:10;}
	.st17{fill:#CF9C84;}
	.st18{fill:#292C3B;}
	.st19{fill:#DCA07B;}
	.st20{fill:#543A52;}
	.st21{fill:#4036AE;}
	.st22{fill:#332B8B;}
	.st23{fill:#FFFFFF;}
	.st24{fill:#8385E6;}
	.st25{fill:#989DF9;}
	.st26{fill:none;stroke:#292C3B;stroke-width:0.5;stroke-miterlimit:10;}
	.st27{fill:#DDBB8F;}
	.st28{fill:#940B00;}
	.st29{fill:none;stroke:#940B00;stroke-width:0.6465;stroke-miterlimit:10;}
	.st30{fill:#313B64;}
	.st31{fill:#608CCE;}
	.st32{fill:#2E5388;}
	.st33{fill:#78A8DF;}
	.st34{fill:#3E689E;}
	.st35{fill:#424E7A;}
	.st36{fill:#77A6E4;}
	.st37{fill:#FFCC00;}
	.st38{fill:#B7B7CF;}
	.st39{fill:none;stroke:#B7B7CF;stroke-miterlimit:10;}
</style>
<g id="BACKGROUND">
	<rect class="st0" width="500" height="500"/>
	<ellipse class="st1" cx="245.5" cy="470.5" rx="216.5" ry="9.5"/>
</g>
<g id="OBJECTS">
	<g>
		<g>
			<polygon class="st1" points="345,349.8 363.3,466.9 366.8,466.9 352.3,349.8 			"/>
			<polygon class="st1" points="328.3,349.9 310.7,467.1 307.1,467.1 321,349.9 			"/>
		</g>
		<rect x="314.3" y="343.2" class="st2" width="45.4" height="8.8"/>
		<rect x="317.5" y="406.9" class="st1" width="38.9" height="2.9"/>
	</g>
	<g>
		<rect x="44.8" y="114.1" class="st1" width="414.8" height="191.7"/>
		<rect x="267.5" y="221.5" class="st3" width="74" height="47.5"/>
		<circle class="st4" cx="187.6" cy="152.5" r="8.8"/>
		<line class="st5" x1="173.5" y1="168.5" x2="249.5" y2="168.5"/>
		<line class="st5" x1="173.5" y1="174" x2="214" y2="174"/>
		<line class="st5" x1="173.5" y1="179.5" x2="214" y2="179.5"/>
		<path class="st5" d="M263.8,212.8c-0.7-1.2,0.4-2.8,1.7-3.2c1.4-0.4,2.8,0.1,4.1,0.6c1.3,0.5,2.8,0.9,4.1,0.5c1-0.3,1.9-1,2.8-0.8
			c1.2,0.2,1.7,1.7,2.7,2.3c1.4,0.8,3-0.1,4.5-0.6c1.8-0.6,3.7-0.6,5.5-0.6c8.3,0,16.7-0.1,25-0.1"/>
		<rect x="173.8" y="188.5" class="st3" width="39.4" height="78"/>
		<rect x="174" y="146.5" class="st3" width="74" height="12"/>
		<circle class="st6" cx="282.4" cy="185.5" r="8.8"/>
		<circle class="st7" cx="306.5" cy="185.5" r="8.8"/>
		<circle class="st4" cx="330.6" cy="185.5" r="8.8"/>
		<rect x="267.5" y="179.5" class="st3" width="74" height="12"/>
		<rect x="307" y="236.7" class="st7" width="28" height="25.9"/>
	</g>
	<g>
		<g>
			<path class="st8" d="M414.5,413.4c-4.3-19.2-7-29.4-7-29.4c2.3-8.2,4.4-39.3,4.4-39.3l-24.9,1.1c1.6,19.2,3,34.2,4.4,43.3
				c1.2,7.9,17.7,42.6,19.1,58c0.2,2.5-1.6,5.9-1.6,5.9l-0.9,5.6c0,0,10.8-5.3,12.9-8.7c2.1-3.4,2-8.1-0.4-12.4
				C418.1,433.1,418.7,432.1,414.5,413.4z"/>
			<path class="st9" d="M420.5,437.4c-2.1-3.8-1.9-5-4.6-18.1c-1.6,7.7-3.6,15.3-6.1,22.7c0.4,1.8,0.7,3.5,0.8,5
				c0.2,2.5-1.6,5.9-1.6,5.9l-0.9,5.6c0,0,10.8-5.3,12.9-8.7C423,446.4,422.9,441.6,420.5,437.4z"/>
			<path class="st10" d="M408.9,452.9c4-0.2,7.1-2.1,9.2-4.3c4.5-4.9,2.4-11.2,2.4-11.2s2.4,2.6,3.8,5.2c1.2,2.3,1.2,4.4,2.1,6.2
				c1.9,3.8,2.4,4.7,2.4,4.7l-2.6,1.3l-3.4-5.2c0,0-3.4,7.9-6.8,10.5c-2.2,1.7-13.8,7.5-13.8,7.5s-1.2-2.3,2.3-7.1
				S408.9,452.9,408.9,452.9z"/>
		</g>
		<path class="st8" d="M391.5,221c0,0-6.1,3.3-7.7,11.1s-3.8,36.1-4.3,40.6c-0.3,3.3,4.9,7.9,8.5,4.9c3.6-3,6.2-25.2,7-27
			c0.8-1.8,5.7-13.9,5.7-13.9L391.5,221z"/>
		<path class="st9" d="M381,255.8c-0.7,7.8-1.3,15-1.5,17.1c-0.3,3.3,4.9,7.9,8.5,4.9c3.6-3,6.2-25.2,7-27
			c0.8-1.8,5.7-13.9,5.7-13.9l-4.6-7.7C391,237.9,386,246.8,381,255.8z"/>
		<path class="st11" d="M411.6,183.5l-3.1-11.8c0,0-5.4-1.8-10.6,1.7c-5.2,3.5-9.5,8-11,11.1c-2.6,5.4-0.1,12.1,2.8,16.1
			c2.9,4.1,6.6,10.1,7.4,12.7c0.8,2.6,0.7,3.9,0.7,3.9s5.1-0.1,11.5-5.4c6.3-5.3,8.4-12.2,8.4-12.2L411.6,183.5z"/>
		<path class="st11" d="M393.7,184.5c0,0,3.9-7.3,9.3-10.3c5.4-2.9,8.6-4.5,12-1.9c3.4,2.7,7.4,4.3,10.7,12
			c3.2,7.6,1.5,18.1,2.1,20.8s-12.7,8.5-12.7,8.5s1.4-7-3.1-14.8C407.5,191.1,393.7,184.5,393.7,184.5z"/>
		<path class="st8" d="M395.1,183.9c5,0.9,11.9,8.3,15.8,10c3.9,1.7,3.8-1.8,6.7-1.8c2.9,0,3,3.7,1.2,6.8c-0.9,1.6-1,1.7-2.1,3.1
			c-2.2,3-0.8,6.4-7.5,10c-3.6,1.9-9.1-0.2-12.5-5.5c-3.5-5.3-5.8-21.3-5.8-21.3S391.1,183.2,395.1,183.9z"/>
		<path class="st8" d="M406.2,210.1c0.6,2.9-0.8,9.2-0.8,9.2s12.5-1.8,16.3-2.6c0,0-5.5-10.2-5.9-14.3L406.2,210.1z"/>
		<path class="st8" d="M412.6,216.6l4.7-2.7c0,0,5.7,1.8,10.6,2.7c4.9,1,6.3,1.3,6.3,1.3s-5.3,20.8-20.1,21
			c-14.9,0.2-17.8-19.2-17.8-19.2l9.6-3.5L412.6,216.6z"/>
		<path class="st8" d="M437.2,338.7l-26.1,5.1c-1,17.6,2,45.2,3.4,54.1c1.5,9.3,2.5,46.2,2.5,46.2s0.2,4.1-1.1,7.7
			c-1.3,3.6-5.6,8.5-5.6,8.5l5.9,3.9c7.5-2,11.5-13.4,11.5-13.4s-1.3-1.3-0.6-8.8c0.9-8.9,3.9-21,4.2-31.3
			c0.5-19.2,0.3-27.7,0.3-27.7C432.9,366.6,437.2,338.7,437.2,338.7z"/>
		<path class="st12" d="M402.8,217.6c0,0,0.6,3.4,7.1,5c6.5,1.6,14.7-6.7,14.7-6.7l11.5,2.3c0,0-2.9,4.7-3.3,8.7
			c-0.3,4,0.3,8.7,0.3,8.7s-1.4,20.3,0.4,34.2c1.9,14,5.6,19.2,7.5,38.7c1.9,19.5-6.2,48.8-6.2,48.8s-10.8,2.6-22.6,3.6
			c-11.8,0.9-24.5-2.4-24.5-2.4s-4-25.8-0.8-46.4c2.6-16.1,8.9-26.9,7.7-36.6c-1.2-9.6-0.6-26-1.9-29.5c-1.2-3.4-0.5-6.5,0.4-10.5
			c0,0-3.2-12.1-1.8-14.6C391.5,221,394.4,219.8,402.8,217.6z"/>
		<path class="st8" d="M394.2,247.9c0,0-1.4,12.5-2.4,19.6c0,0.1,0,0.2,0,0.4c-1,7.1-3.6,11.2-6.2,11.5c-2.6,0.3-5.6-2-6.1-6.6
			c-0.5-4.6,3-9.2,4.9-14.8c0.5-1.5,1.1-3,1.6-4.4c1.5-4.1,2.8-7.7,2.8-7.7L394.2,247.9z"/>
		<path class="st9" d="M394.2,247.9c0,0-1.4,12.5-2.4,19.6l-4.1-3.2l-1.7-10.7c1.5-4.1,2.8-7.7,2.8-7.7L394.2,247.9z"/>
		<path class="st8" d="M390.3,244.5c0.7-1.1,3.4-5.4,3.4-5.4l3.3-0.2l1.3,5.1l-2.8,3.4L390.3,244.5z"/>
		<path class="st13" d="M402.4,264.2l-9.8,1.7c-0.4,0.1-0.8-0.2-0.9-0.6l-3.6-20.4c-0.1-0.4,0.2-0.8,0.6-0.9l9.8-1.7
			c0.4-0.1,0.8,0.2,0.9,0.6l3.6,20.4C403.1,263.8,402.8,264.2,402.4,264.2z"/>
		<path class="st8" d="M436.2,218.2c0,0,5.4,0.7,8.4,6.6c3,5.9,1,49.2,1,49.2s-8.9,2-19.2-3.9c-10.3-5.9-29-9.8-29-9.8l1.5-7.4
			c0,0,9.9,1.5,15.7,2.5c8.9,1.5,20.2,5.4,20.2,5.4s-1-20.7-1.5-25.1C432.8,231.2,430.7,224,436.2,218.2z"/>
		<path class="st8" d="M404.9,254.3l-2.1-5.6l-3-2.6l1.1,4.8c0,0-4.4,0.2-5.9-0.2c-1.5-0.3-6.6-2.1-6.6-2.1l-1.5,2l0.8,1.1l-1,1.8
			l0.7,2.5l-1,1.8l1.5,1.5l-0.7,1.8c0,0,1.1,0.2,1.5,0.8c0.3,0.7,3.8,0,5.7-0.3c2-0.3,9.2,0,9.2,0L404.9,254.3z"/>
		<path class="st10" d="M410.3,459.3c3.6,1.6,7.2,1.4,10.2,0.3c6.2-2.3,7.2-8.9,7.2-8.9s1,3.4,1,6.3c0,2.5-1,4.5-1,6.5
			c0,4.3,0,5.2,0,5.2h-3l-0.7-6.2c0,0-7,5.2-9.8,6.1c-4,1.2-16.8,0.5-16.8,0.5s0-2.6,5.2-5.2C408,461.3,410.3,459.3,410.3,459.3z"/>
		<circle class="st14" cx="402.4" cy="193.5" r="1.3"/>
		<circle class="st14" cx="394.4" cy="196.5" r="1.3"/>
		<path class="st15" d="M403.2,206.6c0.8,0,1.7-0.3,2.2-0.9c0.9-0.9,1.2-2.2,1.5-3.5c-0.6,0.8-1.6,1.4-2.7,1.4c-0.9,0-1,0.3-1.5,0.4
			c-1.7,0.3-1.9,1-2.2,1.3C400.4,205.3,402.1,206.6,403.2,206.6z"/>
		<path class="st16" d="M406.2,203.6c-1.3,1.8-3.7,2.2-5.8,1.7"/>
		<path class="st16" d="M398,197.4c0,1.5,0,3,0,4.5c0,0.4,0,0.9,0.3,1.2c0.3,0.3,0.9,0.5,1.4,0.5c0.5,0,1-0.2,1.5-0.3"/>
	</g>
	<g>
		<g>
			<polygon class="st1" points="277.6,349.8 295.9,466.9 299.4,466.9 285,349.8 			"/>
			<polygon class="st1" points="261,349.9 243.3,467.1 239.8,467.1 253.7,349.9 			"/>
		</g>
		<rect x="246.9" y="343.2" class="st2" width="45.4" height="8.8"/>
		<rect x="250.2" y="406.9" class="st1" width="38.9" height="2.9"/>
	</g>
	<g>
		<polygon class="st17" points="281.1,227 282.4,219.3 284.7,215.2 288.8,213.9 289.1,217.4 		"/>
		<g>
			<path class="st18" d="M295.6,211.7l1.5,2.5c0,0,0,0,0,0l-16.9,9.9c-0.2,0.1-0.4,0-0.5-0.1l-1.1-1.9c-0.1-0.2,0-0.4,0.1-0.5
				L295.6,211.7C295.6,211.7,295.6,211.7,295.6,211.7z"/>
			<path class="st18" d="M293.9,213.1l1.1,1.9c0,0,0,0,0,0l-16.6,9.7c-0.3,0.2-0.7,0.1-0.9-0.2l-0.5-0.8c-0.2-0.3-0.1-0.7,0.2-0.9
				L293.9,213.1C293.9,213.1,293.9,213.1,293.9,213.1z"/>
			<path class="st18" d="M300.3,210.7L300.3,210.7c0.2,0.3,0.1,0.6-0.2,0.8l-5.9,3.5c-0.3,0.2-0.6,0.1-0.8-0.2l0,0
				c-0.2-0.3-0.1-0.6,0.2-0.8l5.9-3.5C299.8,210.3,300.1,210.4,300.3,210.7z"/>
			<polygon class="st18" points="295.6,211.7 297.1,214.2 299.6,211.9 298.9,210.7 			"/>
			
				<rect x="288.5" y="212" transform="matrix(-0.5066 -0.8622 0.8622 -0.5066 247.8697 576.5458)" class="st1" width="0.8" height="10.6"/>
		</g>
		<path class="st19" d="M279.3,228.3c0,0,1.7-2.3,2.8-3.9c1.1-1.6,4.6-4.4,5.4-6.2c1.2-2.6,0.1-3.2,1.8-5.4c0.7-0.9,3.8-0.2,3.8-0.2
			l-1.8,3.9l2,2.8l-0.2,2.5c1,0.5,1.1,3.8,1.1,3.8l-2,3.8c0,0-4.2,3.1-5.7,3.9c-1.5,0.8-6,4.9-6,4.9L279.3,228.3z"/>
		<path class="st19" d="M176.2,446l-1.7,7.4c0,0,3.7,6.2,4.6,8.2c2.6,5.6,2.5,5.8,2.5,5.8l-17.4-15.5l-0.3-8.2l5.4-4.6L176.2,446z"
			/>
		<path class="st20" d="M164,443.6l-6.3,5.5c0,0,7.7,10.8,12.1,17.3c2.7,4,19.9,3.1,19.9,3.1c2.7-3.2-10.5-8-10.5-8
			s-4.5-0.4-8.6-5.6C166.4,450.8,164,443.6,164,443.6z"/>
		<g>
			<path class="st21" d="M197.5,311.5c0,0,0,17.9,0.8,23.8c1.9,13.5,6.7,44.3,6.7,44.3l-36.9,58.9c0,0-2.4,2.4,8.4,9.4
				c0,0,35.1-46.1,43-53.6s12.3-76.7,12.3-76.7L197.5,311.5z"/>
			<path class="st22" d="M200.2,346.1c7.3,17.2,12.5,31,18.8,48.6c0.1-0.1,0.2-0.2,0.3-0.3c7.8-7.4,12.3-76.7,12.3-76.7l-34.3-6.2
				c0,0,0,17.9,0.8,23.8C198.7,338.1,199.4,341.9,200.2,346.1z"/>
		</g>
		<path class="st19" d="M220.7,453.7l-0.8,3.6c0,0,3.6,3.9,5.5,5c5.3,3.1,5.3,3.4,5.3,3.4l-20.1-3.8l-4.6-2l4.6-12.2L220.7,453.7z"
			/>
		<path class="st18" d="M227.3,185.6c6.3-1,13.8,2.3,15.2,8.4c1.4,6.1-1.9,14.1-1.9,14.1s-0.9-14.1-10.8-15.5
			C219.9,191.2,227.3,185.6,227.3,185.6z"/>
		<polygon class="st23" points="276.4,231.5 279.3,228.3 285.1,240 273.9,246.8 		"/>
		<path class="st19" d="M229.5,191.2c3.3-1.4,9.6-0.4,11.4,8c1.7,8.4,3.1,15.1,0,20.7c-3.1,5.6-7,4.8-15.3-1.2
			c-8.3-6-8.7-15.1-8.7-15.1S225.3,193,229.5,191.2z"/>
		<circle class="st14" cx="238.9" cy="202.5" r="1.3"/>
		<path class="st16" d="M238.9,213.6c0.7,1,1.9,1.6,3.1,1.8"/>
		<path class="st19" d="M241.1,203.3c1.1,2.6,2.2,5.3,3.3,7.9c0.1,0.3,0.2,0.5,0.1,0.8c-0.1,0.2-0.4,0.3-0.7,0.3
			c-1,0.2-2,0.3-3.1,0.5"/>
		<path class="st21" d="M201.2,318.2c0,0,2.6,17.7,4.2,23.4c3.8,13.1,16.4,42.3,16.4,42.3l-13.5,68.6c0,0,4.2,1.8,12.4,1.2
			c0,0,19.7-57.2,19.7-68c0-10.8-4.4-66.3-4.4-66.3L201.2,318.2z"/>
		<path class="st24" d="M207.4,239.2c-2.8,9.2-8.1,35.5-9.3,50.3c-0.9,11.8-2.4,35.9-2.4,35.9s24,7.8,45.6,0.6c0,0-1.6-43-2.8-56.2
			c-1.2-13.2,3-21,0-26.4c-3-5.4-10.2-12.9-10.2-12.9l-11.4-6.9C217,223.6,209.2,233.2,207.4,239.2z"/>
		<polygon class="st23" points="228.6,226.7 237.7,238.4 233.6,247.9 226.2,232.1 		"/>
		<path class="st25" d="M211.8,245.6c5.2,9.4,27.9,23,33.3,27.9c5.4,5,30.1-22.7,37.8-28.1l-6.5-14c0,0-13.1,16.7-27.2,23.6
			c0,0-17.6-18.5-23-23C220.8,227.6,204.6,232.8,211.8,245.6z"/>
		<path class="st18" d="M210.5,246c7.2,2.8,15.5,1.2,16.6-1.6c0.1-0.1,0.1-0.3,0.2-0.4c3.6-9.9,3.1-23.5,5.7-32.3
			c2.6-8.9,5.7-21.8-5.7-26.1c-12.5-4.7-20.3,5.7-20.8,14.6c-0.4,7.6-0.8,23.8-7.6,30.9C195.4,234.7,202.3,242.8,210.5,246z"/>
		<path class="st26" d="M233.3,190.3c4,6.8,5.3,25.8-8.6,33.4"/>
		<path class="st20" d="M205.9,459.8l-2.4,8.4c0,0,7.3,1.2,15.7,1.8c4.8,0.3,22.1-0.1,22.1-0.1c0.4-4.2-16.1-7.5-16.1-7.5
			s-0.9,1.4-7.2-0.6S205.9,459.8,205.9,459.8z"/>
	</g>
	<g>
		<g>
			<polygon class="st1" points="359.9,318.2 378.2,466.9 381.7,466.9 367.2,318.2 			"/>
			<polygon class="st1" points="157.6,318.2 133.8,467.1 129,467.1 147.7,318.3 			"/>
		</g>
		<rect x="131.6" y="311.5" class="st2" width="249.9" height="8.8"/>
	</g>
	<g>
		<g>
			<path class="st17" d="M162.9,300.1c0,0,8,3.2,9.5,4c1.5,0.7,6.8,3,6.8,3l4.2,2.3l1.6-1.1l-2-2.3l-1.9-1.8l-0.3-3.7l-9-2.7
				l-8.2-0.5L162.9,300.1z"/>
			<path class="st27" d="M165.7,294.6l14.9,1.6l11.1,7.5l2.4,7.3l-2.9-0.3l-2.8-5.5l-7.3-1.7c0,0-6.3-0.2-8.1-1.5
				c-1.8-1.3-10-3.2-10-3.2L165.7,294.6z"/>
			<path class="st10" d="M110.5,239.9l19.3,32.8l35.9,22l-0.9,8.1c0,0-34.4-8.2-43.8-15.8c-9.2-7.4-30.4-39.3-30.4-39.3
				S96.7,227.8,110.5,239.9z"/>
		</g>
		<path class="st8" d="M113.8,223.9c0,0-4.2,4.4-10,8l11.7,14.1c0,0,5.6-9.5,14-11L113.8,223.9z"/>
		<g>
			<path class="st8" d="M138.6,213.6c2.7,0.8,3,4.7,4.2,6.8c0.5,0.9,1,1.6,1.8,2.3c0.5,0.4,1.6,0.8,1.4,1.6
				c-0.2,1.2-2.7,1.7-3.4,2.7c-1,1.6-0.4,4-0.9,5.8c-1.4,5.7-5.7,8.8-11.4,6.3c-8.3-3.7-17.9-12.9-17.6-22.6
				c0.1-3.5,2.2-7.2,4.5-9.7c2.7-2.9,8.5-3.2,12.2-2.3c2.2,0.5,4.4,2.2,6.1,3.7c1.5,1.3,3.9,3.2,4.8,5.1L138.6,213.6z"/>
		</g>
		<circle class="st14" cx="139.5" cy="218.3" r="1.3"/>
		<g>
			<path class="st28" d="M127.4,196.6c2.8-0.7,10.8-6.5,17.2,4.3c2.6,4.4,1.9,7.8,6.9,8.3c-1.3,1.6-3.6,9.9-15.4,6.1
				c-1.7-0.6-3-1.6-4.4-2.8c-1.2-1.1-2.2-3.6-3.5-4.4c-2.4-1.6,0.2,3.2,0.3,5.3c0.1,1.4-2.6,5.8-3,6.7c-2.9-1.3-1.2-3.6-3-5.9
				c-1.7-2.1-4.3,0.2-4.1,2.5c0.3,3.6,3,4.5,3,4.5c-0.4,1.8-3,4.9-4,6.5c-1.4-1.5-4.1-1.7-5-3.2c-0.7-1.1-3.1-9.5-3.7-11.9
				c-1.2-5.1,2.7-16.3,9.8-11.6C121.4,199,124.3,197.4,127.4,196.6z"/>
		</g>
		<path class="st28" d="M120.4,198.6c1.5-1.3,3.4-2,5.2-2.9c1.8-0.9,3.6-2.1,4.5-3.8c0.7,1.1,0.4,2.7-0.4,3.8
			c-0.8,1.1-1.9,1.8-3.1,2.5c-1.3,0.7-2.8,1.4-3.4,2.7c-0.8,1.7-1.6,5.5-4.5,3.5C116.7,202.8,119.1,199.6,120.4,198.6z"/>
		<path class="st29" d="M109.6,200.9c2.8-1.5,6.6-1.2,9.1,0.7c0.2,0.1,0.4,0.3,0.4,0.5c0,0.2-0.3,0.4-0.4,0.3
			c0.1-1.6,0.5-2.1,0.9-3.6c0.5-2.2,2.7-3.6,4.8-4.3"/>
		<polygon class="st10" points="106.8,229.8 122.1,244.3 116.4,253.4 103.8,231.9 		"/>
		<g>
			<g>
				<path class="st30" d="M97.7,394.5l-10.1,12.2l27.1,20.3c0,0,2.2-7.9,1.2-10.5c-1.3-3.7-8.7-11.4-8.7-11.4L97.7,394.5z"/>
				<polygon class="st31" points="97.7,394.5 107.2,405.2 115.6,396.6 104.6,386.8 				"/>
			</g>
			<path class="st32" d="M110,320.5c0,0,42,32,47,41.5s-50.5,38-50.5,38L99,389l25.5-24c-3-5.5-38.5-11-46-24.5L110,320.5z"/>
			<g>
				<g>
					<polygon class="st1" points="94.3,349.8 112.6,466.9 116.1,466.9 101.6,349.8 					"/>
					<polygon class="st1" points="77.6,349.9 60,467.1 56.4,467.1 70.3,349.9 					"/>
				</g>
				<rect x="63.5" y="343.2" class="st2" width="45.4" height="8.8"/>
				<rect x="66.8" y="406.9" class="st1" width="38.9" height="2.9"/>
			</g>
			<g>
				<rect x="147" y="307.2" class="st33" width="53" height="4.3"/>
				<rect x="151.9" y="308.6" class="st34" width="17.7" height="1.3"/>
				<rect x="172.3" y="308.6" class="st34" width="2.6" height="1.3"/>
				<polygon class="st34" points="200,309.9 201.6,310.6 219.2,261.8 217.6,261.2 				"/>
			</g>
			<path class="st34" d="M66.7,309.6l-1.3,8c-2.2,13.1,6.4,25.6,19.4,28.3l47.8,11.2L99,389l7.5,11c0,0,40.7-27.4,50.5-38
				c1.8-1.9,6.5-8.6,3.8-11c-16.3-14-50.7-30.5-50.7-30.5L66.7,309.6z"/>
			<path class="st35" d="M95,391.5l-12.5,9.8l22,25.8c0,0,3.8-7.2,3.5-10c-0.5-3.9-6-13-6-13L95,391.5z"/>
			<polygon class="st36" points="95,391.5 102,404 112,397.5 101.5,384.5 			"/>
			<path class="st12" d="M103.8,231.9c0,0-8.8,3.6-14.8,10.6c-28.2,32.9-24.5,79-24.5,79s19.5,17,45.5-1l6.4-67.1L103.8,231.9z"/>
			<g>
				<path class="st9" d="M161.8,298.8c0,0,8.3,2.4,9.8,2.9c1.5,0.6,7.1,2.2,7.1,2.2l4.4,1.9l1.5-1.2l-2.2-2.1l-2.1-1.6l-0.7-3.7
					l-9.3-1.7l-8.2,0.4L161.8,298.8z"/>
				<path class="st8" d="M164.1,293.2h15l11.8,6.3l3.1,7h-3l-3.3-5.1l-7.4-0.9c0,0-6.2,0.5-8.2-0.6c-1.9-1.1-10.3-2.1-10.3-2.1
					L164.1,293.2z"/>
				<path class="st10" d="M105,242.5l21,32.7l38.1,17.9v8.1c0,0-35.1-4.5-45.3-10.9c-10-6.3-32.7-38-32.7-38S90,232,105,242.5z"/>
			</g>
		</g>
		<path class="st16" d="M135,230.3c1.3,1.8,3.8,2.2,5.9,1.7"/>
	</g>
	<g>
		<circle class="st37" cx="342.4" cy="86.5" r="9.5"/>
		<polygon class="st38" points="389.1,87.9 295.6,87.9 333.2,71.5 351.5,71.5 		"/>
		<line class="st39" x1="342" y1="1" x2="342" y2="77"/>
	</g>
	<g>
		<circle class="st37" cx="159.9" cy="86.5" r="9.5"/>
		<polygon class="st38" points="206.6,87.9 113.1,87.9 150.8,71.5 169,71.5 		"/>
		<line class="st39" x1="159.5" y1="1" x2="159.5" y2="77"/>
	</g>
</g>
<g id="DESIGNED_BY_FREEPIK">
</g>
</svg>
