<?xml version="1.0" encoding="utf-8"?>
<!-- Generator: Adobe Illustrator 19.0.0, SVG Export Plug-In . SVG Version: 6.00 Build 0)  -->
<svg class="planing" version="1.1" xmlns="http://www.w3.org/2000/svg" xmlns:xlink="http://www.w3.org/1999/xlink" x="0px" y="0px"
	 viewBox="0 0 500 283" style="enable-background:new 0 0 500 283;" xml:space="preserve">
<style type="text/css">
	.planing .st0{display:none;}
	.planing .st1{display:inline;fill:#EFF2F7;}
	.planing .st2{fill:#FFFFFF;}
	.planing .st3{opacity:0.5;fill:url(#SVGID_1_);}
	.planing .st4{opacity:0.5;fill:url(#SVGID_2_);}
	.planing .st5{fill:#EFF2F7;}
	.planing .st6{fill:#5BB59B;}
	.planing .st7{fill:#524F63;}
	.planing .st8{fill:#63A590;}
	.planing .st9{opacity:0.5;fill:url(#SVGID_3_);}
	.planing .st10{opacity:0.5;fill:url(#SVGID_4_1);}
	.planing .st11{opacity:0.5;fill:url(#SVGID_5_);}
	.planing .st12{opacity:0.5;fill:url(#SVGID_6_1);}
	.planing .st13{opacity:0.5;fill:url(#SVGID_7_);}
	.planing .st14{fill:#E0E4ED;}
	.planing .st15{fill:#424051;}
	.planing .st16{fill:#EEBCC5;}
	.planing .st17{fill:#9092EC;}
	.planing .st18{fill:#EAD18C;}
	.planing .st19{opacity:0.5;fill:url(#SVGID_8_);}
	.planing .st20{fill:#91616A;}
	.planing .st21{fill:#5B61D3;}
	.planing .st22{fill:#8385E6;}
	.planing .st23{fill:url(#SVGID_9_);}
	.planing .st24{fill:url(#SVGID_10_);}
	.planing .st25{fill:#4A4549;}
	.planing .st26{fill:url(#SVGID_11_);}
	.planing .st27{fill:#D98E9D;}
	.planing .st28{fill:url(#SVGID_12_);}
	.planing .st29{opacity:0.7;fill:#4A4549;}
	.planing .st30{fill:#75454F;}
	.planing .st31{fill:#8284E5;}
	.planing .st32{fill:#37354C;}
	.planing .st33{fill:url(#SVGID_13_);}
	.planing .st34{fill:none;stroke:#524F63;stroke-miterlimit:10;}
	.planing .st35{fill:#BCBACE;}
	.planing .st36{fill:url(#SVGID_14_);}
</style>
<g id="BACKGROUND" class="st0">
	<rect y="-114" class="st1" width="500" height="500"/>
</g>
<g id="OBJECTS">
	<g>
		<rect x="255.8" y="15" class="st2" width="172.9" height="140.8"/>
	</g>
	<linearGradient id="SVGID_1_" gradientUnits="userSpaceOnUse" x1="86.9459" y1="236.3367" x2="18.6729" y2="281.8521">
		<stop  offset="0" style="stop-color:#4A50C2;stop-opacity:2.000000e-002"/>
		<stop  offset="1" style="stop-color:#444BCC;stop-opacity:0.64"/>
	</linearGradient>
	<ellipse class="st3" cx="63.6" cy="251.9" rx="20.9" ry="2.9"/>
	<linearGradient id="SVGID_2_" gradientUnits="userSpaceOnUse" x1="471.0344" y1="237.269" x2="402.7614" y2="282.7843">
		<stop  offset="0" style="stop-color:#4A50C2;stop-opacity:2.000000e-002"/>
		<stop  offset="1" style="stop-color:#444BCC;stop-opacity:0.64"/>
	</linearGradient>
	<ellipse class="st4" cx="447.7" cy="252.8" rx="20.9" ry="2.9"/>
	<g>
		<rect x="68.4" y="15" class="st2" width="172.9" height="140.8"/>
	</g>
	<polygon class="st5" points="428.7,63.9 410.2,63.9 410.2,99.3 387.5,99.3 387.5,109.3 368.9,109.3 368.9,55.5 346.6,55.5 
		346.6,122.4 325.2,122.4 325.2,64 308.5,64 308.5,112.1 304.3,112.1 304.3,102.1 282.5,102.1 282.5,122.1 274.3,122.1 274.3,52.4 
		255.8,52.4 255.8,109.3 255.8,109.3 255.8,155.8 428.7,155.8 	"/>
	<polygon class="st5" points="241.3,63.9 226.6,63.9 226.6,99.3 203.8,99.3 203.8,109.3 185.3,109.3 185.3,55.5 163,55.5 163,122.4 
		141.6,122.4 141.6,64 124.8,64 124.8,112.1 120.6,112.1 120.6,102.1 98.9,102.1 98.9,122.1 90.7,122.1 90.7,52.4 68.4,52.4 
		68.4,136.9 68.4,155.8 241.3,155.8 	"/>
	<g>
		<path class="st6" d="M47.4,161.5c0,0-6.5,28.6,3.8,48.1S61.4,229,61.4,229S64.1,180.4,47.4,161.5z"/>
		<path class="st2" d="M47.8,236.3c0.6,3.5,1.4,7.1,3.2,10.2c1.7,3.1,4.5,5.8,8,6.6c1.6,0.4,3.2,0.4,4.8,0.3c1.8,0,3.6-0.2,5.2-1.1
			c2-1.2,3-3.4,3.8-5.6c1.4-3.7,2.4-7.5,3.1-11.3c0.4-2.2,0.7-4.6-0.4-6.6c-1.4-2.7-4.7-3.8-7.7-4.3c-5-0.8-11.9-1.2-16.7,0.8
			C46.9,227.1,47.2,232.4,47.8,236.3z"/>
		<path class="st7" d="M59.2,229.1c4,0.2,8.3-0.4,10.8-1.7c0.5-0.3,0.9-0.6,0.7-0.9c-0.3-0.4-1.3-0.6-2.3-0.6
			c-4.8-0.5-10.1-0.7-14.8,0.1C46.8,227.1,55.6,228.9,59.2,229.1z"/>
		<path class="st8" d="M57.1,154.5c0,0-3.2,54.5,4.3,74.5C61.4,229,66.3,180.4,57.1,154.5z"/>
		<path class="st6" d="M60.5,228.6h1.8c2.6-10.8,10.3-45.8,6.2-62.1c0,0-13,45.9-9.7,56.2C59.5,225.4,60.1,227.3,60.5,228.6z"/>
	</g>
	<g>
		<path class="st6" d="M432.4,163.4c0,0-6.5,28.6,3.8,48.1c10.3,19.4,10.3,19.4,10.3,19.4S449.1,182.3,432.4,163.4z"/>
		<path class="st2" d="M432.8,238.1c0.6,3.5,1.4,7.1,3.2,10.2c1.7,3.1,4.5,5.8,8,6.6c1.6,0.4,3.2,0.4,4.8,0.3c1.8,0,3.6-0.2,5.2-1.1
			c2-1.2,3-3.4,3.8-5.6c1.4-3.7,2.4-7.5,3.1-11.3c0.4-2.2,0.7-4.6-0.4-6.6c-1.4-2.7-4.7-3.8-7.7-4.3c-5-0.8-11.9-1.2-16.7,0.8
			C431.9,228.9,432.2,234.3,432.8,238.1z"/>
		<path class="st7" d="M444.2,231c4,0.2,8.3-0.4,10.8-1.7c0.5-0.3,0.9-0.6,0.7-0.9c-0.3-0.4-1.3-0.6-2.3-0.6
			c-4.8-0.5-10.1-0.7-14.8,0.1C431.8,228.9,440.6,230.8,444.2,231z"/>
		<path class="st8" d="M442.1,156.4c0,0-3.2,54.5,4.3,74.5C446.4,230.9,451.3,182.3,442.1,156.4z"/>
		<path class="st6" d="M445.5,230.5h1.8c2.6-10.8,10.3-45.8,6.2-62.1c0,0-13,45.9-9.7,56.2C444.5,227.3,445.1,229.2,445.5,230.5z"/>
	</g>
	<linearGradient id="SVGID_3_" gradientUnits="userSpaceOnUse" x1="148.9335" y1="225.8822" x2="-4.8825" y2="328.4264">
		<stop  offset="0" style="stop-color:#4A50C2;stop-opacity:2.000000e-002"/>
		<stop  offset="1" style="stop-color:#444BCC;stop-opacity:0.64"/>
	</linearGradient>
	<ellipse class="st9" cx="96.3" cy="260.9" rx="47.1" ry="6.1"/>
	<linearGradient id="SVGID_4_1" gradientUnits="userSpaceOnUse" x1="462.159" y1="230.5433" x2="308.343" y2="333.0875">
		<stop  offset="0" style="stop-color:#4A50C2;stop-opacity:2.000000e-002"/>
		<stop  offset="1" style="stop-color:#444BCC;stop-opacity:0.64"/>
	</linearGradient>
	<ellipse class="st10" cx="409.6" cy="265.6" rx="47.1" ry="6.1"/>
	<linearGradient id="SVGID_5_" gradientUnits="userSpaceOnUse" x1="257.0709" y1="224.4835" x2="103.2549" y2="327.0277">
		<stop  offset="0" style="stop-color:#4A50C2;stop-opacity:2.000000e-002"/>
		<stop  offset="1" style="stop-color:#444BCC;stop-opacity:0.64"/>
	</linearGradient>
	<ellipse class="st11" cx="204.5" cy="259.5" rx="47.1" ry="6.1"/>
	<linearGradient id="SVGID_6_1" gradientUnits="userSpaceOnUse" x1="381.056" y1="222.6191" x2="227.24" y2="325.1633">
		<stop  offset="0" style="stop-color:#4A50C2;stop-opacity:2.000000e-002"/>
		<stop  offset="1" style="stop-color:#444BCC;stop-opacity:0.64"/>
	</linearGradient>
	<ellipse class="st12" cx="328.5" cy="257.7" rx="47.1" ry="6.1"/>
	<linearGradient id="SVGID_7_" gradientUnits="userSpaceOnUse" x1="285.9128" y1="226.4598" x2="193.4219" y2="288.1204">
		<stop  offset="0" style="stop-color:#4A50C2;stop-opacity:2.000000e-002"/>
		<stop  offset="1" style="stop-color:#444BCC;stop-opacity:0.64"/>
	</linearGradient>
	<ellipse class="st13" cx="254.3" cy="247.5" rx="28.1" ry="6.1"/>
	<g>
		<path class="st14" d="M104.7,98.6l17.8,2.9l-8.5-7.7l4-4.5l15.4,13.7c2.1,2.2,0.6,5.9-2.5,6l-21.5,0.7L104.7,98.6z"/>
		<polygon class="st7" points="112.2,144.1 111.8,260.1 105.7,260.5 101.5,162.1 95.8,162.6 90,259.6 83.9,259.2 84.7,142 		"/>
		<path class="st14" d="M104.7,98.6l-20.5-0.9c-2.1-0.1-4.2,0.8-5.5,2.4l6,47l28,0.6l-2.6-43.1C110.2,104.6,105.5,98.6,104.7,98.6z"
			/>
		<path class="st2" d="M114,89.6c-1.1,0.9-2.6,1.7-2.8,3.1c-0.2,1.2,0.7,2.5,1.9,2.9c1.2,0.4,2.5,0.2,3.6-0.3
			c1.8-0.8,3.3-2.5,3.7-4.5c0.2-1.4-0.4-4.2-2.1-4.7C116.4,85.6,115.4,88.5,114,89.6z"/>
		<polygon class="st15" points="83.9,259.2 72,262.8 72.5,263.8 89.7,261.9 90,259.6 		"/>
		<path class="st16" d="M45.5,99l-1.9-3.2l2.1-4.3c0,0,1.1-3,1.1-4c0-0.9-0.9-2.3-1.9-0.6c-0.9,1.7-1.9,3-1.9,3l-5.6-8.3
			c-0.2-0.2-0.4-0.4-0.7-0.4l0,0c-0.6,0-1.1,0.7-0.8,1.3l1.3,2.4c0.4,0.8-0.5,1.6-1.2,1.1l-0.3-0.2c-1.4-1-3.3-0.6-4.3,0.8l-0.1,0.1
			l0.1,2.8c0.1,1.8,0.9,3.5,2.3,4.6c3.3,2.7,9.1,7.4,9.3,7C43.3,100.7,45.5,99,45.5,99z"/>
		<path class="st16" d="M109.2,80.5c-0.8-0.4-1.8,0-2.3,0.7c-0.5,0.7-0.5,1.7-0.2,2.5c0.5,1.5,2.2,2.6,3.8,2.3
			c1.6-0.2,2.9-1.9,2.6-3.4c-0.2-1.1-1-2.1-2.1-2.5c-1.1-0.4-2.3-0.3-3.4,0.1"/>
		<path class="st16" d="M108.8,82.3l9.2,7.3c0,0,0.2,4-2,4.4c-0.7,0.4-9.2-8.6-9.2-8.6L108.8,82.3z"/>
		<path class="st15" d="M105.7,260.5l0.3,1.9l14.9,2.5c0,0,0.7-1.2,0.3-1.3c-0.4-0.1-9.4-3.5-9.4-3.5L105.7,260.5z"/>
		<path class="st16" d="M91.1,88.7l0.5,12.8c0,1.5,1.1,2.7,2.5,3l0,0c1.7,0.3,3.2-0.9,3.5-2.6l0.6-11.1L91.1,88.7z"/>
		<g>
			
				<rect x="102.2" y="77.3" transform="matrix(0.9831 0.1829 -0.1829 0.9831 17.1949 -17.881)" class="st7" width="6.6" height="13.9"/>
			
				<rect x="102.3" y="77.3" transform="matrix(0.9831 0.1829 -0.1829 0.9831 17.1762 -17.816)" class="st7" width="5.9" height="13.9"/>
		</g>
		<path class="st2" d="M90.4,99.6c0,0-0.9,0.8-1,1.1c-0.1,0.3,3.6,6,3.6,6l2.5-3.9l3.1,3.9l1.3-7.1l-2.1-0.5l-2.3,2.7l-4.1-3.3
			L90.4,99.6z"/>
		<polygon class="st17" points="95.4,102.7 93.9,105.3 95,107.2 94.4,108.7 95,127.5 97.1,129.9 99.1,127.6 97.1,108.6 95.9,107.1 
			97.3,105.1 		"/>
		<path class="st16" d="M85.8,75c-1.3,3-1.2,6.4-0.5,9.6c0.7,3.5,2.2,6.9,4.9,9.2c2.7,2.2,7,2.9,9.8,0.7c1.7-1.3,2.6-3.3,3.3-5.3
			c1.3-4,1.5-8.5-0.1-12.3C100.2,69.9,89.4,66.6,85.8,75z"/>
		<polygon class="st14" points="81.2,113.7 59.2,120.8 43.2,103.3 47.2,100 61.9,112.1 78.7,100.2 81.5,105.2 		"/>
		<polygon class="st2" points="40.7,102.2 42.3,104.8 49.9,100.5 46.9,97.5 		"/>
		<path class="st16" d="M82,80.7c-1,0.4-1.4,1.6-1.3,2.6c0.1,1,0.7,2,1.3,2.8c0.4,0.5,0.7,0.9,1.2,1.2c0.5,0.3,1,0.4,1.6,0.5
			c0.7,0.1,1.5,0,1.9-0.5c0.2-0.3,0.3-0.7,0.3-1c0.2-1.7-0.2-2.4-1.2-3.6C84.9,81.5,83.7,79.9,82,80.7z"/>
		<path class="st7" d="M88.3,80.8c-0.1,1.8-1,3.6-2.5,4.5c-1.2-1.5-1.8-3.4-2-5.2c-0.3-2.3,0.1-4.8,1.5-6.7c1.6-2.2,4.2-3.4,6.9-3.6
			c2.7-0.2,5.3,0.5,7.8,1.5c1.1,0.4,2.4,0.9,3.3,0.1c0.4,0.8,0.7,1.7,0.7,2.6c0,0.7-0.1,1.4-0.5,2c-0.7,1-1.7,2.1-2.9,2.3
			c-8.7,1.9-12.7-2.8-12.8-2.6c-0.1,0.5,0.1,1,0.2,1.5C88.2,78.4,88.4,79.6,88.3,80.8z"/>
	</g>
	<g>
		<path class="st18" d="M216.1,178.3l-2.5-48.1c0,0-12.4-0.7-16-0.7c-2,0-5.4,1-8.1,1.8c-2.5,0.8-4.6,0.7-5.9,3.1l-20.3,38.9
			l12.5,1.2l4.2-4.7l-2.1-3.2l7.6-17.9l-0.1,30.3L216.1,178.3z"/>
		<linearGradient id="SVGID_8_" gradientUnits="userSpaceOnUse" x1="171.678" y1="156.1545" x2="185.3835" y2="156.1545">
			<stop  offset="0" style="stop-color:#EAD18C;stop-opacity:0"/>
			<stop  offset="1" style="stop-color:#524F63;stop-opacity:0.7"/>
		</linearGradient>
		<path class="st19" d="M185.1,141.5l-13.4,24.3l4.2,4.9c0,0,1.7,0.3,3.3-0.2l0.7-0.8l-2.1-3.2l7.6-17.9L185.1,141.5z"/>
		<path class="st20" d="M195.8,168.5c-0.5-0.2-4.7-2.6-7.8-2.6c-3.1,0-6.9,3.3-6.9,3.3s-0.5,1.7,1.6,1.4c2.1-0.3,3.5-0.5,3.5-0.5
			s-3.6,1.9-1.2,2.3s12.7,0,12.7,0L195.8,168.5z"/>
		<path class="st21" d="M195.1,175.6h-40v-2.9h40c0.8,0,1.5,0.7,1.5,1.5l0,0C196.5,174.9,195.9,175.6,195.1,175.6z"/>
		<path class="st22" d="M184.1,175.6h-38.6c-1.7,0-3.2-1.1-3.6-2.8l-6.8-25.7c-0.6-2.4,1.2-4.7,3.6-4.7h33.7c1.7,0,3.2,1.1,3.6,2.8
			L184.1,175.6z"/>
		<linearGradient id="SVGID_9_" gradientUnits="userSpaceOnUse" x1="134.8693" y1="158.5562" x2="166.5617" y2="158.5562">
			<stop  offset="0" style="stop-color:#484EC2;stop-opacity:0"/>
			<stop  offset="1" style="stop-color:#444BCC;stop-opacity:0.5018"/>
		</linearGradient>
		<path class="st23" d="M138.6,142.4c-2.5,0-4.3,2.3-3.6,4.7l6.8,25.7c0.2,0.8,0.7,1.5,1.3,2l23.5-32.4H138.6z"/>
		<path class="st2" d="M161.3,161.3c0.4,1.7-0.6,3-2.4,3c-1.7,0-3.5-1.4-3.9-3c-0.4-1.7,0.6-3,2.4-3
			C159.2,158.2,160.9,159.6,161.3,161.3z"/>
		<path class="st20" d="M196.3,123.5c0.3,0.7,2.8,10.2,2.8,10.2s0.9,1.6,2.9,1.4c2.1-0.2,2.9-3.1,2.9-3.1l-3.6-12L196.3,123.5z"/>
		<path class="st20" d="M209.2,117.6c0,6.6-7,13.8-13.5,13.8c-6.6,0-10.2-7.3-10.2-13.8s5.3-11.9,11.9-11.9
			C203.9,105.7,209.2,111,209.2,117.6z"/>
		<path class="st2" d="M198.3,130.7l-1.4,3.6l0.9,3.8l2.8-4l2.8,4.5l3.1-5.5l-2.1-3.6c0,0-1,2.4-3.3,2.9
			C198.8,133,198.3,130.7,198.3,130.7z"/>
		<polygon class="st22" points="200.5,134.2 198.4,136.8 199.5,138.4 197.9,141.7 198.3,163.3 200.3,167.7 203.3,162.8 202.6,142.2 
			201,138.2 202.2,136.5 		"/>
		<linearGradient id="SVGID_10_" gradientUnits="userSpaceOnUse" x1="179.0091" y1="173.6401" x2="246.5614" y2="146.9203">
			<stop  offset="0" style="stop-color:#EAD18C;stop-opacity:0"/>
			<stop  offset="1" style="stop-color:#524F63;stop-opacity:0.7"/>
		</linearGradient>
		<polygon class="st24" points="215.1,140.2 215.9,178.2 198,178 		"/>
		<path class="st18" d="M213.6,130.2l1.6,35.8l-16.6,3.4l2.3,4.3l23.7,1.4l-3.2-35.4c-0.3-3.7-2.5-6.9-5.8-8.5L213.6,130.2z"/>
		<polygon class="st2" points="195.8,168.5 199.1,168.9 202.1,173.7 196.5,174.1 		"/>
		<path class="st7" d="M179.3,184.8l-29.3,7.5l14.9,58.6l5.1-2.6l-4.4-50.4l26.2-8.2l-15.2,8.7l0.3,47.8h4.6
			c0,0,12.9-46.8,14.1-46.8c1.3,0,22.9-14.4,22.9-14.4L179.3,184.8z"/>
		<polygon class="st7" points="149.2,255.4 169.5,254 170.1,247.6 148.3,252.5 		"/>
		<polygon class="st7" points="165.7,259 169.8,259.5 181.4,255.2 181.6,246.2 177,246.2 175,251.8 168.7,255.6 		"/>
		<path class="st25" d="M185,113.4c-0.5,0.9-0.9,1.9-0.6,2.8c0.4,1.1,1.8,1.5,3,1.6c2,0.2,4.1,0.3,6.1,0.3c1.4,0,2.7-0.1,4.1-0.4
			c2.2-0.5,4.1-1.6,6.1-2.7c1.4-0.8,2.9-1.8,3.2-3.3c0.2-1.6-0.9-3-1.9-4.1c-0.6-0.7-1.2-1.3-1.9-1.9c-1.8-1.3-4.1-1.6-6.3-1.3
			C191.4,105.2,187.5,108.8,185,113.4z"/>
		<path class="st25" d="M204.4,117.2c0.2-0.6,1-1,1.6-0.7c0.6,0.2,1,0.8,1.1,1.5c0.1,0.6-0.1,1.3-0.4,1.9c-0.1,0.3-0.3,0.6-0.4,0.9
			c-0.1,0.3-0.1,0.5-0.1,0.8c0,1.2,0,2.3,0.1,3.5c1-0.4,1.5-1.3,2-2.2c1.1-2,2.2-4.1,2-6.4c-0.1-1.9-1-3.6-2-5.2
			c-0.2-0.3-0.4-0.7-0.7-0.9c-0.5-0.3-1.1-0.3-1.6-0.2c-0.5,0.2-1,0.5-1.5,0.8c-0.5,0.3-0.9,0.6-1.4,0.9c-0.4,0.3-0.9,0.6-1.2,1.1
			c-0.4,0.9,0.2,1.3,0.7,1.8C203,115,202.5,120.8,204.4,117.2z"/>
		<g>
			<path class="st5" d="M187,127.2c-1.6,0-3.3-1.3-3.9-3c-0.3-0.9-0.2-1.7,0.2-2.3c0.4-0.5,1-0.8,1.7-0.8c1.6,0,3.3,1.3,3.9,3
				c0.3,0.9,0.2,1.7-0.2,2.3C188.3,126.9,187.7,127.2,187,127.2z M184.9,121.5c-0.6,0-1.1,0.2-1.3,0.6c-0.3,0.5-0.4,1.2-0.1,1.9
				c0.5,1.5,2.1,2.7,3.5,2.7c0.6,0,1.1-0.2,1.3-0.6c0.3-0.5,0.4-1.2,0.1-1.9C187.9,122.7,186.3,121.5,184.9,121.5z"/>
		</g>
		<g>
			<path class="st5" d="M194.8,127.2c-1.6,0-3.3-1.3-3.9-3c-0.3-0.9-0.2-1.7,0.2-2.3c0.4-0.5,1-0.8,1.7-0.8c1.6,0,3.3,1.3,3.9,3
				c0.3,0.9,0.2,1.7-0.2,2.3C196.2,126.9,195.6,127.2,194.8,127.2z M192.8,121.5c-0.6,0-1.1,0.2-1.3,0.6c-0.3,0.5-0.4,1.2-0.1,1.9
				c0.5,1.5,2.1,2.7,3.5,2.7c0.6,0,1.1-0.2,1.3-0.6c0.3-0.5,0.4-1.2,0.1-1.9C195.8,122.7,194.2,121.5,192.8,121.5z"/>
		</g>
	</g>
	<g>
		<path class="st7" d="M238.3,99c0.1,1.9,1.1,3.7,0.6,5.5c-0.4,1.5-1.8,2.5-2.2,4c-0.5,1.7,0.4,3.4,1.2,4.9c0.7,1.3,1.7,2.7,3.1,2.7
			c0.6,0,1.2-0.3,1.8-0.6c1.4-0.7,2.8-1.4,4.2-2.1c0.6-0.3,1.2-0.6,1.7-1.1c0.7-0.7,1.1-1.7,1.4-2.6c1.1-2.9,2-6,1.8-9.1
			c-0.2-3.1-1.9-6.3-4.9-7.5c-1.6-0.6-6.4-1.2-7.8,0.2c-0.6,0.6-0.3,1.3-0.4,2.1C238.7,96.7,238.2,97.8,238.3,99z"/>
		<path class="st16" d="M241.7,108.3l-1.4,0.4c-5.9,3.8-9.3,9.2-10.1,16.1l-3,48.6l4.5-2L241.7,108.3z"/>
		<path class="st22" d="M271.4,108l-24-1c-2-0.1-5.6,0.6-7.6,1.2l-3.1,1.4l5.4,25.7h0c-4.9,8.3-7.4,17.9-7.1,27.5L238,198h26.9
			l3.4-37c0.3-7.6-1.1-15.1-4.1-22.1l-1.5-3.4L271.4,108z"/>
		<linearGradient id="SVGID_11_" gradientUnits="userSpaceOnUse" x1="245.9988" y1="130.8634" x2="258.6563" y2="97.3824">
			<stop  offset="0" style="stop-color:#484EC2;stop-opacity:0"/>
			<stop  offset="1" style="stop-color:#444BCC;stop-opacity:0.5018"/>
		</linearGradient>
		<path class="st26" d="M242.6,118.3c0.7,1.2,1.6,2.3,2.8,3.1c1.6,0.9,3.6,1.1,5.4,0.7c1.8-0.4,3.5-1.2,5.1-2.2
			c2.9-1.7,5.6-3.7,7.8-6.3c1.5-1.8,2.6-4.5,1.4-6.5c-0.8-1.3-2.3-1.9-3.8-2.3C253.5,102.6,236.6,107.1,242.6,118.3z"/>
		<path class="st16" d="M261.1,95.4c0,6.4-6.8,15.1-13.2,15.1c-6.4,0-9.9-8.7-9.9-15.1c0-6.4,5.2-11.6,11.6-11.6
			C255.9,83.9,261.1,89,261.1,95.4z"/>
		<path class="st16" d="M271.4,108l16.7,21.7c1.7,2.3,1.1,5.6-1.3,7.1l-19.5,11.9l-2.4-3.8l13.4-10.7c1-0.8,1.2-2.2,0.5-3.2
			l-10.1-14.4L271.4,108z"/>
		<path class="st16" d="M218,175.6h10.5c1.7,0,3.1-1.3,3.2-3l0.1-1.2L218,175.6z"/>
		<path class="st16" d="M246.4,103.2c-0.2-0.4,2.8,7.6,2.8,7.6s0.7,3.3,3.4,2.5c2.8-0.8,1.1-12.5,0.7-12.6S246.7,103.9,246.4,103.2z
			"/>
		<path class="st7" d="M253.3,93.9c-5.4,3.3-11,6.6-17.2,7c1.4-1.7,1.1-4.2,1.4-6.5c0.4-3.6,2.6-7.1,5.7-9c3.1-1.9,7.1-2.4,10.6-1.2
			c1.3,0.5,2.5,1.2,3.3,2.3C259.3,89.8,255.7,92.4,253.3,93.9z"/>
		<path class="st7" d="M252.8,106.8c0.4,1.7,1.4,3.2,1.6,5c0.1,1.1-0.1,2.3-0.4,3.4c-0.3,1.3-0.6,2.7-0.9,4c1.9-0.4,3.6-1.3,5-2.5
			c5.4-4.3,8.1-11.6,6.9-18.3c-0.3-1.9-1-3.8-1.7-5.6c-0.5-1.4-1.1-2.8-2.1-4c-0.9-1.2-2.3-2.1-3.8-2.1c-1.8,0-3.4,1.1-4.5,2.6
			c-0.7,1-1.2,2.2-1.2,3.4c0,1.2,0.5,5.4,1.6,5.9c1.4-0.9,3.6-0.1,4.1,1.5c0.9,2.5-1.3,3-2.8,3.8
			C252.8,104.8,252.4,104.8,252.8,106.8z"/>
		<path class="st7" d="M265.1,99.2c1.1,0.9,2.4,1.5,3.4,2.5s1.7,2.5,1.1,3.9c-0.3,0.8-1.1,1.4-1.7,2c-0.6,0.6-1.2,1.4-1.1,2.3
			c0.1,0.6,0.4,1.1,0.8,1.6c0.9,1.3,1.6,2.8,1.3,4.3c-0.2,1.2-1.1,2.3-2.1,2.9c-1.1,0.6-2.4,0.8-3.6,0.6c-0.7-0.1-1.4-0.3-2.1-0.3
			c-1.9,0.1-3.4,1.8-5.3,2c-1.1,0.1-2.2-0.3-2.9-1.1c-0.7-0.8-1.1-1.9-0.9-3c0.3-1.7,1.8-3,3.2-4c1.4-1.1,2.9-2.4,3.1-4.1
			c0.2-1.3-0.5-2.6-0.3-3.9c0.2-1.9,2-3.3,2.4-5.1c0.2-1-0.1-3.7,1.5-3.7C263,96.2,264.1,98.5,265.1,99.2z"/>
		<path class="st7" d="M251.3,97.1c-0.3,0.6-0.8,1.2-1.2,1.8c-0.6,0.8-1.2,1.6-1.8,2.4c0.4-1.6,0.6-3.2,0.4-4.8c0-0.2-0.1-0.5,0-0.7
			c0.1-0.5,0.5-0.8,0.9-1c0.6-0.4,2-1.6,2.6-0.8C252.6,94.6,251.6,96.6,251.3,97.1z"/>
	</g>
	<g>
		<polygon class="st7" points="265.4,141.4 264.3,142.4 268.1,146.8 		"/>
		<path class="st27" d="M346.6,178.3l-2.5-48.1c0,0-12.4-2.6-16-2.6c-2,0-5.4,1-8.1,1.8c-2.5,0.8-4.6,2.6-5.9,5l-20.3,38.9l12.5,1.2
			l4.2-4.7l-2.1-3.2l7.6-17.9l-0.1,30.3L346.6,178.3z"/>
		<path class="st16" d="M345,116.3c0,6.6-5.3,11.9-11.9,11.9c-3.6,0-6.2-3.8-8.3-6.3c-1.8-2.1-3.1-2.7-3.1-5.6
			c0-6.6,4.9-11.8,11.5-11.8S345,109.7,345,116.3z"/>
		<polygon class="st7" points="314.6,175.6 273.1,175.6 264.3,142.4 305.8,142.4 		"/>
		<polygon class="st2" points="314.6,175.6 274.4,175.6 265.4,141.4 306,142.4 		"/>
		<rect x="273.4" y="173.2" class="st7" width="28.5" height="2.4"/>
		<linearGradient id="SVGID_12_" gradientUnits="userSpaceOnUse" x1="315.7709" y1="157.8008" x2="345.7985" y2="157.8008">
			<stop  offset="0" style="stop-color:#B6567A;stop-opacity:0"/>
			<stop  offset="1" style="stop-color:#C45771"/>
		</linearGradient>
		<path class="st28" d="M329.9,170l15.9-7.6l-1.3-25.6l-2.8,0.2l-20.6,21.6c0,0-3.1,8-5.3,14.4l0,5.9l21.4-0.4L329.9,170z"/>
		<polygon class="st22" points="303.5,167.9 281.4,167.9 276.4,149.1 298.8,149.6 		"/>
		<path class="st17" d="M309.8,184.8l-29.3,7.5l14.9,58.6l5.1-2.6l-4.4-50.4l26.2-8.2l-15.2,8.7l0.3,47.8h4.6
			c0,0,12.9-46.8,14.1-46.8c1.3,0,22.9-14.4,22.9-14.4L309.8,184.8z"/>
		<polygon class="st7" points="279.7,255.4 300,254 300.6,247.6 278.8,252.5 		"/>
		<path class="st5" d="M325.6,132.6c0.2,2.3,0.6,4.6,1.3,6.8c0.1,0.5,0.3,1,0.7,1.3c0.8,0.6,2,0.1,2.9-0.5c1.5-1,2.9-2.2,4-3.7
			c0.7-0.9,1.4-1.9,1.6-3.1c0.2-1.1,0-2.5-0.9-3.2c-1.4-1.2-4.3-1.1-6-1.2C326.8,129,325.4,130,325.6,132.6z"/>
		<polygon class="st7" points="296.2,259 300.3,259.5 311.9,255.2 312.1,246.2 307.5,246.2 305.5,251.8 299.2,255.6 		"/>
		<path class="st16" d="M328.6,122.3l-0.9,10c0,0,0.7,4.2,3.2,3.5c2.5-0.7,2.8-2.6,2.8-2.6l1.1-12L328.6,122.3z"/>
		<path class="st25" d="M337.5,112.4c1.9-0.1,3.8-0.2,5.5-1c1.7-0.8,3.1-2.5,3.1-4.3c0-1.9-2-3.6-3.7-3.1c-0.4,0.1-0.8,0.4-1.2,0.5
			c-0.6,0.2-1.3,0-2-0.2c-4.8-1.4-10.2-2.4-14.7-0.1c-0.8,0.4-1.6,1-2.1,1.8c-0.3,0.6-0.4,1.4-0.5,2.1c-0.2,1.9-0.3,3.9-0.4,5.8
			c1.3-0.7,2.6-1.5,3.9-2.1c1.3-0.6,2.2,0,3.6,0.3C331.8,112.5,334.7,112.5,337.5,112.4z"/>
		<path class="st29" d="M326.3,109.2c-1.2-0.2-2.5,0.2-3.5,1c-0.9,1.5-1.5,3.2-1.6,5c0.1,0.6,0.3,1.3,0.2,1.9c0,0.4,0.2,1,0.4,1.7
			c0.7,1,1.8,1.7,2.9,3c0,0.1,0.1,0.1,0.1,0.2c1.2-2,3-6.5,3.4-7c0.5-0.7,2.3-2.8,2-3.7C329.9,110.4,327.2,109.4,326.3,109.2z"/>
		<path class="st16" d="M326.3,114.1c-0.1-0.1-0.2-0.3-0.3-0.4c-0.2-0.1-0.4-0.1-0.6-0.1c-0.8,0-1.7,0.1-2.2,0.7
			c-0.2,0.3-0.3,0.6-0.4,0.9c-0.2,0.8-0.2,1.6-0.1,2.4c0.1,1.2,0.7,2.6,1.9,2.8c0.7,0.2,1.5-0.1,2-0.6
			C328.6,118.1,327.6,115.9,326.3,114.1z"/>
		<path class="st25" d="M341.4,120.3c0.6-0.1,1.2-0.3,1.9-0.1c0.6,0.1,1.2,0.6,1.2,1.3c0,0.3-0.1,0.6-0.1,0.9
			c-0.2,0.9,0.2,1.9,0.5,2.8c0.7,1.9,1.2,4.3,0,6c-1.1,1.6-3.3,2-5.2,2c-5.8-0.3-11.2-4.4-13-9.9c-0.6-1.9-0.8-4-0.2-5.9
			c0.2-0.6,0.7-1.3,1.3-1c0.3,2.2,1.8,4.3,3.8,5.3C335.1,123.2,338,121.1,341.4,120.3z"/>
		<g>
			<path class="st7" d="M266.7,142.4l38.6,0.9l8,31.2h-38.2L266.7,142.4 M265.4,141.4l9,34.2h40.2l-8.5-33.2L265.4,141.4
				L265.4,141.4z"/>
		</g>
		<path class="st2" d="M330.5,175.6h-57.1v-2.4h57.1c0.7,0,1.2,0.5,1.2,1.2l0,0C331.7,175,331.2,175.6,330.5,175.6z"/>
		<path class="st21" d="M301.6,175.6h-28.2v-2.4h28.2c0.7,0,1.2,0.5,1.2,1.2l0,0C302.8,175,302.3,175.6,301.6,175.6z"/>
		<path class="st27" d="M344.1,130.2l-10.4,27.5l-26.5,3.5l1,5.3l33.9-1.1l9.2-24.1c0.5-1.2,0.5-2.5,0.2-3.7c-0.8-2.7-2.8-5-5.4-6.3
			L344.1,130.2z"/>
		<path class="st16" d="M307.3,161.2l-14.3-7.6c0,0-0.8,1.1,0.4,2.1c1.1,0.9,4.7,3.6,4.7,3.6v2.1c1.2,3.9,4.9,5.7,8.9,5.3l1.3-0.1
			L307.3,161.2z"/>
	</g>
	<g>
		<path class="st30" d="M365.5,175.5h-17.1c0,0-0.5-1.2,2.2-1.7c2.7-0.5,10.4-0.7,10.4-0.7l2-2.2l2.7,0.7L365.5,175.5z"/>
		<path class="st31" d="M379.5,123.4l-18.2,49.1l4.5,1.1l27.9-47.8c0,0-0.8-3.1-5.5-6.1C383.4,116.7,379.5,123.4,379.5,123.4z"/>
		<path class="st20" d="M380,100.9c-3.5-5.5-10.9-7.1-16.4-3.6c-3.1,2-5.1,5.5-5.4,9.2c-0.2,1.8-0.2,2.5,0.6,4.2
			c0.8,1.7,2.8,4.1,1.6,7.5c-0.3,0.8,0,2,0.9,2.4c0.9,0.4,1.8-0.6,2.7-0.7c1.7-0.1,5.1,2.5,6.3,3.6c0.5,0.4,1.1,0.9,1.8,1
			c0.6,0.1,1.2-0.1,1.7-0.4c2.6-1.4,4.2-4.1,5.5-6.7c1.2-2.5,2.3-5.1,2.5-7.8C382.2,106.7,381.7,103.6,380,100.9z"/>
		<path class="st20" d="M379.5,123.9c0.5,0.5,1.1,1.1,1.8,1c0.3,0,0.6-0.2,0.9-0.4c0.7-0.5,1.4-1.1,2-1.7c0.4-0.4,0.7-0.8,0.8-1.4
			c0-0.3-0.1-0.6-0.2-0.9c-1.2-2.7-3.7-4.8-4.5-7.6c-0.4-1.3-0.4-2.7-0.9-3.9s-1.5-2.5-2.8-2.5c-0.8,0-1.5,0.4-2.2,0.8
			c-2.1,1.5-3.3,4.2-3.1,6.8c0.2,2.3,1.5,4.5,3.5,5.8C376.6,121,377.9,122.3,379.5,123.9z"/>
		<path class="st25" d="M363.5,97.3c-2.2,1.4-3.8,3.6-4.7,6.1c2.3,1.1,8.1-1.4,9.7-2.3c-0.2,4,2,8,5.4,10c2.1,1.2,4.6,1.8,6.6,3
			c0.5-1.5,1-3,1.1-4.5c0.6-2.9,0.1-6-1.7-8.7C376.4,95.4,369.1,93.8,363.5,97.3z"/>
		<path class="st20" d="M369.9,109.4c-0.7-1.2,0-2.9,1.3-3.6c1.3-0.6,2.9-0.2,3.9,0.7c1,1,1.4,2.5,1.3,3.9c-0.1,1.8-1.4,3.7-3.2,3.6
			c-1,0-1.8-0.7-2.4-1.5c-0.5-0.8-0.8-1.8-1.1-2.7"/>
		<polygon class="st2" points="386.1,117.8 382.7,113.8 377.3,123.7 379.3,129.9 386.4,121.9 		"/>
		<path class="st17" d="M389.9,118.3l31.8,35.4l-19.5,17.1l-23.9-36.7c-2.4-3.5,1.3-11.3,3.7-14.8l0,0
			C383.9,116.8,387.5,116.3,389.9,118.3z"/>
		<polygon class="st32" points="420.6,262.4 412.1,214.1 402.3,170.8 421.7,153.7 420.6,213.6 425.4,260 		"/>
		<polygon class="st7" points="421.7,153.7 405.7,263.9 400.8,263.1 402.3,170.8 		"/>
		<polygon class="st7" points="391.9,267.4 404.8,266.9 405.5,262.9 401.8,262.4 389.4,265.9 389.7,267.6 		"/>
		<polygon class="st32" points="425.4,260 425.8,263.7 410.9,264.6 410.8,263.4 423.9,259.2 		"/>
		<path class="st20" d="M359.1,175.5h-17.1c0,0-0.5-1.2,2.2-1.7c2.7-0.5,11-0.7,11-0.7l1.4-2.3l3.7,1.4L359.1,175.5z"/>
		<path class="st17" d="M383.4,121.5l-12.9,24.4L354.9,173l5,0.2l13.8-19.1l18.3-23.4c2.4-1.9,3.1-5.2,1.7-7.9l0,0
			C391.9,118.8,386.4,118.1,383.4,121.5z"/>
		<linearGradient id="SVGID_13_" gradientUnits="userSpaceOnUse" x1="385.6591" y1="156.1336" x2="389.9095" y2="129.9674">
			<stop  offset="0" style="stop-color:#484EC2;stop-opacity:0"/>
			<stop  offset="1" style="stop-color:#444BCC;stop-opacity:0.5018"/>
		</linearGradient>
		<path class="st33" d="M390.8,153.2c-0.4-5-2.1-20.4-2.1-20.4l-5.3,9L390.8,153.2z"/>
	</g>
	<g>
		<path class="st16" d="M249.7,193.8c-0.9,0-7.8,2.9-7.8,2.9l5.4,44.7c-1.2,0.6-2.9,0.9-4.1,1.3c-2.7,0.8-5.1,1-7.4,2.6
			c-0.2,0.1-0.2,0.8-0.3,1c-0.1,0.5,0.6,0.7,1.1,0.8c3.2,0.1,6.5,0.2,9.7,0c2.1-0.1,3.7-1.1,5.6-2.1c1.1-0.5,1.5-2.2,1.4-2.9
			C253.3,241.9,250.5,193.8,249.7,193.8z"/>
		<path class="st7" d="M243.7,245.5c3.1-0.3,7.3-1.7,9.7-3.6c0.2,2.1-0.4,4-4.3,5c-4.5,1.2-9.4,2.4-13.9,1.1c-0.5-0.1-1-0.4-1-0.9
			c0-0.2,0.1-0.4,0.3-0.6c0.8-1.1,3.2-3,4.6-2.5c0.7,0.2,1.3,1.1,2.1,1.3C242,245.5,242.9,245.6,243.7,245.5z"/>
	</g>
	<g>
		<path class="st16" d="M249.7,247.1"/>
		<path class="st16" d="M266.4,242.2c0-0.2-2.8-48.3-3.6-48.3c-0.9,0-7.8,2.9-7.8,2.9l5.4,44.7c0.9,2.4,1.7,4.7,3,6.9
			c1.3,2.2,3.1,4.2,5.4,5.4c0.2,0.1,0.6,0.2,0.8,0.1c0.1-0.1,0.2-0.3,0.2-0.4c0.4-1.3-0.2-2.7-0.7-4
			C268.1,247.1,266.6,244.7,266.4,242.2z"/>
		<path class="st7" d="M261.8,248.1c1.4,2.6,3.1,5.2,5.8,6.4c0.5,0.2,1,0.4,1.4,0.3c0.7-0.1,1.1-0.7,1.3-1.4c0.2-0.7,0.1-1.3-0.1-2
			c-0.3-1-0.7-1.9-1.2-2.8c-0.1-0.2-0.3-0.4-0.5-0.5c-0.3,0-0.6,0.2-0.8,0.4c-0.7,0.5-1.7,0.4-2.4,0c-0.7-0.4-1.3-1.1-1.8-1.8
			c-1-1.4-1.9-3.9-3.3-4.7C259.7,244,260.8,246.3,261.8,248.1z"/>
	</g>
	<g>
		<circle class="st7" cx="185.4" cy="255.3" r="3.3"/>
		<circle class="st7" cx="225.4" cy="255.3" r="3.3"/>
		<circle class="st7" cx="204.6" cy="255.3" r="3.3"/>
		<path class="st34" d="M185.4,255.3v-1.7c0-3.8,3.1-7,7-7h13.1v-33.9"/>
		<path class="st34" d="M225.1,255.3v-1.7c0-3.8-3.1-7-7-7H205v-33.9"/>
		<line class="st34" x1="204.6" y1="255.3" x2="204.6" y2="246.6"/>
		<rect x="201" y="229.5" class="st7" width="7.4" height="16.8"/>
		<rect x="202.2" y="213" class="st7" width="4.7" height="19.1"/>
	</g>
	<g>
		<circle class="st7" cx="313" cy="255.3" r="3.3"/>
		<circle class="st7" cx="353" cy="255.3" r="3.3"/>
		<circle class="st7" cx="332.2" cy="255.3" r="3.3"/>
		<path class="st34" d="M313,255.3v-1.7c0-3.8,3.1-7,7-7H333v-33.9"/>
		<path class="st34" d="M352.6,255.3v-1.7c0-3.8-3.1-7-7-7h-13.1v-33.9"/>
		<line class="st34" x1="332.2" y1="255.3" x2="332.2" y2="246.6"/>
		<rect x="328.6" y="229.5" class="st7" width="7.4" height="16.8"/>
		<rect x="329.8" y="213" class="st7" width="4.7" height="19.1"/>
	</g>
	<g>
		<rect x="131.9" y="179.1" class="st35" width="228.3" height="36.2"/>
		<rect x="132.2" y="179.4" class="st7" width="3.8" height="92.2"/>
		<rect x="359" y="179.4" class="st7" width="3.8" height="92.2"/>
		<linearGradient id="SVGID_14_" gradientUnits="userSpaceOnUse" x1="245.99" y1="195.5235" x2="262.1484" y2="120.946">
			<stop  offset="0" style="stop-color:#676475;stop-opacity:0"/>
			<stop  offset="1" style="stop-color:#524F63;stop-opacity:0.7"/>
		</linearGradient>
		<polygon class="st36" points="362.8,200.5 131.6,179.4 362.8,179.4 		"/>
		<rect x="123" y="175.6" class="st14" width="248.3" height="6.1"/>
	</g>
</g>
<g id="DESIGNED_BY_FREEPIK">
</g>
</svg>
