<?xml version="1.0" encoding="utf-8"?>
<!-- Generator: Adobe Illustrator 19.0.0, SVG Export Plug-In . SVG Version: 6.00 Build 0)  -->
<svg version="1.1" id="Layer_1" xmlns="http://www.w3.org/2000/svg" xmlns:xlink="http://www.w3.org/1999/xlink" x="0px" y="0px"
	 viewBox="-49 141 512 512" style="enable-background:new -49 141 512 512;" xml:space="preserve">
<style type="text/css">
	.st0{fill:#b5b0ff;}
	.st1{opacity:0.3;fill:#b5b0ff;}
</style>
<g>
	<g>
		<path d="M446.3,150.5H236H25.7c-3.8,0-6.8,3-6.8,6.8v87v326.3c0,3.8,3,6.8,6.8,6.8H236h210.3c3.8,0,6.8-3,6.8-6.8V244.3v-87
			C453.1,153.6,450.1,150.5,446.3,150.5z M439.5,563.9H236H32.5V251.1H236h203.5L439.5,563.9L439.5,563.9z M439.5,237.5H236H32.5
			v-73.4H236h203.5L439.5,237.5L439.5,237.5z"/>
	</g>
</g>
<g>
	<g>
		<path d="M371,189.5h-79.8c-3.8,0-6.8,3-6.8,6.8c0,3.8,3,6.8,6.8,6.8H371c3.8,0,6.8-3,6.8-6.8C377.8,192.6,374.8,189.5,371,189.5z"
			/>
	</g>
</g>
<g>
	<g>
		<path class="st0" d="M407.3,189.5h-14.5c-3.8,0-6.8,3-6.8,6.8c0,3.8,3,6.8,6.8,6.8h14.5c3.8,0,6.8-3,6.8-6.8
			C414.1,192.6,411.1,189.5,407.3,189.5z"/>
	</g>
</g>
<g>
	<g>
		<path d="M233.3,182.3c-3.3,0-6.5,0.5-9.5,1.6c0,0,0,0,0,0c-11.4,4-19,14.8-19,26.9c0,12.1,7.6,22.9,19,26.9c0,0,0,0,0,0
			c3.1,1.1,6.3,1.6,9.5,1.6c15.7,0,28.6-12.8,28.6-28.6S249,182.3,233.3,182.3z M233.3,225.8c-1.7,0-3.4-0.3-5-0.9c0,0,0,0,0,0
			c-6-2.1-10-7.8-10-14.1s4-12,10-14.1c0,0,0,0,0,0c1.6-0.6,3.3-0.9,5-0.9c8.2,0,15,6.7,15,15C248.2,219.1,241.5,225.8,233.3,225.8z
			"/>
	</g>
</g>
<g>
	<g>
		<path class="st0" d="M153.5,182.3c-15.7,0-28.6,12.8-28.6,28.6s12.8,28.6,28.6,28.6s28.6-12.8,28.6-28.6S169.2,182.3,153.5,182.3z
			 M153.5,225.8c-8.2,0-15-6.7-15-15c0-8.2,6.7-15,15-15s15,6.7,15,15S161.7,225.8,153.5,225.8z"/>
	</g>
</g>
<g>
	<g>
		<path d="M73.7,182.3c-15.7,0-28.6,12.8-28.6,28.6s12.8,28.6,28.6,28.6s28.6-12.8,28.6-28.6S89.5,182.3,73.7,182.3z M73.7,225.8
			c-8.2,0-15-6.7-15-15c0-8.2,6.7-15,15-15s15,6.7,15,15S82,225.8,73.7,225.8z"/>
	</g>
</g>
<g>
	<g>
		<path class="st0" d="M353.2,290.3c-2.7-2.7-7-2.7-9.6,0l-16.3,16.3c-2.7,2.7-2.7,7,0,9.6c1.3,1.3,3.1,2,4.8,2s3.5-0.7,4.8-2
			l16.3-16.3C355.9,297.3,355.9,293,353.2,290.3z"/>
	</g>
</g>
<circle class="st1" cx="112.9" cy="490.4" r="159.5"/>
<g>
	<g>
		<path d="M426.3,328.8L354.6,257c-2.7-2.7-7-2.7-9.6,0l-45.8,45.8H236H80.1c-3.8,0-6.8,3-6.8,6.8c0,3.8,3,6.8,6.8,6.8H236h49.6
			l-54.4,54.4l-48,48H80.1c-3.8,0-6.8,3-6.8,6.8c0,3.8,3,6.8,6.8,6.8h89.5l-14.7,14.7c0,0,0,0,0,0l0,0c0,0,0,0-0.1,0.1
			c-0.1,0.1-0.3,0.3-0.4,0.4c0,0.1-0.1,0.1-0.1,0.2c-0.1,0.1-0.2,0.2-0.3,0.4c-0.1,0.1-0.1,0.2-0.2,0.3c-0.1,0.1-0.1,0.2-0.2,0.3
			c-0.1,0.1-0.1,0.2-0.2,0.3c0,0.1-0.1,0.2-0.1,0.3c-0.1,0.1-0.1,0.3-0.2,0.4c0,0.1-0.1,0.1-0.1,0.2c-0.1,0.2-0.1,0.4-0.1,0.5
			c0,0,0,0.1,0,0.1l0,0c0,0,0,0,0,0l-16.8,84.2H80.1c-3.8,0-6.8,3-6.8,6.8c0,3.8,3,6.8,6.8,6.8h61.6c0,0,0,0,0,0c0,0,0,0,0,0
			c0,0,0,0,0,0c0,0,0,0,0,0h5.3c1.8,0,3.5-0.7,4.7-1.9l29.7-5.9c0,0,0,0,0,0l0,0l51.2-10.2c0,0,0,0,0,0l0,0c0,0,0.1,0,0.1,0
			c0.2,0,0.4-0.1,0.5-0.1c0.1,0,0.1-0.1,0.2-0.1c0.1,0,0.3-0.1,0.4-0.1c0.1,0,0.2-0.1,0.3-0.1c0.1-0.1,0.2-0.1,0.3-0.2
			c0.1-0.1,0.2-0.1,0.3-0.2c0.1,0,0.2-0.1,0.2-0.2c0.1-0.1,0.2-0.2,0.4-0.3c0.1,0,0.1-0.1,0.2-0.1c0.1-0.1,0.3-0.3,0.4-0.4
			c0,0,0,0,0.1-0.1l0,0c0,0,0,0,0,0l4.5-4.5l93.5-93.5l40.7-40.7l51.3-51.3C429,335.8,429,331.5,426.3,328.8z M190.8,430.4
			C190.8,430.4,190.8,430.4,190.8,430.4l50-50l57.7-57.7l13.5,13.5L182.7,465.4l-13.5-13.5L190.8,430.4z M321.6,345.8l16,16l-59,59
			l-47.4,47.4L208.4,491l-16-16L321.6,345.8z M150.4,533l3.2-16l12.8,12.8L150.4,533z M182.4,526.6L156.8,501l7.1-35.3l14.1,14.1
			l25.6,25.6l14.1,14.1L182.4,526.6z M324.7,420.8l-93.3,93.3L218,500.6l22.8-22.8l47.4-47.4l59-59l13.5,13.5L324.7,420.8z
			 M370.3,375.3L352,357l-25.6-25.6l-18.3-18.3l41.7-41.7l62.2,62.2L370.3,375.3z"/>
	</g>
</g>
<image style="overflow:visible;" width="30" height="30" xlink:href="7B938DC7.png"  transform="matrix(1 0 0 1 153 500)">
</image>
</svg>
